solid OpenSCAD_Model
  facet normal -1 0 0
    outer loop
      vertex -10 -35.7626 -20.3085
      vertex -10 -14 -35
      vertex -10 -14 -42.0711
    endloop
  endfacet
  facet normal -1 0 0
    outer loop
      vertex -10 -14 -35
      vertex -10 -31.6708 -17.8953
      vertex -10 -26.867 -15.062
    endloop
  endfacet
  facet normal -1 0 0
    outer loop
      vertex -10 -14 -35
      vertex -10 -35.7626 -20.3085
      vertex -10 -31.6708 -17.8953
    endloop
  endfacet
  facet normal -1 0 0
    outer loop
      vertex -10 -6.92893 -35
      vertex -10 -14 -35
      vertex -10 -26.867 -15.062
    endloop
  endfacet
  facet normal 1 0 0
    outer loop
      vertex 10 -26.867 -15.062
      vertex 10 -14 -35
      vertex 10 -6.92893 -35
    endloop
  endfacet
  facet normal 1 -0 0
    outer loop
      vertex 10 -31.6708 -17.8953
      vertex 10 -14 -35
      vertex 10 -26.867 -15.062
    endloop
  endfacet
  facet normal 1 -0 0
    outer loop
      vertex 10 -35.7626 -20.3085
      vertex 10 -14 -35
      vertex 10 -31.6708 -17.8953
    endloop
  endfacet
  facet normal 1 0 0
    outer loop
      vertex 10 -14 -35
      vertex 10 -35.7626 -20.3085
      vertex 10 -14 -42.0711
    endloop
  endfacet
  facet normal -1.27689e-15 -0.707107 -0.707107
    outer loop
      vertex -10 -14 -42.0711
      vertex -7.17474 -34.9988 -21.0723
      vertex -8.64752 -35.1941 -20.877
    endloop
  endfacet
  facet normal -3.4402e-16 -0.707107 -0.707107
    outer loop
      vertex -7.17474 -34.9988 -21.0723
      vertex -10 -14 -42.0711
      vertex 0 -34.0474 -22.0237
    endloop
  endfacet
  facet normal 2.21919e-15 -0.707107 -0.707107
    outer loop
      vertex -9.79188 -35.6751 -20.396
      vertex -10 -14 -42.0711
      vertex -8.64752 -35.1941 -20.877
    endloop
  endfacet
  facet normal -1.77489e-14 -0.707107 -0.707107
    outer loop
      vertex -10 -14 -42.0711
      vertex -9.79188 -35.6751 -20.396
      vertex -10 -35.7626 -20.3085
    endloop
  endfacet
  facet normal 5.24221e-16 -0.707107 -0.707107
    outer loop
      vertex 10 -14 -42.0711
      vertex 7.17474 -34.9988 -21.0723
      vertex 0 -34.0474 -22.0237
    endloop
  endfacet
  facet normal -0 -0.707107 -0.707107
    outer loop
      vertex 10 -14 -42.0711
      vertex 0 -34.0474 -22.0237
      vertex -10 -14 -42.0711
    endloop
  endfacet
  facet normal 1.67592e-15 -0.707107 -0.707107
    outer loop
      vertex 7.17474 -34.9988 -21.0723
      vertex 10 -14 -42.0711
      vertex 8.64752 -35.1941 -20.877
    endloop
  endfacet
  facet normal -2.21919e-15 -0.707107 -0.707107
    outer loop
      vertex 8.64752 -35.1941 -20.877
      vertex 10 -14 -42.0711
      vertex 9.79188 -35.6751 -20.396
    endloop
  endfacet
  facet normal 1.2029e-14 -0.707107 -0.707107
    outer loop
      vertex 9.79188 -35.6751 -20.396
      vertex 10 -14 -42.0711
      vertex 10 -35.7626 -20.3085
    endloop
  endfacet
  facet normal 2.80288e-05 0.707099 0.707114
    outer loop
      vertex 2.35932 -24.9322 -16.9968
      vertex 10 -6.92893 -35
      vertex 0 -24.6193 -17.3096
    endloop
  endfacet
  facet normal -3.45154e-07 0.707105 0.707108
    outer loop
      vertex 6.79657 -25.5206 -16.4084
      vertex 10 -6.92893 -35
      vertex 2.35932 -24.9322 -16.9968
    endloop
  endfacet
  facet normal -1.04342e-06 0.707106 0.707108
    outer loop
      vertex 10 -6.92893 -35
      vertex 6.79657 -25.5206 -16.4084
      vertex 10 -26.867 -15.062
    endloop
  endfacet
  facet normal -0 0.707107 0.707106
    outer loop
      vertex -10 -6.92893 -35
      vertex 0 -24.6193 -17.3096
      vertex 10 -6.92893 -35
    endloop
  endfacet
  facet normal -2.80288e-05 0.707099 0.707114
    outer loop
      vertex 0 -24.6193 -17.3096
      vertex -10 -6.92893 -35
      vertex -2.35932 -24.9322 -16.9968
    endloop
  endfacet
  facet normal 3.45154e-07 0.707105 0.707108
    outer loop
      vertex -2.35932 -24.9322 -16.9968
      vertex -10 -6.92893 -35
      vertex -6.79657 -25.5206 -16.4084
    endloop
  endfacet
  facet normal 1.04342e-06 0.707106 0.707108
    outer loop
      vertex -6.79657 -25.5206 -16.4084
      vertex -10 -6.92893 -35
      vertex -10 -26.867 -15.062
    endloop
  endfacet
  facet normal 1 -0 0
    outer loop
      vertex 10.5 -14 -35
      vertex 10.5 6 -45
      vertex 10.5 6 -35
    endloop
  endfacet
  facet normal 1 0 0
    outer loop
      vertex 10.5 6 -45
      vertex 10.5 -14 -35
      vertex 10.5 -14 -45
    endloop
  endfacet
  facet normal 0 -1 0
    outer loop
      vertex -10.5 -14 -35
      vertex -10 -14 -42.0711
      vertex -10 -14 -35
    endloop
  endfacet
  facet normal 0 -1 -0
    outer loop
      vertex -10 -14 -42.0711
      vertex -10.5 -14 -45
      vertex 10 -14 -42.0711
    endloop
  endfacet
  facet normal 0 -1 0
    outer loop
      vertex -10.5 -14 -45
      vertex -10 -14 -42.0711
      vertex -10.5 -14 -35
    endloop
  endfacet
  facet normal 0 -1 0
    outer loop
      vertex 10 -14 -42.0711
      vertex 10.5 -14 -35
      vertex 10 -14 -35
    endloop
  endfacet
  facet normal 0 -1 0
    outer loop
      vertex 10 -14 -42.0711
      vertex 10.5 -14 -45
      vertex 10.5 -14 -35
    endloop
  endfacet
  facet normal 0 -1 0
    outer loop
      vertex 10.5 -14 -45
      vertex 10 -14 -42.0711
      vertex -10.5 -14 -45
    endloop
  endfacet
  facet normal 0 1 -0
    outer loop
      vertex 10.5 6 -45
      vertex -10.5 6 -35
      vertex 10.5 6 -35
    endloop
  endfacet
  facet normal 0 1 0
    outer loop
      vertex -10.5 6 -35
      vertex 10.5 6 -45
      vertex -10.5 6 -45
    endloop
  endfacet
  facet normal -1 0 0
    outer loop
      vertex -10.5 -14 -45
      vertex -10.5 6 -35
      vertex -10.5 6 -45
    endloop
  endfacet
  facet normal -1 -0 0
    outer loop
      vertex -10.5 6 -35
      vertex -10.5 -14 -45
      vertex -10.5 -14 -35
    endloop
  endfacet
  facet normal 0 0 1
    outer loop
      vertex 10.5 6 -35
      vertex 10 -6.92893 -35
      vertex 10.5 -14 -35
    endloop
  endfacet
  facet normal 0 0 1
    outer loop
      vertex 10.5 6 -35
      vertex 3 0 -35
      vertex 10 -6.92893 -35
    endloop
  endfacet
  facet normal 0 0 1
    outer loop
      vertex 10.5 6 -35
      vertex 2.77164 1.14805 -35
      vertex 3 0 -35
    endloop
  endfacet
  facet normal 0 0 1
    outer loop
      vertex 10.5 6 -35
      vertex 2.12132 2.12132 -35
      vertex 2.77164 1.14805 -35
    endloop
  endfacet
  facet normal 0 0 1
    outer loop
      vertex 10.5 6 -35
      vertex 1.14805 2.77164 -35
      vertex 2.12132 2.12132 -35
    endloop
  endfacet
  facet normal 0 0 1
    outer loop
      vertex 10.5 6 -35
      vertex 0 3 -35
      vertex 1.14805 2.77164 -35
    endloop
  endfacet
  facet normal -0 0 1
    outer loop
      vertex -10.5 6 -35
      vertex 0 3 -35
      vertex 10.5 6 -35
    endloop
  endfacet
  facet normal 0 0 1
    outer loop
      vertex -10.5 6 -35
      vertex -3 0 -35
      vertex -2.77164 1.14805 -35
    endloop
  endfacet
  facet normal 0 0 1
    outer loop
      vertex -10.5 6 -35
      vertex -2.77164 1.14805 -35
      vertex -2.12132 2.12132 -35
    endloop
  endfacet
  facet normal 0 0 1
    outer loop
      vertex 0 3 -35
      vertex -10.5 6 -35
      vertex -1.14805 2.77164 -35
    endloop
  endfacet
  facet normal 0 0 1
    outer loop
      vertex -10.5 6 -35
      vertex -2.12132 2.12132 -35
      vertex -1.14805 2.77164 -35
    endloop
  endfacet
  facet normal 0 0 1
    outer loop
      vertex -3 0 -35
      vertex -10.5 6 -35
      vertex -10 -6.92893 -35
    endloop
  endfacet
  facet normal 0 0 1
    outer loop
      vertex -10.5 -14 -35
      vertex -10 -6.92893 -35
      vertex -10.5 6 -35
    endloop
  endfacet
  facet normal 0 0 1
    outer loop
      vertex -10 -6.92893 -35
      vertex -10.5 -14 -35
      vertex -10 -14 -35
    endloop
  endfacet
  facet normal 0 0 1
    outer loop
      vertex 10.5 -14 -35
      vertex 10 -6.92893 -35
      vertex 10 -14 -35
    endloop
  endfacet
  facet normal -0 0 1
    outer loop
      vertex 2.77164 -1.14805 -35
      vertex 10 -6.92893 -35
      vertex 3 0 -35
    endloop
  endfacet
  facet normal -0 0 1
    outer loop
      vertex 2.12132 -2.12132 -35
      vertex 10 -6.92893 -35
      vertex 2.77164 -1.14805 -35
    endloop
  endfacet
  facet normal -0 0 1
    outer loop
      vertex 1.14805 -2.77164 -35
      vertex 10 -6.92893 -35
      vertex 2.12132 -2.12132 -35
    endloop
  endfacet
  facet normal -0 0 1
    outer loop
      vertex 0 -3 -35
      vertex 10 -6.92893 -35
      vertex 1.14805 -2.77164 -35
    endloop
  endfacet
  facet normal 0 0 1
    outer loop
      vertex -10 -6.92893 -35
      vertex 0 -3 -35
      vertex -1.14805 -2.77164 -35
    endloop
  endfacet
  facet normal 0 0 1
    outer loop
      vertex 0 -3 -35
      vertex -10 -6.92893 -35
      vertex 10 -6.92893 -35
    endloop
  endfacet
  facet normal 0 0 1
    outer loop
      vertex -2.12132 -2.12132 -35
      vertex -10 -6.92893 -35
      vertex -1.14805 -2.77164 -35
    endloop
  endfacet
  facet normal 0 0 1
    outer loop
      vertex -2.77164 -1.14805 -35
      vertex -10 -6.92893 -35
      vertex -2.12132 -2.12132 -35
    endloop
  endfacet
  facet normal 0 0 1
    outer loop
      vertex -10 -6.92893 -35
      vertex -2.77164 -1.14805 -35
      vertex -3 0 -35
    endloop
  endfacet
  facet normal 0 0 -1
    outer loop
      vertex -10.5 -14 -45
      vertex 10.5 6 -45
      vertex 10.5 -14 -45
    endloop
  endfacet
  facet normal -0 0 -1
    outer loop
      vertex 10.5 6 -45
      vertex -10.5 -14 -45
      vertex -10.5 6 -45
    endloop
  endfacet
  facet normal -0.555571 -0.831469 0
    outer loop
      vertex -2.12132 -2.12132 -35
      vertex -1.14805 -2.77164 -20
      vertex -2.12132 -2.12132 -20
    endloop
  endfacet
  facet normal -0.555571 -0.831469 -0
    outer loop
      vertex -1.14805 -2.77164 -20
      vertex -2.12132 -2.12132 -35
      vertex -1.14805 -2.77164 -35
    endloop
  endfacet
  facet normal 0.831469 -0.555571 0
    outer loop
      vertex 2.12132 -2.12132 -20
      vertex 2.77164 -1.14805 -35
      vertex 2.77164 -1.14805 -20
    endloop
  endfacet
  facet normal 0.831469 -0.555571 0
    outer loop
      vertex 2.77164 -1.14805 -35
      vertex 2.12132 -2.12132 -20
      vertex 2.12132 -2.12132 -35
    endloop
  endfacet
  facet normal 0.980785 -0.195089 0
    outer loop
      vertex 2.77164 -1.14805 -20
      vertex 3 0 -35
      vertex 3 0 -20
    endloop
  endfacet
  facet normal 0.980785 -0.195089 0
    outer loop
      vertex 3 0 -35
      vertex 2.77164 -1.14805 -20
      vertex 2.77164 -1.14805 -35
    endloop
  endfacet
  facet normal -0.831469 -0.555571 0
    outer loop
      vertex -2.12132 -2.12132 -35
      vertex -2.77164 -1.14805 -20
      vertex -2.77164 -1.14805 -35
    endloop
  endfacet
  facet normal -0.831469 -0.555571 0
    outer loop
      vertex -2.77164 -1.14805 -20
      vertex -2.12132 -2.12132 -35
      vertex -2.12132 -2.12132 -20
    endloop
  endfacet
  facet normal -0.195089 0.980785 0
    outer loop
      vertex 0 3 -35
      vertex -1.14805 2.77164 -20
      vertex 0 3 -20
    endloop
  endfacet
  facet normal -0.195089 0.980785 0
    outer loop
      vertex -1.14805 2.77164 -20
      vertex 0 3 -35
      vertex -1.14805 2.77164 -35
    endloop
  endfacet
  facet normal 0.195089 0.980785 -0
    outer loop
      vertex 1.14805 2.77164 -35
      vertex 0 3 -20
      vertex 1.14805 2.77164 -20
    endloop
  endfacet
  facet normal 0.195089 0.980785 0
    outer loop
      vertex 0 3 -20
      vertex 1.14805 2.77164 -35
      vertex 0 3 -35
    endloop
  endfacet
  facet normal 0.555571 0.831469 -0
    outer loop
      vertex 2.12132 2.12132 -35
      vertex 1.14805 2.77164 -20
      vertex 2.12132 2.12132 -20
    endloop
  endfacet
  facet normal 0.555571 0.831469 0
    outer loop
      vertex 1.14805 2.77164 -20
      vertex 2.12132 2.12132 -35
      vertex 1.14805 2.77164 -35
    endloop
  endfacet
  facet normal 0.831469 0.555571 0
    outer loop
      vertex 2.77164 1.14805 -20
      vertex 2.12132 2.12132 -35
      vertex 2.12132 2.12132 -20
    endloop
  endfacet
  facet normal 0.831469 0.555571 0
    outer loop
      vertex 2.12132 2.12132 -35
      vertex 2.77164 1.14805 -20
      vertex 2.77164 1.14805 -35
    endloop
  endfacet
  facet normal -0.195089 -0.980785 0
    outer loop
      vertex -1.14805 -2.77164 -35
      vertex 0 -3 -20
      vertex -1.14805 -2.77164 -20
    endloop
  endfacet
  facet normal -0.195089 -0.980785 -0
    outer loop
      vertex 0 -3 -20
      vertex -1.14805 -2.77164 -35
      vertex 0 -3 -35
    endloop
  endfacet
  facet normal 0.980785 0.195089 0
    outer loop
      vertex 3 0 -20
      vertex 2.77164 1.14805 -35
      vertex 2.77164 1.14805 -20
    endloop
  endfacet
  facet normal 0.980785 0.195089 0
    outer loop
      vertex 2.77164 1.14805 -35
      vertex 3 0 -20
      vertex 3 0 -35
    endloop
  endfacet
  facet normal 0 0 1
    outer loop
      vertex 2.77164 1.14805 -20
      vertex 2.77164 -1.14805 -20
      vertex 3 0 -20
    endloop
  endfacet
  facet normal 0 0 1
    outer loop
      vertex 2.12132 2.12132 -20
      vertex 2.77164 -1.14805 -20
      vertex 2.77164 1.14805 -20
    endloop
  endfacet
  facet normal 0 0 1
    outer loop
      vertex 2.12132 2.12132 -20
      vertex 2.12132 -2.12132 -20
      vertex 2.77164 -1.14805 -20
    endloop
  endfacet
  facet normal 0 0 1
    outer loop
      vertex 1.14805 2.77164 -20
      vertex 2.12132 -2.12132 -20
      vertex 2.12132 2.12132 -20
    endloop
  endfacet
  facet normal 0 0 1
    outer loop
      vertex 1.14805 2.77164 -20
      vertex 1.14805 -2.77164 -20
      vertex 2.12132 -2.12132 -20
    endloop
  endfacet
  facet normal 0 0 1
    outer loop
      vertex 0 3 -20
      vertex 1.14805 -2.77164 -20
      vertex 1.14805 2.77164 -20
    endloop
  endfacet
  facet normal 0 0 1
    outer loop
      vertex 0 3 -20
      vertex 0 -3 -20
      vertex 1.14805 -2.77164 -20
    endloop
  endfacet
  facet normal -0 0 1
    outer loop
      vertex -1.14805 2.77164 -20
      vertex 0 -3 -20
      vertex 0 3 -20
    endloop
  endfacet
  facet normal 0 0 1
    outer loop
      vertex -1.14805 2.77164 -20
      vertex -1.14805 -2.77164 -20
      vertex 0 -3 -20
    endloop
  endfacet
  facet normal -0 0 1
    outer loop
      vertex -2.12132 2.12132 -20
      vertex -1.14805 -2.77164 -20
      vertex -1.14805 2.77164 -20
    endloop
  endfacet
  facet normal 0 0 1
    outer loop
      vertex -2.12132 2.12132 -20
      vertex -2.12132 -2.12132 -20
      vertex -1.14805 -2.77164 -20
    endloop
  endfacet
  facet normal -0 0 1
    outer loop
      vertex -2.77164 1.14805 -20
      vertex -2.12132 -2.12132 -20
      vertex -2.12132 2.12132 -20
    endloop
  endfacet
  facet normal 0 0 1
    outer loop
      vertex -2.77164 1.14805 -20
      vertex -2.77164 -1.14805 -20
      vertex -2.12132 -2.12132 -20
    endloop
  endfacet
  facet normal 0 -0 1
    outer loop
      vertex -2.77164 -1.14805 -20
      vertex -2.77164 1.14805 -20
      vertex -3 0 -20
    endloop
  endfacet
  facet normal -0.980785 -0.195089 0
    outer loop
      vertex -2.77164 -1.14805 -35
      vertex -3 0 -20
      vertex -3 0 -35
    endloop
  endfacet
  facet normal -0.980785 -0.195089 0
    outer loop
      vertex -3 0 -20
      vertex -2.77164 -1.14805 -35
      vertex -2.77164 -1.14805 -20
    endloop
  endfacet
  facet normal 0.195089 -0.980785 0
    outer loop
      vertex 0 -3 -35
      vertex 1.14805 -2.77164 -20
      vertex 0 -3 -20
    endloop
  endfacet
  facet normal 0.195089 -0.980785 0
    outer loop
      vertex 1.14805 -2.77164 -20
      vertex 0 -3 -35
      vertex 1.14805 -2.77164 -35
    endloop
  endfacet
  facet normal 0.555571 -0.831469 0
    outer loop
      vertex 1.14805 -2.77164 -35
      vertex 2.12132 -2.12132 -20
      vertex 1.14805 -2.77164 -20
    endloop
  endfacet
  facet normal 0.555571 -0.831469 0
    outer loop
      vertex 2.12132 -2.12132 -20
      vertex 1.14805 -2.77164 -35
      vertex 2.12132 -2.12132 -35
    endloop
  endfacet
  facet normal -0.831469 0.555571 0
    outer loop
      vertex -2.77164 1.14805 -35
      vertex -2.12132 2.12132 -20
      vertex -2.12132 2.12132 -35
    endloop
  endfacet
  facet normal -0.831469 0.555571 0
    outer loop
      vertex -2.12132 2.12132 -20
      vertex -2.77164 1.14805 -35
      vertex -2.77164 1.14805 -20
    endloop
  endfacet
  facet normal -0.980785 0.195089 0
    outer loop
      vertex -3 0 -35
      vertex -2.77164 1.14805 -20
      vertex -2.77164 1.14805 -35
    endloop
  endfacet
  facet normal -0.980785 0.195089 0
    outer loop
      vertex -2.77164 1.14805 -20
      vertex -3 0 -35
      vertex -3 0 -20
    endloop
  endfacet
  facet normal -0.555571 0.831469 0
    outer loop
      vertex -1.14805 2.77164 -35
      vertex -2.12132 2.12132 -20
      vertex -1.14805 2.77164 -20
    endloop
  endfacet
  facet normal -0.555571 0.831469 0
    outer loop
      vertex -2.12132 2.12132 -20
      vertex -1.14805 2.77164 -35
      vertex -2.12132 2.12132 -35
    endloop
  endfacet
  facet normal 1 0 0
    outer loop
      vertex 10 -35.7626 20.3085
      vertex 10 -14 35
      vertex 10 -14 42.0711
    endloop
  endfacet
  facet normal 1 0 0
    outer loop
      vertex 10 -14 35
      vertex 10 -31.6708 17.8953
      vertex 10 -26.867 15.062
    endloop
  endfacet
  facet normal 1 0 0
    outer loop
      vertex 10 -14 35
      vertex 10 -35.7626 20.3085
      vertex 10 -31.6708 17.8953
    endloop
  endfacet
  facet normal 1 0 0
    outer loop
      vertex 10 -6.92893 35
      vertex 10 -14 35
      vertex 10 -26.867 15.062
    endloop
  endfacet
  facet normal -1 0 0
    outer loop
      vertex -10 -26.867 15.062
      vertex -10 -14 35
      vertex -10 -6.92893 35
    endloop
  endfacet
  facet normal -1 0 0
    outer loop
      vertex -10 -31.6708 17.8953
      vertex -10 -14 35
      vertex -10 -26.867 15.062
    endloop
  endfacet
  facet normal -1 0 0
    outer loop
      vertex -10 -35.7626 20.3085
      vertex -10 -14 35
      vertex -10 -31.6708 17.8953
    endloop
  endfacet
  facet normal -1 -0 0
    outer loop
      vertex -10 -14 35
      vertex -10 -35.7626 20.3085
      vertex -10 -14 42.0711
    endloop
  endfacet
  facet normal 0 -0.707107 0.707107
    outer loop
      vertex -10 -14 42.0711
      vertex 0 -34.0474 22.0237
      vertex 10 -14 42.0711
    endloop
  endfacet
  facet normal -5.24221e-16 -0.707107 0.707107
    outer loop
      vertex -10 -14 42.0711
      vertex -7.17474 -34.9988 21.0723
      vertex 0 -34.0474 22.0237
    endloop
  endfacet
  facet normal -1.27689e-15 -0.707107 0.707107
    outer loop
      vertex -10 -14 42.0711
      vertex -8.64752 -35.1941 20.877
      vertex -7.17474 -34.9988 21.0723
    endloop
  endfacet
  facet normal 3.22792e-15 -0.707107 0.707107
    outer loop
      vertex -10 -14 42.0711
      vertex -9.79188 -35.6751 20.396
      vertex -8.64752 -35.1941 20.877
    endloop
  endfacet
  facet normal -1.2029e-14 -0.707107 0.707107
    outer loop
      vertex -9.79188 -35.6751 20.396
      vertex -10 -14 42.0711
      vertex -10 -35.7626 20.3085
    endloop
  endfacet
  facet normal 3.4402e-16 -0.707107 0.707107
    outer loop
      vertex 7.17474 -34.9988 21.0723
      vertex 10 -14 42.0711
      vertex 0 -34.0474 22.0237
    endloop
  endfacet
  facet normal 1.67592e-15 -0.707107 0.707107
    outer loop
      vertex 8.64752 -35.1941 20.877
      vertex 10 -14 42.0711
      vertex 7.17474 -34.9988 21.0723
    endloop
  endfacet
  facet normal -2.21919e-15 -0.707107 0.707107
    outer loop
      vertex 9.79188 -35.6751 20.396
      vertex 10 -14 42.0711
      vertex 8.64752 -35.1941 20.877
    endloop
  endfacet
  facet normal 1.77489e-14 -0.707107 0.707107
    outer loop
      vertex 10 -14 42.0711
      vertex 9.79188 -35.6751 20.396
      vertex 10 -35.7626 20.3085
    endloop
  endfacet
  facet normal 0 0.707107 -0.707106
    outer loop
      vertex 10 -6.92893 35
      vertex 0 -24.6193 17.3096
      vertex -10 -6.92893 35
    endloop
  endfacet
  facet normal 2.80288e-05 0.707099 -0.707114
    outer loop
      vertex 10 -6.92893 35
      vertex 2.35932 -24.9322 16.9968
      vertex 0 -24.6193 17.3096
    endloop
  endfacet
  facet normal -3.45154e-07 0.707105 -0.707108
    outer loop
      vertex 10 -6.92893 35
      vertex 6.79657 -25.5206 16.4084
      vertex 2.35932 -24.9322 16.9968
    endloop
  endfacet
  facet normal -1.04342e-06 0.707106 -0.707108
    outer loop
      vertex 6.79657 -25.5206 16.4084
      vertex 10 -6.92893 35
      vertex 10 -26.867 15.062
    endloop
  endfacet
  facet normal -2.80288e-05 0.707099 -0.707114
    outer loop
      vertex -2.35932 -24.9322 16.9968
      vertex -10 -6.92893 35
      vertex 0 -24.6193 17.3096
    endloop
  endfacet
  facet normal 3.45154e-07 0.707105 -0.707108
    outer loop
      vertex -6.79657 -25.5206 16.4084
      vertex -10 -6.92893 35
      vertex -2.35932 -24.9322 16.9968
    endloop
  endfacet
  facet normal 1.04342e-06 0.707106 -0.707108
    outer loop
      vertex -10 -6.92893 35
      vertex -6.79657 -25.5206 16.4084
      vertex -10 -26.867 15.062
    endloop
  endfacet
  facet normal -1 0 0
    outer loop
      vertex -10.5 -14 35
      vertex -10.5 6 45
      vertex -10.5 6 35
    endloop
  endfacet
  facet normal -1 -0 0
    outer loop
      vertex -10.5 6 45
      vertex -10.5 -14 35
      vertex -10.5 -14 45
    endloop
  endfacet
  facet normal 0 -1 0
    outer loop
      vertex -10.5 -14 45
      vertex -10 -14 42.0711
      vertex 10.5 -14 45
    endloop
  endfacet
  facet normal 0 -1 0
    outer loop
      vertex -10.5 -14 35
      vertex -10 -14 42.0711
      vertex -10.5 -14 45
    endloop
  endfacet
  facet normal 0 -1 -0
    outer loop
      vertex -10 -14 42.0711
      vertex -10.5 -14 35
      vertex -10 -14 35
    endloop
  endfacet
  facet normal 0 -1 0
    outer loop
      vertex 10 -14 42.0711
      vertex 10.5 -14 45
      vertex -10 -14 42.0711
    endloop
  endfacet
  facet normal 0 -1 0
    outer loop
      vertex 10.5 -14 35
      vertex 10 -14 42.0711
      vertex 10 -14 35
    endloop
  endfacet
  facet normal 0 -1 0
    outer loop
      vertex 10 -14 42.0711
      vertex 10.5 -14 35
      vertex 10.5 -14 45
    endloop
  endfacet
  facet normal 0 1 -0
    outer loop
      vertex 10.5 6 35
      vertex -10.5 6 45
      vertex 10.5 6 45
    endloop
  endfacet
  facet normal 0 1 0
    outer loop
      vertex -10.5 6 45
      vertex 10.5 6 35
      vertex -10.5 6 35
    endloop
  endfacet
  facet normal 1 -0 0
    outer loop
      vertex 10.5 -14 45
      vertex 10.5 6 35
      vertex 10.5 6 45
    endloop
  endfacet
  facet normal 1 0 0
    outer loop
      vertex 10.5 6 35
      vertex 10.5 -14 45
      vertex 10.5 -14 35
    endloop
  endfacet
  facet normal 0 0 -1
    outer loop
      vertex -10 -14 35
      vertex -10.5 -14 35
      vertex -10 -6.92893 35
    endloop
  endfacet
  facet normal 0 0 -1
    outer loop
      vertex 10 -6.92893 35
      vertex 2.77164 -1.14805 35
      vertex 3 0 35
    endloop
  endfacet
  facet normal 0 0 -1
    outer loop
      vertex 10 -6.92893 35
      vertex 2.12132 -2.12132 35
      vertex 2.77164 -1.14805 35
    endloop
  endfacet
  facet normal 0 0 -1
    outer loop
      vertex 10 -6.92893 35
      vertex 1.14805 -2.77164 35
      vertex 2.12132 -2.12132 35
    endloop
  endfacet
  facet normal 0 0 -1
    outer loop
      vertex 10 -6.92893 35
      vertex 0 -3 35
      vertex 1.14805 -2.77164 35
    endloop
  endfacet
  facet normal 0 0 -1
    outer loop
      vertex -10 -6.92893 35
      vertex 0 -3 35
      vertex 10 -6.92893 35
    endloop
  endfacet
  facet normal -0 0 -1
    outer loop
      vertex -2.77164 -1.14805 35
      vertex -10 -6.92893 35
      vertex -3 0 35
    endloop
  endfacet
  facet normal -0 0 -1
    outer loop
      vertex -2.12132 -2.12132 35
      vertex -10 -6.92893 35
      vertex -2.77164 -1.14805 35
    endloop
  endfacet
  facet normal -0 0 -1
    outer loop
      vertex -1.14805 -2.77164 35
      vertex -10 -6.92893 35
      vertex -2.12132 -2.12132 35
    endloop
  endfacet
  facet normal -0 0 -1
    outer loop
      vertex 0 -3 35
      vertex -10 -6.92893 35
      vertex -1.14805 -2.77164 35
    endloop
  endfacet
  facet normal 0 0 -1
    outer loop
      vertex 10 -6.92893 35
      vertex 10.5 -14 35
      vertex 10 -14 35
    endloop
  endfacet
  facet normal 0 0 -1
    outer loop
      vertex 10.5 -14 35
      vertex 10 -6.92893 35
      vertex 10.5 6 35
    endloop
  endfacet
  facet normal 0 0 -1
    outer loop
      vertex 3 0 35
      vertex 10.5 6 35
      vertex 10 -6.92893 35
    endloop
  endfacet
  facet normal 0 0 -1
    outer loop
      vertex 2.77164 1.14805 35
      vertex 10.5 6 35
      vertex 3 0 35
    endloop
  endfacet
  facet normal 0 0 -1
    outer loop
      vertex 2.12132 2.12132 35
      vertex 10.5 6 35
      vertex 2.77164 1.14805 35
    endloop
  endfacet
  facet normal 0 0 -1
    outer loop
      vertex 1.14805 2.77164 35
      vertex 10.5 6 35
      vertex 2.12132 2.12132 35
    endloop
  endfacet
  facet normal 0 0 -1
    outer loop
      vertex 0 3 35
      vertex 10.5 6 35
      vertex 1.14805 2.77164 35
    endloop
  endfacet
  facet normal 0 0 -1
    outer loop
      vertex -10.5 6 35
      vertex 0 3 35
      vertex -1.14805 2.77164 35
    endloop
  endfacet
  facet normal 0 0 -1
    outer loop
      vertex -10.5 6 35
      vertex -3 0 35
      vertex -10 -6.92893 35
    endloop
  endfacet
  facet normal 0 0 -1
    outer loop
      vertex -3 0 35
      vertex -10.5 6 35
      vertex -2.77164 1.14805 35
    endloop
  endfacet
  facet normal 0 0 -1
    outer loop
      vertex 0 3 35
      vertex -10.5 6 35
      vertex 10.5 6 35
    endloop
  endfacet
  facet normal 0 0 -1
    outer loop
      vertex -2.12132 2.12132 35
      vertex -10.5 6 35
      vertex -1.14805 2.77164 35
    endloop
  endfacet
  facet normal 0 0 -1
    outer loop
      vertex -2.77164 1.14805 35
      vertex -10.5 6 35
      vertex -2.12132 2.12132 35
    endloop
  endfacet
  facet normal 0 0 -1
    outer loop
      vertex -10.5 6 35
      vertex -10 -6.92893 35
      vertex -10.5 -14 35
    endloop
  endfacet
  facet normal -0 0 1
    outer loop
      vertex -10.5 6 45
      vertex 10.5 -14 45
      vertex 10.5 6 45
    endloop
  endfacet
  facet normal 0 0 1
    outer loop
      vertex 10.5 -14 45
      vertex -10.5 6 45
      vertex -10.5 -14 45
    endloop
  endfacet
  facet normal 0.555571 -0.831469 0
    outer loop
      vertex 1.14805 -2.77164 20
      vertex 2.12132 -2.12132 35
      vertex 1.14805 -2.77164 35
    endloop
  endfacet
  facet normal 0.555571 -0.831469 0
    outer loop
      vertex 2.12132 -2.12132 35
      vertex 1.14805 -2.77164 20
      vertex 2.12132 -2.12132 20
    endloop
  endfacet
  facet normal -0.831469 -0.555571 0
    outer loop
      vertex -2.12132 -2.12132 20
      vertex -2.77164 -1.14805 35
      vertex -2.77164 -1.14805 20
    endloop
  endfacet
  facet normal -0.831469 -0.555571 0
    outer loop
      vertex -2.77164 -1.14805 35
      vertex -2.12132 -2.12132 20
      vertex -2.12132 -2.12132 35
    endloop
  endfacet
  facet normal -0.980785 -0.195089 0
    outer loop
      vertex -2.77164 -1.14805 20
      vertex -3 0 35
      vertex -3 0 20
    endloop
  endfacet
  facet normal -0.980785 -0.195089 0
    outer loop
      vertex -3 0 35
      vertex -2.77164 -1.14805 20
      vertex -2.77164 -1.14805 35
    endloop
  endfacet
  facet normal 0.831469 -0.555571 0
    outer loop
      vertex 2.12132 -2.12132 35
      vertex 2.77164 -1.14805 20
      vertex 2.77164 -1.14805 35
    endloop
  endfacet
  facet normal 0.831469 -0.555571 0
    outer loop
      vertex 2.77164 -1.14805 20
      vertex 2.12132 -2.12132 35
      vertex 2.12132 -2.12132 20
    endloop
  endfacet
  facet normal 0.195089 0.980785 -0
    outer loop
      vertex 1.14805 2.77164 20
      vertex 0 3 35
      vertex 1.14805 2.77164 35
    endloop
  endfacet
  facet normal 0.195089 0.980785 0
    outer loop
      vertex 0 3 35
      vertex 1.14805 2.77164 20
      vertex 0 3 20
    endloop
  endfacet
  facet normal -0.195089 0.980785 0
    outer loop
      vertex 0 3 20
      vertex -1.14805 2.77164 35
      vertex 0 3 35
    endloop
  endfacet
  facet normal -0.195089 0.980785 0
    outer loop
      vertex -1.14805 2.77164 35
      vertex 0 3 20
      vertex -1.14805 2.77164 20
    endloop
  endfacet
  facet normal -0.555571 0.831469 0
    outer loop
      vertex -1.14805 2.77164 20
      vertex -2.12132 2.12132 35
      vertex -1.14805 2.77164 35
    endloop
  endfacet
  facet normal -0.555571 0.831469 0
    outer loop
      vertex -2.12132 2.12132 35
      vertex -1.14805 2.77164 20
      vertex -2.12132 2.12132 20
    endloop
  endfacet
  facet normal -0.831469 0.555571 0
    outer loop
      vertex -2.77164 1.14805 20
      vertex -2.12132 2.12132 35
      vertex -2.12132 2.12132 20
    endloop
  endfacet
  facet normal -0.831469 0.555571 0
    outer loop
      vertex -2.12132 2.12132 35
      vertex -2.77164 1.14805 20
      vertex -2.77164 1.14805 35
    endloop
  endfacet
  facet normal 0.195089 -0.980785 0
    outer loop
      vertex 0 -3 20
      vertex 1.14805 -2.77164 35
      vertex 0 -3 35
    endloop
  endfacet
  facet normal 0.195089 -0.980785 0
    outer loop
      vertex 1.14805 -2.77164 35
      vertex 0 -3 20
      vertex 1.14805 -2.77164 20
    endloop
  endfacet
  facet normal -0.980785 0.195089 0
    outer loop
      vertex -3 0 20
      vertex -2.77164 1.14805 35
      vertex -2.77164 1.14805 20
    endloop
  endfacet
  facet normal -0.980785 0.195089 0
    outer loop
      vertex -2.77164 1.14805 35
      vertex -3 0 20
      vertex -3 0 35
    endloop
  endfacet
  facet normal 0 0 -1
    outer loop
      vertex 2.77164 -1.14805 20
      vertex 2.77164 1.14805 20
      vertex 3 0 20
    endloop
  endfacet
  facet normal 0 0 -1
    outer loop
      vertex 2.12132 -2.12132 20
      vertex 2.77164 1.14805 20
      vertex 2.77164 -1.14805 20
    endloop
  endfacet
  facet normal 0 0 -1
    outer loop
      vertex 2.12132 -2.12132 20
      vertex 2.12132 2.12132 20
      vertex 2.77164 1.14805 20
    endloop
  endfacet
  facet normal 0 0 -1
    outer loop
      vertex 1.14805 -2.77164 20
      vertex 2.12132 2.12132 20
      vertex 2.12132 -2.12132 20
    endloop
  endfacet
  facet normal 0 0 -1
    outer loop
      vertex 1.14805 -2.77164 20
      vertex 1.14805 2.77164 20
      vertex 2.12132 2.12132 20
    endloop
  endfacet
  facet normal 0 0 -1
    outer loop
      vertex 0 -3 20
      vertex 1.14805 2.77164 20
      vertex 1.14805 -2.77164 20
    endloop
  endfacet
  facet normal 0 0 -1
    outer loop
      vertex 0 -3 20
      vertex 0 3 20
      vertex 1.14805 2.77164 20
    endloop
  endfacet
  facet normal 0 0 -1
    outer loop
      vertex -1.14805 -2.77164 20
      vertex 0 3 20
      vertex 0 -3 20
    endloop
  endfacet
  facet normal 0 0 -1
    outer loop
      vertex -1.14805 -2.77164 20
      vertex -1.14805 2.77164 20
      vertex 0 3 20
    endloop
  endfacet
  facet normal 0 0 -1
    outer loop
      vertex -2.12132 -2.12132 20
      vertex -1.14805 2.77164 20
      vertex -1.14805 -2.77164 20
    endloop
  endfacet
  facet normal 0 0 -1
    outer loop
      vertex -2.12132 -2.12132 20
      vertex -2.12132 2.12132 20
      vertex -1.14805 2.77164 20
    endloop
  endfacet
  facet normal 0 0 -1
    outer loop
      vertex -2.77164 -1.14805 20
      vertex -2.12132 2.12132 20
      vertex -2.12132 -2.12132 20
    endloop
  endfacet
  facet normal 0 0 -1
    outer loop
      vertex -2.77164 -1.14805 20
      vertex -2.77164 1.14805 20
      vertex -2.12132 2.12132 20
    endloop
  endfacet
  facet normal 0 -0 -1
    outer loop
      vertex -2.77164 1.14805 20
      vertex -2.77164 -1.14805 20
      vertex -3 0 20
    endloop
  endfacet
  facet normal 0.980785 -0.195089 0
    outer loop
      vertex 2.77164 -1.14805 35
      vertex 3 0 20
      vertex 3 0 35
    endloop
  endfacet
  facet normal 0.980785 -0.195089 0
    outer loop
      vertex 3 0 20
      vertex 2.77164 -1.14805 35
      vertex 2.77164 -1.14805 20
    endloop
  endfacet
  facet normal -0.195089 -0.980785 0
    outer loop
      vertex -1.14805 -2.77164 20
      vertex 0 -3 35
      vertex -1.14805 -2.77164 35
    endloop
  endfacet
  facet normal -0.195089 -0.980785 -0
    outer loop
      vertex 0 -3 35
      vertex -1.14805 -2.77164 20
      vertex 0 -3 20
    endloop
  endfacet
  facet normal -0.555571 -0.831469 0
    outer loop
      vertex -2.12132 -2.12132 20
      vertex -1.14805 -2.77164 35
      vertex -2.12132 -2.12132 35
    endloop
  endfacet
  facet normal -0.555571 -0.831469 -0
    outer loop
      vertex -1.14805 -2.77164 35
      vertex -2.12132 -2.12132 20
      vertex -1.14805 -2.77164 20
    endloop
  endfacet
  facet normal 0.831469 0.555571 0
    outer loop
      vertex 2.77164 1.14805 35
      vertex 2.12132 2.12132 20
      vertex 2.12132 2.12132 35
    endloop
  endfacet
  facet normal 0.831469 0.555571 0
    outer loop
      vertex 2.12132 2.12132 20
      vertex 2.77164 1.14805 35
      vertex 2.77164 1.14805 20
    endloop
  endfacet
  facet normal 0.980785 0.195089 0
    outer loop
      vertex 3 0 35
      vertex 2.77164 1.14805 20
      vertex 2.77164 1.14805 35
    endloop
  endfacet
  facet normal 0.980785 0.195089 0
    outer loop
      vertex 2.77164 1.14805 20
      vertex 3 0 35
      vertex 3 0 20
    endloop
  endfacet
  facet normal 0.555571 0.831469 -0
    outer loop
      vertex 2.12132 2.12132 20
      vertex 1.14805 2.77164 35
      vertex 2.12132 2.12132 35
    endloop
  endfacet
  facet normal 0.555571 0.831469 0
    outer loop
      vertex 1.14805 2.77164 35
      vertex 2.12132 2.12132 20
      vertex 1.14805 2.77164 20
    endloop
  endfacet
  facet normal -0.175159 0.440294 -0.880602
    outer loop
      vertex -7.17474 -34.9988 -21.0723
      vertex -9.56709 -40 -23.097
      vertex -8.64752 -35.1941 -20.877
    endloop
  endfacet
  facet normal -0.175161 0.440299 -0.880599
    outer loop
      vertex -2.35932 -24.9322 -16.9968
      vertex -5.74025 -20 -13.8582
      vertex 0 -20 -15
    endloop
  endfacet
  facet normal -0.175158 0.440301 -0.880599
    outer loop
      vertex -5.74025 -20 -13.8582
      vertex -2.35932 -24.9322 -16.9968
      vertex -6.79657 -25.5206 -16.4084
    endloop
  endfacet
  facet normal 0.498808 0.440289 -0.746549
    outer loop
      vertex 10 -31.6708 -17.8953
      vertex 17.6777 -40 -17.6777
      vertex 10 -35.7626 -20.3085
    endloop
  endfacet
  facet normal 0.498814 0.440309 -0.746533
    outer loop
      vertex 9.56709 -40 -23.097
      vertex 10 -35.7626 -20.3085
      vertex 17.6777 -40 -17.6777
    endloop
  endfacet
  facet normal 0.498941 0.44026 -0.746478
    outer loop
      vertex 10 -35.7626 -20.3085
      vertex 9.56709 -40 -23.097
      vertex 9.79188 -35.6751 -20.396
    endloop
  endfacet
  facet normal 0.498822 0.440301 -0.746533
    outer loop
      vertex 17.6777 -40 -17.6777
      vertex 10 -31.6708 -17.8953
      vertex 10.6066 -20 -10.6066
    endloop
  endfacet
  facet normal 0.175159 0.440294 -0.880602
    outer loop
      vertex 9.56709 -40 -23.097
      vertex 7.17474 -34.9988 -21.0723
      vertex 8.64752 -35.1941 -20.877
    endloop
  endfacet
  facet normal 0.175158 0.440301 -0.880599
    outer loop
      vertex 2.35932 -24.9322 -16.9968
      vertex 5.74025 -20 -13.8582
      vertex 6.79657 -25.5206 -16.4084
    endloop
  endfacet
  facet normal 0.175161 0.440299 -0.880599
    outer loop
      vertex 5.74025 -20 -13.8582
      vertex 2.35932 -24.9322 -16.9968
      vertex 0 -20 -15
    endloop
  endfacet
  facet normal -0.746535 0.4403 -0.49882
    outer loop
      vertex -10.6066 -20 -10.6066
      vertex -23.097 -40 -9.56709
      vertex -13.8582 -20 -5.74025
    endloop
  endfacet
  facet normal 0.880599 0.4403 0.175161
    outer loop
      vertex 25 -40 0
      vertex 15 -20 0
      vertex 23.097 -40 9.56709
    endloop
  endfacet
  facet normal 0.880599 0.4403 0.175161
    outer loop
      vertex 15 -20 0
      vertex 13.8582 -20 5.74025
      vertex 23.097 -40 9.56709
    endloop
  endfacet
  facet normal 0.746537 0.440301 -0.498817
    outer loop
      vertex 17.6777 -40 -17.6777
      vertex 10.6066 -20 -10.6066
      vertex 23.097 -40 -9.56709
    endloop
  endfacet
  facet normal 0.880599 0.4403 -0.175161
    outer loop
      vertex 23.097 -40 -9.56709
      vertex 13.8582 -20 -5.74025
      vertex 15 -20 0
    endloop
  endfacet
  facet normal 0.498845 0.440293 0.746523
    outer loop
      vertex 9.79188 -35.6751 20.396
      vertex 8.64752 -35.1941 20.877
      vertex 9.56709 -40 23.097
    endloop
  endfacet
  facet normal 0.498824 0.440297 0.746534
    outer loop
      vertex 10.6066 -20 10.6066
      vertex 6.79657 -25.5206 16.4084
      vertex 10 -26.867 15.062
    endloop
  endfacet
  facet normal 0.49882 0.440301 0.746535
    outer loop
      vertex 6.79657 -25.5206 16.4084
      vertex 10.6066 -20 10.6066
      vertex 5.74025 -20 13.8582
    endloop
  endfacet
  facet normal 0.498724 0.440335 0.746579
    outer loop
      vertex 10.6066 -20 10.6066
      vertex 10 -26.867 15.062
      vertex 10 -31.6708 17.8953
    endloop
  endfacet
  facet normal 0.880599 0.4403 -0.175161
    outer loop
      vertex 23.097 -40 -9.56709
      vertex 15 -20 0
      vertex 25 -40 0
    endloop
  endfacet
  facet normal -0.175157 0.4403 -0.8806
    outer loop
      vertex 0 -40 -25
      vertex -7.17474 -34.9988 -21.0723
      vertex 0 -34.0474 -22.0237
    endloop
  endfacet
  facet normal -0.175161 0.440295 -0.880602
    outer loop
      vertex -7.17474 -34.9988 -21.0723
      vertex 0 -40 -25
      vertex -9.56709 -40 -23.097
    endloop
  endfacet
  facet normal -0.175144 0.440293 -0.880606
    outer loop
      vertex 0 -24.6193 -17.3096
      vertex -2.35932 -24.9322 -16.9968
      vertex 0 -20 -15
    endloop
  endfacet
  facet normal 0.746535 0.4403 -0.49882
    outer loop
      vertex 23.097 -40 -9.56709
      vertex 10.6066 -20 -10.6066
      vertex 13.8582 -20 -5.74025
    endloop
  endfacet
  facet normal 0.175161 0.440295 -0.880602
    outer loop
      vertex 0 -40 -25
      vertex 7.17474 -34.9988 -21.0723
      vertex 9.56709 -40 -23.097
    endloop
  endfacet
  facet normal 0.175157 0.4403 -0.8806
    outer loop
      vertex 7.17474 -34.9988 -21.0723
      vertex 0 -40 -25
      vertex 0 -34.0474 -22.0237
    endloop
  endfacet
  facet normal 0.175144 0.440293 -0.880606
    outer loop
      vertex 2.35932 -24.9322 -16.9968
      vertex 0 -24.6193 -17.3096
      vertex 0 -20 -15
    endloop
  endfacet
  facet normal -0.498845 0.440293 0.746523
    outer loop
      vertex -8.64752 -35.1941 20.877
      vertex -9.79188 -35.6751 20.396
      vertex -9.56709 -40 23.097
    endloop
  endfacet
  facet normal -0.49882 0.440301 0.746535
    outer loop
      vertex -10.6066 -20 10.6066
      vertex -6.79657 -25.5206 16.4084
      vertex -5.74025 -20 13.8582
    endloop
  endfacet
  facet normal -0.498724 0.440335 0.746579
    outer loop
      vertex -10 -26.867 15.062
      vertex -10.6066 -20 10.6066
      vertex -10 -31.6708 17.8953
    endloop
  endfacet
  facet normal -0.498824 0.440297 0.746534
    outer loop
      vertex -6.79657 -25.5206 16.4084
      vertex -10.6066 -20 10.6066
      vertex -10 -26.867 15.062
    endloop
  endfacet
  facet normal -0.498822 0.440301 0.746533
    outer loop
      vertex -17.6777 -40 17.6777
      vertex -10 -31.6708 17.8953
      vertex -10.6066 -20 10.6066
    endloop
  endfacet
  facet normal -0.498941 0.44026 0.746478
    outer loop
      vertex -10 -35.7626 20.3085
      vertex -9.56709 -40 23.097
      vertex -9.79188 -35.6751 20.396
    endloop
  endfacet
  facet normal -0.498814 0.440309 0.746533
    outer loop
      vertex -10 -35.7626 20.3085
      vertex -17.6777 -40 17.6777
      vertex -9.56709 -40 23.097
    endloop
  endfacet
  facet normal -0.498808 0.440289 0.746549
    outer loop
      vertex -10 -31.6708 17.8953
      vertex -17.6777 -40 17.6777
      vertex -10 -35.7626 20.3085
    endloop
  endfacet
  facet normal 0.498845 0.440293 -0.746523
    outer loop
      vertex 9.56709 -40 -23.097
      vertex 8.64752 -35.1941 -20.877
      vertex 9.79188 -35.6751 -20.396
    endloop
  endfacet
  facet normal 0.498724 0.440335 -0.746579
    outer loop
      vertex 10 -26.867 -15.062
      vertex 10.6066 -20 -10.6066
      vertex 10 -31.6708 -17.8953
    endloop
  endfacet
  facet normal 0.498824 0.440297 -0.746534
    outer loop
      vertex 6.79657 -25.5206 -16.4084
      vertex 10.6066 -20 -10.6066
      vertex 10 -26.867 -15.062
    endloop
  endfacet
  facet normal 0.49882 0.440301 -0.746535
    outer loop
      vertex 10.6066 -20 -10.6066
      vertex 6.79657 -25.5206 -16.4084
      vertex 5.74025 -20 -13.8582
    endloop
  endfacet
  facet normal -0.746537 0.440301 -0.498817
    outer loop
      vertex -17.6777 -40 -17.6777
      vertex -23.097 -40 -9.56709
      vertex -10.6066 -20 -10.6066
    endloop
  endfacet
  facet normal -0.880599 0.4403 0.175161
    outer loop
      vertex -15 -20 0
      vertex -25 -40 0
      vertex -23.097 -40 9.56709
    endloop
  endfacet
  facet normal -0.498845 0.440293 -0.746523
    outer loop
      vertex -9.56709 -40 -23.097
      vertex -9.79188 -35.6751 -20.396
      vertex -8.64752 -35.1941 -20.877
    endloop
  endfacet
  facet normal -0.498724 0.440335 -0.746579
    outer loop
      vertex -10 -31.6708 -17.8953
      vertex -10.6066 -20 -10.6066
      vertex -10 -26.867 -15.062
    endloop
  endfacet
  facet normal -0.498824 0.440297 -0.746534
    outer loop
      vertex -10.6066 -20 -10.6066
      vertex -6.79657 -25.5206 -16.4084
      vertex -10 -26.867 -15.062
    endloop
  endfacet
  facet normal -0.49882 0.440301 -0.746535
    outer loop
      vertex -6.79657 -25.5206 -16.4084
      vertex -10.6066 -20 -10.6066
      vertex -5.74025 -20 -13.8582
    endloop
  endfacet
  facet normal -0.746537 0.440301 0.498817
    outer loop
      vertex -10.6066 -20 10.6066
      vertex -23.097 -40 9.56709
      vertex -17.6777 -40 17.6777
    endloop
  endfacet
  facet normal -0.498941 0.44026 -0.746478
    outer loop
      vertex -9.56709 -40 -23.097
      vertex -10 -35.7626 -20.3085
      vertex -9.79188 -35.6751 -20.396
    endloop
  endfacet
  facet normal -0.498808 0.440289 -0.746549
    outer loop
      vertex -17.6777 -40 -17.6777
      vertex -10 -31.6708 -17.8953
      vertex -10 -35.7626 -20.3085
    endloop
  endfacet
  facet normal -0.498822 0.440301 -0.746533
    outer loop
      vertex -10 -31.6708 -17.8953
      vertex -17.6777 -40 -17.6777
      vertex -10.6066 -20 -10.6066
    endloop
  endfacet
  facet normal -0.498814 0.440309 -0.746533
    outer loop
      vertex -17.6777 -40 -17.6777
      vertex -10 -35.7626 -20.3085
      vertex -9.56709 -40 -23.097
    endloop
  endfacet
  facet normal -0.880599 0.4403 -0.175161
    outer loop
      vertex -23.097 -40 -9.56709
      vertex -25 -40 0
      vertex -15 -20 0
    endloop
  endfacet
  facet normal -0.175159 0.440294 0.880602
    outer loop
      vertex -8.64752 -35.1941 20.877
      vertex -9.56709 -40 23.097
      vertex -7.17474 -34.9988 21.0723
    endloop
  endfacet
  facet normal -0.175161 0.440299 0.880599
    outer loop
      vertex -5.74025 -20 13.8582
      vertex -2.35932 -24.9322 16.9968
      vertex 0 -20 15
    endloop
  endfacet
  facet normal -0.175158 0.440301 0.880599
    outer loop
      vertex -2.35932 -24.9322 16.9968
      vertex -5.74025 -20 13.8582
      vertex -6.79657 -25.5206 16.4084
    endloop
  endfacet
  facet normal -0.880599 0.4403 0.175161
    outer loop
      vertex -15 -20 0
      vertex -23.097 -40 9.56709
      vertex -13.8582 -20 5.74025
    endloop
  endfacet
  facet normal -0.746535 0.4403 0.49882
    outer loop
      vertex -13.8582 -20 5.74025
      vertex -23.097 -40 9.56709
      vertex -10.6066 -20 10.6066
    endloop
  endfacet
  facet normal -0.175157 0.4403 0.8806
    outer loop
      vertex -7.17474 -34.9988 21.0723
      vertex 0 -40 25
      vertex 0 -34.0474 22.0237
    endloop
  endfacet
  facet normal -0.175161 0.440295 0.880602
    outer loop
      vertex 0 -40 25
      vertex -7.17474 -34.9988 21.0723
      vertex -9.56709 -40 23.097
    endloop
  endfacet
  facet normal -0.175144 0.440293 0.880606
    outer loop
      vertex 0 -20 15
      vertex -2.35932 -24.9322 16.9968
      vertex 0 -24.6193 17.3096
    endloop
  endfacet
  facet normal 0.498822 0.440301 0.746533
    outer loop
      vertex 10 -31.6708 17.8953
      vertex 17.6777 -40 17.6777
      vertex 10.6066 -20 10.6066
    endloop
  endfacet
  facet normal 0.498808 0.440289 0.746549
    outer loop
      vertex 10 -35.7626 20.3085
      vertex 17.6777 -40 17.6777
      vertex 10 -31.6708 17.8953
    endloop
  endfacet
  facet normal 0.498941 0.44026 0.746478
    outer loop
      vertex 9.56709 -40 23.097
      vertex 10 -35.7626 20.3085
      vertex 9.79188 -35.6751 20.396
    endloop
  endfacet
  facet normal 0.498814 0.440309 0.746533
    outer loop
      vertex 10 -35.7626 20.3085
      vertex 9.56709 -40 23.097
      vertex 17.6777 -40 17.6777
    endloop
  endfacet
  facet normal 0.175157 0.4403 0.8806
    outer loop
      vertex 0 -40 25
      vertex 7.17474 -34.9988 21.0723
      vertex 0 -34.0474 22.0237
    endloop
  endfacet
  facet normal 0.175161 0.440295 0.880602
    outer loop
      vertex 7.17474 -34.9988 21.0723
      vertex 0 -40 25
      vertex 9.56709 -40 23.097
    endloop
  endfacet
  facet normal 0.175144 0.440293 0.880606
    outer loop
      vertex 2.35932 -24.9322 16.9968
      vertex 0 -20 15
      vertex 0 -24.6193 17.3096
    endloop
  endfacet
  facet normal -0.880599 0.4403 -0.175161
    outer loop
      vertex -13.8582 -20 -5.74025
      vertex -23.097 -40 -9.56709
      vertex -15 -20 0
    endloop
  endfacet
  facet normal 0 1 0
    outer loop
      vertex 5.74025 -20 13.8582
      vertex -5.74025 -20 13.8582
      vertex 0 -20 15
    endloop
  endfacet
  facet normal 0 1 0
    outer loop
      vertex 10.6066 -20 10.6066
      vertex -5.74025 -20 13.8582
      vertex 5.74025 -20 13.8582
    endloop
  endfacet
  facet normal 0 1 0
    outer loop
      vertex 10.6066 -20 10.6066
      vertex -10.6066 -20 10.6066
      vertex -5.74025 -20 13.8582
    endloop
  endfacet
  facet normal 0 1 0
    outer loop
      vertex 13.8582 -20 5.74025
      vertex -10.6066 -20 10.6066
      vertex 10.6066 -20 10.6066
    endloop
  endfacet
  facet normal 0 1 0
    outer loop
      vertex 13.8582 -20 5.74025
      vertex -13.8582 -20 5.74025
      vertex -10.6066 -20 10.6066
    endloop
  endfacet
  facet normal 0 1 0
    outer loop
      vertex 15 -20 0
      vertex -13.8582 -20 5.74025
      vertex 13.8582 -20 5.74025
    endloop
  endfacet
  facet normal 0 1 0
    outer loop
      vertex 15 -20 0
      vertex -15 -20 0
      vertex -13.8582 -20 5.74025
    endloop
  endfacet
  facet normal 0 1 -0
    outer loop
      vertex 13.8582 -20 -5.74025
      vertex -15 -20 0
      vertex 15 -20 0
    endloop
  endfacet
  facet normal 0 1 0
    outer loop
      vertex 13.8582 -20 -5.74025
      vertex -13.8582 -20 -5.74025
      vertex -15 -20 0
    endloop
  endfacet
  facet normal 0 1 -0
    outer loop
      vertex 10.6066 -20 -10.6066
      vertex -13.8582 -20 -5.74025
      vertex 13.8582 -20 -5.74025
    endloop
  endfacet
  facet normal 0 1 0
    outer loop
      vertex 10.6066 -20 -10.6066
      vertex -10.6066 -20 -10.6066
      vertex -13.8582 -20 -5.74025
    endloop
  endfacet
  facet normal 0 1 -0
    outer loop
      vertex 5.74025 -20 -13.8582
      vertex -10.6066 -20 -10.6066
      vertex 10.6066 -20 -10.6066
    endloop
  endfacet
  facet normal 0 1 0
    outer loop
      vertex 5.74025 -20 -13.8582
      vertex -5.74025 -20 -13.8582
      vertex -10.6066 -20 -10.6066
    endloop
  endfacet
  facet normal -0 1 0
    outer loop
      vertex -5.74025 -20 -13.8582
      vertex 5.74025 -20 -13.8582
      vertex 0 -20 -15
    endloop
  endfacet
  facet normal 0.175159 0.440294 0.880602
    outer loop
      vertex 8.64752 -35.1941 20.877
      vertex 7.17474 -34.9988 21.0723
      vertex 9.56709 -40 23.097
    endloop
  endfacet
  facet normal 0.175158 0.440301 0.880599
    outer loop
      vertex 5.74025 -20 13.8582
      vertex 2.35932 -24.9322 16.9968
      vertex 6.79657 -25.5206 16.4084
    endloop
  endfacet
  facet normal 0.175161 0.440299 0.880599
    outer loop
      vertex 2.35932 -24.9322 16.9968
      vertex 5.74025 -20 13.8582
      vertex 0 -20 15
    endloop
  endfacet
  facet normal 0.746537 0.440301 0.498817
    outer loop
      vertex 23.097 -40 9.56709
      vertex 10.6066 -20 10.6066
      vertex 17.6777 -40 17.6777
    endloop
  endfacet
  facet normal 0.746535 0.4403 0.49882
    outer loop
      vertex 13.8582 -20 5.74025
      vertex 10.6066 -20 10.6066
      vertex 23.097 -40 9.56709
    endloop
  endfacet
  facet normal -0.555568 0 0.831471
    outer loop
      vertex -17.6777 -40 17.6777
      vertex -9.56709 -60 23.097
      vertex -9.56709 -40 23.097
    endloop
  endfacet
  facet normal -0.555568 0 0.831471
    outer loop
      vertex -9.56709 -60 23.097
      vertex -17.6777 -40 17.6777
      vertex -17.6777 -60 17.6777
    endloop
  endfacet
  facet normal 0.831471 -0 0.555568
    outer loop
      vertex 17.6777 -60 17.6777
      vertex 23.097 -40 9.56709
      vertex 17.6777 -40 17.6777
    endloop
  endfacet
  facet normal 0.831471 0 0.555568
    outer loop
      vertex 23.097 -40 9.56709
      vertex 17.6777 -60 17.6777
      vertex 23.097 -60 9.56709
    endloop
  endfacet
  facet normal 0.980786 -0 0.195089
    outer loop
      vertex 23.097 -60 9.56709
      vertex 25 -40 0
      vertex 23.097 -40 9.56709
    endloop
  endfacet
  facet normal 0.980786 0 0.195089
    outer loop
      vertex 25 -40 0
      vertex 23.097 -60 9.56709
      vertex 25 -60 0
    endloop
  endfacet
  facet normal -0.831471 0 0.555568
    outer loop
      vertex -23.097 -60 9.56709
      vertex -17.6777 -40 17.6777
      vertex -23.097 -40 9.56709
    endloop
  endfacet
  facet normal -0.831471 0 0.555568
    outer loop
      vertex -17.6777 -40 17.6777
      vertex -23.097 -60 9.56709
      vertex -17.6777 -60 17.6777
    endloop
  endfacet
  facet normal -0.195089 0 -0.980786
    outer loop
      vertex -9.56709 -60 -23.097
      vertex 0 -40 -25
      vertex 0 -60 -25
    endloop
  endfacet
  facet normal -0.195089 0 -0.980786
    outer loop
      vertex 0 -40 -25
      vertex -9.56709 -60 -23.097
      vertex -9.56709 -40 -23.097
    endloop
  endfacet
  facet normal 0.195089 0 -0.980786
    outer loop
      vertex 0 -60 -25
      vertex 9.56709 -40 -23.097
      vertex 9.56709 -60 -23.097
    endloop
  endfacet
  facet normal 0.195089 0 -0.980786
    outer loop
      vertex 9.56709 -40 -23.097
      vertex 0 -60 -25
      vertex 0 -40 -25
    endloop
  endfacet
  facet normal 0.555568 0 -0.831471
    outer loop
      vertex 9.56709 -60 -23.097
      vertex 17.6777 -40 -17.6777
      vertex 17.6777 -60 -17.6777
    endloop
  endfacet
  facet normal 0.555568 0 -0.831471
    outer loop
      vertex 17.6777 -40 -17.6777
      vertex 9.56709 -60 -23.097
      vertex 9.56709 -40 -23.097
    endloop
  endfacet
  facet normal 0.831471 0 -0.555568
    outer loop
      vertex 23.097 -60 -9.56709
      vertex 17.6777 -40 -17.6777
      vertex 23.097 -40 -9.56709
    endloop
  endfacet
  facet normal 0.831471 0 -0.555568
    outer loop
      vertex 17.6777 -40 -17.6777
      vertex 23.097 -60 -9.56709
      vertex 17.6777 -60 -17.6777
    endloop
  endfacet
  facet normal -0.980786 0 0.195089
    outer loop
      vertex -25 -60 0
      vertex -23.097 -40 9.56709
      vertex -25 -40 0
    endloop
  endfacet
  facet normal -0.980786 0 0.195089
    outer loop
      vertex -23.097 -40 9.56709
      vertex -25 -60 0
      vertex -23.097 -60 9.56709
    endloop
  endfacet
  facet normal 0.980786 0 -0.195089
    outer loop
      vertex 25 -60 0
      vertex 23.097 -40 -9.56709
      vertex 25 -40 0
    endloop
  endfacet
  facet normal 0.980786 0 -0.195089
    outer loop
      vertex 23.097 -40 -9.56709
      vertex 25 -60 0
      vertex 23.097 -60 -9.56709
    endloop
  endfacet
  facet normal -0.195089 0 0.980786
    outer loop
      vertex -9.56709 -40 23.097
      vertex 0 -60 25
      vertex 0 -40 25
    endloop
  endfacet
  facet normal -0.195089 0 0.980786
    outer loop
      vertex 0 -60 25
      vertex -9.56709 -40 23.097
      vertex -9.56709 -60 23.097
    endloop
  endfacet
  facet normal 0.195089 0 0.980786
    outer loop
      vertex 0 -40 25
      vertex 9.56709 -60 23.097
      vertex 9.56709 -40 23.097
    endloop
  endfacet
  facet normal 0.195089 0 0.980786
    outer loop
      vertex 9.56709 -60 23.097
      vertex 0 -40 25
      vertex 0 -60 25
    endloop
  endfacet
  facet normal 0.555568 0 0.831471
    outer loop
      vertex 9.56709 -40 23.097
      vertex 17.6777 -60 17.6777
      vertex 17.6777 -40 17.6777
    endloop
  endfacet
  facet normal 0.555568 0 0.831471
    outer loop
      vertex 17.6777 -60 17.6777
      vertex 9.56709 -40 23.097
      vertex 9.56709 -60 23.097
    endloop
  endfacet
  facet normal -0.831471 0 -0.555568
    outer loop
      vertex -17.6777 -60 -17.6777
      vertex -23.097 -40 -9.56709
      vertex -17.6777 -40 -17.6777
    endloop
  endfacet
  facet normal -0.831471 -0 -0.555568
    outer loop
      vertex -23.097 -40 -9.56709
      vertex -17.6777 -60 -17.6777
      vertex -23.097 -60 -9.56709
    endloop
  endfacet
  facet normal 0 -1 0
    outer loop
      vertex -9.56709 -60 23.097
      vertex 9.56709 -60 23.097
      vertex 0 -60 25
    endloop
  endfacet
  facet normal 0 -1 0
    outer loop
      vertex -17.6777 -60 17.6777
      vertex 9.56709 -60 23.097
      vertex -9.56709 -60 23.097
    endloop
  endfacet
  facet normal 0 -1 0
    outer loop
      vertex -17.6777 -60 17.6777
      vertex 17.6777 -60 17.6777
      vertex 9.56709 -60 23.097
    endloop
  endfacet
  facet normal 0 -1 0
    outer loop
      vertex -23.097 -60 9.56709
      vertex 17.6777 -60 17.6777
      vertex -17.6777 -60 17.6777
    endloop
  endfacet
  facet normal 0 -1 0
    outer loop
      vertex -23.097 -60 9.56709
      vertex 23.097 -60 9.56709
      vertex 17.6777 -60 17.6777
    endloop
  endfacet
  facet normal 0 -1 0
    outer loop
      vertex -25 -60 0
      vertex 23.097 -60 9.56709
      vertex -23.097 -60 9.56709
    endloop
  endfacet
  facet normal 0 -1 0
    outer loop
      vertex -25 -60 0
      vertex 25 -60 0
      vertex 23.097 -60 9.56709
    endloop
  endfacet
  facet normal 0 -1 0
    outer loop
      vertex -23.097 -60 -9.56709
      vertex 25 -60 0
      vertex -25 -60 0
    endloop
  endfacet
  facet normal 0 -1 0
    outer loop
      vertex -23.097 -60 -9.56709
      vertex 23.097 -60 -9.56709
      vertex 25 -60 0
    endloop
  endfacet
  facet normal 0 -1 0
    outer loop
      vertex -17.6777 -60 -17.6777
      vertex 23.097 -60 -9.56709
      vertex -23.097 -60 -9.56709
    endloop
  endfacet
  facet normal 0 -1 0
    outer loop
      vertex -17.6777 -60 -17.6777
      vertex 17.6777 -60 -17.6777
      vertex 23.097 -60 -9.56709
    endloop
  endfacet
  facet normal 0 -1 0
    outer loop
      vertex -9.56709 -60 -23.097
      vertex 17.6777 -60 -17.6777
      vertex -17.6777 -60 -17.6777
    endloop
  endfacet
  facet normal 0 -1 0
    outer loop
      vertex -9.56709 -60 -23.097
      vertex 9.56709 -60 -23.097
      vertex 17.6777 -60 -17.6777
    endloop
  endfacet
  facet normal -0 -1 0
    outer loop
      vertex 9.56709 -60 -23.097
      vertex -9.56709 -60 -23.097
      vertex 0 -60 -25
    endloop
  endfacet
  facet normal -0.980786 0 -0.195089
    outer loop
      vertex -23.097 -60 -9.56709
      vertex -25 -40 0
      vertex -23.097 -40 -9.56709
    endloop
  endfacet
  facet normal -0.980786 -0 -0.195089
    outer loop
      vertex -25 -40 0
      vertex -23.097 -60 -9.56709
      vertex -25 -60 0
    endloop
  endfacet
  facet normal -0.555568 0 -0.831471
    outer loop
      vertex -17.6777 -60 -17.6777
      vertex -9.56709 -40 -23.097
      vertex -9.56709 -60 -23.097
    endloop
  endfacet
  facet normal -0.555568 0 -0.831471
    outer loop
      vertex -9.56709 -40 -23.097
      vertex -17.6777 -60 -17.6777
      vertex -17.6777 -40 -17.6777
    endloop
  endfacet
endsolid OpenSCAD_Model
