solid OpenSCAD_Model
  facet normal 0 0.866025 -0.500001
    outer loop
      vertex 7.07107 0 -0.3
      vertex -7.07107 0.259808 0.15
      vertex 7.07107 0.259808 0.15
    endloop
  endfacet
  facet normal 0 0.866025 -0.500001
    outer loop
      vertex -7.07107 0.259808 0.15
      vertex 7.07107 0 -0.3
      vertex -7.07107 0 -0.3
    endloop
  endfacet
  facet normal -0 0 1
    outer loop
      vertex -7.07107 0.259808 0.15
      vertex 7.07107 -0.259808 0.15
      vertex 7.07107 0.259808 0.15
    endloop
  endfacet
  facet normal 0 0 1
    outer loop
      vertex 7.07107 -0.259808 0.15
      vertex -7.07107 0.259808 0.15
      vertex -7.07107 -0.259808 0.15
    endloop
  endfacet
  facet normal 0 -0.866025 -0.500001
    outer loop
      vertex -7.07107 0 -0.3
      vertex 7.07107 -0.259808 0.15
      vertex -7.07107 -0.259808 0.15
    endloop
  endfacet
  facet normal 0 -0.866025 -0.500001
    outer loop
      vertex 7.07107 -0.259808 0.15
      vertex -7.07107 0 -0.3
      vertex 7.07107 0 -0.3
    endloop
  endfacet
  facet normal -1 0 0
    outer loop
      vertex -7.07107 -0.259808 0.15
      vertex -7.07107 0.259808 0.15
      vertex -7.07107 0 -0.3
    endloop
  endfacet
  facet normal 1 0 -0
    outer loop
      vertex 7.07107 0 -0.3
      vertex 7.07107 0.259808 0.15
      vertex 7.07107 -0.259808 0.15
    endloop
  endfacet
endsolid OpenSCAD_Model
