solid OpenSCAD_Model
  facet normal 0.327435 0.509024 -0.796041
    outer loop
      vertex 39.2967 7.44693 -21.2369
      vertex 30.0823 7.47094 -25.0117
      vertex 35.5939 14.2592 -18.4039
    endloop
  endfacet
  facet normal -0.869794 -0.314733 -0.380002
    outer loop
      vertex -36.1467 -9.94914 2.65305
      vertex -38.8257 -13.1014 11.3959
      vertex -39.2857 -4.17399 5.05476
    endloop
  endfacet
  facet normal 0.327895 -0.47624 0.815893
    outer loop
      vertex -8.47812 -12.6715 20.4517
      vertex -8.88433 -12.8955 20.4842
      vertex -8.14545 -13.0001 20.1262
    endloop
  endfacet
  facet normal 0.715282 0.101212 0.691468
    outer loop
      vertex 37.3978 7.64744 -3.61026
      vertex 37.114 3.52633 -2.71347
      vertex 39.2857 4.17399 -5.05476
    endloop
  endfacet
  facet normal 0.869773 0.314772 0.380017
    outer loop
      vertex 37.2516 8.9934 -4.39045
      vertex 38.8257 13.1014 -11.3959
      vertex 36.5849 10.4648 -4.0833
    endloop
  endfacet
  facet normal 0.869803 0.314736 0.37998
    outer loop
      vertex 39.2857 4.17399 -5.05476
      vertex 37.2516 8.9934 -4.39045
      vertex 37.3978 7.64744 -3.61026
    endloop
  endfacet
  facet normal 0.869796 0.314731 0.379998
    outer loop
      vertex 37.2516 8.9934 -4.39045
      vertex 39.2857 4.17399 -5.05476
      vertex 38.8257 13.1014 -11.3959
    endloop
  endfacet
  facet normal -0.527727 0.704123 -0.475095
    outer loop
      vertex -16.5605 11.0093 -9.06152
      vertex -30.0489 9.0214 2.97495
      vertex -19.0792 14.4328 -1.18994
    endloop
  endfacet
  facet normal -0.239713 0.093436 -0.966337
    outer loop
      vertex 16.2881 6.35757 -24.9787
      vertex -0.488156 2.71329 -21.1695
      vertex 0.0142556 4.27631 -21.143
    endloop
  endfacet
  facet normal 0.376736 -0.105485 -0.920295
    outer loop
      vertex 36.7709 -0.41092 -21.3702
      vertex 30.0823 7.47094 -25.0117
      vertex 39.2967 7.44693 -21.2369
    endloop
  endfacet
  facet normal -0.158014 -0.855428 -0.49323
    outer loop
      vertex -0.0781124 -18.5886 -7.37968
      vertex -15.8517 -19.7578 -0.298573
      vertex -16.6703 -15.5921 -7.26106
    endloop
  endfacet
  facet normal 0.192864 -0.760337 0.620235
    outer loop
      vertex -7.4668 -18.8891 12.6959
      vertex -4.25279 -14.551 17.0145
      vertex -19.0017 -17.2556 18.2852
    endloop
  endfacet
  facet normal 0.192891 -0.760342 0.620221
    outer loop
      vertex -4.25279 -14.551 17.0145
      vertex -7.4668 -18.8891 12.6959
      vertex -2.59144 -15.0893 15.8379
    endloop
  endfacet
  facet normal 0.5821 0.691471 0.427818
    outer loop
      vertex 31.976 16.223 -7.12139
      vertex 38.8257 13.1014 -11.3959
      vertex 31.5218 16.6535 -7.1992
    endloop
  endfacet
  facet normal 0.582063 0.691593 0.427671
    outer loop
      vertex 32.9387 15.3108 -6.9565
      vertex 38.8257 13.1014 -11.3959
      vertex 31.976 16.223 -7.12139
    endloop
  endfacet
  facet normal 0.582077 0.691559 0.427705
    outer loop
      vertex 38.8257 13.1014 -11.3959
      vertex 32.9387 15.3108 -6.9565
      vertex 34.3279 13.4645 -5.86181
    endloop
  endfacet
  facet normal 0.582114 0.691388 0.427932
    outer loop
      vertex 30.6213 17.2177 -6.88598
      vertex 38.8257 13.1014 -11.3959
      vertex 30.4076 17.3516 -6.81162
    endloop
  endfacet
  facet normal 0.582066 0.691604 0.427647
    outer loop
      vertex 38.8257 13.1014 -11.3959
      vertex 30.6213 17.2177 -6.88598
      vertex 31.5218 16.6535 -7.1992
    endloop
  endfacet
  facet normal 0.919095 -0.29976 0.255751
    outer loop
      vertex 39.2857 4.17399 -5.05476
      vertex 37.1445 -2.48758 -5.16779
      vertex 40.0027 -1.56866 -14.3623
    endloop
  endfacet
  facet normal 0.694126 -0.705034 0.145315
    outer loop
      vertex 40.0027 -1.56866 -14.3623
      vertex 30.0489 -9.0214 -2.97495
      vertex 31.6329 -9.27582 -11.7756
    endloop
  endfacet
  facet normal 0.239675 -0.0934172 0.966348
    outer loop
      vertex -15.7536 -4.69452 25.0069
      vertex -16.2881 -6.35757 24.9787
      vertex -14.9988 -6.0775 24.686
    endloop
  endfacet
  facet normal -0.276217 -0.168347 -0.946236
    outer loop
      vertex 2.78653 -6.07506 -20.8061
      vertex -2.15302 1.18024 -20.655
      vertex 10.1162 -2.45931 -23.589
    endloop
  endfacet
  facet normal 0.177705 0.980821 0.0800676
    outer loop
      vertex 25.6607 18.6634 -8.06251
      vertex 26.2262 18.9887 -13.3025
      vertex 19.9064 19.8826 -10.2263
    endloop
  endfacet
  facet normal 0.177733 0.980816 0.0800702
    outer loop
      vertex 26.2262 18.9887 -13.3025
      vertex 25.6607 18.6634 -8.06251
      vertex 29.2684 17.8989 -6.70586
    endloop
  endfacet
  facet normal 0.175616 0.981555 0.0755629
    outer loop
      vertex 19.8751 19.8881 -10.225
      vertex 19.9064 19.8826 -10.2263
      vertex 26.2262 18.9887 -13.3025
    endloop
  endfacet
  facet normal -3.03965e-05 -0.98663 -0.162976
    outer loop
      vertex -0.0781124 -18.5886 -7.37968
      vertex -12.6199 -20.9155 6.70937
      vertex -15.8517 -19.7578 -0.298573
    endloop
  endfacet
  facet normal -3.04308e-05 -0.98663 -0.162976
    outer loop
      vertex -12.6199 -20.9155 6.70937
      vertex -0.0781124 -18.5886 -7.37968
      vertex 3.15372 -19.7463 -0.371739
    endloop
  endfacet
  facet normal 0.656863 -0.535028 0.531297
    outer loop
      vertex 30.8728 -6.33952 -1.29283
      vertex 37.1445 -2.48758 -5.16779
      vertex 32.8446 -4.07915 -1.4544
    endloop
  endfacet
  facet normal 0.656868 -0.535029 0.531288
    outer loop
      vertex 30.0489 -9.0214 -2.97495
      vertex 30.8728 -6.33952 -1.29283
      vertex 27.8707 -8.44566 0.297903
    endloop
  endfacet
  facet normal 0.656863 -0.535031 0.531293
    outer loop
      vertex 30.8728 -6.33952 -1.29283
      vertex 30.0489 -9.0214 -2.97495
      vertex 37.1445 -2.48758 -5.16779
    endloop
  endfacet
  facet normal 0.102993 -0.628005 0.771364
    outer loop
      vertex -14.1907 -10.2164 23.3739
      vertex -26.9432 -13.2461 22.61
      vertex -8.88433 -12.8955 20.4842
    endloop
  endfacet
  facet normal -0.261288 0.549976 0.793256
    outer loop
      vertex -20.8454 5.72444 22.9319
      vertex -36.7709 0.41092 21.3702
      vertex -27.941 -0.809377 25.1247
    endloop
  endfacet
  facet normal -0.327434 -0.509025 0.796041
    outer loop
      vertex -30.0823 -7.47094 25.0117
      vertex -35.5939 -14.2592 18.4039
      vertex -26.9432 -13.2461 22.61
    endloop
  endfacet
  facet normal -0.0135523 -0.83118 -0.555839
    outer loop
      vertex 15.4614 -14.5012 -13.8707
      vertex -0.0781124 -18.5886 -7.37968
      vertex 9.8757 -11.1358 -18.767
    endloop
  endfacet
  facet normal 0.743417 -0.249483 0.620555
    outer loop
      vertex 36.5152 0.975379 -3.02168
      vertex 39.2857 4.17399 -5.05476
      vertex 37.114 3.52633 -2.71347
    endloop
  endfacet
  facet normal 0.743403 -0.249493 0.620568
    outer loop
      vertex 37.1445 -2.48758 -5.16779
      vertex 36.5152 0.975379 -3.02168
      vertex 34.9908 -1.29832 -2.10966
    endloop
  endfacet
  facet normal 0.743417 -0.249483 0.620556
    outer loop
      vertex 36.5152 0.975379 -3.02168
      vertex 37.1445 -2.48758 -5.16779
      vertex 39.2857 4.17399 -5.05476
    endloop
  endfacet
  facet normal 0.252336 -0.251416 0.934407
    outer loop
      vertex -14.1907 -10.2164 23.3739
      vertex -12.6855 -9.28994 23.2167
      vertex -14.1548 -8.27897 23.8855
    endloop
  endfacet
  facet normal 0.2524 -0.251528 0.93436
    outer loop
      vertex -12.6855 -9.28994 23.2167
      vertex -14.1907 -10.2164 23.3739
      vertex -12.2197 -9.61042 23.0046
    endloop
  endfacet
  facet normal 0.252378 -0.251421 0.934394
    outer loop
      vertex -16.2881 -6.35757 24.9787
      vertex -14.1548 -8.27897 23.8855
      vertex -14.6413 -6.98194 24.3659
    endloop
  endfacet
  facet normal 0.252397 -0.251379 0.9344
    outer loop
      vertex -16.2881 -6.35757 24.9787
      vertex -14.6413 -6.98194 24.3659
      vertex -14.8977 -6.29821 24.6191
    endloop
  endfacet
  facet normal 0.252385 -0.251414 0.934394
    outer loop
      vertex -14.1548 -8.27897 23.8855
      vertex -16.2881 -6.35757 24.9787
      vertex -14.1907 -10.2164 23.3739
    endloop
  endfacet
  facet normal -0.302403 0.944368 -0.129311
    outer loop
      vertex -7.73985 18.0312 -1.42844
      vertex -19.0792 14.4328 -1.18994
      vertex -8.60279 17.9282 -0.162606
    endloop
  endfacet
  facet normal -0.302401 0.94437 -0.129305
    outer loop
      vertex -5.90543 17.8978 -6.6928
      vertex -7.73985 18.0312 -1.42844
      vertex -4.53049 18.8214 -3.16288
    endloop
  endfacet
  facet normal -0.302403 0.944369 -0.129306
    outer loop
      vertex -7.73985 18.0312 -1.42844
      vertex -5.90543 17.8978 -6.6928
      vertex -19.0792 14.4328 -1.18994
    endloop
  endfacet
  facet normal -0.449993 -0.197508 -0.870917
    outer loop
      vertex -10.9554 -1.13505 -16.9781
      vertex -14.9509 -9.05268 -13.1181
      vertex -13.6619 -0.751781 -15.6666
    endloop
  endfacet
  facet normal 0.15795 -0.968619 0.19191
    outer loop
      vertex -7.4668 -18.8891 12.6959
      vertex -12.6199 -20.9155 6.70937
      vertex 3.15372 -19.7463 -0.371739
    endloop
  endfacet
  facet normal -0.181618 -0.575653 -0.797269
    outer loop
      vertex 9.8757 -11.1358 -18.767
      vertex -6.0159 -8.39035 -17.1292
      vertex 2.78653 -6.07506 -20.8061
    endloop
  endfacet
  facet normal -0.582078 -0.691558 -0.427706
    outer loop
      vertex -29.4581 -17.831 6.29454
      vertex -38.8257 -13.1014 11.3959
      vertex -28.2052 -13.9587 -1.67169
    endloop
  endfacet
  facet normal -0.336783 -0.824925 -0.453955
    outer loop
      vertex -16.6703 -15.5921 -7.26106
      vertex -29.4581 -17.831 6.29454
      vertex -28.2052 -13.9587 -1.67169
    endloop
  endfacet
  facet normal 0.0294256 0.289199 0.956817
    outer loop
      vertex -20.8454 5.72444 22.9319
      vertex -18.4867 0.924335 24.3102
      vertex -18.3775 4.97342 23.083
    endloop
  endfacet
  facet normal 0.0294006 0.289188 0.956821
    outer loop
      vertex -18.4867 0.924335 24.3102
      vertex -20.8454 5.72444 22.9319
      vertex -27.941 -0.809377 25.1247
    endloop
  endfacet
  facet normal -0.0319982 0.368912 -0.928913
    outer loop
      vertex 30.0823 7.47094 -25.0117
      vertex 16.2881 6.35757 -24.9787
      vertex 26.9432 13.2461 -22.61
    endloop
  endfacet
  facet normal 0.857243 -0.268092 -0.439614
    outer loop
      vertex 42.5285 6.2892 -14.2289
      vertex 36.7709 -0.41092 -21.3702
      vertex 39.2967 7.44693 -21.2369
    endloop
  endfacet
  facet normal 0.857243 -0.268085 -0.43962
    outer loop
      vertex 36.7709 -0.41092 -21.3702
      vertex 42.5285 6.2892 -14.2289
      vertex 40.0027 -1.56866 -14.3623
    endloop
  endfacet
  facet normal -0.322429 -0.231713 -0.917795
    outer loop
      vertex 2.78653 -6.07506 -20.8061
      vertex -6.0159 -8.39035 -17.1292
      vertex -7.81787 -0.902467 -18.3866
    endloop
  endfacet
  facet normal -0.181618 -0.575655 -0.797268
    outer loop
      vertex 9.8757 -11.1358 -18.767
      vertex -3.29805 -14.6009 -13.2641
      vertex -6.0159 -8.39035 -17.1292
    endloop
  endfacet
  facet normal 0.376734 -0.105487 -0.920296
    outer loop
      vertex 36.7709 -0.41092 -21.3702
      vertex 27.941 0.809377 -25.1247
      vertex 30.0823 7.47094 -25.0117
    endloop
  endfacet
  facet normal -0.376734 0.105487 0.920296
    outer loop
      vertex -27.941 -0.809377 25.1247
      vertex -36.7709 0.41092 21.3702
      vertex -30.0823 -7.47094 25.0117
    endloop
  endfacet
  facet normal -0.402978 0.785079 -0.470382
    outer loop
      vertex -7.75809 13.3246 -12.7384
      vertex -19.0792 14.4328 -1.18994
      vertex -5.90543 17.8978 -6.6928
    endloop
  endfacet
  facet normal -0.473099 0.874063 -0.110417
    outer loop
      vertex -19.0792 14.4328 -1.18994
      vertex -31.6329 9.27582 11.7756
      vertex -18.6932 15.659 6.8628
    endloop
  endfacet
  facet normal -0.919095 0.29976 -0.255751
    outer loop
      vertex -39.2857 -4.17399 5.05476
      vertex -40.0027 1.56866 14.3623
      vertex -37.1445 2.48758 5.16779
    endloop
  endfacet
  facet normal -0.560118 0.0396247 -0.827465
    outer loop
      vertex -15.5252 0.188985 -14.6519
      vertex -30.0621 -1.42332 -4.88895
      vertex -16.2618 1.54403 -14.0884
    endloop
  endfacet
  facet normal -0.0294044 -0.289187 -0.956821
    outer loop
      vertex 27.941 0.809377 -25.1247
      vertex 10.1162 -2.45931 -23.589
      vertex 14.8574 1.90645 -25.0542
    endloop
  endfacet
  facet normal 0.743413 -0.249468 0.620566
    outer loop
      vertex 34.9908 -1.29832 -2.10966
      vertex 34.0624 -2.68316 -1.55418
      vertex 37.1445 -2.48758 -5.16779
    endloop
  endfacet
  facet normal -0.292321 -0.594239 -0.749286
    outer loop
      vertex -3.29805 -14.6009 -13.2641
      vertex -16.6703 -15.5921 -7.26106
      vertex -6.0159 -8.39035 -17.1292
    endloop
  endfacet
  facet normal 0.261289 -0.54998 -0.793253
    outer loop
      vertex 28.401 -8.11809 -18.7836
      vertex 20.8454 -5.72444 -22.9319
      vertex 36.7709 -0.41092 -21.3702
    endloop
  endfacet
  facet normal 0.0932277 0.481668 0.871381
    outer loop
      vertex -18.4499 5.77095 22.6499
      vertex -20.8454 5.72444 22.9319
      vertex -18.3775 4.97342 23.083
    endloop
  endfacet
  facet normal -0.322421 -0.231694 -0.917803
    outer loop
      vertex 2.78653 -6.07506 -20.8061
      vertex -7.81787 -0.902467 -18.3866
      vertex -4.72687 -0.0894471 -19.6777
    endloop
  endfacet
  facet normal -0.38242 -0.241785 -0.891793
    outer loop
      vertex -7.81787 -0.902467 -18.3866
      vertex -14.9509 -9.05268 -13.1181
      vertex -10.9554 -1.13505 -16.9781
    endloop
  endfacet
  facet normal -0.583278 -0.382164 -0.716755
    outer loop
      vertex -22.6583 -7.96123 -9.38342
      vertex -36.1467 -9.94914 2.65305
      vertex -27.9646 -5.28216 -6.49372
    endloop
  endfacet
  facet normal -0.582077 -0.69156 -0.427705
    outer loop
      vertex -28.2052 -13.9587 -1.67169
      vertex -38.8257 -13.1014 11.3959
      vertex -36.1467 -9.94914 2.65305
    endloop
  endfacet
  facet normal -0.336787 -0.824922 -0.453959
    outer loop
      vertex -15.8517 -19.7578 -0.298573
      vertex -29.4581 -17.831 6.29454
      vertex -16.6703 -15.5921 -7.26106
    endloop
  endfacet
  facet normal -0.857243 0.268085 0.43962
    outer loop
      vertex -42.5285 -6.2892 14.2289
      vertex -36.7709 0.41092 21.3702
      vertex -40.0027 1.56866 14.3623
    endloop
  endfacet
  facet normal -0.857243 0.268092 0.439614
    outer loop
      vertex -36.7709 0.41092 21.3702
      vertex -42.5285 -6.2892 14.2289
      vertex -39.2967 -7.44693 21.2369
    endloop
  endfacet
  facet normal -0.91909 0.299771 -0.255757
    outer loop
      vertex -39.2857 -4.17399 5.05476
      vertex -42.5285 -6.2892 14.2289
      vertex -40.0027 1.56866 14.3623
    endloop
  endfacet
  facet normal 0.00386096 -0.0182011 0.999827
    outer loop
      vertex -27.941 -0.809377 25.1247
      vertex -30.0823 -7.47094 25.0117
      vertex -16.2881 -6.35757 24.9787
    endloop
  endfacet
  facet normal 0.0950053 0.47903 0.872642
    outer loop
      vertex -18.5415 6.86094 22.0572
      vertex -20.8454 5.72444 22.9319
      vertex -18.5477 6.8496 22.0641
    endloop
  endfacet
  facet normal 0.0932265 0.481683 0.871373
    outer loop
      vertex -18.4499 5.77095 22.6499
      vertex -18.5477 6.8496 22.0641
      vertex -20.8454 5.72444 22.9319
    endloop
  endfacet
  facet normal 0.91909 -0.299771 0.255757
    outer loop
      vertex 42.5285 6.2892 -14.2289
      vertex 39.2857 4.17399 -5.05476
      vertex 40.0027 -1.56866 -14.3623
    endloop
  endfacet
  facet normal 0.869787 0.31474 0.380012
    outer loop
      vertex 38.8257 13.1014 -11.3959
      vertex 39.2857 4.17399 -5.05476
      vertex 42.5285 6.2892 -14.2289
    endloop
  endfacet
  facet normal -0.583277 -0.382167 -0.716754
    outer loop
      vertex -28.2052 -13.9587 -1.67169
      vertex -36.1467 -9.94914 2.65305
      vertex -22.6583 -7.96123 -9.38342
    endloop
  endfacet
  facet normal -0.656863 0.535031 -0.531294
    outer loop
      vertex -23.8902 7.39355 -6.27864
      vertex -37.1445 2.48758 5.16779
      vertex -30.0489 9.0214 2.97495
    endloop
  endfacet
  facet normal 0.560292 -0.735995 -0.379979
    outer loop
      vertex 36.7709 -0.41092 -21.3702
      vertex 31.6329 -9.27582 -11.7756
      vertex 28.401 -8.11809 -18.7836
    endloop
  endfacet
  facet normal 0.560293 -0.735995 -0.379978
    outer loop
      vertex 31.6329 -9.27582 -11.7756
      vertex 36.7709 -0.41092 -21.3702
      vertex 40.0027 -1.56866 -14.3623
    endloop
  endfacet
  facet normal 0.792013 0.544954 -0.275211
    outer loop
      vertex 42.5285 6.2892 -14.2289
      vertex 35.5939 14.2592 -18.4039
      vertex 38.8257 13.1014 -11.3959
    endloop
  endfacet
  facet normal 0.792013 0.544951 -0.275217
    outer loop
      vertex 35.5939 14.2592 -18.4039
      vertex 42.5285 6.2892 -14.2289
      vertex 39.2967 7.44693 -21.2369
    endloop
  endfacet
  facet normal 0.582082 0.691552 0.42771
    outer loop
      vertex 38.8257 13.1014 -11.3959
      vertex 34.3279 13.4645 -5.86181
      vertex 36.5849 10.4648 -4.0833
    endloop
  endfacet
  facet normal -0.157954 0.968616 -0.191922
    outer loop
      vertex 10.1195 19.9323 -9.61415
      vertex 7.4668 18.8891 -12.6959
      vertex 6.16361 19.1569 -10.2718
    endloop
  endfacet
  facet normal -0.158031 0.968595 -0.191961
    outer loop
      vertex 5.24618 19.0683 -9.96359
      vertex 6.16361 19.1569 -10.2718
      vertex 7.4668 18.8891 -12.6959
    endloop
  endfacet
  facet normal -0.302405 0.944369 -0.129299
    outer loop
      vertex -19.0792 14.4328 -1.18994
      vertex -11.2816 17.6084 3.76686
      vertex -8.60279 17.9282 -0.162606
    endloop
  endfacet
  facet normal -0.302401 0.94437 -0.129305
    outer loop
      vertex -11.2816 17.6084 3.76686
      vertex -19.0792 14.4328 -1.18994
      vertex -18.6932 15.659 6.8628
    endloop
  endfacet
  facet normal -0.694126 0.705034 -0.145315
    outer loop
      vertex -30.0489 9.0214 2.97495
      vertex -40.0027 1.56866 14.3623
      vertex -31.6329 9.27582 11.7756
    endloop
  endfacet
  facet normal 0.149236 0.846615 -0.510854
    outer loop
      vertex 26.9432 13.2461 -22.61
      vertex 19.0017 17.2556 -18.2852
      vertex 35.5939 14.2592 -18.4039
    endloop
  endfacet
  facet normal 0.121266 -0.748026 -0.652497
    outer loop
      vertex 28.401 -8.11809 -18.7836
      vertex 9.8757 -11.1358 -18.767
      vertex 20.8454 -5.72444 -22.9319
    endloop
  endfacet
  facet normal -0.247771 -0.0555335 -0.967226
    outer loop
      vertex 10.1162 -2.45931 -23.589
      vertex -0.488156 2.71329 -21.1695
      vertex 14.8574 1.90645 -25.0542
    endloop
  endfacet
  facet normal 0.40298 -0.785085 0.470371
    outer loop
      vertex 5.90543 -17.8978 6.6928
      vertex 10.9366 -15.4036 6.54546
      vertex 6.78701 -15.7217 9.5696
    endloop
  endfacet
  facet normal 0.402978 -0.78508 0.470381
    outer loop
      vertex 19.0792 -14.4328 1.18994
      vertex 10.9366 -15.4036 6.54546
      vertex 5.90543 -17.8978 6.6928
    endloop
  endfacet
  facet normal 0.402999 -0.785047 0.470418
    outer loop
      vertex 10.9366 -15.4036 6.54546
      vertex 19.0792 -14.4328 1.18994
      vertex 15.4687 -14.0793 4.87292
    endloop
  endfacet
  facet normal 0.302406 -0.944368 0.129304
    outer loop
      vertex 19.0792 -14.4328 1.18994
      vertex 3.15372 -19.7463 -0.371739
      vertex 18.6932 -15.659 -6.8628
    endloop
  endfacet
  facet normal -0.0135605 -0.831176 -0.555844
    outer loop
      vertex 9.8757 -11.1358 -18.767
      vertex -0.0781124 -18.5886 -7.37968
      vertex -3.29805 -14.6009 -13.2641
    endloop
  endfacet
  facet normal -0.158014 -0.855426 -0.493233
    outer loop
      vertex -0.0781124 -18.5886 -7.37968
      vertex -16.6703 -15.5921 -7.26106
      vertex -3.29805 -14.6009 -13.2641
    endloop
  endfacet
  facet normal 0.65686 -0.535041 0.531287
    outer loop
      vertex 34.0624 -2.68316 -1.55418
      vertex 32.8446 -4.07915 -1.4544
      vertex 37.1445 -2.48758 -5.16779
    endloop
  endfacet
  facet normal 0.192893 -0.76031 0.620259
    outer loop
      vertex -8.88433 -12.8955 20.4842
      vertex -7.97612 -13.3444 19.6515
      vertex -8.14545 -13.0001 20.1262
    endloop
  endfacet
  facet normal 0.19286 -0.760336 0.620238
    outer loop
      vertex -19.0017 -17.2556 18.2852
      vertex -7.97612 -13.3444 19.6515
      vertex -8.88433 -12.8955 20.4842
    endloop
  endfacet
  facet normal 0.192862 -0.76034 0.620232
    outer loop
      vertex -19.0017 -17.2556 18.2852
      vertex -6.94945 -13.6771 18.9244
      vertex -7.97612 -13.3444 19.6515
    endloop
  endfacet
  facet normal 0.192865 -0.760348 0.620221
    outer loop
      vertex -6.94945 -13.6771 18.9244
      vertex -19.0017 -17.2556 18.2852
      vertex -4.25279 -14.551 17.0145
    endloop
  endfacet
  facet normal -0.149236 -0.846615 0.510854
    outer loop
      vertex -26.9432 -13.2461 22.61
      vertex -35.5939 -14.2592 18.4039
      vertex -19.0017 -17.2556 18.2852
    endloop
  endfacet
  facet normal -0.239713 0.0934408 -0.966337
    outer loop
      vertex 14.8574 1.90645 -25.0542
      vertex -0.488156 2.71329 -21.1695
      vertex 16.2881 6.35757 -24.9787
    endloop
  endfacet
  facet normal -0.473101 0.874061 -0.11042
    outer loop
      vertex -30.0489 9.0214 2.97495
      vertex -31.6329 9.27582 11.7756
      vertex -19.0792 14.4328 -1.18994
    endloop
  endfacet
  facet normal -0.402985 0.785072 -0.470388
    outer loop
      vertex -16.5605 11.0093 -9.06152
      vertex -19.0792 14.4328 -1.18994
      vertex -7.75809 13.3246 -12.7384
    endloop
  endfacet
  facet normal -0.177699 -0.980821 -0.0800793
    outer loop
      vertex -29.4581 -17.831 6.29454
      vertex -12.6199 -20.9155 6.70937
      vertex -26.2262 -18.9887 13.3025
    endloop
  endfacet
  facet normal -0.177698 -0.980821 -0.0800821
    outer loop
      vertex -12.6199 -20.9155 6.70937
      vertex -29.4581 -17.831 6.29454
      vertex -15.8517 -19.7578 -0.298573
    endloop
  endfacet
  facet normal -0.428872 -0.902049 0.0487497
    outer loop
      vertex -38.8257 -13.1014 11.3959
      vertex -26.2262 -18.9887 13.3025
      vertex -35.5939 -14.2592 18.4039
    endloop
  endfacet
  facet normal -0.428875 -0.902047 0.0487703
    outer loop
      vertex -26.2262 -18.9887 13.3025
      vertex -38.8257 -13.1014 11.3959
      vertex -29.4581 -17.831 6.29454
    endloop
  endfacet
  facet normal -0.376736 0.105485 0.920295
    outer loop
      vertex -36.7709 0.41092 21.3702
      vertex -39.2967 -7.44693 21.2369
      vertex -30.0823 -7.47094 25.0117
    endloop
  endfacet
  facet normal -0.327435 -0.509024 0.796041
    outer loop
      vertex -30.0823 -7.47094 25.0117
      vertex -39.2967 -7.44693 21.2369
      vertex -35.5939 -14.2592 18.4039
    endloop
  endfacet
  facet normal -0.527725 0.704126 -0.475093
    outer loop
      vertex -23.8902 7.39355 -6.27864
      vertex -30.0489 9.0214 2.97495
      vertex -16.5605 11.0093 -9.06152
    endloop
  endfacet
  facet normal -0.514424 -0.100299 -0.85165
    outer loop
      vertex -13.6619 -0.751781 -15.6666
      vertex -22.6583 -7.96123 -9.38342
      vertex -15.5252 0.188985 -14.6519
    endloop
  endfacet
  facet normal -0.442392 0.505688 -0.740655
    outer loop
      vertex -8.42965 6.72281 -16.8447
      vertex -16.5605 11.0093 -9.06152
      vertex -7.75809 13.3246 -12.7384
    endloop
  endfacet
  facet normal -0.29232 -0.594239 -0.749286
    outer loop
      vertex -6.0159 -8.39035 -17.1292
      vertex -16.6703 -15.5921 -7.26106
      vertex -14.9509 -9.05268 -13.1181
    endloop
  endfacet
  facet normal -0.0294052 -0.289183 -0.956822
    outer loop
      vertex 20.8454 -5.72444 -22.9319
      vertex 10.1162 -2.45931 -23.589
      vertex 27.941 0.809377 -25.1247
    endloop
  endfacet
  facet normal 0.261288 -0.549976 -0.793256
    outer loop
      vertex 36.7709 -0.41092 -21.3702
      vertex 20.8454 -5.72444 -22.9319
      vertex 27.941 0.809377 -25.1247
    endloop
  endfacet
  facet normal 0.428874 0.902047 -0.0487692
    outer loop
      vertex 26.2262 18.9887 -13.3025
      vertex 30.4076 17.3516 -6.81162
      vertex 38.8257 13.1014 -11.3959
    endloop
  endfacet
  facet normal 0.428847 0.902061 -0.0487478
    outer loop
      vertex 30.4076 17.3516 -6.81162
      vertex 26.2262 18.9887 -13.3025
      vertex 29.2684 17.8989 -6.70586
    endloop
  endfacet
  facet normal 0.428872 0.902049 -0.0487497
    outer loop
      vertex 26.2262 18.9887 -13.3025
      vertex 38.8257 13.1014 -11.3959
      vertex 35.5939 14.2592 -18.4039
    endloop
  endfacet
  facet normal 0.25239 -0.251655 0.934328
    outer loop
      vertex -14.9401 -6.18517 24.661
      vertex -16.2881 -6.35757 24.9787
      vertex -14.8977 -6.29821 24.6191
    endloop
  endfacet
  facet normal 0.0294032 0.289175 0.956824
    outer loop
      vertex -18.4867 0.924335 24.3102
      vertex -27.941 -0.809377 25.1247
      vertex -18.542 -1.12547 24.9314
    endloop
  endfacet
  facet normal 0.0293999 0.289175 0.956825
    outer loop
      vertex -18.4612 -1.4231 25.0189
      vertex -27.941 -0.809377 25.1247
      vertex -18.2281 -1.62382 25.0724
    endloop
  endfacet
  facet normal 0.0294058 0.289271 0.956796
    outer loop
      vertex -27.941 -0.809377 25.1247
      vertex -18.4612 -1.4231 25.0189
      vertex -18.542 -1.12547 24.9314
    endloop
  endfacet
  facet normal -0.121273 0.74803 0.652491
    outer loop
      vertex -17.822 9.84137 18.7741
      vertex -20.8454 5.72444 22.9319
      vertex -18.5415 6.86094 22.0572
    endloop
  endfacet
  facet normal -0.121265 0.748027 0.652495
    outer loop
      vertex -20.8454 5.72444 22.9319
      vertex -17.822 9.84137 18.7741
      vertex -28.401 8.11809 18.7836
    endloop
  endfacet
  facet normal -0.261289 0.54998 0.793253
    outer loop
      vertex -28.401 8.11809 18.7836
      vertex -36.7709 0.41092 21.3702
      vertex -20.8454 5.72444 22.9319
    endloop
  endfacet
  facet normal -0.015046 0.950954 -0.308967
    outer loop
      vertex 26.2262 18.9887 -13.3025
      vertex 16.7762 19.6452 -10.8217
      vertex 19.8751 19.8881 -10.225
    endloop
  endfacet
  facet normal -0.0150389 0.950962 -0.308942
    outer loop
      vertex 16.7762 19.6452 -10.8217
      vertex 26.2262 18.9887 -13.3025
      vertex 7.4668 18.8891 -12.6959
    endloop
  endfacet
  facet normal -0.0150376 0.950955 -0.308963
    outer loop
      vertex 13.8202 19.7727 -10.2855
      vertex 7.4668 18.8891 -12.6959
      vertex 10.1195 19.9323 -9.61415
    endloop
  endfacet
  facet normal -0.0150302 0.95095 -0.30898
    outer loop
      vertex 7.4668 18.8891 -12.6959
      vertex 13.8202 19.7727 -10.2855
      vertex 16.7762 19.6452 -10.8217
    endloop
  endfacet
  facet normal -0.156178 0.960412 0.23069
    outer loop
      vertex -15.4088 14.9437 12.0643
      vertex -18.6932 15.659 6.8628
      vertex -15.664 14.5738 13.4315
    endloop
  endfacet
  facet normal -0.156228 0.960397 0.230719
    outer loop
      vertex -11.3092 17.5979 3.79184
      vertex -18.6932 15.659 6.8628
      vertex -15.4088 14.9437 12.0643
    endloop
  endfacet
  facet normal -0.155936 0.960291 0.231355
    outer loop
      vertex -18.6932 15.659 6.8628
      vertex -11.3092 17.5979 3.79184
      vertex -11.2816 17.6084 3.76686
    endloop
  endfacet
  facet normal -0.32831 0.895862 0.299406
    outer loop
      vertex -18.6932 15.659 6.8628
      vertex -15.8626 14.3033 14.0231
      vertex -15.664 14.5738 13.4315
    endloop
  endfacet
  facet normal -0.328268 0.895882 0.299393
    outer loop
      vertex -15.8626 14.3033 14.0231
      vertex -18.6932 15.659 6.8628
      vertex -28.401 8.11809 18.7836
    endloop
  endfacet
  facet normal -0.328271 0.895881 0.29939
    outer loop
      vertex -28.401 8.11809 18.7836
      vertex -18.6932 15.659 6.8628
      vertex -31.6329 9.27582 11.7756
    endloop
  endfacet
  facet normal -0.560292 0.735995 0.379979
    outer loop
      vertex -31.6329 9.27582 11.7756
      vertex -36.7709 0.41092 21.3702
      vertex -28.401 8.11809 18.7836
    endloop
  endfacet
  facet normal -0.560293 0.735995 0.379978
    outer loop
      vertex -36.7709 0.41092 21.3702
      vertex -31.6329 9.27582 11.7756
      vertex -40.0027 1.56866 14.3623
    endloop
  endfacet
  facet normal -0.869787 -0.31474 -0.380012
    outer loop
      vertex -38.8257 -13.1014 11.3959
      vertex -42.5285 -6.2892 14.2289
      vertex -39.2857 -4.17399 5.05476
    endloop
  endfacet
  facet normal -0.792013 -0.544954 0.275211
    outer loop
      vertex -35.5939 -14.2592 18.4039
      vertex -42.5285 -6.2892 14.2289
      vertex -38.8257 -13.1014 11.3959
    endloop
  endfacet
  facet normal -0.792013 -0.544951 0.275217
    outer loop
      vertex -42.5285 -6.2892 14.2289
      vertex -35.5939 -14.2592 18.4039
      vertex -39.2967 -7.44693 21.2369
    endloop
  endfacet
  facet normal 0.149236 0.846615 -0.510853
    outer loop
      vertex 35.5939 14.2592 -18.4039
      vertex 19.0017 17.2556 -18.2852
      vertex 26.2262 18.9887 -13.3025
    endloop
  endfacet
  facet normal -0.414207 0.148367 -0.898009
    outer loop
      vertex -0.488156 2.71329 -21.1695
      vertex -0.722272 5.63135 -20.5794
      vertex 0.0142556 4.27631 -21.143
    endloop
  endfacet
  facet normal -0.414144 0.148367 -0.898038
    outer loop
      vertex -2.58561 6.57212 -19.5647
      vertex -0.488156 2.71329 -21.1695
      vertex -2.15302 1.18024 -20.655
    endloop
  endfacet
  facet normal -0.414125 0.14838 -0.898045
    outer loop
      vertex -0.488156 2.71329 -21.1695
      vertex -2.58561 6.57212 -19.5647
      vertex -0.722272 5.63135 -20.5794
    endloop
  endfacet
  facet normal -0.414165 0.148345 -0.898032
    outer loop
      vertex -5.29208 6.95539 -18.2533
      vertex -2.15302 1.18024 -20.655
      vertex -4.72687 -0.0894471 -19.6777
    endloop
  endfacet
  facet normal -0.41413 0.148369 -0.898044
    outer loop
      vertex -2.15302 1.18024 -20.655
      vertex -5.29208 6.95539 -18.2533
      vertex -2.58561 6.57212 -19.5647
    endloop
  endfacet
  facet normal -0.414134 0.148366 -0.898043
    outer loop
      vertex -8.42965 6.72281 -16.8447
      vertex -4.72687 -0.0894471 -19.6777
      vertex -7.81787 -0.902467 -18.3866
    endloop
  endfacet
  facet normal -0.414164 0.148345 -0.898032
    outer loop
      vertex -4.72687 -0.0894471 -19.6777
      vertex -8.42965 6.72281 -16.8447
      vertex -5.29208 6.95539 -18.2533
    endloop
  endfacet
  facet normal -0.414145 0.148361 -0.898038
    outer loop
      vertex -11.5206 5.90978 -15.5536
      vertex -7.81787 -0.902467 -18.3866
      vertex -10.9554 -1.13505 -16.9781
    endloop
  endfacet
  facet normal -0.41414 0.148365 -0.89804
    outer loop
      vertex -7.81787 -0.902467 -18.3866
      vertex -11.5206 5.90978 -15.5536
      vertex -8.42965 6.72281 -16.8447
    endloop
  endfacet
  facet normal -0.414157 0.148348 -0.898035
    outer loop
      vertex -14.0945 4.6401 -14.5764
      vertex -10.9554 -1.13505 -16.9781
      vertex -13.6619 -0.751781 -15.6666
    endloop
  endfacet
  facet normal -0.414135 0.148363 -0.898043
    outer loop
      vertex -10.9554 -1.13505 -16.9781
      vertex -14.0945 4.6401 -14.5764
      vertex -11.5206 5.90978 -15.5536
    endloop
  endfacet
  facet normal -0.414138 0.148366 -0.898041
    outer loop
      vertex -15.7594 3.10705 -14.0618
      vertex -13.6619 -0.751781 -15.6666
      vertex -15.5252 0.188985 -14.6519
    endloop
  endfacet
  facet normal -0.414168 0.148346 -0.89803
    outer loop
      vertex -13.6619 -0.751781 -15.6666
      vertex -15.7594 3.10705 -14.0618
      vertex -14.0945 4.6401 -14.5764
    endloop
  endfacet
  facet normal -0.41407 0.148378 -0.89807
    outer loop
      vertex -15.7594 3.10705 -14.0618
      vertex -15.5252 0.188985 -14.6519
      vertex -16.2618 1.54403 -14.0884
    endloop
  endfacet
  facet normal 0.102992 -0.628018 0.771354
    outer loop
      vertex -8.88433 -12.8955 20.4842
      vertex -26.9432 -13.2461 22.61
      vertex -19.0017 -17.2556 18.2852
    endloop
  endfacet
  facet normal 0.157962 -0.968615 0.191919
    outer loop
      vertex 5.90543 -17.8978 6.6928
      vertex -7.4668 -18.8891 12.6959
      vertex 3.15372 -19.7463 -0.371739
    endloop
  endfacet
  facet normal 0.473099 -0.874063 0.110417
    outer loop
      vertex 31.6329 -9.27582 -11.7756
      vertex 19.0792 -14.4328 1.18994
      vertex 18.6932 -15.659 -6.8628
    endloop
  endfacet
  facet normal 0.121267 -0.748031 -0.65249
    outer loop
      vertex 15.4614 -14.5012 -13.8707
      vertex 9.8757 -11.1358 -18.767
      vertex 28.401 -8.11809 -18.7836
    endloop
  endfacet
  facet normal 0.156245 -0.960396 -0.230711
    outer loop
      vertex 15.4614 -14.5012 -13.8707
      vertex 3.15372 -19.7463 -0.371739
      vertex -0.0781124 -18.5886 -7.37968
    endloop
  endfacet
  facet normal 0.156235 -0.960395 -0.23072
    outer loop
      vertex 3.15372 -19.7463 -0.371739
      vertex 15.4614 -14.5012 -13.8707
      vertex 18.6932 -15.659 -6.8628
    endloop
  endfacet
  facet normal 0.527725 -0.704131 0.475086
    outer loop
      vertex 27.8707 -8.44566 0.297903
      vertex 25.8338 -9.64262 0.78646
      vertex 30.0489 -9.0214 -2.97495
    endloop
  endfacet
  facet normal 0.694124 -0.705036 0.145312
    outer loop
      vertex 37.1445 -2.48758 -5.16779
      vertex 30.0489 -9.0214 -2.97495
      vertex 40.0027 -1.56866 -14.3623
    endloop
  endfacet
  facet normal -0.715268 -0.101224 -0.69148
    outer loop
      vertex -27.9646 -5.28216 -6.49372
      vertex -36.1467 -9.94914 2.65305
      vertex -30.0621 -1.42332 -4.88895
    endloop
  endfacet
  facet normal -0.715275 -0.101214 -0.691474
    outer loop
      vertex -36.1467 -9.94914 2.65305
      vertex -39.2857 -4.17399 5.05476
      vertex -30.0621 -1.42332 -4.88895
    endloop
  endfacet
  facet normal -0.247771 -0.055532 -0.967226
    outer loop
      vertex 10.1162 -2.45931 -23.589
      vertex -2.15302 1.18024 -20.655
      vertex -0.488156 2.71329 -21.1695
    endloop
  endfacet
  facet normal -0.428075 -0.537899 -0.726234
    outer loop
      vertex -14.9509 -9.05268 -13.1181
      vertex -28.2052 -13.9587 -1.67169
      vertex -22.6583 -7.96123 -9.38342
    endloop
  endfacet
  facet normal -0.428075 -0.5379 -0.726234
    outer loop
      vertex -16.6703 -15.5921 -7.26106
      vertex -28.2052 -13.9587 -1.67169
      vertex -14.9509 -9.05268 -13.1181
    endloop
  endfacet
  facet normal 0.292179 -0.803395 0.518833
    outer loop
      vertex 0.297469 -15.9948 12.8052
      vertex -7.4668 -18.8891 12.6959
      vertex 0.472208 -15.9875 12.7181
    endloop
  endfacet
  facet normal 0.292285 -0.803662 0.51836
    outer loop
      vertex -1.88692 -15.4481 14.8845
      vertex -7.4668 -18.8891 12.6959
      vertex 0.297469 -15.9948 12.8052
    endloop
  endfacet
  facet normal 0.292256 -0.803643 0.518405
    outer loop
      vertex -7.4668 -18.8891 12.6959
      vertex -1.88692 -15.4481 14.8845
      vertex -2.59144 -15.0893 15.8379
    endloop
  endfacet
  facet normal -0.149236 -0.846615 0.510853
    outer loop
      vertex -19.0017 -17.2556 18.2852
      vertex -35.5939 -14.2592 18.4039
      vertex -26.2262 -18.9887 13.3025
    endloop
  endfacet
  facet normal -0.449982 -0.197511 -0.870922
    outer loop
      vertex -14.9509 -9.05268 -13.1181
      vertex -22.6583 -7.96123 -9.38342
      vertex -13.6619 -0.751781 -15.6666
    endloop
  endfacet
  facet normal -0.572797 0.197652 -0.795511
    outer loop
      vertex -16.2618 1.54403 -14.0884
      vertex -30.0621 -1.42332 -4.88895
      vertex -15.7594 3.10705 -14.0618
    endloop
  endfacet
  facet normal -0.0932214 -0.481686 -0.871371
    outer loop
      vertex 20.8454 -5.72444 -22.9319
      vertex 2.78653 -6.07506 -20.8061
      vertex 10.1162 -2.45931 -23.589
    endloop
  endfacet
  facet normal -0.0932215 -0.481684 -0.871372
    outer loop
      vertex 9.8757 -11.1358 -18.767
      vertex 2.78653 -6.07506 -20.8061
      vertex 20.8454 -5.72444 -22.9319
    endloop
  endfacet
  facet normal -0.382421 -0.241784 -0.891793
    outer loop
      vertex -6.0159 -8.39035 -17.1292
      vertex -14.9509 -9.05268 -13.1181
      vertex -7.81787 -0.902467 -18.3866
    endloop
  endfacet
  facet normal -0.327915 0.476181 -0.815919
    outer loop
      vertex -2.58561 6.57212 -19.5647
      vertex -5.29208 6.95539 -18.2533
      vertex 1.17695 13.9869 -16.7495
    endloop
  endfacet
  facet normal -0.00386138 0.0182002 -0.999827
    outer loop
      vertex 27.941 0.809377 -25.1247
      vertex 14.8574 1.90645 -25.0542
      vertex 16.2881 6.35757 -24.9787
    endloop
  endfacet
  facet normal -0.00386096 0.0182011 -0.999827
    outer loop
      vertex 27.941 0.809377 -25.1247
      vertex 16.2881 6.35757 -24.9787
      vertex 30.0823 7.47094 -25.0117
    endloop
  endfacet
  facet normal -0.102992 0.628018 -0.771354
    outer loop
      vertex 26.9432 13.2461 -22.61
      vertex 8.88433 12.8955 -20.4842
      vertex 19.0017 17.2556 -18.2852
    endloop
  endfacet
  facet normal 0.327434 0.509025 -0.796041
    outer loop
      vertex 30.0823 7.47094 -25.0117
      vertex 26.9432 13.2461 -22.61
      vertex 35.5939 14.2592 -18.4039
    endloop
  endfacet
  facet normal 0.0319982 -0.368912 0.928913
    outer loop
      vertex -16.2881 -6.35757 24.9787
      vertex -30.0823 -7.47094 25.0117
      vertex -26.9432 -13.2461 22.61
    endloop
  endfacet
  facet normal 0.0320029 -0.368918 0.928911
    outer loop
      vertex -16.2881 -6.35757 24.9787
      vertex -26.9432 -13.2461 22.61
      vertex -14.1907 -10.2164 23.3739
    endloop
  endfacet
  facet normal -0.656861 0.53504 -0.531287
    outer loop
      vertex -28.6314 3.02779 -4.81342
      vertex -37.1445 2.48758 5.16779
      vertex -23.8902 7.39355 -6.27864
    endloop
  endfacet
  facet normal -0.694124 0.705036 -0.145312
    outer loop
      vertex -37.1445 2.48758 5.16779
      vertex -40.0027 1.56866 14.3623
      vertex -30.0489 9.0214 2.97495
    endloop
  endfacet
  facet normal -0.121264 0.74802 0.652504
    outer loop
      vertex -17.1482 12.6326 15.6995
      vertex -28.401 8.11809 18.7836
      vertex -17.822 9.84137 18.7741
    endloop
  endfacet
  facet normal -0.121274 0.748033 0.652487
    outer loop
      vertex -28.401 8.11809 18.7836
      vertex -17.1482 12.6326 15.6995
      vertex -15.8626 14.3033 14.0231
    endloop
  endfacet
  facet normal -0.192868 0.760346 -0.620223
    outer loop
      vertex 8.88433 12.8955 -20.4842
      vertex 1.17695 13.9869 -16.7495
      vertex 19.0017 17.2556 -18.2852
    endloop
  endfacet
  facet normal -0.292278 0.803654 -0.518376
    outer loop
      vertex 1.17695 13.9869 -16.7495
      vertex -7.75809 13.3246 -12.7384
      vertex 7.4668 18.8891 -12.6959
    endloop
  endfacet
  facet normal 0.282922 -0.385645 0.878199
    outer loop
      vertex -8.53098 -12.6283 20.4877
      vertex -8.88433 -12.8955 20.4842
      vertex -8.47812 -12.6715 20.4517
    endloop
  endfacet
  facet normal 0.283214 -0.386027 0.877937
    outer loop
      vertex -12.2197 -9.61042 23.0046
      vertex -8.88433 -12.8955 20.4842
      vertex -8.53098 -12.6283 20.4877
    endloop
  endfacet
  facet normal 0.283187 -0.386052 0.877934
    outer loop
      vertex -8.88433 -12.8955 20.4842
      vertex -12.2197 -9.61042 23.0046
      vertex -14.1907 -10.2164 23.3739
    endloop
  endfacet
  facet normal 0.0150394 -0.950956 0.308959
    outer loop
      vertex -19.0017 -17.2556 18.2852
      vertex -26.2262 -18.9887 13.3025
      vertex -7.4668 -18.8891 12.6959
    endloop
  endfacet
  facet normal 0.0150391 -0.95096 0.308948
    outer loop
      vertex -7.4668 -18.8891 12.6959
      vertex -26.2262 -18.9887 13.3025
      vertex -12.6199 -20.9155 6.70937
    endloop
  endfacet
  facet normal 0.527729 -0.704123 0.475093
    outer loop
      vertex 19.0792 -14.4328 1.18994
      vertex 21.7519 -12.0413 1.76551
      vertex 18.2264 -13.2736 3.85524
    endloop
  endfacet
  facet normal 0.527722 -0.704119 0.475107
    outer loop
      vertex 19.0792 -14.4328 1.18994
      vertex 25.8338 -9.64262 0.78646
      vertex 21.7519 -12.0413 1.76551
    endloop
  endfacet
  facet normal 0.527727 -0.704127 0.475089
    outer loop
      vertex 25.8338 -9.64262 0.78646
      vertex 19.0792 -14.4328 1.18994
      vertex 30.0489 -9.0214 -2.97495
    endloop
  endfacet
  facet normal 0.473101 -0.874061 0.11042
    outer loop
      vertex 30.0489 -9.0214 -2.97495
      vertex 19.0792 -14.4328 1.18994
      vertex 31.6329 -9.27582 -11.7756
    endloop
  endfacet
  facet normal 0.328264 -0.895882 -0.299396
    outer loop
      vertex 28.401 -8.11809 -18.7836
      vertex 18.6932 -15.659 -6.8628
      vertex 15.4614 -14.5012 -13.8707
    endloop
  endfacet
  facet normal 0.328271 -0.895881 -0.29939
    outer loop
      vertex 18.6932 -15.659 -6.8628
      vertex 28.401 -8.11809 -18.7836
      vertex 31.6329 -9.27582 -11.7756
    endloop
  endfacet
  facet normal -0.572792 0.197609 -0.795525
    outer loop
      vertex -15.7594 3.10705 -14.0618
      vertex -30.0621 -1.42332 -4.88895
      vertex -28.6314 3.02779 -4.81342
    endloop
  endfacet
  facet normal -0.54985 0.341274 -0.762363
    outer loop
      vertex -15.7594 3.10705 -14.0618
      vertex -28.6314 3.02779 -4.81342
      vertex -23.8902 7.39355 -6.27864
    endloop
  endfacet
  facet normal -0.276234 -0.168359 -0.946229
    outer loop
      vertex 2.78653 -6.07506 -20.8061
      vertex -4.72687 -0.0894471 -19.6777
      vertex -2.15302 1.18024 -20.655
    endloop
  endfacet
  facet normal -0.327929 0.476185 -0.815911
    outer loop
      vertex 8.88433 12.8955 -20.4842
      vertex -2.58561 6.57212 -19.5647
      vertex 1.17695 13.9869 -16.7495
    endloop
  endfacet
  facet normal -0.102993 0.628005 -0.771364
    outer loop
      vertex 14.1907 10.2164 -23.3739
      vertex 8.88433 12.8955 -20.4842
      vertex 26.9432 13.2461 -22.61
    endloop
  endfacet
  facet normal -0.549863 0.341251 -0.762364
    outer loop
      vertex -15.7594 3.10705 -14.0618
      vertex -23.8902 7.39355 -6.27864
      vertex -14.0945 4.6401 -14.5764
    endloop
  endfacet
  facet normal -0.283196 0.386024 -0.877944
    outer loop
      vertex -0.722272 5.63135 -20.5794
      vertex -2.58561 6.57212 -19.5647
      vertex 8.88433 12.8955 -20.4842
    endloop
  endfacet
  facet normal -0.514428 -0.100295 -0.851648
    outer loop
      vertex -22.6583 -7.96123 -9.38342
      vertex -27.9646 -5.28216 -6.49372
      vertex -15.5252 0.188985 -14.6519
    endloop
  endfacet
  facet normal -0.56012 0.039658 -0.827462
    outer loop
      vertex -27.9646 -5.28216 -6.49372
      vertex -30.0621 -1.42332 -4.88895
      vertex -15.5252 0.188985 -14.6519
    endloop
  endfacet
  facet normal -0.0320029 0.368918 -0.928911
    outer loop
      vertex 16.2881 6.35757 -24.9787
      vertex 14.1907 10.2164 -23.3739
      vertex 26.9432 13.2461 -22.61
    endloop
  endfacet
  facet normal -0.442389 0.505692 -0.740654
    outer loop
      vertex -11.5206 5.90978 -15.5536
      vertex -16.5605 11.0093 -9.06152
      vertex -8.42965 6.72281 -16.8447
    endloop
  endfacet
  facet normal 0.00387947 -0.0182007 0.999827
    outer loop
      vertex -18.2281 -1.62382 25.0724
      vertex -16.2881 -6.35757 24.9787
      vertex -15.7536 -4.69452 25.0069
    endloop
  endfacet
  facet normal 0.00385672 -0.01821 0.999827
    outer loop
      vertex -16.2881 -6.35757 24.9787
      vertex -18.2281 -1.62382 25.0724
      vertex -27.941 -0.809377 25.1247
    endloop
  endfacet
  facet normal -0.743412 0.249482 -0.620563
    outer loop
      vertex -30.0621 -1.42332 -4.88895
      vertex -37.1445 2.48758 5.16779
      vertex -28.6314 3.02779 -4.81342
    endloop
  endfacet
  facet normal -0.743412 0.249481 -0.620563
    outer loop
      vertex -30.0621 -1.42332 -4.88895
      vertex -39.2857 -4.17399 5.05476
      vertex -37.1445 2.48758 5.16779
    endloop
  endfacet
  facet normal -0.501695 0.447013 -0.740595
    outer loop
      vertex -14.0945 4.6401 -14.5764
      vertex -23.8902 7.39355 -6.27864
      vertex -16.5605 11.0093 -9.06152
    endloop
  endfacet
  facet normal -0.283201 0.38603 -0.87794
    outer loop
      vertex 14.1907 10.2164 -23.3739
      vertex -0.722272 5.63135 -20.5794
      vertex 8.88433 12.8955 -20.4842
    endloop
  endfacet
  facet normal -0.157987 0.968615 -0.191899
    outer loop
      vertex -4.20817 18.789 -3.59178
      vertex -5.90543 17.8978 -6.6928
      vertex -4.53049 18.8214 -3.16288
    endloop
  endfacet
  facet normal -0.157956 0.968616 -0.191917
    outer loop
      vertex -0.995768 18.4659 -7.86644
      vertex -5.90543 17.8978 -6.6928
      vertex -4.20817 18.789 -3.59178
    endloop
  endfacet
  facet normal -0.158082 0.968553 -0.192131
    outer loop
      vertex 7.4668 18.8891 -12.6959
      vertex -0.995768 18.4659 -7.86644
      vertex -0.0523782 18.557 -8.1834
    endloop
  endfacet
  facet normal -0.157941 0.968624 -0.19189
    outer loop
      vertex 7.4668 18.8891 -12.6959
      vertex -0.0523782 18.557 -8.1834
      vertex 5.24618 19.0683 -9.96359
    endloop
  endfacet
  facet normal -0.157952 0.968621 -0.191897
    outer loop
      vertex -0.995768 18.4659 -7.86644
      vertex 7.4668 18.8891 -12.6959
      vertex -5.90543 17.8978 -6.6928
    endloop
  endfacet
  facet normal -0.292281 0.803662 -0.518362
    outer loop
      vertex 7.4668 18.8891 -12.6959
      vertex -7.75809 13.3246 -12.7384
      vertex -5.90543 17.8978 -6.6928
    endloop
  endfacet
  facet normal -0.192867 0.760333 -0.620239
    outer loop
      vertex 19.0017 17.2556 -18.2852
      vertex 1.17695 13.9869 -16.7495
      vertex 7.4668 18.8891 -12.6959
    endloop
  endfacet
  facet normal -0.0150394 0.950956 -0.308959
    outer loop
      vertex 19.0017 17.2556 -18.2852
      vertex 7.4668 18.8891 -12.6959
      vertex 26.2262 18.9887 -13.3025
    endloop
  endfacet
  facet normal 0.302405 -0.944367 0.129312
    outer loop
      vertex 5.90543 -17.8978 6.6928
      vertex 3.15372 -19.7463 -0.371739
      vertex 19.0792 -14.4328 1.18994
    endloop
  endfacet
  facet normal 0.292279 -0.803665 0.518358
    outer loop
      vertex 5.90543 -17.8978 6.6928
      vertex 0.472208 -15.9875 12.7181
      vertex -7.4668 -18.8891 12.6959
    endloop
  endfacet
  facet normal 0.292274 -0.803669 0.518354
    outer loop
      vertex 0.472208 -15.9875 12.7181
      vertex 5.90543 -17.8978 6.6928
      vertex 6.78701 -15.7217 9.5696
    endloop
  endfacet
  facet normal -0.382397 0.515759 -0.766659
    outer loop
      vertex 1.17695 13.9869 -16.7495
      vertex -8.42965 6.72281 -16.8447
      vertex -7.75809 13.3246 -12.7384
    endloop
  endfacet
  facet normal -0.382412 0.515779 -0.766637
    outer loop
      vertex -5.29208 6.95539 -18.2533
      vertex -8.42965 6.72281 -16.8447
      vertex 1.17695 13.9869 -16.7495
    endloop
  endfacet
  facet normal -0.501684 0.44702 -0.740599
    outer loop
      vertex -14.0945 4.6401 -14.5764
      vertex -16.5605 11.0093 -9.06152
      vertex -11.5206 5.90978 -15.5536
    endloop
  endfacet
  facet normal -0.252391 0.251411 -0.934394
    outer loop
      vertex 16.2881 6.35757 -24.9787
      vertex -0.722272 5.63135 -20.5794
      vertex 14.1907 10.2164 -23.3739
    endloop
  endfacet
  facet normal -0.25239 0.251451 -0.934383
    outer loop
      vertex 0.0142556 4.27631 -21.143
      vertex -0.722272 5.63135 -20.5794
      vertex 16.2881 6.35757 -24.9787
    endloop
  endfacet
  facet normal 0.239723 -0.0936755 0.966311
    outer loop
      vertex -14.9988 -6.0775 24.686
      vertex -16.2881 -6.35757 24.9787
      vertex -14.9401 -6.18517 24.661
    endloop
  endfacet
  facet normal 0.402961 -0.785086 0.470385
    outer loop
      vertex 18.2264 -13.2736 3.85524
      vertex 15.4687 -14.0793 4.87292
      vertex 19.0792 -14.4328 1.18994
    endloop
  endfacet
  facet normal 0.59089 0.166574 0.789368
    outer loop
      vertex 27.8544 10.7004 23.2044
      vertex 22.2877 3.90403 28.8056
      vertex 23.6333 2.87635 28.0152
    endloop
  endfacet
  facet normal -0.347656 -0.813587 0.466059
    outer loop
      vertex -12.6855 -9.28994 23.2167
      vertex -8.10498 -7.91622 29.0316
      vertex -14.1548 -8.27897 23.8855
    endloop
  endfacet
  facet normal -0.347641 -0.813599 0.46605
    outer loop
      vertex -8.10498 -7.91622 29.0316
      vertex -12.6855 -9.28994 23.2167
      vertex -2.37002 -12.2962 25.6632
    endloop
  endfacet
  facet normal 0.282879 0.681792 0.67464
    outer loop
      vertex 22.209 18.6894 19.4471
      vertex 16.0213 11.9369 28.8657
      vertex 22.3535 12.1623 25.9828
    endloop
  endfacet
  facet normal 0.178517 -0.442202 0.878971
    outer loop
      vertex 13.2434 -1.82519 32.03
      vertex 2.09837 -5.61504 32.3869
      vertex 14.589 -2.85286 31.2397
    endloop
  endfacet
  facet normal 0.58677 -0.734817 0.340212
    outer loop
      vertex 32.2853 -6.47851 10.6424
      vertex 23.9631 -7.89973 21.9262
      vertex 24.6179 -11.3355 13.376
    endloop
  endfacet
  facet normal 0.110316 0.652814 0.749443
    outer loop
      vertex 12.7321 18.3521 23.7618
      vertex 3.45368 15.5409 27.5763
      vertex 16.0213 11.9369 28.8657
    endloop
  endfacet
  facet normal -0.533305 0.845893 0.0071127
    outer loop
      vertex -8.05067 19.6621 2.63012
      vertex -15.263 15.0091 15.2227
      vertex -6.21873 20.7383 11.9983
    endloop
  endfacet
  facet normal 0.396935 0.853901 0.336594
    outer loop
      vertex 29.6555 20.4243 6.26443
      vertex 22.209 18.6894 19.4471
      vertex 30.4416 16.5015 15.2891
    endloop
  endfacet
  facet normal -0.0421294 0.539705 0.840799
    outer loop
      vertex 3.45368 15.5409 27.5763
      vertex -4.21371 10.6839 30.3098
      vertex 9.82162 10.0585 31.4145
    endloop
  endfacet
  facet normal 0.490929 0.278277 0.825561
    outer loop
      vertex 22.3535 12.1623 25.9828
      vertex 22.2877 3.90403 28.8056
      vertex 27.8544 10.7004 23.2044
    endloop
  endfacet
  facet normal 0.659044 0.000740988 0.752104
    outer loop
      vertex 31.6863 7.77382 20.9538
      vertex 23.6333 2.87635 28.0152
      vertex 24.188 1.49079 27.5305
    endloop
  endfacet
  facet normal 0.477517 0.626945 0.615563
    outer loop
      vertex 22.209 18.6894 19.4471
      vertex 22.3535 12.1623 25.9828
      vertex 30.4416 16.5015 15.2891
    endloop
  endfacet
  facet normal 0.838758 0.445391 -0.313227
    outer loop
      vertex 34.3279 13.4645 -5.86181
      vertex 32.3805 16.705 -6.46874
      vertex 36.4203 15.2578 2.29119
    endloop
  endfacet
  facet normal 0.838761 0.445395 -0.313215
    outer loop
      vertex 32.3805 16.705 -6.46874
      vertex 34.3279 13.4645 -5.86181
      vertex 32.9387 15.3108 -6.9565
    endloop
  endfacet
  facet normal 0.838763 0.445382 -0.313226
    outer loop
      vertex 36.4203 15.2578 2.29119
      vertex 36.5849 10.4648 -4.0833
      vertex 34.3279 13.4645 -5.86181
    endloop
  endfacet
  facet normal 0.838757 0.44539 -0.313232
    outer loop
      vertex 39.2091 8.29215 -0.145673
      vertex 36.5849 10.4648 -4.0833
      vertex 36.4203 15.2578 2.29119
    endloop
  endfacet
  facet normal 0.838749 0.445423 -0.313208
    outer loop
      vertex 36.5849 10.4648 -4.0833
      vertex 39.2091 8.29215 -0.145673
      vertex 37.2516 8.9934 -4.39045
    endloop
  endfacet
  facet normal 0.659041 0.000746493 0.752106
    outer loop
      vertex 31.6863 7.77382 20.9538
      vertex 24.188 1.49079 27.5305
      vertex 33.2661 3.82808 19.5734
    endloop
  endfacet
  facet normal 0.382134 0.325596 0.864847
    outer loop
      vertex 22.3535 12.1623 25.9828
      vertex 18.1324 4.33822 30.7935
      vertex 20.356 4.41737 29.7812
    endloop
  endfacet
  facet normal 0.553097 -0.496693 0.668865
    outer loop
      vertex 29.0863 -4.65438 20.0997
      vertex 22.7203 -1.48785 27.7153
      vertex 23.9631 -7.89973 21.9262
    endloop
  endfacet
  facet normal 0.533304 -0.845894 -0.00711006
    outer loop
      vertex 31.8303 -6.68251 0.783351
      vertex 24.6179 -11.3355 13.376
      vertex 22.786 -12.4117 4.0078
    endloop
  endfacet
  facet normal -0.205244 -0.39537 0.895297
    outer loop
      vertex 2.09837 -5.61504 32.3869
      vertex -10.4692 -2.011 31.0974
      vertex -8.10498 -7.91622 29.0316
    endloop
  endfacet
  facet normal -0.0491916 0.857426 0.51225
    outer loop
      vertex 8.76571 22.6071 16.2587
      vertex 3.45368 15.5409 27.5763
      vertex 12.7321 18.3521 23.7618
    endloop
  endfacet
  facet normal -0.0671167 0.822055 -0.565439
    outer loop
      vertex 13.8202 19.7727 -10.2855
      vertex 10.7046 22.8106 -5.49908
      vertex 18.9372 20.6227 -9.65712
    endloop
  endfacet
  facet normal -0.0671253 0.822052 -0.565443
    outer loop
      vertex 10.7046 22.8106 -5.49908
      vertex 13.8202 19.7727 -10.2855
      vertex 10.1195 19.9323 -9.61415
    endloop
  endfacet
  facet normal -0.0671292 0.822052 -0.565442
    outer loop
      vertex 10.7046 22.8106 -5.49908
      vertex 10.1195 19.9323 -9.61415
      vertex 6.16361 19.1569 -10.2718
    endloop
  endfacet
  facet normal 0.675035 0.696315 0.243872
    outer loop
      vertex 29.6555 20.4243 6.26443
      vertex 30.4416 16.5015 15.2891
      vertex 36.4203 15.2578 2.29119
    endloop
  endfacet
  facet normal 0.160141 0.892566 0.421522
    outer loop
      vertex 19.9445 23.005 11.1692
      vertex 8.76571 22.6071 16.2587
      vertex 22.209 18.6894 19.4471
    endloop
  endfacet
  facet normal 0.188006 -0.951409 -0.243874
    outer loop
      vertex 15.4687 -14.0793 4.87292
      vertex 11.8413 -15.7277 8.5073
      vertex 10.9366 -15.4036 6.54546
    endloop
  endfacet
  facet normal 0.187989 -0.951408 -0.24389
    outer loop
      vertex 15.4687 -14.0793 4.87292
      vertex 22.786 -12.4117 4.0078
      vertex 11.8413 -15.7277 8.5073
    endloop
  endfacet
  facet normal 0.188006 -0.95143 -0.243794
    outer loop
      vertex 18.2264 -13.2736 3.85524
      vertex 22.786 -12.4117 4.0078
      vertex 15.4687 -14.0793 4.87292
    endloop
  endfacet
  facet normal 0.188005 -0.951411 -0.243866
    outer loop
      vertex 22.786 -12.4117 4.0078
      vertex 18.2264 -13.2736 3.85524
      vertex 21.7519 -12.0413 1.76551
    endloop
  endfacet
  facet normal 0.886993 -0.155662 -0.434757
    outer loop
      vertex 39.2091 8.29215 -0.145673
      vertex 37.3978 7.64744 -3.61026
      vertex 37.2516 8.9934 -4.39045
    endloop
  endfacet
  facet normal 0.886991 -0.155688 -0.434751
    outer loop
      vertex 39.2091 8.29215 -0.145673
      vertex 37.114 3.52633 -2.71347
      vertex 37.3978 7.64744 -3.61026
    endloop
  endfacet
  facet normal 0.886988 -0.155683 -0.434758
    outer loop
      vertex 37.5973 0.587725 -0.675154
      vertex 37.114 3.52633 -2.71347
      vertex 39.2091 8.29215 -0.145673
    endloop
  endfacet
  facet normal 0.88699 -0.155681 -0.434754
    outer loop
      vertex 37.114 3.52633 -2.71347
      vertex 37.5973 0.587725 -0.675154
      vertex 36.5152 0.975379 -3.02168
    endloop
  endfacet
  facet normal -0.0326173 -0.988408 -0.148277
    outer loop
      vertex 0.472208 -15.9875 12.7181
      vertex 0.662554 -16.1256 13.5968
      vertex 0.297469 -15.9948 12.8052
    endloop
  endfacet
  facet normal -0.032354 -0.988408 -0.148334
    outer loop
      vertex 6.78701 -15.7217 9.5696
      vertex 0.662554 -16.1256 13.5968
      vertex 0.472208 -15.9875 12.7181
    endloop
  endfacet
  facet normal -0.0323478 -0.98841 -0.148324
    outer loop
      vertex 6.78701 -15.7217 9.5696
      vertex 11.8413 -15.7277 8.5073
      vertex 0.662554 -16.1256 13.5968
    endloop
  endfacet
  facet normal -0.0323564 -0.988403 -0.148365
    outer loop
      vertex 11.8413 -15.7277 8.5073
      vertex 6.78701 -15.7217 9.5696
      vertex 10.9366 -15.4036 6.54546
    endloop
  endfacet
  facet normal 0.849375 0.164642 0.501454
    outer loop
      vertex 38.5408 6.2164 9.85483
      vertex 31.6863 7.77382 20.9538
      vertex 33.2661 3.82808 19.5734
    endloop
  endfacet
  facet normal 0.111076 -0.0912425 0.989615
    outer loop
      vertex 1.43166 2.69491 34.0672
      vertex 0.518636 -1.66929 33.7673
      vertex 12.6886 -0.439625 32.5147
    endloop
  endfacet
  facet normal 0.58677 -0.734818 0.340211
    outer loop
      vertex 29.0863 -4.65438 20.0997
      vertex 23.9631 -7.89973 21.9262
      vertex 32.2853 -6.47851 10.6424
    endloop
  endfacet
  facet normal 0.780969 -0.624141 -0.0231341
    outer loop
      vertex 37.1744 -0.315098 9.40595
      vertex 32.2853 -6.47851 10.6424
      vertex 37.5973 0.587725 -0.675154
    endloop
  endfacet
  facet normal -0.347635 -0.813652 0.465962
    outer loop
      vertex -12.2197 -9.61042 23.0046
      vertex -2.37002 -12.2962 25.6632
      vertex -12.6855 -9.28994 23.2167
    endloop
  endfacet
  facet normal -0.347644 -0.813601 0.466045
    outer loop
      vertex -8.53098 -12.6283 20.4877
      vertex -2.37002 -12.2962 25.6632
      vertex -12.2197 -9.61042 23.0046
    endloop
  endfacet
  facet normal -0.347597 -0.813651 0.465993
    outer loop
      vertex -8.47812 -12.6715 20.4517
      vertex -2.37002 -12.2962 25.6632
      vertex -8.53098 -12.6283 20.4877
    endloop
  endfacet
  facet normal -0.347645 -0.8136 0.466045
    outer loop
      vertex -8.14545 -13.0001 20.1262
      vertex -2.37002 -12.2962 25.6632
      vertex -8.47812 -12.6715 20.4517
    endloop
  endfacet
  facet normal -0.347671 -0.813575 0.466069
    outer loop
      vertex -2.37002 -12.2962 25.6632
      vertex -8.14545 -13.0001 20.1262
      vertex -7.97612 -13.3444 19.6515
    endloop
  endfacet
  facet normal 0.098652 -0.985274 0.139653
    outer loop
      vertex 5.86258 -14.484 21.5052
      vertex 0.662554 -16.1256 13.5968
      vertex 11.8413 -15.7277 8.5073
    endloop
  endfacet
  facet normal 0.195196 0.228631 0.953743
    outer loop
      vertex 9.82162 10.0585 31.4145
      vertex 4.69843 6.81317 33.241
      vertex 14.1564 2.53902 32.3299
    endloop
  endfacet
  facet normal 0.135808 0.0902063 0.98662
    outer loop
      vertex 4.69843 6.81317 33.241
      vertex 1.43166 2.69491 34.0672
      vertex 14.1564 2.53902 32.3299
    endloop
  endfacet
  facet normal 0.160143 0.892568 0.421517
    outer loop
      vertex 8.76571 22.6071 16.2587
      vertex 12.7321 18.3521 23.7618
      vertex 22.209 18.6894 19.4471
    endloop
  endfacet
  facet normal 0.675026 0.696325 0.243867
    outer loop
      vertex 36.4203 15.2578 2.29119
      vertex 30.4416 16.5015 15.2891
      vertex 36.1766 12.1216 11.9207
    endloop
  endfacet
  facet normal 0.671996 -0.615638 -0.411596
    outer loop
      vertex 37.5973 0.587725 -0.675154
      vertex 34.9908 -1.29832 -2.10966
      vertex 36.5152 0.975379 -3.02168
    endloop
  endfacet
  facet normal 0.671997 -0.615617 -0.411625
    outer loop
      vertex 37.5973 0.587725 -0.675154
      vertex 34.0624 -2.68316 -1.55418
      vertex 34.9908 -1.29832 -2.10966
    endloop
  endfacet
  facet normal 0.672001 -0.615627 -0.411603
    outer loop
      vertex 31.8303 -6.68251 0.783351
      vertex 34.0624 -2.68316 -1.55418
      vertex 37.5973 0.587725 -0.675154
    endloop
  endfacet
  facet normal 0.671984 -0.615631 -0.411625
    outer loop
      vertex 34.0624 -2.68316 -1.55418
      vertex 31.8303 -6.68251 0.783351
      vertex 32.8446 -4.07915 -1.4544
    endloop
  endfacet
  facet normal 0.671995 -0.615626 -0.411616
    outer loop
      vertex 32.8446 -4.07915 -1.4544
      vertex 31.8303 -6.68251 0.783351
      vertex 30.8728 -6.33952 -1.29283
    endloop
  endfacet
  facet normal 0.11533 0.954782 -0.274027
    outer loop
      vertex 25.6157 21.8715 -2.4955
      vertex 10.7046 22.8106 -5.49908
      vertex 15.9047 24.4522 2.40925
    endloop
  endfacet
  facet normal 0.978248 -0.206205 0.0225722
    outer loop
      vertex 39.2091 8.29215 -0.145673
      vertex 38.5408 6.2164 9.85483
      vertex 37.5973 0.587725 -0.675154
    endloop
  endfacet
  facet normal 0.557594 0.464045 -0.688296
    outer loop
      vertex 32.9387 15.3108 -6.9565
      vertex 31.976 16.223 -7.12139
      vertex 32.3805 16.705 -6.46874
    endloop
  endfacet
  facet normal 0.935329 0.328735 0.130739
    outer loop
      vertex 36.4203 15.2578 2.29119
      vertex 38.5408 6.2164 9.85483
      vertex 39.2091 8.29215 -0.145673
    endloop
  endfacet
  facet normal 0.935331 0.328732 0.130735
    outer loop
      vertex 36.4203 15.2578 2.29119
      vertex 36.1766 12.1216 11.9207
      vertex 38.5408 6.2164 9.85483
    endloop
  endfacet
  facet normal 0.556669 0.821884 -0.120937
    outer loop
      vertex 36.4203 15.2578 2.29119
      vertex 25.6157 21.8715 -2.4955
      vertex 29.6555 20.4243 6.26443
    endloop
  endfacet
  facet normal 0.556669 0.821884 -0.120937
    outer loop
      vertex 25.6157 21.8715 -2.4955
      vertex 36.4203 15.2578 2.29119
      vertex 32.3805 16.705 -6.46874
    endloop
  endfacet
  facet normal 0.55767 0.463968 -0.688286
    outer loop
      vertex 31.976 16.223 -7.12139
      vertex 31.5218 16.6535 -7.1992
      vertex 32.3805 16.705 -6.46874
    endloop
  endfacet
  facet normal 0.879696 -0.213245 0.425044
    outer loop
      vertex 38.5408 6.2164 9.85483
      vertex 32.3531 -0.536127 19.2735
      vertex 37.1744 -0.315098 9.40595
    endloop
  endfacet
  facet normal 0.849376 0.164626 0.501457
    outer loop
      vertex 36.1766 12.1216 11.9207
      vertex 31.6863 7.77382 20.9538
      vertex 38.5408 6.2164 9.85483
    endloop
  endfacet
  facet normal 0.490906 0.278282 0.825573
    outer loop
      vertex 22.3535 12.1623 25.9828
      vertex 20.356 4.41737 29.7812
      vertex 22.2877 3.90403 28.8056
    endloop
  endfacet
  facet normal 0.590866 0.166596 0.789382
    outer loop
      vertex 27.8544 10.7004 23.2044
      vertex 23.6333 2.87635 28.0152
      vertex 31.6863 7.77382 20.9538
    endloop
  endfacet
  facet normal 0.684425 0.463097 0.56312
    outer loop
      vertex 36.1766 12.1216 11.9207
      vertex 27.8544 10.7004 23.2044
      vertex 31.6863 7.77382 20.9538
    endloop
  endfacet
  facet normal 0.553086 -0.496699 0.668869
    outer loop
      vertex 22.7203 -1.48785 27.7153
      vertex 20.9212 -2.62746 28.3567
      vertex 23.9631 -7.89973 21.9262
    endloop
  endfacet
  facet normal 0.25737 -0.546339 0.797041
    outer loop
      vertex 14.589 -2.85286 31.2397
      vertex 11.4312 -10.0035 27.3579
      vertex 16.5206 -3.3662 30.2641
    endloop
  endfacet
  facet normal 0.098649 -0.985274 0.139652
    outer loop
      vertex 15.3395 -14.1467 17.1905
      vertex 5.86258 -14.484 21.5052
      vertex 11.8413 -15.7277 8.5073
    endloop
  endfacet
  facet normal -0.417364 0.845838 0.332214
    outer loop
      vertex -6.21873 20.7383 11.9983
      vertex -11.2232 13.5619 23.9827
      vertex -2.17894 19.2911 20.7582
    endloop
  endfacet
  facet normal -0.417367 0.845837 0.332212
    outer loop
      vertex -11.2232 13.5619 23.9827
      vertex -6.21873 20.7383 11.9983
      vertex -15.263 15.0091 15.2227
    endloop
  endfacet
  facet normal -0.886983 0.155694 0.434766
    outer loop
      vertex -18.4499 5.77095 22.6499
      vertex -16.9903 6.2917 25.4412
      vertex -18.5477 6.8496 22.0641
    endloop
  endfacet
  facet normal -0.886989 0.155592 0.434789
    outer loop
      vertex -18.3775 4.97342 23.083
      vertex -16.9903 6.2917 25.4412
      vertex -18.4499 5.77095 22.6499
    endloop
  endfacet
  facet normal -0.886996 0.155683 0.434741
    outer loop
      vertex -18.4867 0.924335 24.3102
      vertex -16.9903 6.2917 25.4412
      vertex -18.3775 4.97342 23.083
    endloop
  endfacet
  facet normal -0.886994 0.155681 0.434748
    outer loop
      vertex -16.9903 6.2917 25.4412
      vertex -18.4867 0.924335 24.3102
      vertex -18.542 -1.12547 24.9314
    endloop
  endfacet
  facet normal -0.0986522 0.985274 -0.139653
    outer loop
      vertex 10.7046 22.8106 -5.49908
      vertex 4.72592 24.0543 7.49879
      vertex 15.9047 24.4522 2.40925
    endloop
  endfacet
  facet normal 0.396929 0.853905 0.336591
    outer loop
      vertex 19.9445 23.005 11.1692
      vertex 22.209 18.6894 19.4471
      vertex 29.6555 20.4243 6.26443
    endloop
  endfacet
  facet normal -0.586734 0.735318 -0.339192
    outer loop
      vertex -8.05067 19.6621 2.63012
      vertex -11.2816 17.6084 3.76686
      vertex -11.3092 17.5979 3.79184
    endloop
  endfacet
  facet normal -0.586773 0.734814 -0.340214
    outer loop
      vertex -8.05067 19.6621 2.63012
      vertex -8.60279 17.9282 -0.162606
      vertex -11.2816 17.6084 3.76686
    endloop
  endfacet
  facet normal -0.586767 0.734817 -0.340217
    outer loop
      vertex -8.60279 17.9282 -0.162606
      vertex -8.05067 19.6621 2.63012
      vertex -7.73985 18.0312 -1.42844
    endloop
  endfacet
  facet normal 0.879695 -0.213242 0.425046
    outer loop
      vertex 33.2661 3.82808 19.5734
      vertex 32.3531 -0.536127 19.2735
      vertex 38.5408 6.2164 9.85483
    endloop
  endfacet
  facet normal 0.978249 -0.206202 0.0225707
    outer loop
      vertex 38.5408 6.2164 9.85483
      vertex 37.1744 -0.315098 9.40595
      vertex 37.5973 0.587725 -0.675154
    endloop
  endfacet
  facet normal 0.477523 0.626938 0.615565
    outer loop
      vertex 30.4416 16.5015 15.2891
      vertex 22.3535 12.1623 25.9828
      vertex 27.8544 10.7004 23.2044
    endloop
  endfacet
  facet normal 0.684421 0.463104 0.563118
    outer loop
      vertex 30.4416 16.5015 15.2891
      vertex 27.8544 10.7004 23.2044
      vertex 36.1766 12.1216 11.9207
    endloop
  endfacet
  facet normal 0.674354 -0.190108 0.713516
    outer loop
      vertex 33.2661 3.82808 19.5734
      vertex 24.188 1.49079 27.5305
      vertex 32.3531 -0.536127 19.2735
    endloop
  endfacet
  facet normal 0.195205 0.228636 0.95374
    outer loop
      vertex 15.9554 3.67863 31.6885
      vertex 9.82162 10.0585 31.4145
      vertex 14.1564 2.53902 32.3299
    endloop
  endfacet
  facet normal -0.600543 0.070898 0.796443
    outer loop
      vertex -9.10278 4.52049 31.5463
      vertex -16.9903 6.2917 25.4412
      vertex -10.4692 -2.011 31.0974
    endloop
  endfacet
  facet normal -0.187996 0.95141 0.243877
    outer loop
      vertex 4.72592 24.0543 7.49879
      vertex -2.17894 19.2911 20.7582
      vertex 8.76571 22.6071 16.2587
    endloop
  endfacet
  facet normal -0.187996 0.95141 0.243878
    outer loop
      vertex -2.17894 19.2911 20.7582
      vertex 4.72592 24.0543 7.49879
      vertex -6.21873 20.7383 11.9983
    endloop
  endfacet
  facet normal 0.282889 0.681785 0.674643
    outer loop
      vertex 12.7321 18.3521 23.7618
      vertex 16.0213 11.9369 28.8657
      vertex 22.209 18.6894 19.4471
    endloop
  endfacet
  facet normal -0.600545 0.0708949 0.796442
    outer loop
      vertex -18.542 -1.12547 24.9314
      vertex -10.4692 -2.011 31.0974
      vertex -16.9903 6.2917 25.4412
    endloop
  endfacet
  facet normal -0.60052 0.071117 0.796441
    outer loop
      vertex -10.4692 -2.011 31.0974
      vertex -18.542 -1.12547 24.9314
      vertex -18.4612 -1.4231 25.0189
    endloop
  endfacet
  facet normal 0.0671268 -0.822045 0.565452
    outer loop
      vertex 5.93035 -8.54161 30.1362
      vertex -2.37002 -12.2962 25.6632
      vertex 11.4312 -10.0035 27.3579
    endloop
  endfacet
  facet normal 0.178521 -0.44222 0.87896
    outer loop
      vertex 14.589 -2.85286 31.2397
      vertex 2.09837 -5.61504 32.3869
      vertex 5.93035 -8.54161 30.1362
    endloop
  endfacet
  facet normal 0.633585 -0.365813 0.681727
    outer loop
      vertex 23.8674 -0.0417114 27.4252
      vertex 22.7203 -1.48785 27.7153
      vertex 29.0863 -4.65438 20.0997
    endloop
  endfacet
  facet normal -0.0876765 -0.676874 0.730859
    outer loop
      vertex 2.09837 -5.61504 32.3869
      vertex -2.37002 -12.2962 25.6632
      vertex 5.93035 -8.54161 30.1362
    endloop
  endfacet
  facet normal -0.0876822 -0.676872 0.73086
    outer loop
      vertex 2.09837 -5.61504 32.3869
      vertex -8.10498 -7.91622 29.0316
      vertex -2.37002 -12.2962 25.6632
    endloop
  endfacet
  facet normal 0.352229 -0.588671 0.7276
    outer loop
      vertex 16.5206 -3.3662 30.2641
      vertex 11.4312 -10.0035 27.3579
      vertex 18.7442 -3.28705 29.2517
    endloop
  endfacet
  facet normal 0.257367 -0.546339 0.797042
    outer loop
      vertex 14.589 -2.85286 31.2397
      vertex 5.93035 -8.54161 30.1362
      vertex 11.4312 -10.0035 27.3579
    endloop
  endfacet
  facet normal -0.307984 0.950133 -0.0489236
    outer loop
      vertex -8.05067 19.6621 2.63012
      vertex -6.21873 20.7383 11.9983
      vertex 4.72592 24.0543 7.49879
    endloop
  endfacet
  facet normal -0.0986631 0.985272 -0.139658
    outer loop
      vertex 10.7046 22.8106 -5.49908
      vertex 1.22775 22.4732 -1.18437
      vertex 4.72592 24.0543 7.49879
    endloop
  endfacet
  facet normal -0.30798 0.950133 -0.0489324
    outer loop
      vertex 1.22775 22.4732 -1.18437
      vertex -8.05067 19.6621 2.63012
      vertex 4.72592 24.0543 7.49879
    endloop
  endfacet
  facet normal -0.167668 0.320066 0.932441
    outer loop
      vertex 4.69843 6.81317 33.241
      vertex -9.10278 4.52049 31.5463
      vertex 1.43166 2.69491 34.0672
    endloop
  endfacet
  facet normal -0.780904 0.624224 0.0231229
    outer loop
      vertex -15.664 14.5738 13.4315
      vertex -15.263 15.0091 15.2227
      vertex -15.4088 14.9437 12.0643
    endloop
  endfacet
  facet normal -0.781003 0.624097 0.0231761
    outer loop
      vertex -15.8626 14.3033 14.0231
      vertex -15.263 15.0091 15.2227
      vertex -15.664 14.5738 13.4315
    endloop
  endfacet
  facet normal -0.780962 0.624151 0.0231236
    outer loop
      vertex -15.263 15.0091 15.2227
      vertex -15.8626 14.3033 14.0231
      vertex -17.1482 12.6326 15.6995
    endloop
  endfacet
  facet normal -0.533316 0.845886 0.00710378
    outer loop
      vertex -8.05067 19.6621 2.63012
      vertex -15.4088 14.9437 12.0643
      vertex -15.263 15.0091 15.2227
    endloop
  endfacet
  facet normal -0.533316 0.845886 0.00710433
    outer loop
      vertex -15.4088 14.9437 12.0643
      vertex -8.05067 19.6621 2.63012
      vertex -11.3092 17.5979 3.79184
    endloop
  endfacet
  facet normal 0.272353 0.961622 0.0332659
    outer loop
      vertex 29.6555 20.4243 6.26443
      vertex 15.9047 24.4522 2.40925
      vertex 19.9445 23.005 11.1692
    endloop
  endfacet
  facet normal 0.272353 0.961622 0.033266
    outer loop
      vertex 15.9047 24.4522 2.40925
      vertex 29.6555 20.4243 6.26443
      vertex 25.6157 21.8715 -2.4955
    endloop
  endfacet
  facet normal -0.067113 0.822044 -0.565455
    outer loop
      vertex 16.7762 19.6452 -10.8217
      vertex 13.8202 19.7727 -10.2855
      vertex 18.9372 20.6227 -9.65712
    endloop
  endfacet
  facet normal 0.347649 0.813599 -0.466044
    outer loop
      vertex 31.5218 16.6535 -7.1992
      vertex 30.6213 17.2177 -6.88598
      vertex 32.3805 16.705 -6.46874
    endloop
  endfacet
  facet normal 0.347624 0.813626 -0.466016
    outer loop
      vertex 19.9064 19.8826 -10.2263
      vertex 18.9372 20.6227 -9.65712
      vertex 25.6607 18.6634 -8.06251
    endloop
  endfacet
  facet normal 0.454141 -0.571552 0.683435
    outer loop
      vertex 20.9212 -2.62746 28.3567
      vertex 18.7442 -3.28705 29.2517
      vertex 23.9631 -7.89973 21.9262
    endloop
  endfacet
  facet normal -0.251706 0.74502 0.617729
    outer loop
      vertex -2.17894 19.2911 20.7582
      vertex -11.2232 13.5619 23.9827
      vertex 3.45368 15.5409 27.5763
    endloop
  endfacet
  facet normal 0.126389 -0.282108 0.951021
    outer loop
      vertex 12.6886 -0.439625 32.5147
      vertex 0.518636 -1.66929 33.7673
      vertex 2.09837 -5.61504 32.3869
    endloop
  endfacet
  facet normal 0.126378 -0.282086 0.951029
    outer loop
      vertex 12.6886 -0.439625 32.5147
      vertex 2.09837 -5.61504 32.3869
      vertex 13.2434 -1.82519 32.03
    endloop
  endfacet
  facet normal -0.453576 0.506859 0.73305
    outer loop
      vertex -4.21371 10.6839 30.3098
      vertex -16.9903 6.2917 25.4412
      vertex -9.10278 4.52049 31.5463
    endloop
  endfacet
  facet normal -0.235562 -0.0175029 0.971702
    outer loop
      vertex -9.10278 4.52049 31.5463
      vertex -10.4692 -2.011 31.0974
      vertex 1.43166 2.69491 34.0672
    endloop
  endfacet
  facet normal 0.63358 -0.365819 0.681728
    outer loop
      vertex 32.3531 -0.536127 19.2735
      vertex 23.8674 -0.0417114 27.4252
      vertex 29.0863 -4.65438 20.0997
    endloop
  endfacet
  facet normal 0.674356 -0.190102 0.713516
    outer loop
      vertex 24.188 1.49079 27.5305
      vertex 23.8674 -0.0417114 27.4252
      vertex 32.3531 -0.536127 19.2735
    endloop
  endfacet
  facet normal 0.135808 0.0901852 0.986622
    outer loop
      vertex 14.1564 2.53902 32.3299
      vertex 1.43166 2.69491 34.0672
      vertex 13.0092 1.09288 32.62
    endloop
  endfacet
  facet normal 0.280247 0.308477 0.909012
    outer loop
      vertex 18.1324 4.33822 30.7935
      vertex 9.82162 10.0585 31.4145
      vertex 15.9554 3.67863 31.6885
    endloop
  endfacet
  facet normal -0.115334 -0.954781 0.274028
    outer loop
      vertex -6.94945 -13.6771 18.9244
      vertex -2.37002 -12.2962 25.6632
      vertex -7.97612 -13.3444 19.6515
    endloop
  endfacet
  facet normal -0.115331 -0.954782 0.274026
    outer loop
      vertex -2.37002 -12.2962 25.6632
      vertex -6.94945 -13.6771 18.9244
      vertex 5.86258 -14.484 21.5052
    endloop
  endfacet
  facet normal -0.115332 -0.95478 0.274031
    outer loop
      vertex -4.25279 -14.551 17.0145
      vertex 5.86258 -14.484 21.5052
      vertex -6.94945 -13.6771 18.9244
    endloop
  endfacet
  facet normal -0.115316 -0.954792 0.273996
    outer loop
      vertex -2.59144 -15.0893 15.8379
      vertex 5.86258 -14.484 21.5052
      vertex -4.25279 -14.551 17.0145
    endloop
  endfacet
  facet normal -0.115252 -0.954757 0.274145
    outer loop
      vertex 0.662554 -16.1256 13.5968
      vertex -2.59144 -15.0893 15.8379
      vertex -1.88692 -15.4481 14.8845
    endloop
  endfacet
  facet normal -0.115339 -0.95478 0.274029
    outer loop
      vertex -2.59144 -15.0893 15.8379
      vertex 0.662554 -16.1256 13.5968
      vertex 5.86258 -14.484 21.5052
    endloop
  endfacet
  facet normal 0.417368 -0.845839 -0.332205
    outer loop
      vertex 25.8338 -9.64262 0.78646
      vertex 22.786 -12.4117 4.0078
      vertex 21.7519 -12.0413 1.76551
    endloop
  endfacet
  facet normal 0.417367 -0.845839 -0.332205
    outer loop
      vertex 27.8707 -8.44566 0.297903
      vertex 22.786 -12.4117 4.0078
      vertex 25.8338 -9.64262 0.78646
    endloop
  endfacet
  facet normal 0.417368 -0.84584 -0.332204
    outer loop
      vertex 22.786 -12.4117 4.0078
      vertex 27.8707 -8.44566 0.297903
      vertex 31.8303 -6.68251 0.783351
    endloop
  endfacet
  facet normal 0.417367 -0.845835 -0.332217
    outer loop
      vertex 31.8303 -6.68251 0.783351
      vertex 27.8707 -8.44566 0.297903
      vertex 30.8728 -6.33952 -1.29283
    endloop
  endfacet
  facet normal 0.764406 -0.533834 0.361532
    outer loop
      vertex 32.3531 -0.536127 19.2735
      vertex 29.0863 -4.65438 20.0997
      vertex 32.2853 -6.47851 10.6424
    endloop
  endfacet
  facet normal 0.764406 -0.533834 0.361532
    outer loop
      vertex 37.1744 -0.315098 9.40595
      vertex 32.3531 -0.536127 19.2735
      vertex 32.2853 -6.47851 10.6424
    endloop
  endfacet
  facet normal -0.404762 0.837336 -0.367473
    outer loop
      vertex 1.22775 22.4732 -1.18437
      vertex -4.20817 18.789 -3.59178
      vertex -8.05067 19.6621 2.63012
    endloop
  endfacet
  facet normal -0.404764 0.837336 -0.36747
    outer loop
      vertex -4.20817 18.789 -3.59178
      vertex 1.22775 22.4732 -1.18437
      vertex -0.995768 18.4659 -7.86644
    endloop
  endfacet
  facet normal -0.232199 0.866308 -0.44226
    outer loop
      vertex -0.0523782 18.557 -8.1834
      vertex 1.22775 22.4732 -1.18437
      vertex 10.7046 22.8106 -5.49908
    endloop
  endfacet
  facet normal -0.232243 0.866302 -0.442249
    outer loop
      vertex 1.22775 22.4732 -1.18437
      vertex -0.0523782 18.557 -8.1834
      vertex -0.995768 18.4659 -7.86644
    endloop
  endfacet
  facet normal -0.272354 -0.961621 -0.0332843
    outer loop
      vertex 0.662554 -16.1256 13.5968
      vertex -1.88692 -15.4481 14.8845
      vertex 0.297469 -15.9948 12.8052
    endloop
  endfacet
  facet normal -0.404761 0.837335 -0.367475
    outer loop
      vertex -8.05067 19.6621 2.63012
      vertex -4.53049 18.8214 -3.16288
      vertex -7.73985 18.0312 -1.42844
    endloop
  endfacet
  facet normal -0.404973 0.837186 -0.367582
    outer loop
      vertex -4.53049 18.8214 -3.16288
      vertex -8.05067 19.6621 2.63012
      vertex -4.20817 18.789 -3.59178
    endloop
  endfacet
  facet normal -0.557654 -0.464004 0.688275
    outer loop
      vertex -10.4692 -2.011 31.0974
      vertex -14.8977 -6.29821 24.6191
      vertex -14.6413 -6.98194 24.3659
    endloop
  endfacet
  facet normal -0.55746 -0.464221 0.688286
    outer loop
      vertex -10.4692 -2.011 31.0974
      vertex -14.9401 -6.18517 24.661
      vertex -14.8977 -6.29821 24.6191
    endloop
  endfacet
  facet normal -0.557752 -0.463888 0.688273
    outer loop
      vertex -10.4692 -2.011 31.0974
      vertex -14.9988 -6.0775 24.686
      vertex -14.9401 -6.18517 24.661
    endloop
  endfacet
  facet normal -0.55762 -0.464041 0.688277
    outer loop
      vertex -10.4692 -2.011 31.0974
      vertex -15.7536 -4.69452 25.0069
      vertex -14.9988 -6.0775 24.686
    endloop
  endfacet
  facet normal -0.557623 -0.464037 0.688278
    outer loop
      vertex -10.4692 -2.011 31.0974
      vertex -18.2281 -1.62382 25.0724
      vertex -15.7536 -4.69452 25.0069
    endloop
  endfacet
  facet normal -0.557602 -0.464108 0.688247
    outer loop
      vertex -18.2281 -1.62382 25.0724
      vertex -10.4692 -2.011 31.0974
      vertex -18.4612 -1.4231 25.0189
    endloop
  endfacet
  facet normal -0.557628 -0.46403 0.688278
    outer loop
      vertex -14.6413 -6.98194 24.3659
      vertex -8.10498 -7.91622 29.0316
      vertex -10.4692 -2.011 31.0974
    endloop
  endfacet
  facet normal -0.557618 -0.464075 0.688256
    outer loop
      vertex -8.10498 -7.91622 29.0316
      vertex -14.6413 -6.98194 24.3659
      vertex -14.1548 -8.27897 23.8855
    endloop
  endfacet
  facet normal 0.0323664 0.988403 0.148365
    outer loop
      vertex 19.9445 23.005 11.1692
      vertex 4.72592 24.0543 7.49879
      vertex 8.76571 22.6071 16.2587
    endloop
  endfacet
  facet normal 0.0323666 0.988403 0.148364
    outer loop
      vertex 4.72592 24.0543 7.49879
      vertex 19.9445 23.005 11.1692
      vertex 15.9047 24.4522 2.40925
    endloop
  endfacet
  facet normal 0.3476 0.813594 -0.466089
    outer loop
      vertex 25.6157 21.8715 -2.4955
      vertex 30.4076 17.3516 -6.81162
      vertex 29.2684 17.8989 -6.70586
    endloop
  endfacet
  facet normal 0.347647 0.813623 -0.466004
    outer loop
      vertex 30.4076 17.3516 -6.81162
      vertex 32.3805 16.705 -6.46874
      vertex 30.6213 17.2177 -6.88598
    endloop
  endfacet
  facet normal 0.347646 0.8136 -0.466045
    outer loop
      vertex 30.4076 17.3516 -6.81162
      vertex 25.6157 21.8715 -2.4955
      vertex 32.3805 16.705 -6.46874
    endloop
  endfacet
  facet normal 0.347659 0.813596 -0.466041
    outer loop
      vertex 25.6607 18.6634 -8.06251
      vertex 25.6157 21.8715 -2.4955
      vertex 29.2684 17.8989 -6.70586
    endloop
  endfacet
  facet normal 0.347626 0.813607 -0.466047
    outer loop
      vertex 25.6157 21.8715 -2.4955
      vertex 25.6607 18.6634 -8.06251
      vertex 18.9372 20.6227 -9.65712
    endloop
  endfacet
  facet normal 0.115332 0.954778 -0.274041
    outer loop
      vertex 18.9372 20.6227 -9.65712
      vertex 10.7046 22.8106 -5.49908
      vertex 25.6157 21.8715 -2.4955
    endloop
  endfacet
  facet normal 0.280248 0.308478 0.909012
    outer loop
      vertex 16.0213 11.9369 28.8657
      vertex 9.82162 10.0585 31.4145
      vertex 18.1324 4.33822 30.7935
    endloop
  endfacet
  facet normal 0.382153 0.325584 0.864843
    outer loop
      vertex 16.0213 11.9369 28.8657
      vertex 18.1324 4.33822 30.7935
      vertex 22.3535 12.1623 25.9828
    endloop
  endfacet
  facet normal 0.352223 -0.588667 0.727606
    outer loop
      vertex 18.7442 -3.28705 29.2517
      vertex 11.4312 -10.0035 27.3579
      vertex 17.7635 -9.77808 24.4749
    endloop
  endfacet
  facet normal 0.0671284 -0.82205 0.565445
    outer loop
      vertex 11.4312 -10.0035 27.3579
      vertex -2.37002 -12.2962 25.6632
      vertex 5.86258 -14.484 21.5052
    endloop
  endfacet
  facet normal 0.111078 -0.091235 0.989615
    outer loop
      vertex 13.0092 1.09288 32.62
      vertex 1.43166 2.69491 34.0672
      vertex 12.6886 -0.439625 32.5147
    endloop
  endfacet
  facet normal -0.235567 -0.0174912 0.971701
    outer loop
      vertex 1.43166 2.69491 34.0672
      vertex -10.4692 -2.011 31.0974
      vertex 0.518636 -1.66929 33.7673
    endloop
  endfacet
  facet normal -0.205248 -0.395386 0.89529
    outer loop
      vertex 0.518636 -1.66929 33.7673
      vertex -10.4692 -2.011 31.0974
      vertex 2.09837 -5.61504 32.3869
    endloop
  endfacet
  facet normal -0.0421287 0.539712 0.840795
    outer loop
      vertex 9.82162 10.0585 31.4145
      vertex -4.21371 10.6839 30.3098
      vertex 4.69843 6.81317 33.241
    endloop
  endfacet
  facet normal 0.110317 0.652815 0.749441
    outer loop
      vertex 16.0213 11.9369 28.8657
      vertex 3.45368 15.5409 27.5763
      vertex 9.82162 10.0585 31.4145
    endloop
  endfacet
  facet normal -0.0491885 0.857426 0.512251
    outer loop
      vertex 8.76571 22.6071 16.2587
      vertex -2.17894 19.2911 20.7582
      vertex 3.45368 15.5409 27.5763
    endloop
  endfacet
  facet normal -0.167668 0.320067 0.93244
    outer loop
      vertex -4.21371 10.6839 30.3098
      vertex -9.10278 4.52049 31.5463
      vertex 4.69843 6.81317 33.241
    endloop
  endfacet
  facet normal 0.414158 -0.148347 0.898035
    outer loop
      vertex 23.6333 2.87635 28.0152
      vertex 23.8674 -0.0417114 27.4252
      vertex 24.188 1.49079 27.5305
    endloop
  endfacet
  facet normal 0.414199 -0.14834 0.898017
    outer loop
      vertex 22.2877 3.90403 28.8056
      vertex 23.8674 -0.0417114 27.4252
      vertex 23.6333 2.87635 28.0152
    endloop
  endfacet
  facet normal 0.414153 -0.148365 0.898034
    outer loop
      vertex 23.8674 -0.0417114 27.4252
      vertex 22.2877 3.90403 28.8056
      vertex 22.7203 -1.48785 27.7153
    endloop
  endfacet
  facet normal 0.414127 -0.148369 0.898045
    outer loop
      vertex 20.356 4.41737 29.7812
      vertex 22.7203 -1.48785 27.7153
      vertex 22.2877 3.90403 28.8056
    endloop
  endfacet
  facet normal 0.41414 -0.148362 0.898041
    outer loop
      vertex 22.7203 -1.48785 27.7153
      vertex 20.356 4.41737 29.7812
      vertex 20.9212 -2.62746 28.3567
    endloop
  endfacet
  facet normal 0.41412 -0.148366 0.898049
    outer loop
      vertex 18.1324 4.33822 30.7935
      vertex 20.9212 -2.62746 28.3567
      vertex 20.356 4.41737 29.7812
    endloop
  endfacet
  facet normal 0.414146 -0.148352 0.898039
    outer loop
      vertex 20.9212 -2.62746 28.3567
      vertex 18.1324 4.33822 30.7935
      vertex 18.7442 -3.28705 29.2517
    endloop
  endfacet
  facet normal 0.414146 -0.148352 0.898039
    outer loop
      vertex 15.9554 3.67863 31.6885
      vertex 18.7442 -3.28705 29.2517
      vertex 18.1324 4.33822 30.7935
    endloop
  endfacet
  facet normal 0.414154 -0.148347 0.898036
    outer loop
      vertex 18.7442 -3.28705 29.2517
      vertex 15.9554 3.67863 31.6885
      vertex 16.5206 -3.3662 30.2641
    endloop
  endfacet
  facet normal 0.414152 -0.148348 0.898037
    outer loop
      vertex 14.1564 2.53902 32.3299
      vertex 16.5206 -3.3662 30.2641
      vertex 15.9554 3.67863 31.6885
    endloop
  endfacet
  facet normal 0.41415 -0.148349 0.898038
    outer loop
      vertex 16.5206 -3.3662 30.2641
      vertex 14.1564 2.53902 32.3299
      vertex 14.589 -2.85286 31.2397
    endloop
  endfacet
  facet normal 0.414111 -0.148355 0.898055
    outer loop
      vertex 13.0092 1.09288 32.62
      vertex 14.589 -2.85286 31.2397
      vertex 14.1564 2.53902 32.3299
    endloop
  endfacet
  facet normal 0.414152 -0.148334 0.89804
    outer loop
      vertex 14.589 -2.85286 31.2397
      vertex 13.0092 1.09288 32.62
      vertex 13.2434 -1.82519 32.03
    endloop
  endfacet
  facet normal 0.414118 -0.14834 0.898054
    outer loop
      vertex 13.2434 -1.82519 32.03
      vertex 13.0092 1.09288 32.62
      vertex 12.6886 -0.439625 32.5147
    endloop
  endfacet
  facet normal 0.232197 -0.866305 0.442268
    outer loop
      vertex 11.4312 -10.0035 27.3579
      vertex 5.86258 -14.484 21.5052
      vertex 17.7635 -9.77808 24.4749
    endloop
  endfacet
  facet normal 0.404771 -0.837332 0.367473
    outer loop
      vertex 17.7635 -9.77808 24.4749
      vertex 15.3395 -14.1467 17.1905
      vertex 24.6179 -11.3355 13.376
    endloop
  endfacet
  facet normal 0.307983 -0.950133 0.048925
    outer loop
      vertex 24.6179 -11.3355 13.376
      vertex 11.8413 -15.7277 8.5073
      vertex 22.786 -12.4117 4.0078
    endloop
  endfacet
  facet normal 0.533305 -0.845893 -0.00710935
    outer loop
      vertex 32.2853 -6.47851 10.6424
      vertex 24.6179 -11.3355 13.376
      vertex 31.8303 -6.68251 0.783351
    endloop
  endfacet
  facet normal 0.780974 -0.624135 -0.023128
    outer loop
      vertex 37.5973 0.587725 -0.675154
      vertex 32.2853 -6.47851 10.6424
      vertex 31.8303 -6.68251 0.783351
    endloop
  endfacet
  facet normal -0.232191 0.866301 -0.442279
    outer loop
      vertex 10.7046 22.8106 -5.49908
      vertex 5.24618 19.0683 -9.96359
      vertex -0.0523782 18.557 -8.1834
    endloop
  endfacet
  facet normal -0.232232 0.866311 -0.442237
    outer loop
      vertex 5.24618 19.0683 -9.96359
      vertex 10.7046 22.8106 -5.49908
      vertex 6.16361 19.1569 -10.2718
    endloop
  endfacet
  facet normal -0.671985 0.615645 0.411604
    outer loop
      vertex -17.1482 12.6326 15.6995
      vertex -11.2232 13.5619 23.9827
      vertex -15.263 15.0091 15.2227
    endloop
  endfacet
  facet normal -0.671998 0.615623 0.411615
    outer loop
      vertex -17.822 9.84137 18.7741
      vertex -11.2232 13.5619 23.9827
      vertex -17.1482 12.6326 15.6995
    endloop
  endfacet
  facet normal -0.671996 0.615631 0.411606
    outer loop
      vertex -18.5415 6.86094 22.0572
      vertex -11.2232 13.5619 23.9827
      vertex -17.822 9.84137 18.7741
    endloop
  endfacet
  facet normal -0.670863 0.617058 0.411317
    outer loop
      vertex -16.9903 6.2917 25.4412
      vertex -18.5415 6.86094 22.0572
      vertex -18.5477 6.8496 22.0641
    endloop
  endfacet
  facet normal -0.671997 0.615635 0.411598
    outer loop
      vertex -18.5415 6.86094 22.0572
      vertex -16.9903 6.2917 25.4412
      vertex -11.2232 13.5619 23.9827
    endloop
  endfacet
  facet normal 0.307985 -0.950133 0.0489181
    outer loop
      vertex 15.3395 -14.1467 17.1905
      vertex 11.8413 -15.7277 8.5073
      vertex 24.6179 -11.3355 13.376
    endloop
  endfacet
  facet normal 0.232194 -0.866302 0.442275
    outer loop
      vertex 17.7635 -9.77808 24.4749
      vertex 5.86258 -14.484 21.5052
      vertex 15.3395 -14.1467 17.1905
    endloop
  endfacet
  facet normal 0.088756 0.67765 -0.730009
    outer loop
      vertex 19.8751 19.8881 -10.225
      vertex 18.9372 20.6227 -9.65712
      vertex 19.9064 19.8826 -10.2263
    endloop
  endfacet
  facet normal 0.087667 0.676899 -0.730836
    outer loop
      vertex 18.9372 20.6227 -9.65712
      vertex 19.8751 19.8881 -10.225
      vertex 16.7762 19.6452 -10.8217
    endloop
  endfacet
  facet normal -0.251708 0.745012 0.617738
    outer loop
      vertex 3.45368 15.5409 27.5763
      vertex -11.2232 13.5619 23.9827
      vertex -4.21371 10.6839 30.3098
    endloop
  endfacet
  facet normal -0.453576 0.50686 0.73305
    outer loop
      vertex -11.2232 13.5619 23.9827
      vertex -16.9903 6.2917 25.4412
      vertex -4.21371 10.6839 30.3098
    endloop
  endfacet
  facet normal 0.404765 -0.837336 0.367469
    outer loop
      vertex 23.9631 -7.89973 21.9262
      vertex 17.7635 -9.77808 24.4749
      vertex 24.6179 -11.3355 13.376
    endloop
  endfacet
  facet normal 0.454135 -0.571558 0.683435
    outer loop
      vertex 18.7442 -3.28705 29.2517
      vertex 17.7635 -9.77808 24.4749
      vertex 23.9631 -7.89973 21.9262
    endloop
  endfacet
endsolid OpenSCAD_Model
