solid OpenSCAD_Model
  facet normal 0.0346247 0.923325 0.382456
    outer loop
      vertex 0.405106 -2.13478 1.72516
      vertex 49.2 -3.25 0
      vertex 9.2 -1.75 0
    endloop
  endfacet
  facet normal 0.0346223 -0.382302 -0.923388
    outer loop
      vertex -1.08953 -5.678 -1.79938
      vertex 49.2 -4.35962 -0.459619
      vertex -1.08953 -5.69312 -1.79312
    endloop
  endfacet
  facet normal 0.0346246 -0.382454 -0.923325
    outer loop
      vertex 49.2 -4.35962 -0.459619
      vertex -1.08953 -5.678 -1.79938
      vertex 49.2 -3.9 -0.65
    endloop
  endfacet
  facet normal 0.0346247 0.923325 -0.382456
    outer loop
      vertex 9.2 -1.75 0
      vertex 49.2 -3.25 0
      vertex 0.405106 -2.13478 -1.72516
    endloop
  endfacet
  facet normal 0.0346246 -0.382454 0.923325
    outer loop
      vertex -1.08953 -5.678 1.79938
      vertex 49.2 -4.35962 0.459619
      vertex 49.2 -3.9 0.65
    endloop
  endfacet
  facet normal 0.0346223 -0.382302 0.923388
    outer loop
      vertex 49.2 -4.35962 0.459619
      vertex -1.08953 -5.678 1.79938
      vertex -1.08953 -5.69312 1.79312
    endloop
  endfacet
  facet normal 0.0346252 0.382438 0.923332
    outer loop
      vertex -1.08953 -2.34025 1.88979
      vertex 0.0296043 -2.16156 1.77381
      vertex -1.08953 -2.26613 1.85909
    endloop
  endfacet
  facet normal 0.0346219 0.382454 0.923326
    outer loop
      vertex -1.08953 -3.9 2.53586
      vertex 0.0296043 -2.16156 1.77381
      vertex -1.08953 -2.34025 1.88979
    endloop
  endfacet
  facet normal 0.0346248 0.382453 0.923326
    outer loop
      vertex 0.0296043 -2.16156 1.77381
      vertex -1.08953 -3.9 2.53586
      vertex 49.2 -3.9 0.65
    endloop
  endfacet
  facet normal 0.0346253 -0.923314 0.382482
    outer loop
      vertex -1.08953 -5.78979 1.55975
      vertex 49.2 -4.55 0
      vertex -1.08953 -5.69938 1.778
    endloop
  endfacet
  facet normal 0.0346248 -0.923325 0.382454
    outer loop
      vertex 49.2 -4.55 0
      vertex -1.08953 -5.78979 1.55975
      vertex -1.08953 -6.43586 0
    endloop
  endfacet
  facet normal 0.0346223 -0.923388 0.382302
    outer loop
      vertex -1.08953 -5.69938 1.778
      vertex 49.2 -4.35962 0.459619
      vertex -1.08953 -5.69312 1.79312
    endloop
  endfacet
  facet normal 0.0346246 -0.923326 0.382453
    outer loop
      vertex 49.2 -4.35962 0.459619
      vertex -1.08953 -5.69938 1.778
      vertex 49.2 -4.55 0
    endloop
  endfacet
  facet normal 0.0346248 0.382453 -0.923326
    outer loop
      vertex -1.08953 -3.9 -2.53586
      vertex 0.0296043 -2.16156 -1.77381
      vertex 49.2 -3.9 -0.65
    endloop
  endfacet
  facet normal 0.0346219 0.382454 -0.923326
    outer loop
      vertex 0.0296043 -2.16156 -1.77381
      vertex -1.08953 -3.9 -2.53586
      vertex -1.08953 -2.34025 -1.88979
    endloop
  endfacet
  facet normal 0.0346252 0.382438 -0.923332
    outer loop
      vertex 0.0296043 -2.16156 -1.77381
      vertex -1.08953 -2.34025 -1.88979
      vertex -1.08953 -2.26613 -1.85909
    endloop
  endfacet
  facet normal 0.0346248 -0.923325 -0.382454
    outer loop
      vertex -1.08953 -5.78979 -1.55975
      vertex 49.2 -4.55 0
      vertex -1.08953 -6.43586 0
    endloop
  endfacet
  facet normal 0.0346253 -0.923314 -0.382482
    outer loop
      vertex 49.2 -4.55 0
      vertex -1.08953 -5.78979 -1.55975
      vertex -1.08953 -5.69938 -1.778
    endloop
  endfacet
  facet normal 0.0346248 0.382454 0.923325
    outer loop
      vertex 0.238107 -2.14208 1.75792
      vertex 49.2 -3.9 0.65
      vertex 49.2 -3.44038 0.459619
    endloop
  endfacet
  facet normal 0.0346265 0.38252 0.923298
    outer loop
      vertex 49.2 -3.9 0.65
      vertex 0.238107 -2.14208 1.75792
      vertex 0.0296043 -2.16156 1.77381
    endloop
  endfacet
  facet normal 0.0346253 -0.382482 0.923314
    outer loop
      vertex 49.2 -3.9 0.65
      vertex -1.08953 -5.45975 1.88979
      vertex -1.08953 -5.678 1.79938
    endloop
  endfacet
  facet normal 0.0346248 -0.382454 0.923325
    outer loop
      vertex -1.08953 -5.45975 1.88979
      vertex 49.2 -3.9 0.65
      vertex -1.08953 -3.9 2.53586
    endloop
  endfacet
  facet normal 1 0 0
    outer loop
      vertex 49.2 -3.44038 0.459619
      vertex 49.2 -3.44038 -0.459619
      vertex 49.2 -3.25 0
    endloop
  endfacet
  facet normal 1 0 0
    outer loop
      vertex 49.2 -3.9 0.65
      vertex 49.2 -3.44038 -0.459619
      vertex 49.2 -3.44038 0.459619
    endloop
  endfacet
  facet normal 1 0 0
    outer loop
      vertex 49.2 -3.9 0.65
      vertex 49.2 -3.9 -0.65
      vertex 49.2 -3.44038 -0.459619
    endloop
  endfacet
  facet normal 1 -0 0
    outer loop
      vertex 49.2 -4.35962 0.459619
      vertex 49.2 -3.9 -0.65
      vertex 49.2 -3.9 0.65
    endloop
  endfacet
  facet normal 1 0 0
    outer loop
      vertex 49.2 -4.35962 0.459619
      vertex 49.2 -4.35962 -0.459619
      vertex 49.2 -3.9 -0.65
    endloop
  endfacet
  facet normal 1 0 -0
    outer loop
      vertex 49.2 -4.35962 -0.459619
      vertex 49.2 -4.35962 0.459619
      vertex 49.2 -4.55 0
    endloop
  endfacet
  facet normal 0.0346246 0.923326 -0.382453
    outer loop
      vertex 49.2 -3.44038 -0.459619
      vertex 0.405106 -2.13478 -1.72516
      vertex 49.2 -3.25 0
    endloop
  endfacet
  facet normal 0.0346217 0.923408 -0.382255
    outer loop
      vertex 0.405106 -2.13478 -1.72516
      vertex 49.2 -3.44038 -0.459619
      vertex 0.238107 -2.14208 -1.75792
    endloop
  endfacet
  facet normal 0.0346253 -0.382482 -0.923314
    outer loop
      vertex -1.08953 -5.45975 -1.88979
      vertex 49.2 -3.9 -0.65
      vertex -1.08953 -5.678 -1.79938
    endloop
  endfacet
  facet normal 0.0346248 -0.382454 -0.923325
    outer loop
      vertex 49.2 -3.9 -0.65
      vertex -1.08953 -5.45975 -1.88979
      vertex -1.08953 -3.9 -2.53586
    endloop
  endfacet
  facet normal 0.0346217 0.923408 0.382255
    outer loop
      vertex 49.2 -3.44038 0.459619
      vertex 0.405106 -2.13478 1.72516
      vertex 0.238107 -2.14208 1.75792
    endloop
  endfacet
  facet normal 0.0346246 0.923326 0.382453
    outer loop
      vertex 0.405106 -2.13478 1.72516
      vertex 49.2 -3.44038 0.459619
      vertex 49.2 -3.25 0
    endloop
  endfacet
  facet normal 0.0346246 -0.923326 -0.382453
    outer loop
      vertex -1.08953 -5.69938 -1.778
      vertex 49.2 -4.35962 -0.459619
      vertex 49.2 -4.55 0
    endloop
  endfacet
  facet normal 0.0346223 -0.923388 -0.382302
    outer loop
      vertex 49.2 -4.35962 -0.459619
      vertex -1.08953 -5.69938 -1.778
      vertex -1.08953 -5.69312 -1.79312
    endloop
  endfacet
  facet normal 0.0346248 0.382454 -0.923325
    outer loop
      vertex 49.2 -3.9 -0.65
      vertex 0.238107 -2.14208 -1.75792
      vertex 49.2 -3.44038 -0.459619
    endloop
  endfacet
  facet normal 0.0346265 0.38252 -0.923298
    outer loop
      vertex 0.238107 -2.14208 -1.75792
      vertex 49.2 -3.9 -0.65
      vertex 0.0296043 -2.16156 -1.77381
    endloop
  endfacet
  facet normal 0.678598 -0.281085 0.678598
    outer loop
      vertex -1.55628 -3.9 3.00261
      vertex -1.08953 -5.45975 1.88979
      vertex -1.08953 -3.9 2.53586
    endloop
  endfacet
  facet normal 0.678593 -0.281089 0.678602
    outer loop
      vertex -1.08953 -5.45975 1.88979
      vertex -1.55628 -3.9 3.00261
      vertex -1.55628 -6.02316 2.12316
    endloop
  endfacet
  facet normal 0.678613 0.281174 0.678547
    outer loop
      vertex -1.29878 -2.21447 2.04694
      vertex -1.08953 -2.34025 1.88979
      vertex -1.16672 -2.24708 1.92838
    endloop
  endfacet
  facet normal 0.67859 0.281039 0.678625
    outer loop
      vertex -1.44515 -2.17834 2.17834
      vertex -1.08953 -2.34025 1.88979
      vertex -1.29878 -2.21447 2.04694
    endloop
  endfacet
  facet normal 0.678397 0.281157 0.678769
    outer loop
      vertex -1.55628 -3.9 3.00261
      vertex -1.54484 -2.07304 2.23442
      vertex -1.55628 -2.06096 2.24085
    endloop
  endfacet
  facet normal 0.678623 0.281075 0.678578
    outer loop
      vertex -1.55628 -3.9 3.00261
      vertex -1.44515 -2.17834 2.17834
      vertex -1.54484 -2.07304 2.23442
    endloop
  endfacet
  facet normal 0.678598 0.281086 0.678598
    outer loop
      vertex -1.08953 -3.9 2.53586
      vertex -1.44515 -2.17834 2.17834
      vertex -1.55628 -3.9 3.00261
    endloop
  endfacet
  facet normal 0.678594 0.281086 0.678602
    outer loop
      vertex -1.44515 -2.17834 2.17834
      vertex -1.08953 -3.9 2.53586
      vertex -1.08953 -2.34025 1.88979
    endloop
  endfacet
  facet normal 0.678598 -0.678598 -0.281085
    outer loop
      vertex -1.55628 -6.90261 0
      vertex -1.08953 -5.78979 -1.55975
      vertex -1.08953 -6.43586 0
    endloop
  endfacet
  facet normal 0.678593 -0.678602 -0.281089
    outer loop
      vertex -1.08953 -5.78979 -1.55975
      vertex -1.55628 -6.90261 0
      vertex -1.55628 -6.02316 -2.12316
    endloop
  endfacet
  facet normal 0.678555 0.281088 0.67864
    outer loop
      vertex -1.16672 -2.24708 1.92838
      vertex -1.08953 -2.34025 1.88979
      vertex -1.08953 -2.26613 1.85909
    endloop
  endfacet
  facet normal -0.678596 0.281082 -0.678602
    outer loop
      vertex -5.80261 -3.9 -1.24372
      vertex -5.66302 -3.16158 -1.07745
      vertex -4.89993 -2.81037 -1.69506
    endloop
  endfacet
  facet normal -0.678612 0.281081 -0.678586
    outer loop
      vertex -5.66302 -3.16158 -1.07745
      vertex -5.80261 -3.9 -1.24372
      vertex -5.80261 -3.33008 -1.00765
    endloop
  endfacet
  facet normal 1.19292e-05 0.382685 0.923879
    outer loop
      vertex -1.85282 -2.10571 2.25939
      vertex -1.55628 -3.9 3.00261
      vertex -1.55628 -2.06096 2.24085
    endloop
  endfacet
  facet normal 4.99084e-07 0.382684 0.923879
    outer loop
      vertex -3.5915 -2.36806 2.36806
      vertex -1.55628 -3.9 3.00261
      vertex -1.85282 -2.10571 2.25939
    endloop
  endfacet
  facet normal -3.48479e-06 0.382684 0.923879
    outer loop
      vertex -4.04372 -3.9 3.00261
      vertex -3.5915 -2.36806 2.36806
      vertex -4.04372 -2.4163 2.38804
    endloop
  endfacet
  facet normal 0 0.382683 0.92388
    outer loop
      vertex -3.5915 -2.36806 2.36806
      vertex -4.04372 -3.9 3.00261
      vertex -1.55628 -3.9 3.00261
    endloop
  endfacet
  facet normal 0 -0.382687 -0.923878
    outer loop
      vertex -4.04372 -6.02316 -2.12316
      vertex -1.55628 -3.9 -3.00261
      vertex -1.55628 -6.02316 -2.12316
    endloop
  endfacet
  facet normal -0 -0.382687 -0.923878
    outer loop
      vertex -1.55628 -3.9 -3.00261
      vertex -4.04372 -6.02316 -2.12316
      vertex -4.04372 -3.9 -3.00261
    endloop
  endfacet
  facet normal 0.678571 -0.678668 -0.280983
    outer loop
      vertex -1.08953 -5.69938 -1.778
      vertex -1.55628 -6.02316 -2.12316
      vertex -1.08953 -5.69312 -1.79312
    endloop
  endfacet
  facet normal 0.678603 -0.678585 -0.281104
    outer loop
      vertex -1.55628 -6.02316 -2.12316
      vertex -1.08953 -5.69938 -1.778
      vertex -1.08953 -5.78979 -1.55975
    endloop
  endfacet
  facet normal -0.678598 -0.281087 0.678598
    outer loop
      vertex -5.80261 -3.9 1.24372
      vertex -4.04372 -6.02316 2.12316
      vertex -4.04372 -3.9 3.00261
    endloop
  endfacet
  facet normal 0 -0.923878 0.382687
    outer loop
      vertex -4.04372 -6.90261 0
      vertex -1.55628 -6.02316 2.12316
      vertex -4.04372 -6.02316 2.12316
    endloop
  endfacet
  facet normal 0 -0.923878 0.382687
    outer loop
      vertex -1.55628 -6.02316 2.12316
      vertex -4.04372 -6.90261 0
      vertex -1.55628 -6.90261 0
    endloop
  endfacet
  facet normal 0.678598 -0.281085 -0.678598
    outer loop
      vertex -1.08953 -5.45975 -1.88979
      vertex -1.55628 -3.9 -3.00261
      vertex -1.08953 -3.9 -2.53586
    endloop
  endfacet
  facet normal 0.678593 -0.281089 -0.678602
    outer loop
      vertex -1.55628 -3.9 -3.00261
      vertex -1.08953 -5.45975 -1.88979
      vertex -1.55628 -6.02316 -2.12316
    endloop
  endfacet
  facet normal 0 -0.382687 0.923878
    outer loop
      vertex -4.04372 -3.9 3.00261
      vertex -1.55628 -6.02316 2.12316
      vertex -1.55628 -3.9 3.00261
    endloop
  endfacet
  facet normal 0 -0.382687 0.923878
    outer loop
      vertex -1.55628 -6.02316 2.12316
      vertex -4.04372 -3.9 3.00261
      vertex -4.04372 -6.02316 2.12316
    endloop
  endfacet
  facet normal 0.678593 -0.678602 0.281089
    outer loop
      vertex -1.55628 -6.90261 0
      vertex -1.08953 -5.78979 1.55975
      vertex -1.55628 -6.02316 2.12316
    endloop
  endfacet
  facet normal 0.678598 -0.678598 0.281085
    outer loop
      vertex -1.08953 -5.78979 1.55975
      vertex -1.55628 -6.90261 0
      vertex -1.08953 -6.43586 0
    endloop
  endfacet
  facet normal 0.678571 -0.280983 0.678668
    outer loop
      vertex -1.08953 -5.678 1.79938
      vertex -1.55628 -6.02316 2.12316
      vertex -1.08953 -5.69312 1.79312
    endloop
  endfacet
  facet normal 0.678603 -0.281104 0.678585
    outer loop
      vertex -1.55628 -6.02316 2.12316
      vertex -1.08953 -5.678 1.79938
      vertex -1.08953 -5.45975 1.88979
    endloop
  endfacet
  facet normal 0.678603 -0.678585 0.281104
    outer loop
      vertex -1.08953 -5.69938 1.778
      vertex -1.55628 -6.02316 2.12316
      vertex -1.08953 -5.78979 1.55975
    endloop
  endfacet
  facet normal 0.678571 -0.678668 0.280983
    outer loop
      vertex -1.55628 -6.02316 2.12316
      vertex -1.08953 -5.69938 1.778
      vertex -1.08953 -5.69312 1.79312
    endloop
  endfacet
  facet normal 0 -0.923878 -0.382687
    outer loop
      vertex -4.04372 -6.02316 -2.12316
      vertex -1.55628 -6.90261 0
      vertex -4.04372 -6.90261 0
    endloop
  endfacet
  facet normal 0 -0.923878 -0.382687
    outer loop
      vertex -1.55628 -6.90261 0
      vertex -4.04372 -6.02316 -2.12316
      vertex -1.55628 -6.02316 -2.12316
    endloop
  endfacet
  facet normal -0.678565 0.281097 -0.678626
    outer loop
      vertex -4.04372 -3.9 -3.00261
      vertex -4.09829 -2.44142 -2.34388
      vertex -4.04372 -2.4163 -2.38804
    endloop
  endfacet
  facet normal -0.6786 0.281082 -0.678597
    outer loop
      vertex -4.04372 -3.9 -3.00261
      vertex -4.89993 -2.81037 -1.69506
      vertex -4.09829 -2.44142 -2.34388
    endloop
  endfacet
  facet normal -0.678598 0.281085 -0.678598
    outer loop
      vertex -4.89993 -2.81037 -1.69506
      vertex -4.04372 -3.9 -3.00261
      vertex -5.80261 -3.9 -1.24372
    endloop
  endfacet
  facet normal 1.19292e-05 0.382685 -0.923879
    outer loop
      vertex -1.55628 -3.9 -3.00261
      vertex -1.85282 -2.10571 -2.25939
      vertex -1.55628 -2.06096 -2.24085
    endloop
  endfacet
  facet normal 4.99084e-07 0.382684 -0.923879
    outer loop
      vertex -1.55628 -3.9 -3.00261
      vertex -3.5915 -2.36806 -2.36806
      vertex -1.85282 -2.10571 -2.25939
    endloop
  endfacet
  facet normal 0 0.382683 -0.92388
    outer loop
      vertex -4.04372 -3.9 -3.00261
      vertex -3.5915 -2.36806 -2.36806
      vertex -1.55628 -3.9 -3.00261
    endloop
  endfacet
  facet normal -3.48479e-06 0.382684 -0.923879
    outer loop
      vertex -3.5915 -2.36806 -2.36806
      vertex -4.04372 -3.9 -3.00261
      vertex -4.04372 -2.4163 -2.38804
    endloop
  endfacet
  facet normal -0.678598 -0.281087 -0.678598
    outer loop
      vertex -4.04372 -3.9 -3.00261
      vertex -4.04372 -6.02316 -2.12316
      vertex -5.80261 -3.9 -1.24372
    endloop
  endfacet
  facet normal -0.678597 -0.281086 0.678599
    outer loop
      vertex -5.80261 -4.77944 0.879443
      vertex -4.04372 -6.02316 2.12316
      vertex -5.80261 -3.9 1.24372
    endloop
  endfacet
  facet normal 0.678613 0.281174 -0.678547
    outer loop
      vertex -1.08953 -2.34025 -1.88979
      vertex -1.29878 -2.21447 -2.04694
      vertex -1.16672 -2.24708 -1.92838
    endloop
  endfacet
  facet normal 0.67859 0.281039 -0.678625
    outer loop
      vertex -1.08953 -2.34025 -1.88979
      vertex -1.44515 -2.17834 -2.17834
      vertex -1.29878 -2.21447 -2.04694
    endloop
  endfacet
  facet normal 0.678594 0.281086 -0.678602
    outer loop
      vertex -1.08953 -3.9 -2.53586
      vertex -1.44515 -2.17834 -2.17834
      vertex -1.08953 -2.34025 -1.88979
    endloop
  endfacet
  facet normal 0.678598 0.281086 -0.678598
    outer loop
      vertex -1.55628 -3.9 -3.00261
      vertex -1.44515 -2.17834 -2.17834
      vertex -1.08953 -3.9 -2.53586
    endloop
  endfacet
  facet normal 0.678623 0.281075 -0.678578
    outer loop
      vertex -1.44515 -2.17834 -2.17834
      vertex -1.55628 -3.9 -3.00261
      vertex -1.54484 -2.07304 -2.23442
    endloop
  endfacet
  facet normal 0.678397 0.281157 -0.678769
    outer loop
      vertex -1.54484 -2.07304 -2.23442
      vertex -1.55628 -3.9 -3.00261
      vertex -1.55628 -2.06096 -2.24085
    endloop
  endfacet
  facet normal 0.678603 -0.281104 -0.678585
    outer loop
      vertex -1.08953 -5.678 -1.79938
      vertex -1.55628 -6.02316 -2.12316
      vertex -1.08953 -5.45975 -1.88979
    endloop
  endfacet
  facet normal 0.678571 -0.280983 -0.678668
    outer loop
      vertex -1.55628 -6.02316 -2.12316
      vertex -1.08953 -5.678 -1.79938
      vertex -1.08953 -5.69312 -1.79312
    endloop
  endfacet
  facet normal 0.678555 0.281088 -0.67864
    outer loop
      vertex -1.08953 -2.26613 -1.85909
      vertex -1.08953 -2.34025 -1.88979
      vertex -1.16672 -2.24708 -1.92838
    endloop
  endfacet
  facet normal -0.678597 -0.281086 -0.678599
    outer loop
      vertex -5.80261 -3.9 -1.24372
      vertex -4.04372 -6.02316 -2.12316
      vertex -5.80261 -4.77944 -0.879443
    endloop
  endfacet
  facet normal -0.678598 -0.678598 -0.281087
    outer loop
      vertex -4.04372 -6.02316 -2.12316
      vertex -4.04372 -6.90261 0
      vertex -5.80261 -5.14372 0
    endloop
  endfacet
  facet normal -0.678598 0.281085 0.678598
    outer loop
      vertex -4.04372 -3.9 3.00261
      vertex -4.89993 -2.81037 1.69506
      vertex -5.80261 -3.9 1.24372
    endloop
  endfacet
  facet normal -0.6786 0.281082 0.678597
    outer loop
      vertex -4.89993 -2.81037 1.69506
      vertex -4.04372 -3.9 3.00261
      vertex -4.09829 -2.44142 2.34388
    endloop
  endfacet
  facet normal -0.678565 0.281097 0.678626
    outer loop
      vertex -4.09829 -2.44142 2.34388
      vertex -4.04372 -3.9 3.00261
      vertex -4.04372 -2.4163 2.38804
    endloop
  endfacet
  facet normal -0.678598 -0.678598 0.281087
    outer loop
      vertex -5.80261 -5.14372 0
      vertex -4.04372 -6.02316 2.12316
      vertex -5.80261 -4.77944 0.879443
    endloop
  endfacet
  facet normal -0.678598 -0.678598 0.281087
    outer loop
      vertex -5.80261 -5.14372 0
      vertex -4.04372 -6.90261 0
      vertex -4.04372 -6.02316 2.12316
    endloop
  endfacet
  facet normal -0.678598 -0.678598 -0.281087
    outer loop
      vertex -5.80261 -4.77944 -0.879443
      vertex -4.04372 -6.02316 -2.12316
      vertex -5.80261 -5.14372 0
    endloop
  endfacet
  facet normal -0.678612 0.281081 0.678586
    outer loop
      vertex -5.80261 -3.9 1.24372
      vertex -5.66302 -3.16158 1.07745
      vertex -5.80261 -3.33008 1.00765
    endloop
  endfacet
  facet normal -0.678596 0.281082 0.678602
    outer loop
      vertex -5.66302 -3.16158 1.07745
      vertex -5.80261 -3.9 1.24372
      vertex -4.89993 -2.81037 1.69506
    endloop
  endfacet
  facet normal -1 0 0
    outer loop
      vertex -5.80261 -4.77944 -0.879443
      vertex -5.80261 -3.65299 -0.228092
      vertex -5.80261 -3.9 -1.24372
    endloop
  endfacet
  facet normal -1 0 0
    outer loop
      vertex -5.80261 -3.9 -1.24372
      vertex -5.80261 -3.65299 -0.228092
      vertex -5.80261 -3.33008 -1.00765
    endloop
  endfacet
  facet normal -1 0 0
    outer loop
      vertex -5.80261 -3.65299 0.228092
      vertex -5.80261 -3.9 1.24372
      vertex -5.80261 -3.33008 1.00765
    endloop
  endfacet
  facet normal -1 0 0
    outer loop
      vertex -5.80261 -4.77944 0.879443
      vertex -5.80261 -3.65299 0.228092
      vertex -5.80261 -3.74747 0
    endloop
  endfacet
  facet normal -1 -0 0
    outer loop
      vertex -5.80261 -3.65299 -0.228092
      vertex -5.80261 -4.77944 -0.879443
      vertex -5.80261 -3.74747 0
    endloop
  endfacet
  facet normal -1 0 0
    outer loop
      vertex -5.80261 -5.14372 0
      vertex -5.80261 -3.74747 0
      vertex -5.80261 -4.77944 -0.879443
    endloop
  endfacet
  facet normal -1 0 0
    outer loop
      vertex -5.80261 -3.65299 0.228092
      vertex -5.80261 -4.77944 0.879443
      vertex -5.80261 -3.9 1.24372
    endloop
  endfacet
  facet normal -1 0 0
    outer loop
      vertex -5.80261 -3.74747 0
      vertex -5.80261 -5.14372 0
      vertex -5.80261 -4.77944 0.879443
    endloop
  endfacet
  facet normal 0.114723 0.91778 0.380156
    outer loop
      vertex 18 0.65 0
      vertex -5.66302 3.48449 0.297887
      vertex -5.66302 2.56827 2.50984
    endloop
  endfacet
  facet normal 0.114722 0.917778 0.38016
    outer loop
      vertex -5.66302 3.48449 0.297887
      vertex 18 0.65 0
      vertex -5.66302 3.60788 0
    endloop
  endfacet
  facet normal 0.114723 0.380156 0.91778
    outer loop
      vertex -5.66302 0.297887 3.48449
      vertex 18 0 0.65
      vertex -5.66302 2.50984 2.56827
    endloop
  endfacet
  facet normal 0.114722 0.38016 0.917778
    outer loop
      vertex 18 0 0.65
      vertex -5.66302 0.297887 3.48449
      vertex -5.66302 0 3.60788
    endloop
  endfacet
  facet normal 0.114707 -0.37994 -0.917872
    outer loop
      vertex -1.55628 -2.06096 -2.24085
      vertex 18 0 -0.65
      vertex -1.54484 -2.07304 -2.23442
    endloop
  endfacet
  facet normal 0.114723 -0.380156 -0.91778
    outer loop
      vertex -5.66302 -0.297887 -3.48449
      vertex -1.85282 -2.10571 -2.25939
      vertex -5.66302 -2.50984 -2.56827
    endloop
  endfacet
  facet normal 0.114721 -0.38016 -0.917779
    outer loop
      vertex -5.66302 0 -3.60788
      vertex -1.85282 -2.10571 -2.25939
      vertex -5.66302 -0.297887 -3.48449
    endloop
  endfacet
  facet normal 0.114745 -0.380124 -0.91779
    outer loop
      vertex -1.85282 -2.10571 -2.25939
      vertex -5.66302 0 -3.60788
      vertex -1.55628 -2.06096 -2.24085
    endloop
  endfacet
  facet normal 0.114722 -0.38016 -0.917778
    outer loop
      vertex -1.55628 -2.06096 -2.24085
      vertex -5.66302 0 -3.60788
      vertex 18 0 -0.65
    endloop
  endfacet
  facet normal 0.114722 0.917778 -0.38016
    outer loop
      vertex 18 0.65 0
      vertex -5.66302 3.48449 -0.297887
      vertex -5.66302 3.60788 0
    endloop
  endfacet
  facet normal 0.114723 0.91778 -0.380156
    outer loop
      vertex -5.66302 3.48449 -0.297887
      vertex 18 0.65 0
      vertex -5.66302 2.56827 -2.50984
    endloop
  endfacet
  facet normal 0.114722 -0.380158 -0.917779
    outer loop
      vertex -1.44515 -2.17834 -2.17834
      vertex 18 0 -0.65
      vertex 18 -0.459619 -0.459619
    endloop
  endfacet
  facet normal 0.114723 -0.380171 -0.917774
    outer loop
      vertex 18 0 -0.65
      vertex -1.44515 -2.17834 -2.17834
      vertex -1.54484 -2.07304 -2.23442
    endloop
  endfacet
  facet normal 0.114726 -0.380324 -0.91771
    outer loop
      vertex -5.66302 -2.50984 -2.56827
      vertex -3.5915 -2.36806 -2.36806
      vertex -5.66302 -2.55115 -2.55115
    endloop
  endfacet
  facet normal 0.11472 -0.380123 -0.917794
    outer loop
      vertex -3.5915 -2.36806 -2.36806
      vertex -5.66302 -2.50984 -2.56827
      vertex -1.85282 -2.10571 -2.25939
    endloop
  endfacet
  facet normal 0.114707 -0.37994 0.917872
    outer loop
      vertex 18 0 0.65
      vertex -1.55628 -2.06096 2.24085
      vertex -1.54484 -2.07304 2.23442
    endloop
  endfacet
  facet normal 0.114745 -0.380124 0.91779
    outer loop
      vertex -5.66302 0 3.60788
      vertex -1.85282 -2.10571 2.25939
      vertex -1.55628 -2.06096 2.24085
    endloop
  endfacet
  facet normal 0.114722 -0.38016 0.917778
    outer loop
      vertex -5.66302 0 3.60788
      vertex -1.55628 -2.06096 2.24085
      vertex 18 0 0.65
    endloop
  endfacet
  facet normal 0.114721 -0.38016 0.917779
    outer loop
      vertex -1.85282 -2.10571 2.25939
      vertex -5.66302 0 3.60788
      vertex -5.66302 -0.297887 3.48449
    endloop
  endfacet
  facet normal 0.114723 -0.380156 0.91778
    outer loop
      vertex -1.85282 -2.10571 2.25939
      vertex -5.66302 -0.297887 3.48449
      vertex -5.66302 -2.50984 2.56827
    endloop
  endfacet
  facet normal 0.114723 -0.91778 -0.380155
    outer loop
      vertex 0.405106 -2.13478 -1.72516
      vertex 18 -0.65 0
      vertex 9.2 -1.75 0
    endloop
  endfacet
  facet normal 0.114738 -0.917674 -0.380408
    outer loop
      vertex 0.238107 -2.14208 -1.75792
      vertex 18 -0.65 0
      vertex 0.405106 -2.13478 -1.72516
    endloop
  endfacet
  facet normal 0.114723 -0.91779 -0.380133
    outer loop
      vertex -1.16672 -2.24708 -1.92838
      vertex 0.0296043 -2.16156 -1.77381
      vertex -1.08953 -2.26613 -1.85909
    endloop
  endfacet
  facet normal 0.114733 -0.91775 -0.380225
    outer loop
      vertex -1.29878 -2.21447 -2.04694
      vertex 0.0296043 -2.16156 -1.77381
      vertex -1.16672 -2.24708 -1.92838
    endloop
  endfacet
  facet normal 0.114718 -0.917785 -0.380146
    outer loop
      vertex 0.0296043 -2.16156 -1.77381
      vertex -1.29878 -2.21447 -2.04694
      vertex 0.238107 -2.14208 -1.75792
    endloop
  endfacet
  facet normal 0.114724 -0.917768 -0.380183
    outer loop
      vertex 0.238107 -2.14208 -1.75792
      vertex -1.29878 -2.21447 -2.04694
      vertex 18 -0.65 0
    endloop
  endfacet
  facet normal 0.114723 -0.917782 -0.38015
    outer loop
      vertex -4.89993 -2.81037 -1.69506
      vertex -5.66302 -2.56827 -2.50984
      vertex -4.09829 -2.44142 -2.34388
    endloop
  endfacet
  facet normal 0.114727 -0.91778 -0.380154
    outer loop
      vertex -5.66302 -2.56827 -2.50984
      vertex -4.89993 -2.81037 -1.69506
      vertex -5.66302 -3.16158 -1.07745
    endloop
  endfacet
  facet normal 0.114723 -0.91779 0.380133
    outer loop
      vertex 0.0296043 -2.16156 1.77381
      vertex -1.16672 -2.24708 1.92838
      vertex -1.08953 -2.26613 1.85909
    endloop
  endfacet
  facet normal 0.114733 -0.91775 0.380225
    outer loop
      vertex -1.16672 -2.24708 1.92838
      vertex 0.0296043 -2.16156 1.77381
      vertex -1.29878 -2.21447 2.04694
    endloop
  endfacet
  facet normal 0.114718 -0.917785 0.380146
    outer loop
      vertex 0.238107 -2.14208 1.75792
      vertex -1.29878 -2.21447 2.04694
      vertex 0.0296043 -2.16156 1.77381
    endloop
  endfacet
  facet normal 0.114724 -0.917768 0.380183
    outer loop
      vertex 0.238107 -2.14208 1.75792
      vertex 18 -0.65 0
      vertex -1.29878 -2.21447 2.04694
    endloop
  endfacet
  facet normal 0.114738 -0.917674 0.380408
    outer loop
      vertex 0.405106 -2.13478 1.72516
      vertex 18 -0.65 0
      vertex 0.238107 -2.14208 1.75792
    endloop
  endfacet
  facet normal 0.114723 -0.91778 0.380155
    outer loop
      vertex 18 -0.65 0
      vertex 0.405106 -2.13478 1.72516
      vertex 9.2 -1.75 0
    endloop
  endfacet
  facet normal 0.114723 -0.917782 0.38015
    outer loop
      vertex -5.66302 -2.56827 2.50984
      vertex -4.89993 -2.81037 1.69506
      vertex -4.09829 -2.44142 2.34388
    endloop
  endfacet
  facet normal 0.114727 -0.91778 0.380154
    outer loop
      vertex -4.89993 -2.81037 1.69506
      vertex -5.66302 -2.56827 2.50984
      vertex -5.66302 -3.16158 1.07745
    endloop
  endfacet
  facet normal 0.114722 -0.917784 0.380147
    outer loop
      vertex -1.29878 -2.21447 2.04694
      vertex 18 -0.459619 0.459619
      vertex -1.44515 -2.17834 2.17834
    endloop
  endfacet
  facet normal 0.114722 -0.917779 0.380158
    outer loop
      vertex 18 -0.459619 0.459619
      vertex -1.29878 -2.21447 2.04694
      vertex 18 -0.65 0
    endloop
  endfacet
  facet normal 0.11473 -0.917733 0.380268
    outer loop
      vertex -5.66302 -2.55115 2.55115
      vertex -4.09829 -2.44142 2.34388
      vertex -4.04372 -2.4163 2.38804
    endloop
  endfacet
  facet normal 0.114735 -0.917709 0.380324
    outer loop
      vertex -4.09829 -2.44142 2.34388
      vertex -5.66302 -2.55115 2.55115
      vertex -5.66302 -2.56827 2.50984
    endloop
  endfacet
  facet normal 0.114699 -0.917928 0.379806
    outer loop
      vertex -5.66302 -2.55115 2.55115
      vertex -4.04372 -2.4163 2.38804
      vertex -3.5915 -2.36806 2.36806
    endloop
  endfacet
  facet normal 0.114722 -0.380158 0.917779
    outer loop
      vertex 18 0 0.65
      vertex -1.44515 -2.17834 2.17834
      vertex 18 -0.459619 0.459619
    endloop
  endfacet
  facet normal 0.114723 -0.380171 0.917774
    outer loop
      vertex -1.44515 -2.17834 2.17834
      vertex 18 0 0.65
      vertex -1.54484 -2.07304 2.23442
    endloop
  endfacet
  facet normal 0.11472 -0.380123 0.917794
    outer loop
      vertex -5.66302 -2.50984 2.56827
      vertex -3.5915 -2.36806 2.36806
      vertex -1.85282 -2.10571 2.25939
    endloop
  endfacet
  facet normal 0.114726 -0.380324 0.91771
    outer loop
      vertex -3.5915 -2.36806 2.36806
      vertex -5.66302 -2.50984 2.56827
      vertex -5.66302 -2.55115 2.55115
    endloop
  endfacet
  facet normal 0.114723 0.917779 -0.380158
    outer loop
      vertex 18 0.459619 -0.459619
      vertex -5.66302 2.56827 -2.50984
      vertex 18 0.65 0
    endloop
  endfacet
  facet normal 0.114731 0.917709 -0.380324
    outer loop
      vertex -5.66302 2.56827 -2.50984
      vertex 18 0.459619 -0.459619
      vertex -5.66302 2.55115 -2.55115
    endloop
  endfacet
  facet normal 0.114722 0.38016 -0.917778
    outer loop
      vertex -5.66302 0.297887 -3.48449
      vertex 18 0 -0.65
      vertex -5.66302 0 -3.60788
    endloop
  endfacet
  facet normal 0.114723 0.380156 -0.91778
    outer loop
      vertex 18 0 -0.65
      vertex -5.66302 0.297887 -3.48449
      vertex -5.66302 2.50984 -2.56827
    endloop
  endfacet
  facet normal 0.114731 0.380324 0.917709
    outer loop
      vertex -5.66302 2.50984 2.56827
      vertex 18 0.459619 0.459619
      vertex -5.66302 2.55115 2.55115
    endloop
  endfacet
  facet normal 0.114723 0.380158 0.917779
    outer loop
      vertex 18 0.459619 0.459619
      vertex -5.66302 2.50984 2.56827
      vertex 18 0 0.65
    endloop
  endfacet
  facet normal 0.114723 0.380158 -0.917779
    outer loop
      vertex -5.66302 2.50984 -2.56827
      vertex 18 0.459619 -0.459619
      vertex 18 0 -0.65
    endloop
  endfacet
  facet normal 0.114731 0.380324 -0.917709
    outer loop
      vertex 18 0.459619 -0.459619
      vertex -5.66302 2.50984 -2.56827
      vertex -5.66302 2.55115 -2.55115
    endloop
  endfacet
  facet normal 1 0 0
    outer loop
      vertex 18 0.459619 0.459619
      vertex 18 0.459619 -0.459619
      vertex 18 0.65 0
    endloop
  endfacet
  facet normal 1 0 0
    outer loop
      vertex 18 0 0.65
      vertex 18 0.459619 -0.459619
      vertex 18 0.459619 0.459619
    endloop
  endfacet
  facet normal 1 0 0
    outer loop
      vertex 18 0 0.65
      vertex 18 0 -0.65
      vertex 18 0.459619 -0.459619
    endloop
  endfacet
  facet normal 1 -0 0
    outer loop
      vertex 18 -0.459619 0.459619
      vertex 18 0 -0.65
      vertex 18 0 0.65
    endloop
  endfacet
  facet normal 1 0 0
    outer loop
      vertex 18 -0.459619 0.459619
      vertex 18 -0.459619 -0.459619
      vertex 18 0 -0.65
    endloop
  endfacet
  facet normal 1 0 -0
    outer loop
      vertex 18 -0.459619 -0.459619
      vertex 18 -0.459619 0.459619
      vertex 18 -0.65 0
    endloop
  endfacet
  facet normal 0.114722 -0.917779 -0.380158
    outer loop
      vertex -1.29878 -2.21447 -2.04694
      vertex 18 -0.459619 -0.459619
      vertex 18 -0.65 0
    endloop
  endfacet
  facet normal 0.114722 -0.917784 -0.380147
    outer loop
      vertex 18 -0.459619 -0.459619
      vertex -1.29878 -2.21447 -2.04694
      vertex -1.44515 -2.17834 -2.17834
    endloop
  endfacet
  facet normal 0.114735 -0.917709 -0.380324
    outer loop
      vertex -5.66302 -2.55115 -2.55115
      vertex -4.09829 -2.44142 -2.34388
      vertex -5.66302 -2.56827 -2.50984
    endloop
  endfacet
  facet normal 0.11473 -0.917733 -0.380268
    outer loop
      vertex -4.09829 -2.44142 -2.34388
      vertex -5.66302 -2.55115 -2.55115
      vertex -4.04372 -2.4163 -2.38804
    endloop
  endfacet
  facet normal 0.114699 -0.917928 -0.379806
    outer loop
      vertex -4.04372 -2.4163 -2.38804
      vertex -5.66302 -2.55115 -2.55115
      vertex -3.5915 -2.36806 -2.36806
    endloop
  endfacet
  facet normal 0.114731 0.917709 0.380324
    outer loop
      vertex 18 0.459619 0.459619
      vertex -5.66302 2.56827 2.50984
      vertex -5.66302 2.55115 2.55115
    endloop
  endfacet
  facet normal 0.114723 0.917779 0.380158
    outer loop
      vertex -5.66302 2.56827 2.50984
      vertex 18 0.459619 0.459619
      vertex 18 0.65 0
    endloop
  endfacet
  facet normal 0 -0.92388 -0.382683
    outer loop
      vertex -9.74121 -2.97243 -2.97243
      vertex -6.25879 -4.20365 0
      vertex -9.74121 -4.20365 0
    endloop
  endfacet
  facet normal 0 -0.92388 -0.382683
    outer loop
      vertex -6.25879 -4.20365 0
      vertex -9.74121 -2.97243 -2.97243
      vertex -6.25879 -2.97243 -2.97243
    endloop
  endfacet
  facet normal 0.678557 0.678598 0.281186
    outer loop
      vertex -6.25879 4.19404 0.02321
      vertex -5.66302 3.48449 0.297887
      vertex -6.24789 4.1905 0.0054494
    endloop
  endfacet
  facet normal 0.678601 0.678596 0.281084
    outer loop
      vertex -6.25879 2.97243 2.97243
      vertex -5.66302 3.48449 0.297887
      vertex -6.25879 4.19404 0.02321
    endloop
  endfacet
  facet normal 0.678599 0.678598 0.281084
    outer loop
      vertex -6.25879 2.97243 2.97243
      vertex -5.66302 2.56827 2.50984
      vertex -5.66302 3.48449 0.297887
    endloop
  endfacet
  facet normal 0.678632 0.678518 0.281197
    outer loop
      vertex -5.66302 2.56827 2.50984
      vertex -6.25879 2.97243 2.97243
      vertex -5.66302 2.55115 2.55115
    endloop
  endfacet
  facet normal -0.678591 -0.281087 0.678604
    outer loop
      vertex -12.2037 -1.23122 1.23122
      vertex -9.74121 -2.97243 2.97243
      vertex -9.74121 0 4.20365
    endloop
  endfacet
  facet normal 0.678598 -0.678598 0.281088
    outer loop
      vertex -5.80261 -3.65299 0.228092
      vertex -6.25879 -4.20365 0
      vertex -5.80261 -3.74747 0
    endloop
  endfacet
  facet normal 0.67877 0.67877 0.280257
    outer loop
      vertex -6.24789 4.1905 0.0054494
      vertex -5.66302 3.60788 0
      vertex -6.24455 4.18941 0
    endloop
  endfacet
  facet normal 0.678602 0.678594 0.281085
    outer loop
      vertex -5.66302 3.60788 0
      vertex -6.24789 4.1905 0.0054494
      vertex -5.66302 3.48449 0.297887
    endloop
  endfacet
  facet normal 0.678598 -0.281087 -0.678598
    outer loop
      vertex -5.66302 0 -3.60788
      vertex -5.66302 -0.297887 -3.48449
      vertex -6.25879 0 -4.20365
    endloop
  endfacet
  facet normal -0.678591 -0.678604 0.281087
    outer loop
      vertex -12.2037 -1.23122 1.23122
      vertex -9.74121 -4.20365 0
      vertex -9.74121 -2.97243 2.97243
    endloop
  endfacet
  facet normal -0.678592 0.678605 -0.281085
    outer loop
      vertex -11.1614 2.48936 -0.710083
      vertex -12.2037 1.23122 -1.23122
      vertex -12.2037 1.44708 -0.710083
    endloop
  endfacet
  facet normal -0 0.382683 0.92388
    outer loop
      vertex -9.74121 2.97243 2.97243
      vertex -6.25879 0 4.20365
      vertex -6.25879 2.97243 2.97243
    endloop
  endfacet
  facet normal 0 0.382683 0.92388
    outer loop
      vertex -6.25879 0 4.20365
      vertex -9.74121 2.97243 2.97243
      vertex -9.74121 0 4.20365
    endloop
  endfacet
  facet normal 0.678599 -0.281084 -0.678598
    outer loop
      vertex -6.25879 -2.97243 -2.97243
      vertex -5.66302 -0.297887 -3.48449
      vertex -5.66302 -2.50984 -2.56827
    endloop
  endfacet
  facet normal 0.678632 -0.281197 -0.678518
    outer loop
      vertex -6.25879 -2.97243 -2.97243
      vertex -5.66302 -2.50984 -2.56827
      vertex -5.66302 -2.55115 -2.55115
    endloop
  endfacet
  facet normal 0.678599 -0.281084 -0.678598
    outer loop
      vertex -5.66302 -0.297887 -3.48449
      vertex -6.25879 -2.97243 -2.97243
      vertex -6.25879 0 -4.20365
    endloop
  endfacet
  facet normal -0.678604 0.678604 -0.281059
    outer loop
      vertex -9.74121 3.58461 -1.49449
      vertex -10.8411 2.8096 -0.710083
      vertex -10.7409 2.9098 -0.710083
    endloop
  endfacet
  facet normal -0.678569 0.678696 -0.280919
    outer loop
      vertex -10.8411 2.8096 -0.710083
      vertex -9.74121 3.58461 -1.49449
      vertex -11.1614 2.48936 -0.710083
    endloop
  endfacet
  facet normal -0.678591 0.678605 -0.281086
    outer loop
      vertex -11.1614 2.48936 -0.710083
      vertex -9.74121 3.58461 -1.49449
      vertex -12.2037 1.23122 -1.23122
    endloop
  endfacet
  facet normal -0.678591 0.678605 -0.281086
    outer loop
      vertex -12.2037 1.23122 -1.23122
      vertex -9.74121 3.58461 -1.49449
      vertex -9.74121 2.97243 -2.97243
    endloop
  endfacet
  facet normal -0.678591 -0.281087 -0.678604
    outer loop
      vertex -9.74121 0 -4.20365
      vertex -9.74121 -2.97243 -2.97243
      vertex -12.2037 -1.23122 -1.23122
    endloop
  endfacet
  facet normal 0.678632 0.281197 0.678518
    outer loop
      vertex -6.25879 2.97243 2.97243
      vertex -5.66302 2.50984 2.56827
      vertex -5.66302 2.55115 2.55115
    endloop
  endfacet
  facet normal 0.678599 0.281084 0.678598
    outer loop
      vertex -6.25879 2.97243 2.97243
      vertex -5.66302 0.297887 3.48449
      vertex -5.66302 2.50984 2.56827
    endloop
  endfacet
  facet normal 0.678599 0.281084 0.678598
    outer loop
      vertex -5.66302 0.297887 3.48449
      vertex -6.25879 2.97243 2.97243
      vertex -6.25879 0 4.20365
    endloop
  endfacet
  facet normal 0.678632 -0.678518 0.281197
    outer loop
      vertex -6.25879 -2.97243 2.97243
      vertex -5.66302 -2.56827 2.50984
      vertex -5.66302 -2.55115 2.55115
    endloop
  endfacet
  facet normal 0.678598 -0.678599 0.281082
    outer loop
      vertex -6.25879 -2.97243 2.97243
      vertex -5.66302 -3.16158 1.07745
      vertex -5.66302 -2.56827 2.50984
    endloop
  endfacet
  facet normal 0.678595 -0.678603 0.281082
    outer loop
      vertex -6.25879 -2.97243 2.97243
      vertex -5.80261 -3.33008 1.00765
      vertex -5.66302 -3.16158 1.07745
    endloop
  endfacet
  facet normal 0.678605 -0.678593 0.281082
    outer loop
      vertex -6.25879 -4.20365 0
      vertex -5.80261 -3.33008 1.00765
      vertex -6.25879 -2.97243 2.97243
    endloop
  endfacet
  facet normal 0.678597 -0.678598 0.28109
    outer loop
      vertex -5.80261 -3.33008 1.00765
      vertex -6.25879 -4.20365 0
      vertex -5.80261 -3.65299 0.228092
    endloop
  endfacet
  facet normal 0.678557 0.678598 -0.281186
    outer loop
      vertex -5.66302 3.48449 -0.297887
      vertex -6.25879 4.19404 -0.02321
      vertex -6.24789 4.1905 -0.0054494
    endloop
  endfacet
  facet normal 0.678601 0.678596 -0.281084
    outer loop
      vertex -5.66302 3.48449 -0.297887
      vertex -6.25879 2.97243 -2.97243
      vertex -6.25879 4.19404 -0.02321
    endloop
  endfacet
  facet normal 0.678599 0.678598 -0.281084
    outer loop
      vertex -5.66302 2.56827 -2.50984
      vertex -6.25879 2.97243 -2.97243
      vertex -5.66302 3.48449 -0.297887
    endloop
  endfacet
  facet normal 0.678632 0.678518 -0.281197
    outer loop
      vertex -6.25879 2.97243 -2.97243
      vertex -5.66302 2.56827 -2.50984
      vertex -5.66302 2.55115 -2.55115
    endloop
  endfacet
  facet normal 0.678599 -0.281084 0.678598
    outer loop
      vertex -6.25879 -2.97243 2.97243
      vertex -5.66302 -0.297887 3.48449
      vertex -6.25879 0 4.20365
    endloop
  endfacet
  facet normal 0.678599 -0.281084 0.678598
    outer loop
      vertex -5.66302 -0.297887 3.48449
      vertex -6.25879 -2.97243 2.97243
      vertex -5.66302 -2.50984 2.56827
    endloop
  endfacet
  facet normal 0.678632 -0.281197 0.678518
    outer loop
      vertex -5.66302 -2.50984 2.56827
      vertex -6.25879 -2.97243 2.97243
      vertex -5.66302 -2.55115 2.55115
    endloop
  endfacet
  facet normal 0.678632 0.281197 -0.678518
    outer loop
      vertex -5.66302 2.50984 -2.56827
      vertex -6.25879 2.97243 -2.97243
      vertex -5.66302 2.55115 -2.55115
    endloop
  endfacet
  facet normal 0.678599 0.281084 -0.678598
    outer loop
      vertex -5.66302 0.297887 -3.48449
      vertex -6.25879 2.97243 -2.97243
      vertex -5.66302 2.50984 -2.56827
    endloop
  endfacet
  facet normal 0.678599 0.281084 -0.678598
    outer loop
      vertex -6.25879 2.97243 -2.97243
      vertex -5.66302 0.297887 -3.48449
      vertex -6.25879 0 -4.20365
    endloop
  endfacet
  facet normal -0.678591 0.281087 0.678604
    outer loop
      vertex -12.2037 1.23122 1.23122
      vertex -9.74121 0 4.20365
      vertex -9.74121 2.97243 2.97243
    endloop
  endfacet
  facet normal 0 0.92388 0.382682
    outer loop
      vertex -6.25879 2.97243 2.97243
      vertex -9.74121 3.58461 1.49449
      vertex -9.74121 2.97243 2.97243
    endloop
  endfacet
  facet normal -1.14997e-06 0.923879 0.382684
    outer loop
      vertex -9.74121 3.58461 1.49449
      vertex -6.25879 2.97243 2.97243
      vertex -6.25879 4.19404 0.02321
    endloop
  endfacet
  facet normal 0.678632 -0.678518 -0.281197
    outer loop
      vertex -5.66302 -2.56827 -2.50984
      vertex -6.25879 -2.97243 -2.97243
      vertex -5.66302 -2.55115 -2.55115
    endloop
  endfacet
  facet normal 0.678598 -0.678599 -0.281082
    outer loop
      vertex -5.66302 -3.16158 -1.07745
      vertex -6.25879 -2.97243 -2.97243
      vertex -5.66302 -2.56827 -2.50984
    endloop
  endfacet
  facet normal 0.678595 -0.678603 -0.281082
    outer loop
      vertex -5.80261 -3.33008 -1.00765
      vertex -6.25879 -2.97243 -2.97243
      vertex -5.66302 -3.16158 -1.07745
    endloop
  endfacet
  facet normal 0.678597 -0.678598 -0.28109
    outer loop
      vertex -6.25879 -4.20365 0
      vertex -5.80261 -3.33008 -1.00765
      vertex -5.80261 -3.65299 -0.228092
    endloop
  endfacet
  facet normal 0.678605 -0.678593 -0.281082
    outer loop
      vertex -5.80261 -3.33008 -1.00765
      vertex -6.25879 -4.20365 0
      vertex -6.25879 -2.97243 -2.97243
    endloop
  endfacet
  facet normal 0.678598 0.281087 0.678598
    outer loop
      vertex -6.25879 0 4.20365
      vertex -5.66302 0 3.60788
      vertex -5.66302 0.297887 3.48449
    endloop
  endfacet
  facet normal -0.678591 0.281087 -0.678604
    outer loop
      vertex -9.74121 2.97243 -2.97243
      vertex -9.74121 0 -4.20365
      vertex -12.2037 1.23122 -1.23122
    endloop
  endfacet
  facet normal -0.678591 -0.281088 0.678604
    outer loop
      vertex -12.2037 0 1.74121
      vertex -12.2037 -1.23122 1.23122
      vertex -9.74121 0 4.20365
    endloop
  endfacet
  facet normal 0.678598 -0.281087 0.678598
    outer loop
      vertex -6.25879 0 4.20365
      vertex -5.66302 -0.297887 3.48449
      vertex -5.66302 0 3.60788
    endloop
  endfacet
  facet normal 0 0.382683 -0.92388
    outer loop
      vertex -9.74121 0 -4.20365
      vertex -6.25879 2.97243 -2.97243
      vertex -6.25879 0 -4.20365
    endloop
  endfacet
  facet normal 0 0.382683 -0.92388
    outer loop
      vertex -6.25879 2.97243 -2.97243
      vertex -9.74121 0 -4.20365
      vertex -9.74121 2.97243 -2.97243
    endloop
  endfacet
  facet normal 0.67877 0.67877 -0.280257
    outer loop
      vertex -5.66302 3.60788 0
      vertex -6.24789 4.1905 -0.0054494
      vertex -6.24455 4.18941 0
    endloop
  endfacet
  facet normal 0.678602 0.678594 -0.281085
    outer loop
      vertex -6.24789 4.1905 -0.0054494
      vertex -5.66302 3.60788 0
      vertex -5.66302 3.48449 -0.297887
    endloop
  endfacet
  facet normal -1.14997e-06 0.923879 -0.382684
    outer loop
      vertex -6.25879 2.97243 -2.97243
      vertex -9.74121 3.58461 -1.49449
      vertex -6.25879 4.19404 -0.02321
    endloop
  endfacet
  facet normal 0 0.92388 -0.382682
    outer loop
      vertex -9.74121 3.58461 -1.49449
      vertex -6.25879 2.97243 -2.97243
      vertex -9.74121 2.97243 -2.97243
    endloop
  endfacet
  facet normal 0.678598 -0.678598 -0.281088
    outer loop
      vertex -5.80261 -3.74747 0
      vertex -6.25879 -4.20365 0
      vertex -5.80261 -3.65299 -0.228092
    endloop
  endfacet
  facet normal -1 0 0
    outer loop
      vertex -12.2037 1.23122 -1.23122
      vertex -12.2037 1.1649 -0.028826
      vertex -12.2037 1.44708 -0.710083
    endloop
  endfacet
  facet normal -1 0 0
    outer loop
      vertex -12.2037 0 -1.74121
      vertex -12.2037 1.1649 -0.028826
      vertex -12.2037 1.23122 -1.23122
    endloop
  endfacet
  facet normal -1 -0 0
    outer loop
      vertex -12.2037 1.1649 -0.028826
      vertex -12.2037 0 -1.74121
      vertex -12.2037 1.15296 0
    endloop
  endfacet
  facet normal -1 0 0
    outer loop
      vertex -12.2037 1.1649 0.028826
      vertex -12.2037 1.23122 1.23122
      vertex -12.2037 1.44708 0.710083
    endloop
  endfacet
  facet normal -1 0 0
    outer loop
      vertex -12.2037 0 1.74121
      vertex -12.2037 1.1649 0.028826
      vertex -12.2037 1.15296 0
    endloop
  endfacet
  facet normal -1 0 0
    outer loop
      vertex -12.2037 -1.23122 -1.23122
      vertex -12.2037 1.15296 0
      vertex -12.2037 0 -1.74121
    endloop
  endfacet
  facet normal -1 0 0
    outer loop
      vertex -12.2037 1.1649 0.028826
      vertex -12.2037 0 1.74121
      vertex -12.2037 1.23122 1.23122
    endloop
  endfacet
  facet normal -1 0 0
    outer loop
      vertex -12.2037 -1.74121 0
      vertex -12.2037 1.15296 0
      vertex -12.2037 -1.23122 -1.23122
    endloop
  endfacet
  facet normal -1 0 0
    outer loop
      vertex -12.2037 1.15296 0
      vertex -12.2037 -1.23122 1.23122
      vertex -12.2037 0 1.74121
    endloop
  endfacet
  facet normal -1 0 0
    outer loop
      vertex -12.2037 1.15296 0
      vertex -12.2037 -1.74121 0
      vertex -12.2037 -1.23122 1.23122
    endloop
  endfacet
  facet normal -0.678591 0.678605 0.281086
    outer loop
      vertex -9.74121 3.58461 1.49449
      vertex -12.2037 1.23122 1.23122
      vertex -9.74121 2.97243 2.97243
    endloop
  endfacet
  facet normal -0.678604 0.678604 0.281059
    outer loop
      vertex -10.8411 2.8096 0.710083
      vertex -9.74121 3.58461 1.49449
      vertex -10.7409 2.9098 0.710083
    endloop
  endfacet
  facet normal -0.678569 0.678696 0.280919
    outer loop
      vertex -11.1614 2.48936 0.710083
      vertex -9.74121 3.58461 1.49449
      vertex -10.8411 2.8096 0.710083
    endloop
  endfacet
  facet normal -0.678591 0.678605 0.281086
    outer loop
      vertex -9.74121 3.58461 1.49449
      vertex -11.1614 2.48936 0.710083
      vertex -12.2037 1.23122 1.23122
    endloop
  endfacet
  facet normal -0.678592 0.678605 0.281085
    outer loop
      vertex -12.2037 1.44708 0.710083
      vertex -12.2037 1.23122 1.23122
      vertex -11.1614 2.48936 0.710083
    endloop
  endfacet
  facet normal 0.678598 0.281087 -0.678598
    outer loop
      vertex -5.66302 0 -3.60788
      vertex -6.25879 0 -4.20365
      vertex -5.66302 0.297887 -3.48449
    endloop
  endfacet
  facet normal 0 -0.382683 0.92388
    outer loop
      vertex -9.74121 0 4.20365
      vertex -6.25879 -2.97243 2.97243
      vertex -6.25879 0 4.20365
    endloop
  endfacet
  facet normal 0 -0.382683 0.92388
    outer loop
      vertex -6.25879 -2.97243 2.97243
      vertex -9.74121 0 4.20365
      vertex -9.74121 -2.97243 2.97243
    endloop
  endfacet
  facet normal 0 -0.92388 0.382683
    outer loop
      vertex -9.74121 -4.20365 0
      vertex -6.25879 -2.97243 2.97243
      vertex -9.74121 -2.97243 2.97243
    endloop
  endfacet
  facet normal 0 -0.92388 0.382683
    outer loop
      vertex -6.25879 -2.97243 2.97243
      vertex -9.74121 -4.20365 0
      vertex -6.25879 -4.20365 0
    endloop
  endfacet
  facet normal -0.678591 -0.678604 -0.281087
    outer loop
      vertex -9.74121 -2.97243 -2.97243
      vertex -9.74121 -4.20365 0
      vertex -12.2037 -1.23122 -1.23122
    endloop
  endfacet
  facet normal -0.678591 -0.678604 -0.281088
    outer loop
      vertex -12.2037 -1.23122 -1.23122
      vertex -9.74121 -4.20365 0
      vertex -12.2037 -1.74121 0
    endloop
  endfacet
  facet normal -0.678591 -0.678604 0.281088
    outer loop
      vertex -12.2037 -1.74121 0
      vertex -9.74121 -4.20365 0
      vertex -12.2037 -1.23122 1.23122
    endloop
  endfacet
  facet normal 0 -0.382683 -0.92388
    outer loop
      vertex -9.74121 -2.97243 -2.97243
      vertex -6.25879 0 -4.20365
      vertex -6.25879 -2.97243 -2.97243
    endloop
  endfacet
  facet normal -0 -0.382683 -0.92388
    outer loop
      vertex -6.25879 0 -4.20365
      vertex -9.74121 -2.97243 -2.97243
      vertex -9.74121 0 -4.20365
    endloop
  endfacet
  facet normal -0.678591 0.281088 -0.678604
    outer loop
      vertex -12.2037 1.23122 -1.23122
      vertex -9.74121 0 -4.20365
      vertex -12.2037 0 -1.74121
    endloop
  endfacet
  facet normal -0.678591 -0.281088 -0.678604
    outer loop
      vertex -9.74121 0 -4.20365
      vertex -12.2037 -1.23122 -1.23122
      vertex -12.2037 0 -1.74121
    endloop
  endfacet
  facet normal -0.678591 0.281088 0.678604
    outer loop
      vertex -12.2037 1.23122 1.23122
      vertex -12.2037 0 1.74121
      vertex -9.74121 0 4.20365
    endloop
  endfacet
  facet normal 0.30767 0.879072 0.364103
    outer loop
      vertex -1.5 7.15 0
      vertex -10.7409 10.0694 0.760183
      vertex -10.7409 9.30168 2.61373
    endloop
  endfacet
  facet normal 0.307668 0.879057 0.364142
    outer loop
      vertex -10.7409 10.0694 0.760183
      vertex -1.5 7.15 0
      vertex -10.7409 10.3843 0
    endloop
  endfacet
  facet normal 0.307673 0.36412 0.879064
    outer loop
      vertex -10.7409 9.11373 2.80168
      vertex -8.49478 7.34316 2.74893
      vertex -1.5 6.5 0.65
    endloop
  endfacet
  facet normal 0.30766 0.364103 0.879076
    outer loop
      vertex -8.49478 7.34316 2.74893
      vertex -10.7409 9.11373 2.80168
      vertex -9.29559 7.65514 2.89998
    endloop
  endfacet
  facet normal 0.307684 0.364125 0.879058
    outer loop
      vertex -9.29559 7.65514 2.89998
      vertex -10.7409 9.11373 2.80168
      vertex -10.7409 8.21822 3.17262
    endloop
  endfacet
  facet normal 0.307673 0.364113 0.879067
    outer loop
      vertex -1.5 6.5 0.65
      vertex -8.49478 7.34316 2.74893
      vertex -8.49478 6.5 3.09817
    endloop
  endfacet
  facet normal 0.307673 -0.36412 -0.879064
    outer loop
      vertex -10.7409 3.88627 -2.80168
      vertex -8.49478 5.65684 -2.74893
      vertex -1.5 6.5 -0.65
    endloop
  endfacet
  facet normal 0.30766 -0.364103 -0.879076
    outer loop
      vertex -8.49478 5.65684 -2.74893
      vertex -10.7409 3.88627 -2.80168
      vertex -9.29559 5.34486 -2.89998
    endloop
  endfacet
  facet normal 0.307684 -0.364125 -0.879058
    outer loop
      vertex -9.29559 5.34486 -2.89998
      vertex -10.7409 3.88627 -2.80168
      vertex -10.7409 4.78178 -3.17262
    endloop
  endfacet
  facet normal 0.307673 -0.364113 -0.879067
    outer loop
      vertex -1.5 6.5 -0.65
      vertex -8.49478 5.65684 -2.74893
      vertex -8.49478 6.5 -3.09817
    endloop
  endfacet
  facet normal 0.307668 0.879057 -0.364142
    outer loop
      vertex -1.5 7.15 0
      vertex -10.7409 10.0694 -0.760183
      vertex -10.7409 10.3843 0
    endloop
  endfacet
  facet normal 0.30767 0.879072 -0.364103
    outer loop
      vertex -10.7409 10.0694 -0.760183
      vertex -1.5 7.15 0
      vertex -10.7409 9.30168 -2.61373
    endloop
  endfacet
  facet normal 0.307674 -0.364126 -0.879062
    outer loop
      vertex -10.7409 3.88627 -2.80168
      vertex -1.5 6.04038 -0.459619
      vertex -10.7409 3.75337 -2.74663
    endloop
  endfacet
  facet normal 0.307673 -0.364121 -0.879064
    outer loop
      vertex -1.5 6.04038 -0.459619
      vertex -10.7409 3.88627 -2.80168
      vertex -1.5 6.5 -0.65
    endloop
  endfacet
  facet normal 0.307673 -0.364113 0.879067
    outer loop
      vertex -8.49478 5.65684 2.74893
      vertex -1.5 6.5 0.65
      vertex -8.49478 6.5 3.09817
    endloop
  endfacet
  facet normal 0.30766 -0.364103 0.879076
    outer loop
      vertex -10.7409 3.88627 2.80168
      vertex -8.49478 5.65684 2.74893
      vertex -9.29559 5.34486 2.89998
    endloop
  endfacet
  facet normal 0.307684 -0.364125 0.879058
    outer loop
      vertex -10.7409 3.88627 2.80168
      vertex -9.29559 5.34486 2.89998
      vertex -10.7409 4.78178 3.17262
    endloop
  endfacet
  facet normal 0.307673 -0.36412 0.879064
    outer loop
      vertex -8.49478 5.65684 2.74893
      vertex -10.7409 3.88627 2.80168
      vertex -1.5 6.5 0.65
    endloop
  endfacet
  facet normal 0.30764 -0.878972 -0.36437
    outer loop
      vertex -6.24789 4.1905 -0.0054494
      vertex -1.5 5.85 0
      vertex -6.24455 4.18941 0
    endloop
  endfacet
  facet normal 0.307681 -0.879091 -0.364048
    outer loop
      vertex -6.25879 4.19404 -0.02321
      vertex -1.5 5.85 0
      vertex -6.24789 4.1905 -0.0054494
    endloop
  endfacet
  facet normal 0.307674 -0.879064 -0.364119
    outer loop
      vertex -10.7409 3.69832 -2.61373
      vertex -6.25879 4.19404 -0.02321
      vertex -9.74121 3.58461 -1.49449
    endloop
  endfacet
  facet normal 0.307673 -0.879066 -0.364117
    outer loop
      vertex -6.25879 4.19404 -0.02321
      vertex -10.7409 3.69832 -2.61373
      vertex -1.5 5.85 0
    endloop
  endfacet
  facet normal 0.307708 -0.879067 -0.364085
    outer loop
      vertex -10.7409 2.93055 -0.760183
      vertex -9.74121 3.58461 -1.49449
      vertex -10.7409 2.9098 -0.710083
    endloop
  endfacet
  facet normal 0.307677 -0.879062 -0.364122
    outer loop
      vertex -9.74121 3.58461 -1.49449
      vertex -10.7409 2.93055 -0.760183
      vertex -10.7409 3.69832 -2.61373
    endloop
  endfacet
  facet normal 0.307677 -0.879062 0.364122
    outer loop
      vertex -10.7409 2.93055 0.760183
      vertex -9.74121 3.58461 1.49449
      vertex -10.7409 3.69832 2.61373
    endloop
  endfacet
  facet normal 0.307708 -0.879067 0.364085
    outer loop
      vertex -9.74121 3.58461 1.49449
      vertex -10.7409 2.93055 0.760183
      vertex -10.7409 2.9098 0.710083
    endloop
  endfacet
  facet normal 0.307674 -0.879064 0.364119
    outer loop
      vertex -6.25879 4.19404 0.02321
      vertex -10.7409 3.69832 2.61373
      vertex -9.74121 3.58461 1.49449
    endloop
  endfacet
  facet normal 0.307673 -0.879066 0.364117
    outer loop
      vertex -6.25879 4.19404 0.02321
      vertex -1.5 5.85 0
      vertex -10.7409 3.69832 2.61373
    endloop
  endfacet
  facet normal 0.307681 -0.879091 0.364048
    outer loop
      vertex -6.24789 4.1905 0.0054494
      vertex -1.5 5.85 0
      vertex -6.25879 4.19404 0.02321
    endloop
  endfacet
  facet normal 0.30764 -0.878972 0.36437
    outer loop
      vertex -1.5 5.85 0
      vertex -6.24789 4.1905 0.0054494
      vertex -6.24455 4.18941 0
    endloop
  endfacet
  facet normal 0.307674 -0.879062 0.364126
    outer loop
      vertex -10.7409 3.69832 2.61373
      vertex -1.5 6.04038 0.459619
      vertex -10.7409 3.75337 2.74663
    endloop
  endfacet
  facet normal 0.307673 -0.879064 0.36412
    outer loop
      vertex -1.5 6.04038 0.459619
      vertex -10.7409 3.69832 2.61373
      vertex -1.5 5.85 0
    endloop
  endfacet
  facet normal 0.307673 -0.364121 0.879064
    outer loop
      vertex -10.7409 3.88627 2.80168
      vertex -1.5 6.04038 0.459619
      vertex -1.5 6.5 0.65
    endloop
  endfacet
  facet normal 0.307674 -0.364126 0.879062
    outer loop
      vertex -1.5 6.04038 0.459619
      vertex -10.7409 3.88627 2.80168
      vertex -10.7409 3.75337 2.74663
    endloop
  endfacet
  facet normal 0.307673 0.879064 -0.36412
    outer loop
      vertex -1.5 6.95962 -0.459619
      vertex -10.7409 9.30168 -2.61373
      vertex -1.5 7.15 0
    endloop
  endfacet
  facet normal 0.307674 0.879062 -0.364126
    outer loop
      vertex -10.7409 9.30168 -2.61373
      vertex -1.5 6.95962 -0.459619
      vertex -10.7409 9.24663 -2.74663
    endloop
  endfacet
  facet normal 0.307673 0.364113 -0.879067
    outer loop
      vertex -8.49478 7.34316 -2.74893
      vertex -1.5 6.5 -0.65
      vertex -8.49478 6.5 -3.09817
    endloop
  endfacet
  facet normal 0.30766 0.364103 -0.879076
    outer loop
      vertex -10.7409 9.11373 -2.80168
      vertex -8.49478 7.34316 -2.74893
      vertex -9.29559 7.65514 -2.89998
    endloop
  endfacet
  facet normal 0.307684 0.364125 -0.879058
    outer loop
      vertex -10.7409 9.11373 -2.80168
      vertex -9.29559 7.65514 -2.89998
      vertex -10.7409 8.21822 -3.17262
    endloop
  endfacet
  facet normal 0.307673 0.36412 -0.879064
    outer loop
      vertex -8.49478 7.34316 -2.74893
      vertex -10.7409 9.11373 -2.80168
      vertex -1.5 6.5 -0.65
    endloop
  endfacet
  facet normal 0.307674 0.364126 0.879062
    outer loop
      vertex -10.7409 9.11373 2.80168
      vertex -1.5 6.95962 0.459619
      vertex -10.7409 9.24663 2.74663
    endloop
  endfacet
  facet normal 0.307673 0.364121 0.879064
    outer loop
      vertex -1.5 6.95962 0.459619
      vertex -10.7409 9.11373 2.80168
      vertex -1.5 6.5 0.65
    endloop
  endfacet
  facet normal 0.307673 0.364121 -0.879064
    outer loop
      vertex -10.7409 9.11373 -2.80168
      vertex -1.5 6.95962 -0.459619
      vertex -1.5 6.5 -0.65
    endloop
  endfacet
  facet normal 0.307674 0.364126 -0.879062
    outer loop
      vertex -1.5 6.95962 -0.459619
      vertex -10.7409 9.11373 -2.80168
      vertex -10.7409 9.24663 -2.74663
    endloop
  endfacet
  facet normal 1 0 0
    outer loop
      vertex -1.5 6.95962 0.459619
      vertex -1.5 6.95962 -0.459619
      vertex -1.5 7.15 0
    endloop
  endfacet
  facet normal 1 0 0
    outer loop
      vertex -1.5 6.5 0.65
      vertex -1.5 6.95962 -0.459619
      vertex -1.5 6.95962 0.459619
    endloop
  endfacet
  facet normal 1 0 0
    outer loop
      vertex -1.5 6.5 0.65
      vertex -1.5 6.5 -0.65
      vertex -1.5 6.95962 -0.459619
    endloop
  endfacet
  facet normal 1 -0 0
    outer loop
      vertex -1.5 6.04038 0.459619
      vertex -1.5 6.5 -0.65
      vertex -1.5 6.5 0.65
    endloop
  endfacet
  facet normal 1 0 0
    outer loop
      vertex -1.5 6.04038 0.459619
      vertex -1.5 6.04038 -0.459619
      vertex -1.5 6.5 -0.65
    endloop
  endfacet
  facet normal 1 0 -0
    outer loop
      vertex -1.5 6.04038 -0.459619
      vertex -1.5 6.04038 0.459619
      vertex -1.5 5.85 0
    endloop
  endfacet
  facet normal 0.307673 -0.879064 -0.36412
    outer loop
      vertex -10.7409 3.69832 -2.61373
      vertex -1.5 6.04038 -0.459619
      vertex -1.5 5.85 0
    endloop
  endfacet
  facet normal 0.307674 -0.879062 -0.364126
    outer loop
      vertex -1.5 6.04038 -0.459619
      vertex -10.7409 3.69832 -2.61373
      vertex -10.7409 3.75337 -2.74663
    endloop
  endfacet
  facet normal 0.307674 0.879062 0.364126
    outer loop
      vertex -1.5 6.95962 0.459619
      vertex -10.7409 9.30168 2.61373
      vertex -10.7409 9.24663 2.74663
    endloop
  endfacet
  facet normal 0.307673 0.879064 0.36412
    outer loop
      vertex -10.7409 9.30168 2.61373
      vertex -1.5 6.95962 0.459619
      vertex -1.5 7.15 0
    endloop
  endfacet
  facet normal 0 -0.92388 -0.382681
    outer loop
      vertex -16.7387 2.6783 -3.8217
      vertex -12.2613 1.09531 0
      vertex -16.7387 1.09531 0
    endloop
  endfacet
  facet normal 0 -0.92388 -0.382681
    outer loop
      vertex -12.2613 1.09531 0
      vertex -16.7387 2.6783 -3.8217
      vertex -12.2613 2.6783 -3.8217
    endloop
  endfacet
  facet normal 0.678604 0.678594 0.281083
    outer loop
      vertex -12.2613 10.3217 3.8217
      vertex -10.7409 10.0694 0.760183
      vertex -12.2613 11.9047 0
    endloop
  endfacet
  facet normal 0.678589 0.678612 0.281074
    outer loop
      vertex -12.2613 10.3217 3.8217
      vertex -10.7409 9.30168 2.61373
      vertex -10.7409 10.0694 0.760183
    endloop
  endfacet
  facet normal 0.678594 0.6786 0.281091
    outer loop
      vertex -10.7409 9.30168 2.61373
      vertex -12.2613 10.3217 3.8217
      vertex -10.7409 9.24663 2.74663
    endloop
  endfacet
  facet normal -0.678594 -0.281066 0.678611
    outer loop
      vertex -16.7387 2.6783 3.8217
      vertex -19.3824 5.17815 2.21345
      vertex -19.9047 4.917 1.583
    endloop
  endfacet
  facet normal -0.678594 -0.281066 0.67861
    outer loop
      vertex -19.3824 5.17815 2.21345
      vertex -16.7387 2.6783 3.8217
      vertex -16.9874 4.3331 4.25839
    endloop
  endfacet
  facet normal -0.678667 -0.281059 0.678541
    outer loop
      vertex -16.7387 4.34716 4.51296
      vertex -16.9874 4.3331 4.25839
      vertex -16.7387 2.6783 3.8217
    endloop
  endfacet
  facet normal 0.678595 0.678595 0.281103
    outer loop
      vertex -12.2613 11.9047 0
      vertex -10.7409 10.0694 0.760183
      vertex -10.7409 10.3843 0
    endloop
  endfacet
  facet normal 0.678575 -0.281098 0.678616
    outer loop
      vertex -12.0126 4.3331 4.25839
      vertex -10.7409 3.88627 2.80168
      vertex -10.7409 4.78178 3.17262
    endloop
  endfacet
  facet normal 0.678575 -0.281097 0.678616
    outer loop
      vertex -10.7409 3.88627 2.80168
      vertex -12.0126 4.3331 4.25839
      vertex -10.7409 3.75337 2.74663
    endloop
  endfacet
  facet normal 0.678667 -0.281059 0.678541
    outer loop
      vertex -12.2613 2.6783 3.8217
      vertex -12.0126 4.3331 4.25839
      vertex -12.2613 4.34716 4.51296
    endloop
  endfacet
  facet normal 0.678588 -0.281067 0.678616
    outer loop
      vertex -12.0126 4.3331 4.25839
      vertex -12.2613 2.6783 3.8217
      vertex -10.7409 3.75337 2.74663
    endloop
  endfacet
  facet normal -0.678598 -0.678599 0.281083
    outer loop
      vertex -19.9047 4.917 1.583
      vertex -16.7387 1.09531 0
      vertex -16.7387 2.6783 3.8217
    endloop
  endfacet
  facet normal -0.678598 0.678598 -0.281085
    outer loop
      vertex -16.7387 11.9047 0
      vertex -19.9047 8.083 -1.583
      vertex -19.9047 8.7387 0
    endloop
  endfacet
  facet normal -0 0.382681 0.92388
    outer loop
      vertex -16.7387 10.3217 3.8217
      vertex -12.2613 8.65284 4.51296
      vertex -12.2613 10.3217 3.8217
    endloop
  endfacet
  facet normal 0 0.382681 0.92388
    outer loop
      vertex -12.2613 8.65284 4.51296
      vertex -16.7387 10.3217 3.8217
      vertex -16.7387 8.65284 4.51296
    endloop
  endfacet
  facet normal 0.678575 -0.281097 -0.678616
    outer loop
      vertex -12.0126 4.3331 -4.25839
      vertex -10.7409 3.88627 -2.80168
      vertex -10.7409 3.75337 -2.74663
    endloop
  endfacet
  facet normal 0.678575 -0.281098 -0.678616
    outer loop
      vertex -10.7409 3.88627 -2.80168
      vertex -12.0126 4.3331 -4.25839
      vertex -10.7409 4.78178 -3.17262
    endloop
  endfacet
  facet normal 0.678588 -0.281067 -0.678616
    outer loop
      vertex -12.2613 2.6783 -3.8217
      vertex -12.0126 4.3331 -4.25839
      vertex -10.7409 3.75337 -2.74663
    endloop
  endfacet
  facet normal 0.678667 -0.281059 -0.678541
    outer loop
      vertex -12.0126 4.3331 -4.25839
      vertex -12.2613 2.6783 -3.8217
      vertex -12.2613 4.34716 -4.51296
    endloop
  endfacet
  facet normal -0.678598 0.678598 -0.281085
    outer loop
      vertex -16.7387 10.3217 -3.8217
      vertex -19.9047 8.083 -1.583
      vertex -16.7387 11.9047 0
    endloop
  endfacet
  facet normal 0 0.92388 0.382683
    outer loop
      vertex -12.2613 11.9047 0
      vertex -16.7387 10.3217 3.8217
      vertex -12.2613 10.3217 3.8217
    endloop
  endfacet
  facet normal 0 0.92388 0.382683
    outer loop
      vertex -16.7387 10.3217 3.8217
      vertex -12.2613 11.9047 0
      vertex -16.7387 11.9047 0
    endloop
  endfacet
  facet normal -0.678667 -0.281059 -0.678541
    outer loop
      vertex -16.7387 4.34716 -4.51296
      vertex -16.7387 2.6783 -3.8217
      vertex -16.9874 4.3331 -4.25839
    endloop
  endfacet
  facet normal -0.678594 -0.281066 -0.67861
    outer loop
      vertex -16.7387 2.6783 -3.8217
      vertex -19.3824 5.17815 -2.21345
      vertex -16.9874 4.3331 -4.25839
    endloop
  endfacet
  facet normal -0.678594 -0.281066 -0.678611
    outer loop
      vertex -19.3824 5.17815 -2.21345
      vertex -16.7387 2.6783 -3.8217
      vertex -19.9047 4.917 -1.583
    endloop
  endfacet
  facet normal 0.678594 0.281091 0.6786
    outer loop
      vertex -12.2613 10.3217 3.8217
      vertex -10.7409 9.11373 2.80168
      vertex -10.7409 9.24663 2.74663
    endloop
  endfacet
  facet normal 0.678587 0.281067 0.678617
    outer loop
      vertex -12.2613 10.3217 3.8217
      vertex -12.0126 8.6669 4.25839
      vertex -10.7409 9.11373 2.80168
    endloop
  endfacet
  facet normal 0.678667 0.281059 0.678541
    outer loop
      vertex -12.0126 8.6669 4.25839
      vertex -12.2613 10.3217 3.8217
      vertex -12.2613 8.65284 4.51296
    endloop
  endfacet
  facet normal 0.678575 0.281098 0.678616
    outer loop
      vertex -10.7409 9.11373 2.80168
      vertex -12.0126 8.6669 4.25839
      vertex -10.7409 8.21822 3.17262
    endloop
  endfacet
  facet normal 0.678575 0.281098 -0.678616
    outer loop
      vertex -10.7409 9.11373 -2.80168
      vertex -10.7409 8.21822 -3.17262
      vertex -12.0126 8.6669 -4.25839
    endloop
  endfacet
  facet normal 0.678594 0.281091 -0.6786
    outer loop
      vertex -10.7409 9.11373 -2.80168
      vertex -12.2613 10.3217 -3.8217
      vertex -10.7409 9.24663 -2.74663
    endloop
  endfacet
  facet normal 0.678587 0.281067 -0.678617
    outer loop
      vertex -12.0126 8.6669 -4.25839
      vertex -12.2613 10.3217 -3.8217
      vertex -10.7409 9.11373 -2.80168
    endloop
  endfacet
  facet normal 0.678667 0.281059 -0.678541
    outer loop
      vertex -12.2613 10.3217 -3.8217
      vertex -12.0126 8.6669 -4.25839
      vertex -12.2613 8.65284 -4.51296
    endloop
  endfacet
  facet normal 0.678544 -0.678644 0.281106
    outer loop
      vertex -11.1614 2.48936 0.710083
      vertex -10.7409 2.93055 0.760183
      vertex -10.7409 3.69832 2.61373
    endloop
  endfacet
  facet normal 0.678594 -0.6786 0.281091
    outer loop
      vertex -12.2613 2.6783 3.8217
      vertex -10.7409 3.69832 2.61373
      vertex -10.7409 3.75337 2.74663
    endloop
  endfacet
  facet normal 0.678589 -0.678611 0.281075
    outer loop
      vertex -10.7409 3.69832 2.61373
      vertex -12.2613 2.6783 3.8217
      vertex -11.1614 2.48936 0.710083
    endloop
  endfacet
  facet normal 0.678487 -0.678614 0.281317
    outer loop
      vertex -10.7409 2.93055 0.760183
      vertex -11.1614 2.48936 0.710083
      vertex -10.8411 2.8096 0.710083
    endloop
  endfacet
  facet normal 0.678594 -0.678607 0.281076
    outer loop
      vertex -12.2613 2.6783 3.8217
      vertex -12.2037 1.44708 0.710083
      vertex -11.1614 2.48936 0.710083
    endloop
  endfacet
  facet normal 0.67889 -0.67835 0.28098
    outer loop
      vertex -12.2613 1.09531 0
      vertex -12.2037 1.44708 0.710083
      vertex -12.2613 2.6783 3.8217
    endloop
  endfacet
  facet normal 0.678918 -0.678328 0.280967
    outer loop
      vertex -12.2037 1.44708 0.710083
      vertex -12.2613 1.09531 0
      vertex -12.2037 1.1649 0.028826
    endloop
  endfacet
  facet normal -0.678598 -0.678599 -0.281083
    outer loop
      vertex -16.7387 2.6783 -3.8217
      vertex -16.7387 1.09531 0
      vertex -19.9047 4.917 -1.583
    endloop
  endfacet
  facet normal -0.678598 0.678598 0.281085
    outer loop
      vertex -19.9047 8.7387 0
      vertex -19.9047 8.083 1.583
      vertex -16.7387 11.9047 0
    endloop
  endfacet
  facet normal -0.678598 0.678598 0.281085
    outer loop
      vertex -16.7387 11.9047 0
      vertex -19.9047 8.083 1.583
      vertex -16.7387 10.3217 3.8217
    endloop
  endfacet
  facet normal 0.678487 -0.678614 -0.281317
    outer loop
      vertex -11.1614 2.48936 -0.710083
      vertex -10.7409 2.93055 -0.760183
      vertex -10.8411 2.8096 -0.710083
    endloop
  endfacet
  facet normal 0.678544 -0.678644 -0.281106
    outer loop
      vertex -10.7409 2.93055 -0.760183
      vertex -11.1614 2.48936 -0.710083
      vertex -10.7409 3.69832 -2.61373
    endloop
  endfacet
  facet normal 0.678589 -0.678611 -0.281075
    outer loop
      vertex -12.2613 2.6783 -3.8217
      vertex -10.7409 3.69832 -2.61373
      vertex -11.1614 2.48936 -0.710083
    endloop
  endfacet
  facet normal 0.678594 -0.6786 -0.281091
    outer loop
      vertex -10.7409 3.69832 -2.61373
      vertex -12.2613 2.6783 -3.8217
      vertex -10.7409 3.75337 -2.74663
    endloop
  endfacet
  facet normal 0.678594 -0.678607 -0.281076
    outer loop
      vertex -12.2037 1.44708 -0.710083
      vertex -12.2613 2.6783 -3.8217
      vertex -11.1614 2.48936 -0.710083
    endloop
  endfacet
  facet normal 0.678918 -0.678328 -0.280967
    outer loop
      vertex -12.2613 1.09531 0
      vertex -12.2037 1.44708 -0.710083
      vertex -12.2037 1.1649 -0.028826
    endloop
  endfacet
  facet normal 0.67889 -0.67835 -0.28098
    outer loop
      vertex -12.2037 1.44708 -0.710083
      vertex -12.2613 1.09531 0
      vertex -12.2613 2.6783 -3.8217
    endloop
  endfacet
  facet normal 0.678916 -0.678328 0.28097
    outer loop
      vertex -12.2037 1.1649 0.028826
      vertex -12.2613 1.09531 0
      vertex -12.2037 1.15296 0
    endloop
  endfacet
  facet normal 0.678604 -0.678604 0.281058
    outer loop
      vertex -10.7409 2.93055 0.760183
      vertex -10.8411 2.8096 0.710083
      vertex -10.7409 2.9098 0.710083
    endloop
  endfacet
  facet normal -0.678667 0.281059 -0.678541
    outer loop
      vertex -16.7387 10.3217 -3.8217
      vertex -16.7387 8.65284 -4.51296
      vertex -16.9874 8.6669 -4.25839
    endloop
  endfacet
  facet normal -0.678594 0.281066 -0.67861
    outer loop
      vertex -19.3824 7.82185 -2.21345
      vertex -16.7387 10.3217 -3.8217
      vertex -16.9874 8.6669 -4.25839
    endloop
  endfacet
  facet normal -0.678594 0.281066 -0.678611
    outer loop
      vertex -16.7387 10.3217 -3.8217
      vertex -19.3824 7.82185 -2.21345
      vertex -19.9047 8.083 -1.583
    endloop
  endfacet
  facet normal 0 0.382681 -0.92388
    outer loop
      vertex -16.7387 8.65284 -4.51296
      vertex -12.2613 10.3217 -3.8217
      vertex -12.2613 8.65284 -4.51296
    endloop
  endfacet
  facet normal 0 0.382681 -0.92388
    outer loop
      vertex -12.2613 10.3217 -3.8217
      vertex -16.7387 8.65284 -4.51296
      vertex -16.7387 10.3217 -3.8217
    endloop
  endfacet
  facet normal -0.678594 0.281066 0.678611
    outer loop
      vertex -19.3824 7.82185 2.21345
      vertex -16.7387 10.3217 3.8217
      vertex -19.9047 8.083 1.583
    endloop
  endfacet
  facet normal -0.678594 0.281066 0.67861
    outer loop
      vertex -16.7387 10.3217 3.8217
      vertex -19.3824 7.82185 2.21345
      vertex -16.9874 8.6669 4.25839
    endloop
  endfacet
  facet normal -0.678667 0.281059 0.678541
    outer loop
      vertex -16.7387 10.3217 3.8217
      vertex -16.9874 8.6669 4.25839
      vertex -16.7387 8.65284 4.51296
    endloop
  endfacet
  facet normal 0 0.92388 -0.382683
    outer loop
      vertex -12.2613 10.3217 -3.8217
      vertex -16.7387 11.9047 0
      vertex -12.2613 11.9047 0
    endloop
  endfacet
  facet normal 0 0.92388 -0.382683
    outer loop
      vertex -16.7387 11.9047 0
      vertex -12.2613 10.3217 -3.8217
      vertex -16.7387 10.3217 -3.8217
    endloop
  endfacet
  facet normal -0.678585 0.281085 -0.678611
    outer loop
      vertex -19.3824 7.82185 -2.21345
      vertex -19.9047 7.63757 -1.7675
      vertex -19.9047 8.083 -1.583
    endloop
  endfacet
  facet normal 0.678916 -0.678328 -0.28097
    outer loop
      vertex -12.2037 1.15296 0
      vertex -12.2613 1.09531 0
      vertex -12.2037 1.1649 -0.028826
    endloop
  endfacet
  facet normal 0.678604 -0.678604 -0.281058
    outer loop
      vertex -10.7409 2.9098 -0.710083
      vertex -10.8411 2.8096 -0.710083
      vertex -10.7409 2.93055 -0.760183
    endloop
  endfacet
  facet normal -0.678585 -0.281085 -0.678611
    outer loop
      vertex -19.3824 5.17815 -2.21345
      vertex -19.9047 4.917 -1.583
      vertex -19.9047 5.36243 -1.7675
    endloop
  endfacet
  facet normal -0.678585 -0.281085 0.678611
    outer loop
      vertex -19.9047 5.36243 1.7675
      vertex -19.9047 4.917 1.583
      vertex -19.3824 5.17815 2.21345
    endloop
  endfacet
  facet normal 0.678604 0.678594 -0.281083
    outer loop
      vertex -10.7409 10.0694 -0.760183
      vertex -12.2613 10.3217 -3.8217
      vertex -12.2613 11.9047 0
    endloop
  endfacet
  facet normal 0.678589 0.678612 -0.281074
    outer loop
      vertex -10.7409 9.30168 -2.61373
      vertex -12.2613 10.3217 -3.8217
      vertex -10.7409 10.0694 -0.760183
    endloop
  endfacet
  facet normal 0.678594 0.6786 -0.281091
    outer loop
      vertex -12.2613 10.3217 -3.8217
      vertex -10.7409 9.30168 -2.61373
      vertex -10.7409 9.24663 -2.74663
    endloop
  endfacet
  facet normal 0.678595 0.678595 -0.281103
    outer loop
      vertex -10.7409 10.3843 0
      vertex -10.7409 10.0694 -0.760183
      vertex -12.2613 11.9047 0
    endloop
  endfacet
  facet normal -0.678585 0.281085 0.678611
    outer loop
      vertex -19.9047 8.083 1.583
      vertex -19.9047 7.63757 1.7675
      vertex -19.3824 7.82185 2.21345
    endloop
  endfacet
  facet normal 0 -0.382681 0.92388
    outer loop
      vertex -16.7387 4.34716 4.51296
      vertex -12.2613 2.6783 3.8217
      vertex -12.2613 4.34716 4.51296
    endloop
  endfacet
  facet normal 0 -0.382681 0.92388
    outer loop
      vertex -12.2613 2.6783 3.8217
      vertex -16.7387 4.34716 4.51296
      vertex -16.7387 2.6783 3.8217
    endloop
  endfacet
  facet normal 0 -0.92388 0.382681
    outer loop
      vertex -16.7387 1.09531 0
      vertex -12.2613 2.6783 3.8217
      vertex -16.7387 2.6783 3.8217
    endloop
  endfacet
  facet normal 0 -0.92388 0.382681
    outer loop
      vertex -12.2613 2.6783 3.8217
      vertex -16.7387 1.09531 0
      vertex -12.2613 1.09531 0
    endloop
  endfacet
  facet normal -0.678597 -0.678599 0.281085
    outer loop
      vertex -19.9047 4.2613 0
      vertex -16.7387 1.09531 0
      vertex -19.9047 4.917 1.583
    endloop
  endfacet
  facet normal 0 -0.382681 -0.92388
    outer loop
      vertex -16.7387 2.6783 -3.8217
      vertex -12.2613 4.34716 -4.51296
      vertex -12.2613 2.6783 -3.8217
    endloop
  endfacet
  facet normal -0 -0.382681 -0.92388
    outer loop
      vertex -12.2613 4.34716 -4.51296
      vertex -16.7387 2.6783 -3.8217
      vertex -16.7387 4.34716 -4.51296
    endloop
  endfacet
  facet normal -1 0 0
    outer loop
      vertex -19.9047 7.73519 0
      vertex -19.9047 8.7387 0
      vertex -19.9047 8.083 -1.583
    endloop
  endfacet
  facet normal -1 0 0
    outer loop
      vertex -19.9047 8.7387 0
      vertex -19.9047 7.73519 0
      vertex -19.9047 8.083 1.583
    endloop
  endfacet
  facet normal -1 0 -0
    outer loop
      vertex -19.9047 7.73519 0
      vertex -19.9047 8.083 -1.583
      vertex -19.9047 7.63757 -1.7675
    endloop
  endfacet
  facet normal -1 -0 0
    outer loop
      vertex -19.9047 8.083 1.583
      vertex -19.9047 7.73519 0
      vertex -19.9047 7.63757 1.7675
    endloop
  endfacet
  facet normal -1 0 0
    outer loop
      vertex -19.9047 5.36243 -1.7675
      vertex -19.9047 4.917 -1.583
      vertex -19.9047 5.26481 0
    endloop
  endfacet
  facet normal -1 0 0
    outer loop
      vertex -19.9047 4.2613 0
      vertex -19.9047 5.26481 0
      vertex -19.9047 4.917 -1.583
    endloop
  endfacet
  facet normal -1 0 -0
    outer loop
      vertex -19.9047 4.917 1.583
      vertex -19.9047 5.26481 0
      vertex -19.9047 4.2613 0
    endloop
  endfacet
  facet normal -1 0 0
    outer loop
      vertex -19.9047 5.26481 0
      vertex -19.9047 4.917 1.583
      vertex -19.9047 5.36243 1.7675
    endloop
  endfacet
  facet normal -0.678597 -0.678599 -0.281085
    outer loop
      vertex -19.9047 4.917 -1.583
      vertex -16.7387 1.09531 0
      vertex -19.9047 4.2613 0
    endloop
  endfacet
  facet normal 1 0 0
    outer loop
      vertex -8.49478 5.79645 5.27666
      vertex -8.49478 7.20355 5.27666
      vertex -8.49478 6.5 7.46233
    endloop
  endfacet
  facet normal 1 0 -0
    outer loop
      vertex -8.49478 6.5 3.09817
      vertex -8.49478 7.20355 5.27666
      vertex -8.49478 5.79645 5.27666
    endloop
  endfacet
  facet normal 1 0 0
    outer loop
      vertex -8.49478 7.20355 5.27666
      vertex -8.49478 6.5 3.09817
      vertex -8.49478 7.34316 2.74893
    endloop
  endfacet
  facet normal 1 0 0
    outer loop
      vertex -8.49478 6.5 3.09817
      vertex -8.49478 5.79645 5.27666
      vertex -8.49478 5.65684 2.74893
    endloop
  endfacet
  facet normal 1 -0 0
    outer loop
      vertex -8.49478 6.5 -3.09817
      vertex -8.49478 7.20355 -5.27666
      vertex -8.49478 7.34316 -2.74893
    endloop
  endfacet
  facet normal 1 0 0
    outer loop
      vertex -8.49478 5.79645 -5.27666
      vertex -8.49478 7.20355 -5.27666
      vertex -8.49478 6.5 -3.09817
    endloop
  endfacet
  facet normal 1 0 0
    outer loop
      vertex -8.49478 7.20355 -5.27666
      vertex -8.49478 5.79645 -5.27666
      vertex -8.49478 6.5 -7.46233
    endloop
  endfacet
  facet normal 1 0 -0
    outer loop
      vertex -8.49478 5.79645 -5.27666
      vertex -8.49478 6.5 -3.09817
      vertex -8.49478 5.65684 -2.74893
    endloop
  endfacet
  facet normal 0.67675 0.7008 0.225586
    outer loop
      vertex -12.0126 8.19853 12.739
      vertex -12.0126 6.5 18.0156
      vertex -8.49478 7.20355 5.27666
    endloop
  endfacet
  facet normal 0.67675 -0.7008 0.225586
    outer loop
      vertex -12.0126 6.5 18.0156
      vertex -12.0126 4.80147 12.739
      vertex -8.49478 5.79645 5.27666
    endloop
  endfacet
  facet normal 0 -0.998478 0.0551442
    outer loop
      vertex -16.9874 4.80147 12.739
      vertex -16.7387 4.34716 4.51296
      vertex -12.0126 4.80147 12.739
    endloop
  endfacet
  facet normal 2.09516e-06 -0.998478 0.0551443
    outer loop
      vertex -16.7387 4.34716 4.51296
      vertex -16.9874 4.80147 12.739
      vertex -16.9874 4.3331 4.25839
    endloop
  endfacet
  facet normal 0 -0.998478 0.0551442
    outer loop
      vertex -12.2613 4.34716 4.51296
      vertex -12.0126 4.80147 12.739
      vertex -16.7387 4.34716 4.51296
    endloop
  endfacet
  facet normal -2.09516e-06 -0.998478 0.0551443
    outer loop
      vertex -12.0126 4.80147 12.739
      vertex -12.2613 4.34716 4.51296
      vertex -12.0126 4.3331 4.25839
    endloop
  endfacet
  facet normal 0.370904 0.927258 0.0512131
    outer loop
      vertex -8.49478 7.20355 5.27666
      vertex -9.29559 7.65514 2.89998
      vertex -12.0126 8.19853 12.739
    endloop
  endfacet
  facet normal 0.370902 0.927259 0.0512138
    outer loop
      vertex -9.29559 7.65514 2.89998
      vertex -8.49478 7.20355 5.27666
      vertex -8.49478 7.34316 2.74893
    endloop
  endfacet
  facet normal -0.3709 -0.92726 0.051211
    outer loop
      vertex -16.9874 4.80147 12.739
      vertex -19.3824 5.17815 2.21345
      vertex -16.9874 4.3331 4.25839
    endloop
  endfacet
  facet normal -0.370884 -0.927267 0.0512072
    outer loop
      vertex -16.9874 4.80147 12.739
      vertex -19.9047 5.36243 1.7675
      vertex -19.3824 5.17815 2.21345
    endloop
  endfacet
  facet normal -0.370962 -0.927234 0.0512297
    outer loop
      vertex -20.5052 5.50502 0
      vertex -19.9047 5.36243 1.7675
      vertex -16.9874 4.80147 12.739
    endloop
  endfacet
  facet normal -0.370917 -0.927253 0.0512127
    outer loop
      vertex -19.9047 5.36243 1.7675
      vertex -20.5052 5.50502 0
      vertex -19.9047 5.26481 0
    endloop
  endfacet
  facet normal 0 0.998478 0.0551442
    outer loop
      vertex -12.0126 8.19853 12.739
      vertex -12.2613 8.65284 4.51296
      vertex -16.9874 8.19853 12.739
    endloop
  endfacet
  facet normal -2.09516e-06 0.998478 0.0551443
    outer loop
      vertex -12.2613 8.65284 4.51296
      vertex -12.0126 8.19853 12.739
      vertex -12.0126 8.6669 4.25839
    endloop
  endfacet
  facet normal -0 0.998478 0.0551442
    outer loop
      vertex -16.7387 8.65284 4.51296
      vertex -16.9874 8.19853 12.739
      vertex -12.2613 8.65284 4.51296
    endloop
  endfacet
  facet normal 2.09516e-06 0.998478 0.0551443
    outer loop
      vertex -16.9874 8.19853 12.739
      vertex -16.7387 8.65284 4.51296
      vertex -16.9874 8.6669 4.25839
    endloop
  endfacet
  facet normal 0.370897 0.927261 0.0512111
    outer loop
      vertex -9.29559 7.65514 2.89998
      vertex -12.0126 8.6669 4.25839
      vertex -12.0126 8.19853 12.739
    endloop
  endfacet
  facet normal 0.370918 0.92725 0.0512615
    outer loop
      vertex -12.0126 8.6669 4.25839
      vertex -9.29559 7.65514 2.89998
      vertex -10.7409 8.21822 3.17262
    endloop
  endfacet
  facet normal -0.370917 0.927253 -0.0512127
    outer loop
      vertex -19.9047 7.63757 -1.7675
      vertex -20.5052 7.49498 0
      vertex -19.9047 7.73519 0
    endloop
  endfacet
  facet normal -0.370962 0.927234 -0.0512297
    outer loop
      vertex -19.9047 7.63757 -1.7675
      vertex -16.9874 8.19853 -12.739
      vertex -20.5052 7.49498 0
    endloop
  endfacet
  facet normal -0.370884 0.927267 -0.0512072
    outer loop
      vertex -19.3824 7.82185 -2.21345
      vertex -16.9874 8.19853 -12.739
      vertex -19.9047 7.63757 -1.7675
    endloop
  endfacet
  facet normal -0.3709 0.92726 -0.051211
    outer loop
      vertex -16.9874 8.19853 -12.739
      vertex -19.3824 7.82185 -2.21345
      vertex -16.9874 8.6669 -4.25839
    endloop
  endfacet
  facet normal 0 -0.951898 -0.306415
    outer loop
      vertex -16.9874 6.5 -18.0156
      vertex -12.0126 4.80147 -12.739
      vertex -16.9874 4.80147 -12.739
    endloop
  endfacet
  facet normal 0 -0.951898 -0.306415
    outer loop
      vertex -12.0126 4.80147 -12.739
      vertex -16.9874 6.5 -18.0156
      vertex -12.0126 6.5 -18.0156
    endloop
  endfacet
  facet normal 0.370918 0.92725 -0.0512615
    outer loop
      vertex -9.29559 7.65514 -2.89998
      vertex -12.0126 8.6669 -4.25839
      vertex -10.7409 8.21822 -3.17262
    endloop
  endfacet
  facet normal 0.370897 0.927261 -0.0512111
    outer loop
      vertex -12.0126 8.6669 -4.25839
      vertex -9.29559 7.65514 -2.89998
      vertex -12.0126 8.19853 -12.739
    endloop
  endfacet
  facet normal 0.676742 0.700808 0.225585
    outer loop
      vertex -12.0126 6.5 18.0156
      vertex -8.49478 6.5 7.46233
      vertex -8.49478 7.20355 5.27666
    endloop
  endfacet
  facet normal -0.370904 0.927258 -0.0512125
    outer loop
      vertex -16.9874 8.19853 -12.739
      vertex -20.5052 7.20355 -5.27666
      vertex -20.5052 7.49498 0
    endloop
  endfacet
  facet normal 0.370904 -0.927258 0.0512131
    outer loop
      vertex -9.29559 5.34486 2.89998
      vertex -8.49478 5.79645 5.27666
      vertex -12.0126 4.80147 12.739
    endloop
  endfacet
  facet normal 0.370902 -0.927259 0.0512138
    outer loop
      vertex -8.49478 5.79645 5.27666
      vertex -9.29559 5.34486 2.89998
      vertex -8.49478 5.65684 2.74893
    endloop
  endfacet
  facet normal 0 -0.951898 0.306415
    outer loop
      vertex -16.9874 4.80147 12.739
      vertex -12.0126 6.5 18.0156
      vertex -16.9874 6.5 18.0156
    endloop
  endfacet
  facet normal 0 -0.951898 0.306415
    outer loop
      vertex -12.0126 6.5 18.0156
      vertex -16.9874 4.80147 12.739
      vertex -12.0126 4.80147 12.739
    endloop
  endfacet
  facet normal 0.370902 0.927259 -0.0512138
    outer loop
      vertex -8.49478 7.20355 -5.27666
      vertex -9.29559 7.65514 -2.89998
      vertex -8.49478 7.34316 -2.74893
    endloop
  endfacet
  facet normal 0.370904 0.927258 -0.0512131
    outer loop
      vertex -9.29559 7.65514 -2.89998
      vertex -8.49478 7.20355 -5.27666
      vertex -12.0126 8.19853 -12.739
    endloop
  endfacet
  facet normal 0 0.998478 -0.0551442
    outer loop
      vertex -12.2613 8.65284 -4.51296
      vertex -12.0126 8.19853 -12.739
      vertex -16.7387 8.65284 -4.51296
    endloop
  endfacet
  facet normal -2.09516e-06 0.998478 -0.0551443
    outer loop
      vertex -12.0126 8.19853 -12.739
      vertex -12.2613 8.65284 -4.51296
      vertex -12.0126 8.6669 -4.25839
    endloop
  endfacet
  facet normal 0 0.998478 -0.0551442
    outer loop
      vertex -16.9874 8.19853 -12.739
      vertex -16.7387 8.65284 -4.51296
      vertex -12.0126 8.19853 -12.739
    endloop
  endfacet
  facet normal 2.09516e-06 0.998478 -0.0551443
    outer loop
      vertex -16.7387 8.65284 -4.51296
      vertex -16.9874 8.19853 -12.739
      vertex -16.9874 8.6669 -4.25839
    endloop
  endfacet
  facet normal -0.676752 -0.700798 0.225586
    outer loop
      vertex -20.5052 5.79645 5.27666
      vertex -16.9874 4.80147 12.739
      vertex -16.9874 6.5 18.0156
    endloop
  endfacet
  facet normal 0 0.951898 0.306415
    outer loop
      vertex -12.0126 8.19853 12.739
      vertex -16.9874 6.5 18.0156
      vertex -12.0126 6.5 18.0156
    endloop
  endfacet
  facet normal 0 0.951898 0.306415
    outer loop
      vertex -16.9874 6.5 18.0156
      vertex -12.0126 8.19853 12.739
      vertex -16.9874 8.19853 12.739
    endloop
  endfacet
  facet normal 0.67675 0.7008 -0.225586
    outer loop
      vertex -8.49478 7.20355 -5.27666
      vertex -12.0126 6.5 -18.0156
      vertex -12.0126 8.19853 -12.739
    endloop
  endfacet
  facet normal -0.676752 0.700798 -0.225586
    outer loop
      vertex -16.9874 8.19853 -12.739
      vertex -16.9874 6.5 -18.0156
      vertex -20.5052 7.20355 -5.27666
    endloop
  endfacet
  facet normal -0.676744 0.700806 -0.225584
    outer loop
      vertex -20.5052 7.20355 -5.27666
      vertex -16.9874 6.5 -18.0156
      vertex -20.5052 6.5 -7.46233
    endloop
  endfacet
  facet normal -0.676744 -0.700806 -0.225584
    outer loop
      vertex -16.9874 6.5 -18.0156
      vertex -20.5052 5.79645 -5.27666
      vertex -20.5052 6.5 -7.46233
    endloop
  endfacet
  facet normal 0.676742 -0.700808 0.225585
    outer loop
      vertex -12.0126 6.5 18.0156
      vertex -8.49478 5.79645 5.27666
      vertex -8.49478 6.5 7.46233
    endloop
  endfacet
  facet normal 0.676742 -0.700808 -0.225585
    outer loop
      vertex -8.49478 6.5 -7.46233
      vertex -8.49478 5.79645 -5.27666
      vertex -12.0126 6.5 -18.0156
    endloop
  endfacet
  facet normal -0.370917 -0.927253 -0.0512127
    outer loop
      vertex -20.5052 5.50502 0
      vertex -19.9047 5.36243 -1.7675
      vertex -19.9047 5.26481 0
    endloop
  endfacet
  facet normal -0.3709 -0.92726 -0.051211
    outer loop
      vertex -19.3824 5.17815 -2.21345
      vertex -16.9874 4.80147 -12.739
      vertex -16.9874 4.3331 -4.25839
    endloop
  endfacet
  facet normal -0.370884 -0.927267 -0.0512072
    outer loop
      vertex -19.9047 5.36243 -1.7675
      vertex -16.9874 4.80147 -12.739
      vertex -19.3824 5.17815 -2.21345
    endloop
  endfacet
  facet normal -0.370962 -0.927234 -0.0512297
    outer loop
      vertex -16.9874 4.80147 -12.739
      vertex -19.9047 5.36243 -1.7675
      vertex -20.5052 5.50502 0
    endloop
  endfacet
  facet normal 0 -0.998478 -0.0551442
    outer loop
      vertex -16.7387 4.34716 -4.51296
      vertex -16.9874 4.80147 -12.739
      vertex -12.2613 4.34716 -4.51296
    endloop
  endfacet
  facet normal 2.09516e-06 -0.998478 -0.0551443
    outer loop
      vertex -16.9874 4.80147 -12.739
      vertex -16.7387 4.34716 -4.51296
      vertex -16.9874 4.3331 -4.25839
    endloop
  endfacet
  facet normal -0 -0.998478 -0.0551442
    outer loop
      vertex -12.0126 4.80147 -12.739
      vertex -12.2613 4.34716 -4.51296
      vertex -16.9874 4.80147 -12.739
    endloop
  endfacet
  facet normal -2.09516e-06 -0.998478 -0.0551443
    outer loop
      vertex -12.2613 4.34716 -4.51296
      vertex -12.0126 4.80147 -12.739
      vertex -12.0126 4.3331 -4.25839
    endloop
  endfacet
  facet normal 0.370902 -0.927259 -0.0512138
    outer loop
      vertex -9.29559 5.34486 -2.89998
      vertex -8.49478 5.79645 -5.27666
      vertex -8.49478 5.65684 -2.74893
    endloop
  endfacet
  facet normal 0.370904 -0.927258 -0.0512131
    outer loop
      vertex -8.49478 5.79645 -5.27666
      vertex -9.29559 5.34486 -2.89998
      vertex -12.0126 4.80147 -12.739
    endloop
  endfacet
  facet normal 0.67675 -0.7008 -0.225586
    outer loop
      vertex -8.49478 5.79645 -5.27666
      vertex -12.0126 4.80147 -12.739
      vertex -12.0126 6.5 -18.0156
    endloop
  endfacet
  facet normal -0.3709 0.92726 0.051211
    outer loop
      vertex -19.3824 7.82185 2.21345
      vertex -16.9874 8.19853 12.739
      vertex -16.9874 8.6669 4.25839
    endloop
  endfacet
  facet normal -0.370884 0.927267 0.0512072
    outer loop
      vertex -19.9047 7.63757 1.7675
      vertex -16.9874 8.19853 12.739
      vertex -19.3824 7.82185 2.21345
    endloop
  endfacet
  facet normal -0.370962 0.927234 0.0512297
    outer loop
      vertex -19.9047 7.63757 1.7675
      vertex -20.5052 7.49498 0
      vertex -16.9874 8.19853 12.739
    endloop
  endfacet
  facet normal -0.370917 0.927253 0.0512127
    outer loop
      vertex -20.5052 7.49498 0
      vertex -19.9047 7.63757 1.7675
      vertex -19.9047 7.73519 0
    endloop
  endfacet
  facet normal 0 0.951898 -0.306415
    outer loop
      vertex -12.0126 6.5 -18.0156
      vertex -16.9874 8.19853 -12.739
      vertex -12.0126 8.19853 -12.739
    endloop
  endfacet
  facet normal 0 0.951898 -0.306415
    outer loop
      vertex -16.9874 8.19853 -12.739
      vertex -12.0126 6.5 -18.0156
      vertex -16.9874 6.5 -18.0156
    endloop
  endfacet
  facet normal -0.370904 -0.927258 0.0512125
    outer loop
      vertex -20.5052 5.50502 0
      vertex -16.9874 4.80147 12.739
      vertex -20.5052 5.79645 5.27666
    endloop
  endfacet
  facet normal -0.676744 -0.700806 0.225584
    outer loop
      vertex -20.5052 6.5 7.46233
      vertex -20.5052 5.79645 5.27666
      vertex -16.9874 6.5 18.0156
    endloop
  endfacet
  facet normal 0.370918 -0.92725 -0.0512615
    outer loop
      vertex -12.0126 4.3331 -4.25839
      vertex -9.29559 5.34486 -2.89998
      vertex -10.7409 4.78178 -3.17262
    endloop
  endfacet
  facet normal 0.370897 -0.927261 -0.0512111
    outer loop
      vertex -9.29559 5.34486 -2.89998
      vertex -12.0126 4.3331 -4.25839
      vertex -12.0126 4.80147 -12.739
    endloop
  endfacet
  facet normal 0.370918 -0.92725 0.0512615
    outer loop
      vertex -9.29559 5.34486 2.89998
      vertex -12.0126 4.3331 4.25839
      vertex -10.7409 4.78178 3.17262
    endloop
  endfacet
  facet normal 0.370897 -0.927261 0.0512111
    outer loop
      vertex -12.0126 4.3331 4.25839
      vertex -9.29559 5.34486 2.89998
      vertex -12.0126 4.80147 12.739
    endloop
  endfacet
  facet normal 0.676742 0.700808 -0.225585
    outer loop
      vertex -8.49478 6.5 -7.46233
      vertex -12.0126 6.5 -18.0156
      vertex -8.49478 7.20355 -5.27666
    endloop
  endfacet
  facet normal -0.676752 -0.700798 -0.225586
    outer loop
      vertex -16.9874 6.5 -18.0156
      vertex -16.9874 4.80147 -12.739
      vertex -20.5052 5.79645 -5.27666
    endloop
  endfacet
  facet normal -0.370904 -0.927258 -0.0512125
    outer loop
      vertex -20.5052 5.79645 -5.27666
      vertex -16.9874 4.80147 -12.739
      vertex -20.5052 5.50502 0
    endloop
  endfacet
  facet normal -1 0 0
    outer loop
      vertex -20.5052 5.50502 0
      vertex -20.5052 7.49498 0
      vertex -20.5052 7.20355 -5.27666
    endloop
  endfacet
  facet normal -1 0 0
    outer loop
      vertex -20.5052 5.79645 -5.27666
      vertex -20.5052 7.20355 -5.27666
      vertex -20.5052 6.5 -7.46233
    endloop
  endfacet
  facet normal -1 0 0
    outer loop
      vertex -20.5052 7.49498 0
      vertex -20.5052 5.50502 0
      vertex -20.5052 7.20355 5.27666
    endloop
  endfacet
  facet normal -1 0 0
    outer loop
      vertex -20.5052 7.20355 -5.27666
      vertex -20.5052 5.79645 -5.27666
      vertex -20.5052 5.50502 0
    endloop
  endfacet
  facet normal -1 0 -0
    outer loop
      vertex -20.5052 5.79645 5.27666
      vertex -20.5052 7.20355 5.27666
      vertex -20.5052 5.50502 0
    endloop
  endfacet
  facet normal -1 0 0
    outer loop
      vertex -20.5052 7.20355 5.27666
      vertex -20.5052 5.79645 5.27666
      vertex -20.5052 6.5 7.46233
    endloop
  endfacet
  facet normal -0.676752 0.700798 0.225586
    outer loop
      vertex -20.5052 7.20355 5.27666
      vertex -16.9874 6.5 18.0156
      vertex -16.9874 8.19853 12.739
    endloop
  endfacet
  facet normal -0.370904 0.927258 0.0512125
    outer loop
      vertex -20.5052 7.49498 0
      vertex -20.5052 7.20355 5.27666
      vertex -16.9874 8.19853 12.739
    endloop
  endfacet
  facet normal -0.676744 0.700806 0.225584
    outer loop
      vertex -20.5052 7.20355 5.27666
      vertex -20.5052 6.5 7.46233
      vertex -16.9874 6.5 18.0156
    endloop
  endfacet
endsolid OpenSCAD_Model
