solid OpenSCAD_Model
  facet normal 0.109405 0.984656 -0.135954
    outer loop
      vertex 19.5984 1.27561 -6.53281
      vertex 16.8623 2.2747 -1.49864
      vertex 19.3934 1.71223 -3.53553
    endloop
  endfacet
  facet normal 0.109406 0.984656 -0.135954
    outer loop
      vertex 19.5984 1.27561 -6.53281
      vertex 19.3934 1.71223 -3.53553
      vertex 22.7475 1.27561 -3.99864
    endloop
  endfacet
  facet normal 0.109407 0.984656 -0.135953
    outer loop
      vertex 16.8623 2.2747 -1.49864
      vertex 19.5984 1.27561 -6.53281
      vertex 8.11794 3.0796 -2.70598
    endloop
  endfacet
  facet normal -0.0436194 -0.947781 0.315926
    outer loop
      vertex -2.77864 -3.0796 3.44318
      vertex 0 -1.27561 9.2388
      vertex -4.99025 -2.38456 5.22295
    endloop
  endfacet
  facet normal -0.0436204 -0.94778 0.315927
    outer loop
      vertex 0 -1.27561 9.2388
      vertex -2.77864 -3.0796 3.44318
      vertex 0 -3.0796 3.82683
    endloop
  endfacet
  facet normal 0.109407 0.984656 -0.13595
    outer loop
      vertex 16.8623 2.2747 -1.49864
      vertex 11.4805 3.0796 0
      vertex 15 2.68854 0
    endloop
  endfacet
  facet normal 0.109407 0.984656 -0.135953
    outer loop
      vertex 11.4805 3.0796 0
      vertex 16.8623 2.2747 -1.49864
      vertex 8.11794 3.0796 -2.70598
    endloop
  endfacet
  facet normal -0.0436204 0.94778 0.315927
    outer loop
      vertex -2.77864 3.0796 3.44318
      vertex 0 1.27561 9.2388
      vertex 0 3.0796 3.82683
    endloop
  endfacet
  facet normal -0.0436194 0.947781 0.315926
    outer loop
      vertex 0 1.27561 9.2388
      vertex -2.77864 3.0796 3.44318
      vertex -4.99025 2.38456 5.22295
    endloop
  endfacet
  facet normal 0.109407 -0.984656 0.135953
    outer loop
      vertex 11.4805 -3.0796 0
      vertex 16.8623 -2.2747 1.49864
      vertex 8.11794 -3.0796 2.70598
    endloop
  endfacet
  facet normal 0.109407 -0.984656 0.13595
    outer loop
      vertex 16.8623 -2.2747 1.49864
      vertex 11.4805 -3.0796 0
      vertex 15 -2.68854 0
    endloop
  endfacet
  facet normal 0.136778 0 -0.990602
    outer loop
      vertex 17.5869 -0.581559 -6.81055
      vertex 19.5984 -1.27561 -6.53281
      vertex 17.5869 -1.27561 -6.81055
    endloop
  endfacet
  facet normal 0.136778 0 -0.990602
    outer loop
      vertex 19.5984 -1.27561 -6.53281
      vertex 17.5869 -0.581559 -6.81055
      vertex 19.5984 1.27561 -6.53281
    endloop
  endfacet
  facet normal 0.136774 4.87454e-06 -0.990602
    outer loop
      vertex 16.5745 0.1513 -6.95033
      vertex 19.5984 1.27561 -6.53281
      vertex 17.5869 -0.581559 -6.81055
    endloop
  endfacet
  facet normal 0.136773 6.66933e-06 -0.990602
    outer loop
      vertex 15.208 0.71731 -7.139
      vertex 19.5984 1.27561 -6.53281
      vertex 16.5745 0.1513 -6.95033
    endloop
  endfacet
  facet normal 0.136775 -5.02592e-06 -0.990602
    outer loop
      vertex 14.3759 0.71731 -7.25389
      vertex 19.5984 1.27561 -6.53281
      vertex 15.208 0.71731 -7.139
    endloop
  endfacet
  facet normal 0.136777 -1.21313e-05 -0.990602
    outer loop
      vertex 9.22016 -0.53745 -7.96576
      vertex 13.9658 0.660682 -7.31052
      vertex 12.3274 -0.337846 -7.53673
    endloop
  endfacet
  facet normal 0.136757 6.86757e-05 -0.990605
    outer loop
      vertex 8.97215 -0.553382 -8
      vertex 13.9658 0.660682 -7.31052
      vertex 9.22016 -0.53745 -7.96576
    endloop
  endfacet
  facet normal 0.136774 -2.97102e-06 -0.990602
    outer loop
      vertex 0 1.27561 -9.2388
      vertex 8.97215 -0.553382 -8
      vertex 6.204 -1.04783 -8.3822
    endloop
  endfacet
  facet normal 0.136788 3.50639e-05 -0.9906
    outer loop
      vertex 0 1.27561 -9.2388
      vertex 6.204 -1.04783 -8.3822
      vertex 5.98306 -1.08729 -8.41271
    endloop
  endfacet
  facet normal 0.136775 0 -0.990602
    outer loop
      vertex 0 1.27561 -9.2388
      vertex 5.68246 -1.27561 -8.45421
      vertex 0 -1.27561 -9.2388
    endloop
  endfacet
  facet normal 0.136769 -1.38392e-05 -0.990603
    outer loop
      vertex 5.68246 -1.27561 -8.45421
      vertex 0 1.27561 -9.2388
      vertex 5.98306 -1.08729 -8.41271
    endloop
  endfacet
  facet normal 0.136774 -1.67515e-06 -0.990602
    outer loop
      vertex 14.3759 0.71731 -7.25389
      vertex 0 1.27561 -9.2388
      vertex 19.5984 1.27561 -6.53281
    endloop
  endfacet
  facet normal 0.136777 6.25838e-05 -0.990602
    outer loop
      vertex 14.0587 0.673511 -7.29769
      vertex 0 1.27561 -9.2388
      vertex 14.3759 0.71731 -7.25389
    endloop
  endfacet
  facet normal 0.136782 0.000184467 -0.990601
    outer loop
      vertex 13.9658 0.660682 -7.31052
      vertex 0 1.27561 -9.2388
      vertex 14.0587 0.673511 -7.29769
    endloop
  endfacet
  facet normal 0.136774 -7.73542e-07 -0.990602
    outer loop
      vertex 8.97215 -0.553382 -8
      vertex 0 1.27561 -9.2388
      vertex 13.9658 0.660682 -7.31052
    endloop
  endfacet
  facet normal -0.0436216 0.947778 0.315933
    outer loop
      vertex 0 1.27561 9.2388
      vertex -4.26728 1.48531 8.02052
      vertex -6.5379 1.32397 8.19102
    endloop
  endfacet
  facet normal -0.0436151 0.947786 0.315911
    outer loop
      vertex 0 1.27561 9.2388
      vertex -4.23816 1.48738 8.01833
      vertex -4.26728 1.48531 8.02052
    endloop
  endfacet
  facet normal -0.043562 0.947846 0.315737
    outer loop
      vertex 0 1.27561 9.2388
      vertex -4.22776 1.48981 8.01247
      vertex -4.23816 1.48738 8.01833
    endloop
  endfacet
  facet normal -0.0436193 0.947781 0.315924
    outer loop
      vertex 0 1.27561 9.2388
      vertex -3.31802 1.7025 7.5
      vertex -4.22776 1.48981 8.01247
    endloop
  endfacet
  facet normal -0.0436166 0.947778 0.315935
    outer loop
      vertex -6.66769 1.76863 6.83911
      vertex -5.52944 2.21511 5.65685
      vertex -6.793 1.76582 6.83024
    endloop
  endfacet
  facet normal -0.0436236 0.947779 0.315929
    outer loop
      vertex -4.48448 1.81758 6.99372
      vertex -5.52944 2.21511 5.65685
      vertex -6.66769 1.76863 6.83911
    endloop
  endfacet
  facet normal -0.0436129 0.947781 0.315925
    outer loop
      vertex -4.99025 2.38456 5.22295
      vertex -4.48448 1.81758 6.99372
      vertex -4.45833 1.815 7.00507
    endloop
  endfacet
  facet normal -0.0436162 0.947781 0.315926
    outer loop
      vertex -4.99025 2.38456 5.22295
      vertex -4.45833 1.815 7.00507
      vertex -3.31802 1.7025 7.5
    endloop
  endfacet
  facet normal -0.0436234 0.947779 0.315931
    outer loop
      vertex -4.99025 2.38456 5.22295
      vertex -3.31802 1.7025 7.5
      vertex 0 1.27561 9.2388
    endloop
  endfacet
  facet normal -0.0436217 0.94778 0.315927
    outer loop
      vertex -4.48448 1.81758 6.99372
      vertex -4.99025 2.38456 5.22295
      vertex -5.52944 2.21511 5.65685
    endloop
  endfacet
  facet normal -0.0436125 0.947797 0.315877
    outer loop
      vertex -8.49186 1.30612 7.9748
      vertex 0 1.27561 9.2388
      vertex -6.5379 1.32397 8.19102
    endloop
  endfacet
  facet normal -0.0436461 0.947721 0.316101
    outer loop
      vertex -8.6427 1.30474 7.95811
      vertex 0 1.27561 9.2388
      vertex -8.49186 1.30612 7.9748
    endloop
  endfacet
  facet normal -0.0436234 0.947773 0.315949
    outer loop
      vertex -8.6427 1.30474 7.95811
      vertex -15.7361 1.27561 7.0661
      vertex 0 1.27561 9.2388
    endloop
  endfacet
  facet normal -0.043598 0.947842 0.315745
    outer loop
      vertex -8.7126 1.31419 7.92009
      vertex -15.7361 1.27561 7.0661
      vertex -8.6427 1.30474 7.95811
    endloop
  endfacet
  facet normal -0.0436209 0.947777 0.315936
    outer loop
      vertex -9.4849 1.41868 7.5
      vertex -15.7361 1.27561 7.0661
      vertex -8.7126 1.31419 7.92009
    endloop
  endfacet
  facet normal -0.0436188 0.947789 0.315902
    outer loop
      vertex -9.41563 1.43636 7.45652
      vertex -15.7361 1.27561 7.0661
      vertex -9.4849 1.41868 7.5
    endloop
  endfacet
  facet normal -0.0436204 0.947779 0.315932
    outer loop
      vertex -8.77022 1.60113 7.05133
      vertex -15.7361 1.27561 7.0661
      vertex -9.41563 1.43636 7.45652
    endloop
  endfacet
  facet normal -0.0435843 0.947757 0.316001
    outer loop
      vertex -5.52944 2.21511 5.65685
      vertex -8.77022 1.60113 7.05133
      vertex -8.60412 1.61496 7.03276
    endloop
  endfacet
  facet normal -0.043619 0.947778 0.315933
    outer loop
      vertex -5.52944 2.21511 5.65685
      vertex -8.60412 1.61496 7.03276
      vertex -6.793 1.76582 6.83024
    endloop
  endfacet
  facet normal -0.0436205 0.94778 0.315927
    outer loop
      vertex -8.77022 1.60113 7.05133
      vertex -5.52944 2.21511 5.65685
      vertex -15.7361 1.27561 7.0661
    endloop
  endfacet
  facet normal 0.626939 0 -0.779069
    outer loop
      vertex 19.5984 -1.27561 -6.53281
      vertex 22.7475 1.27561 -3.99864
      vertex 22.7475 -1.27561 -3.99864
    endloop
  endfacet
  facet normal 0.626939 0 -0.779069
    outer loop
      vertex 22.7475 1.27561 -3.99864
      vertex 19.5984 -1.27561 -6.53281
      vertex 19.5984 1.27561 -6.53281
    endloop
  endfacet
  facet normal -0.0436204 -0.94778 0.315927
    outer loop
      vertex -5.52944 -2.21511 5.65685
      vertex 0 -1.27561 9.2388
      vertex -15.7361 -1.27561 7.0661
    endloop
  endfacet
  facet normal -0.043621 -0.94778 0.315928
    outer loop
      vertex 0 -1.27561 9.2388
      vertex -5.52944 -2.21511 5.65685
      vertex -4.99025 -2.38456 5.22295
    endloop
  endfacet
  facet normal 0.0436207 0.94778 -0.315927
    outer loop
      vertex 19.5984 1.27561 -6.53281
      vertex 0 1.27561 -9.2388
      vertex 8.11794 3.0796 -2.70598
    endloop
  endfacet
  facet normal -0.043621 -0.94778 -0.315928
    outer loop
      vertex -5.52944 -2.21511 -5.65685
      vertex 0 -1.27561 -9.2388
      vertex -4.99025 -2.38456 -5.22295
    endloop
  endfacet
  facet normal -0.0436204 -0.94778 -0.315927
    outer loop
      vertex 0 -1.27561 -9.2388
      vertex -5.52944 -2.21511 -5.65685
      vertex -15.7361 -1.27561 -7.0661
    endloop
  endfacet
  facet normal 0.109409 0.984655 0.135954
    outer loop
      vertex 19.5984 1.27561 6.53281
      vertex 17.5433 1.7156 5
      vertex 17.1069 1.66712 5.70231
    endloop
  endfacet
  facet normal 0.109406 0.984656 0.135954
    outer loop
      vertex 19.3934 1.71223 3.53553
      vertex 19.5984 1.27561 6.53281
      vertex 22.7475 1.27561 3.99864
    endloop
  endfacet
  facet normal 0.109409 0.984655 0.135954
    outer loop
      vertex 19.5984 1.27561 6.53281
      vertex 19.3934 1.71223 3.53553
      vertex 17.5433 1.7156 5
    endloop
  endfacet
  facet normal 0.109408 0.984656 0.135951
    outer loop
      vertex 16.8623 2.2747 1.49864
      vertex 17.5433 1.7156 5
      vertex 19.3934 1.71223 3.53553
    endloop
  endfacet
  facet normal 0.109405 0.984657 0.135946
    outer loop
      vertex 15.9197 2.2568 2.38687
      vertex 16.8623 2.2747 1.49864
      vertex 14.0895 2.52993 1.88148
    endloop
  endfacet
  facet normal 0.10941 0.984656 0.135951
    outer loop
      vertex 17.5433 1.7156 5
      vertex 16.8623 2.2747 1.49864
      vertex 15.9197 2.2568 2.38687
    endloop
  endfacet
  facet normal -0.0436204 0.94778 -0.315927
    outer loop
      vertex -5.52944 2.21511 -5.65685
      vertex 0 1.27561 -9.2388
      vertex -15.7361 1.27561 -7.0661
    endloop
  endfacet
  facet normal -0.043621 0.94778 -0.315928
    outer loop
      vertex 0 1.27561 -9.2388
      vertex -5.52944 2.21511 -5.65685
      vertex -4.99025 2.38456 -5.22295
    endloop
  endfacet
  facet normal 0.0436202 0.947781 0.315924
    outer loop
      vertex 8.08031 1.44561 7.61313
      vertex 0 1.27561 9.2388
      vertex 9.31159 1.27561 7.95313
    endloop
  endfacet
  facet normal 0.043621 0.94778 0.315927
    outer loop
      vertex 6.45672 2.39138 5
      vertex 0 1.27561 9.2388
      vertex 8.08031 1.44561 7.61313
    endloop
  endfacet
  facet normal 0.0436235 0.947779 0.315931
    outer loop
      vertex 0 1.27561 9.2388
      vertex 6.45672 2.39138 5
      vertex 7.64615 2.97476 3.08565
    endloop
  endfacet
  facet normal 0.0436217 0.947779 0.315932
    outer loop
      vertex 17.1069 1.66712 5.70231
      vertex 16.3087 1.27561 6.98703
      vertex 19.5984 1.27561 6.53281
    endloop
  endfacet
  facet normal 0.0436207 -0.94778 0.315927
    outer loop
      vertex 19.5984 -1.27561 6.53281
      vertex 0 -1.27561 9.2388
      vertex 8.11794 -3.0796 2.70598
    endloop
  endfacet
  facet normal 0.109407 -0.984656 -0.13595
    outer loop
      vertex 11.4805 -3.0796 0
      vertex 16.8623 -2.2747 -1.49864
      vertex 15 -2.68854 0
    endloop
  endfacet
  facet normal 0.109407 -0.984656 -0.135953
    outer loop
      vertex 16.8623 -2.2747 -1.49864
      vertex 11.4805 -3.0796 0
      vertex 8.11794 -3.0796 -2.70598
    endloop
  endfacet
  facet normal 0.109407 -0.984656 -0.135953
    outer loop
      vertex 19.5984 -1.27561 -6.53281
      vertex 16.8623 -2.2747 -1.49864
      vertex 8.11794 -3.0796 -2.70598
    endloop
  endfacet
  facet normal 0.109405 -0.984656 -0.135954
    outer loop
      vertex 16.8623 -2.2747 -1.49864
      vertex 19.5984 -1.27561 -6.53281
      vertex 19.3934 -1.71223 -3.53553
    endloop
  endfacet
  facet normal 0.109406 -0.984656 -0.135954
    outer loop
      vertex 19.3934 -1.71223 -3.53553
      vertex 19.5984 -1.27561 -6.53281
      vertex 22.7475 -1.27561 -3.99864
    endloop
  endfacet
  facet normal 0.0436202 0.94778 -0.315927
    outer loop
      vertex 0 1.27561 -9.2388
      vertex 0 3.0796 -3.82683
      vertex 8.11794 3.0796 -2.70598
    endloop
  endfacet
  facet normal 0.109406 -0.984656 0.135954
    outer loop
      vertex 19.5984 -1.27561 6.53281
      vertex 19.3934 -1.71223 3.53553
      vertex 22.7475 -1.27561 3.99864
    endloop
  endfacet
  facet normal 0.109407 -0.984656 0.135953
    outer loop
      vertex 16.8623 -2.2747 1.49864
      vertex 19.5984 -1.27561 6.53281
      vertex 8.11794 -3.0796 2.70598
    endloop
  endfacet
  facet normal 0.109405 -0.984656 0.135954
    outer loop
      vertex 19.5984 -1.27561 6.53281
      vertex 16.8623 -2.2747 1.49864
      vertex 19.3934 -1.71223 3.53553
    endloop
  endfacet
  facet normal 0.136774 0 0.990602
    outer loop
      vertex 9.31159 1.27561 7.95313
      vertex 0 1.27561 9.2388
      vertex 9.31159 0.569265 7.95313
    endloop
  endfacet
  facet normal 0.136776 -0 0.990602
    outer loop
      vertex 16.3087 0.569265 6.98703
      vertex 19.5984 1.27561 6.53281
      vertex 16.3087 1.27561 6.98703
    endloop
  endfacet
  facet normal 0.136776 0 0.990602
    outer loop
      vertex 19.5984 1.27561 6.53281
      vertex 16.3087 0.569265 6.98703
      vertex 19.5984 -1.27561 6.53281
    endloop
  endfacet
  facet normal 0.136775 -1.64682e-06 0.990602
    outer loop
      vertex 15.2084 -0.101321 7.13895
      vertex 19.5984 -1.27561 6.53281
      vertex 16.3087 0.569265 6.98703
    endloop
  endfacet
  facet normal 0.136774 -6.12645e-06 0.990602
    outer loop
      vertex 14.5378 -0.193909 7.23154
      vertex 19.5984 -1.27561 6.53281
      vertex 15.2084 -0.101321 7.13895
    endloop
  endfacet
  facet normal 0.136775 -6.03782e-07 0.990602
    outer loop
      vertex 12 -0.544311 7.58194
      vertex 19.5984 -1.27561 6.53281
      vertex 14.5378 -0.193909 7.23154
    endloop
  endfacet
  facet normal 0.136774 -0 0.990602
    outer loop
      vertex 0 -1.27561 9.2388
      vertex 9.31159 0.569265 7.95313
      vertex 0 1.27561 9.2388
    endloop
  endfacet
  facet normal 0.136774 3.70613e-06 0.990602
    outer loop
      vertex 9.31159 0.569265 7.95313
      vertex 0 -1.27561 9.2388
      vertex 11.3628 -0.280365 7.66992
    endloop
  endfacet
  facet normal 0.136774 -5.1821e-06 0.990602
    outer loop
      vertex 12 -0.544311 7.58194
      vertex 0 -1.27561 9.2388
      vertex 19.5984 -1.27561 6.53281
    endloop
  endfacet
  facet normal 0.136774 -2.40144e-06 0.990602
    outer loop
      vertex 11.3628 -0.280365 7.66992
      vertex 0 -1.27561 9.2388
      vertex 12 -0.544311 7.58194
    endloop
  endfacet
  facet normal 0.109406 0.984656 0.135952
    outer loop
      vertex 15 2.68854 0
      vertex 14.0895 2.52993 1.88148
      vertex 16.8623 2.2747 1.49864
    endloop
  endfacet
  facet normal 0.109409 0.984655 0.135953
    outer loop
      vertex 14.0895 2.52993 1.88148
      vertex 15 2.68854 0
      vertex 12 2.84177 1.30448
    endloop
  endfacet
  facet normal 0.109407 0.984656 0.13595
    outer loop
      vertex 11.4805 3.0796 0
      vertex 12 2.84177 1.30448
      vertex 15 2.68854 0
    endloop
  endfacet
  facet normal 0.109405 0.984656 0.135951
    outer loop
      vertex 12 2.84177 1.30448
      vertex 11.4805 3.0796 0
      vertex 8.74129 3.0796 2.20435
    endloop
  endfacet
  facet normal 0.04362 -0.94778 -0.315928
    outer loop
      vertex 8.11794 -3.0796 -2.70598
      vertex 12.6482 -1.62905 -6.43212
      vertex 15 -1.73729 -5.78269
    endloop
  endfacet
  facet normal 0.0436293 -0.947783 -0.315918
    outer loop
      vertex 8.11794 -3.0796 -2.70598
      vertex 12.5132 -1.56283 -6.64943
      vertex 12.6482 -1.62905 -6.43212
    endloop
  endfacet
  facet normal 0.0436199 -0.94778 -0.315927
    outer loop
      vertex 8.11794 -3.0796 -2.70598
      vertex 3.19094 -1.60827 -7.80023
      vertex 12.5132 -1.56283 -6.64943
    endloop
  endfacet
  facet normal 0.0436288 -0.947777 -0.315935
    outer loop
      vertex 8.11794 -3.0796 -2.70598
      vertex 2.47795 -1.61175 -7.88825
      vertex 3.19094 -1.60827 -7.80023
    endloop
  endfacet
  facet normal 0.0435695 -0.947799 -0.315877
    outer loop
      vertex 8.11794 -3.0796 -2.70598
      vertex 2.28824 -1.60631 -7.93074
      vertex 2.47795 -1.61175 -7.88825
    endloop
  endfacet
  facet normal 0.0436529 -0.947767 -0.315961
    outer loop
      vertex 8.11794 -3.0796 -2.70598
      vertex 2 -1.59806 -7.99531
      vertex 2.28824 -1.60631 -7.93074
    endloop
  endfacet
  facet normal 0.0436242 -0.947777 -0.315937
    outer loop
      vertex 0 -1.27561 -9.2388
      vertex 3.55707 -1.43715 -8.26304
      vertex 2.7302 -1.5 -8.18867
    endloop
  endfacet
  facet normal 0.0436201 -0.947782 -0.315922
    outer loop
      vertex 3.55707 -1.43715 -8.26304
      vertex 0 -1.27561 -9.2388
      vertex 5.68246 -1.27561 -8.45421
    endloop
  endfacet
  facet normal 0.0436131 -0.947786 -0.31591
    outer loop
      vertex 2.38312 -1.53483 -8.13209
      vertex 0 -1.27561 -9.2388
      vertex 2.7302 -1.5 -8.18867
    endloop
  endfacet
  facet normal 0.0436315 -0.947773 -0.315946
    outer loop
      vertex 2.0138 -1.5719 -8.07189
      vertex 0 -1.27561 -9.2388
      vertex 2.38312 -1.53483 -8.13209
    endloop
  endfacet
  facet normal 0.0434956 -0.947851 -0.315732
    outer loop
      vertex 2 -1.58205 -8.04332
      vertex 0 -1.27561 -9.2388
      vertex 2.0138 -1.5719 -8.07189
    endloop
  endfacet
  facet normal 0.0436999 -0.947738 -0.316044
    outer loop
      vertex 2 -1.59806 -7.99531
      vertex 0 -1.27561 -9.2388
      vertex 2 -1.58205 -8.04332
    endloop
  endfacet
  facet normal 0.0436192 -0.947781 -0.315926
    outer loop
      vertex 0 -1.27561 -9.2388
      vertex 2 -1.59806 -7.99531
      vertex 8.11794 -3.0796 -2.70598
    endloop
  endfacet
  facet normal 0.0436198 -0.947778 -0.315935
    outer loop
      vertex 19.5984 -1.27561 -6.53281
      vertex 15 -1.73729 -5.78269
      vertex 17.3518 -1.41257 -6.43212
    endloop
  endfacet
  facet normal 0.0436217 -0.947781 -0.315925
    outer loop
      vertex 15 -1.73729 -5.78269
      vertex 19.5984 -1.27561 -6.53281
      vertex 8.11794 -3.0796 -2.70598
    endloop
  endfacet
  facet normal 0.0436208 -0.947783 -0.315919
    outer loop
      vertex 19.5984 -1.27561 -6.53281
      vertex 17.3518 -1.41257 -6.43212
      vertex 17.5869 -1.27561 -6.81055
    endloop
  endfacet
  facet normal 0.626939 0 0.779069
    outer loop
      vertex 19.5984 1.27561 6.53281
      vertex 22.7475 -1.27561 3.99864
      vertex 22.7475 1.27561 3.99864
    endloop
  endfacet
  facet normal 0.626939 0 0.779069
    outer loop
      vertex 22.7475 -1.27561 3.99864
      vertex 19.5984 1.27561 6.53281
      vertex 19.5984 -1.27561 6.53281
    endloop
  endfacet
  facet normal -0.0436204 0.94778 -0.315927
    outer loop
      vertex 0 1.27561 -9.2388
      vertex -2.77864 3.0796 -3.44318
      vertex 0 3.0796 -3.82683
    endloop
  endfacet
  facet normal -0.0436194 0.947781 -0.315926
    outer loop
      vertex -2.77864 3.0796 -3.44318
      vertex 0 1.27561 -9.2388
      vertex -4.99025 2.38456 -5.22295
    endloop
  endfacet
  facet normal -0.0436194 -0.947781 -0.315926
    outer loop
      vertex 0 -1.27561 -9.2388
      vertex -2.77864 -3.0796 -3.44318
      vertex -4.99025 -2.38456 -5.22295
    endloop
  endfacet
  facet normal -0.0436204 -0.94778 -0.315927
    outer loop
      vertex -2.77864 -3.0796 -3.44318
      vertex 0 -1.27561 -9.2388
      vertex 0 -3.0796 -3.82683
    endloop
  endfacet
  facet normal 0.0436198 0.94778 0.315927
    outer loop
      vertex 7.64615 2.97476 3.08565
      vertex 0 3.0796 3.82683
      vertex 0 1.27561 9.2388
    endloop
  endfacet
  facet normal 0.0436193 0.947782 0.315921
    outer loop
      vertex 0 3.0796 3.82683
      vertex 7.64615 2.97476 3.08565
      vertex 7.85991 3.0796 2.74161
    endloop
  endfacet
  facet normal 0.0436202 -0.94778 -0.315927
    outer loop
      vertex 8.11794 -3.0796 -2.70598
      vertex 0 -3.0796 -3.82683
      vertex 0 -1.27561 -9.2388
    endloop
  endfacet
  facet normal 0.0436202 -0.94778 0.315927
    outer loop
      vertex 8.11794 -3.0796 2.70598
      vertex 0 -1.27561 9.2388
      vertex 0 -3.0796 3.82683
    endloop
  endfacet
  facet normal 0 1 -0
    outer loop
      vertex 1.5 3.0796 0
      vertex 0 3.0796 3.82683
      vertex 7.85991 3.0796 2.74161
    endloop
  endfacet
  facet normal 0 1 0
    outer loop
      vertex 1.5 3.0796 0
      vertex 7.85991 3.0796 2.74161
      vertex 8.08031 3.0796 2.38687
    endloop
  endfacet
  facet normal 0 1 -0
    outer loop
      vertex 8.11794 3.0796 -2.70598
      vertex 8.08031 3.0796 2.38687
      vertex 8.74129 3.0796 2.20435
    endloop
  endfacet
  facet normal 0 1 0
    outer loop
      vertex 8.11794 3.0796 -2.70598
      vertex 8.74129 3.0796 2.20435
      vertex 11.4805 3.0796 0
    endloop
  endfacet
  facet normal 0 1 0
    outer loop
      vertex 0 3.0796 3.82683
      vertex 1.5 3.0796 0
      vertex -2.77864 3.0796 3.44318
    endloop
  endfacet
  facet normal 0 1 0
    outer loop
      vertex 8.08031 3.0796 2.38687
      vertex 8.11794 3.0796 -2.70598
      vertex 1.5 3.0796 0
    endloop
  endfacet
  facet normal 0 1 0
    outer loop
      vertex 0 3.0796 -3.82683
      vertex 1.5 3.0796 0
      vertex 8.11794 3.0796 -2.70598
    endloop
  endfacet
  facet normal 0 1 0
    outer loop
      vertex 1.5 3.0796 0
      vertex 0 3.0796 -3.82683
      vertex -2.77864 3.0796 -3.44318
    endloop
  endfacet
  facet normal -0.136774 0 -0.990602
    outer loop
      vertex -15.7361 -1.27561 -7.0661
      vertex 0 1.27561 -9.2388
      vertex 0 -1.27561 -9.2388
    endloop
  endfacet
  facet normal -0.136774 0 -0.990602
    outer loop
      vertex 0 1.27561 -9.2388
      vertex -15.7361 -1.27561 -7.0661
      vertex -15.7361 1.27561 -7.0661
    endloop
  endfacet
  facet normal -0.136774 0 0.990602
    outer loop
      vertex -15.7361 1.27561 7.0661
      vertex 0 -1.27561 9.2388
      vertex 0 1.27561 9.2388
    endloop
  endfacet
  facet normal -0.136774 0 0.990602
    outer loop
      vertex 0 -1.27561 9.2388
      vertex -15.7361 1.27561 7.0661
      vertex -15.7361 -1.27561 7.0661
    endloop
  endfacet
  facet normal 0 -1 0
    outer loop
      vertex 0.303923 -3.0796 0.962529
      vertex 0 -3.0796 3.82683
      vertex -2.77864 -3.0796 3.44318
    endloop
  endfacet
  facet normal 0 -1 0
    outer loop
      vertex 5.88562 -3.0796 0
      vertex 0 -3.0796 3.82683
      vertex 0.303923 -3.0796 0.962529
    endloop
  endfacet
  facet normal 0 -1 0
    outer loop
      vertex 0 -3.0796 3.82683
      vertex 5.88562 -3.0796 0
      vertex 8.11794 -3.0796 2.70598
    endloop
  endfacet
  facet normal 0 -1 0
    outer loop
      vertex 8.11794 -3.0796 -2.70598
      vertex 8.11794 -3.0796 2.70598
      vertex 5.88562 -3.0796 0
    endloop
  endfacet
  facet normal 0 -1 0
    outer loop
      vertex 0 -3.0796 -3.82683
      vertex 5.88562 -3.0796 0
      vertex 0.303923 -3.0796 -0.962529
    endloop
  endfacet
  facet normal 0 -1 0
    outer loop
      vertex 8.11794 -3.0796 2.70598
      vertex 8.11794 -3.0796 -2.70598
      vertex 11.4805 -3.0796 0
    endloop
  endfacet
  facet normal 0 -1 0
    outer loop
      vertex 0 -3.0796 -3.82683
      vertex 0.303923 -3.0796 -0.962529
      vertex -2.77864 -3.0796 -3.44318
    endloop
  endfacet
  facet normal 0 -1 -0
    outer loop
      vertex 5.88562 -3.0796 0
      vertex 0 -3.0796 -3.82683
      vertex 8.11794 -3.0796 -2.70598
    endloop
  endfacet
  facet normal -0.136774 0 0.990602
    outer loop
      vertex -15.7361 1.27561 -7.0661
      vertex -5.52944 -2.21511 -5.65685
      vertex -5.52944 2.21511 -5.65685
    endloop
  endfacet
  facet normal -0.136774 0 0.990602
    outer loop
      vertex -5.52944 -2.21511 -5.65685
      vertex -15.7361 1.27561 -7.0661
      vertex -15.7361 -1.27561 -7.0661
    endloop
  endfacet
  facet normal -0.626943 0 0.779065
    outer loop
      vertex 1.5 3.0796 0
      vertex -0.743353 0.805312 -1.80531
      vertex 1.5 1.39286 0
    endloop
  endfacet
  facet normal -0.626944 -2.72066e-06 0.779064
    outer loop
      vertex -0.743353 0.805312 -1.80531
      vertex -2.77864 3.0796 -3.44318
      vertex -1.76309 -1 -2.62594
    endloop
  endfacet
  facet normal -0.626943 -2.71877e-07 0.779065
    outer loop
      vertex -2.77864 3.0796 -3.44318
      vertex -0.743353 0.805312 -1.80531
      vertex 1.5 3.0796 0
    endloop
  endfacet
  facet normal -0.626942 -6.71682e-07 0.779066
    outer loop
      vertex -0.743353 -2.80531 -1.80531
      vertex -2.77864 -3.0796 -3.44318
      vertex 0.303923 -3.0796 -0.962529
    endloop
  endfacet
  facet normal -0.626943 4.12398e-06 0.779065
    outer loop
      vertex -1.76309 -1 -2.62594
      vertex -2.77864 -3.0796 -3.44318
      vertex -0.743353 -2.80531 -1.80531
    endloop
  endfacet
  facet normal -0.626943 -2.34377e-06 0.779065
    outer loop
      vertex -4.99025 2.38456 -5.22295
      vertex -1.76309 -1 -2.62594
      vertex -2.77864 3.0796 -3.44318
    endloop
  endfacet
  facet normal -0.626942 0 0.779066
    outer loop
      vertex -4.99025 -2.38456 -5.22295
      vertex -1.76309 -1 -2.62594
      vertex -4.99025 2.38456 -5.22295
    endloop
  endfacet
  facet normal -0.626943 4.29793e-06 0.779065
    outer loop
      vertex -1.76309 -1 -2.62594
      vertex -4.99025 -2.38456 -5.22295
      vertex -2.77864 -3.0796 -3.44318
    endloop
  endfacet
  facet normal -0.626937 0 0.77907
    outer loop
      vertex -5.52944 2.21511 -5.65685
      vertex -4.99025 -2.38456 -5.22295
      vertex -4.99025 2.38456 -5.22295
    endloop
  endfacet
  facet normal -0.626937 0 0.77907
    outer loop
      vertex -4.99025 -2.38456 -5.22295
      vertex -5.52944 2.21511 -5.65685
      vertex -5.52944 -2.21511 -5.65685
    endloop
  endfacet
  facet normal -0.136774 0 -0.990602
    outer loop
      vertex -15.7361 -1.27561 7.0661
      vertex -5.52944 2.21511 5.65685
      vertex -5.52944 -2.21511 5.65685
    endloop
  endfacet
  facet normal -0.136774 0 -0.990602
    outer loop
      vertex -5.52944 2.21511 5.65685
      vertex -15.7361 -1.27561 7.0661
      vertex -15.7361 1.27561 7.0661
    endloop
  endfacet
  facet normal -0.626943 4.12398e-06 -0.779065
    outer loop
      vertex -0.743353 -2.80531 1.80531
      vertex -2.77864 -3.0796 3.44318
      vertex -1.76309 -1 2.62594
    endloop
  endfacet
  facet normal -0.626942 -6.71682e-07 -0.779066
    outer loop
      vertex -2.77864 -3.0796 3.44318
      vertex -0.743353 -2.80531 1.80531
      vertex 0.303923 -3.0796 0.962529
    endloop
  endfacet
  facet normal -0.626943 0 -0.779065
    outer loop
      vertex -0.743353 0.805312 1.80531
      vertex 1.5 3.0796 0
      vertex 1.5 1.39286 0
    endloop
  endfacet
  facet normal -0.626943 -2.71877e-07 -0.779065
    outer loop
      vertex -0.743353 0.805312 1.80531
      vertex -2.77864 3.0796 3.44318
      vertex 1.5 3.0796 0
    endloop
  endfacet
  facet normal -0.626944 -2.72066e-06 -0.779064
    outer loop
      vertex -1.76309 -1 2.62594
      vertex -2.77864 3.0796 3.44318
      vertex -0.743353 0.805312 1.80531
    endloop
  endfacet
  facet normal -0.626943 4.29793e-06 -0.779065
    outer loop
      vertex -4.99025 -2.38456 5.22295
      vertex -1.76309 -1 2.62594
      vertex -2.77864 -3.0796 3.44318
    endloop
  endfacet
  facet normal -0.626942 -0 -0.779066
    outer loop
      vertex -4.99025 2.38456 5.22295
      vertex -1.76309 -1 2.62594
      vertex -4.99025 -2.38456 5.22295
    endloop
  endfacet
  facet normal -0.626943 -2.34377e-06 -0.779065
    outer loop
      vertex -1.76309 -1 2.62594
      vertex -4.99025 2.38456 5.22295
      vertex -2.77864 3.0796 3.44318
    endloop
  endfacet
  facet normal -0.626937 0 -0.77907
    outer loop
      vertex -5.52944 -2.21511 5.65685
      vertex -4.99025 2.38456 5.22295
      vertex -4.99025 -2.38456 5.22295
    endloop
  endfacet
  facet normal -0.626937 0 -0.77907
    outer loop
      vertex -4.99025 2.38456 5.22295
      vertex -5.52944 -2.21511 5.65685
      vertex -5.52944 2.21511 5.65685
    endloop
  endfacet
  facet normal 0.136775 0 0.990602
    outer loop
      vertex 19.3934 1.71223 -3.53553
      vertex 22.7475 -1.27561 -3.99864
      vertex 22.7475 1.27561 -3.99864
    endloop
  endfacet
  facet normal 0.136775 0 0.990602
    outer loop
      vertex 22.7475 -1.27561 -3.99864
      vertex 19.3934 1.71223 -3.53553
      vertex 19.3934 -1.71223 -3.53553
    endloop
  endfacet
  facet normal 0.626946 0 0.779062
    outer loop
      vertex 16.8623 2.2747 -1.49864
      vertex 19.3934 -1.71223 -3.53553
      vertex 19.3934 1.71223 -3.53553
    endloop
  endfacet
  facet normal 0.626946 0 0.779062
    outer loop
      vertex 16.8623 2.2747 -1.49864
      vertex 16.8623 -2.2747 -1.49864
      vertex 19.3934 -1.71223 -3.53553
    endloop
  endfacet
  facet normal 0.626937 0 0.77907
    outer loop
      vertex 15 2.68854 0
      vertex 16.8623 -2.2747 -1.49864
      vertex 16.8623 2.2747 -1.49864
    endloop
  endfacet
  facet normal 0.626937 0 0.77907
    outer loop
      vertex 16.8623 -2.2747 -1.49864
      vertex 15 2.68854 0
      vertex 15 -2.68854 0
    endloop
  endfacet
  facet normal 0.136775 0 -0.990602
    outer loop
      vertex 19.3934 -1.71223 3.53553
      vertex 22.7475 1.27561 3.99864
      vertex 22.7475 -1.27561 3.99864
    endloop
  endfacet
  facet normal 0.136775 0 -0.990602
    outer loop
      vertex 22.7475 1.27561 3.99864
      vertex 19.3934 -1.71223 3.53553
      vertex 19.3934 1.71223 3.53553
    endloop
  endfacet
  facet normal 0.626946 0 -0.779062
    outer loop
      vertex 16.8623 -2.2747 1.49864
      vertex 19.3934 1.71223 3.53553
      vertex 19.3934 -1.71223 3.53553
    endloop
  endfacet
  facet normal 0.626946 0 -0.779062
    outer loop
      vertex 16.8623 -2.2747 1.49864
      vertex 16.8623 2.2747 1.49864
      vertex 19.3934 1.71223 3.53553
    endloop
  endfacet
  facet normal 0.626937 0 -0.77907
    outer loop
      vertex 15 -2.68854 0
      vertex 16.8623 2.2747 1.49864
      vertex 16.8623 -2.2747 1.49864
    endloop
  endfacet
  facet normal 0.626937 0 -0.77907
    outer loop
      vertex 16.8623 2.2747 1.49864
      vertex 15 -2.68854 0
      vertex 15 2.68854 0
    endloop
  endfacet
  facet normal 0.0658478 0.921874 0.381854
    outer loop
      vertex -7 2 0
      vertex -0.743353 0.805312 1.80531
      vertex 1.5 1.39286 0
    endloop
  endfacet
  facet normal 0.0658482 0.921874 0.381853
    outer loop
      vertex -0.743353 0.805312 1.80531
      vertex -7 2 0
      vertex -7 1.12132 2.12132
    endloop
  endfacet
  facet normal 0.0658486 -0.381856 -0.921873
    outer loop
      vertex -7 -3.12132 -2.12132
      vertex -1.76309 -1 -2.62594
      vertex -0.743353 -2.80531 -1.80531
    endloop
  endfacet
  facet normal 0.0658473 -0.381853 -0.921874
    outer loop
      vertex -1.76309 -1 -2.62594
      vertex -7 -3.12132 -2.12132
      vertex -7 -1 -3
    endloop
  endfacet
  facet normal 0.0658481 -0.921875 -0.381852
    outer loop
      vertex -7 -4 0
      vertex 0.303923 -3.0796 -0.962529
      vertex 5.88562 -3.0796 0
    endloop
  endfacet
  facet normal 0.0658474 -0.921873 -0.381856
    outer loop
      vertex -7 -4 0
      vertex -0.743353 -2.80531 -1.80531
      vertex 0.303923 -3.0796 -0.962529
    endloop
  endfacet
  facet normal 0.0658485 -0.921874 -0.381853
    outer loop
      vertex -0.743353 -2.80531 -1.80531
      vertex -7 -4 0
      vertex -7 -3.12132 -2.12132
    endloop
  endfacet
  facet normal 0.0658478 0.921874 -0.381854
    outer loop
      vertex -0.743353 0.805312 -1.80531
      vertex -7 2 0
      vertex 1.5 1.39286 0
    endloop
  endfacet
  facet normal 0.0658482 0.921874 -0.381853
    outer loop
      vertex -7 2 0
      vertex -0.743353 0.805312 -1.80531
      vertex -7 1.12132 -2.12132
    endloop
  endfacet
  facet normal 0.0658473 -0.381853 0.921874
    outer loop
      vertex -7 -3.12132 2.12132
      vertex -1.76309 -1 2.62594
      vertex -7 -1 3
    endloop
  endfacet
  facet normal 0.0658486 -0.381856 0.921873
    outer loop
      vertex -1.76309 -1 2.62594
      vertex -7 -3.12132 2.12132
      vertex -0.743353 -2.80531 1.80531
    endloop
  endfacet
  facet normal 0.0658473 0.381853 -0.921874
    outer loop
      vertex -7 1.12132 -2.12132
      vertex -1.76309 -1 -2.62594
      vertex -7 -1 -3
    endloop
  endfacet
  facet normal 0.0658485 0.381856 -0.921873
    outer loop
      vertex -1.76309 -1 -2.62594
      vertex -7 1.12132 -2.12132
      vertex -0.743353 0.805312 -1.80531
    endloop
  endfacet
  facet normal -1 0 0
    outer loop
      vertex -7 0.815398 -1.53206
      vertex -7 2 0
      vertex -7 1.12132 -2.12132
    endloop
  endfacet
  facet normal -1 -0 0
    outer loop
      vertex -7 2 0
      vertex -7 0.815398 -1.53206
      vertex -7 1.45 0
    endloop
  endfacet
  facet normal -1 0 0
    outer loop
      vertex -7 1.12132 -2.12132
      vertex -7 0.732411 -1.73241
      vertex -7 0.815398 -1.53206
    endloop
  endfacet
  facet normal -1 0 0
    outer loop
      vertex -7 1.12132 -2.12132
      vertex -7 0.532065 -1.8154
      vertex -7 0.732411 -1.73241
    endloop
  endfacet
  facet normal -1 0 0
    outer loop
      vertex -7 -1 -3
      vertex -7 0.532065 -1.8154
      vertex -7 1.12132 -2.12132
    endloop
  endfacet
  facet normal -1 0 0
    outer loop
      vertex -7 -1 -3
      vertex -7 -1 -2.45
      vertex -7 0.532065 -1.8154
    endloop
  endfacet
  facet normal -1 0 0
    outer loop
      vertex -7 -1 -3
      vertex -7 -2.53206 -1.8154
      vertex -7 -1 -2.45
    endloop
  endfacet
  facet normal -1 0 0
    outer loop
      vertex -7 -3.12132 -2.12132
      vertex -7 -2.53206 -1.8154
      vertex -7 -1 -3
    endloop
  endfacet
  facet normal -1 -0 0
    outer loop
      vertex -7 -2.53206 -1.8154
      vertex -7 -3.12132 -2.12132
      vertex -7 -2.73241 -1.73241
    endloop
  endfacet
  facet normal -1 0 0
    outer loop
      vertex -7 -3.12132 -2.12132
      vertex -7 -2.8154 -1.53206
      vertex -7 -2.73241 -1.73241
    endloop
  endfacet
  facet normal -1 0 0
    outer loop
      vertex -7 -4 0
      vertex -7 -2.8154 -1.53206
      vertex -7 -3.12132 -2.12132
    endloop
  endfacet
  facet normal -1 0 0
    outer loop
      vertex -7 -2.8154 -1.53206
      vertex -7 -4 0
      vertex -7 -3.45 0
    endloop
  endfacet
  facet normal -1 0 0
    outer loop
      vertex -7 0.815398 1.53206
      vertex -7 2 0
      vertex -7 1.45 0
    endloop
  endfacet
  facet normal -1 0 0
    outer loop
      vertex -7 2 0
      vertex -7 0.815398 1.53206
      vertex -7 1.12132 2.12132
    endloop
  endfacet
  facet normal -1 0 0
    outer loop
      vertex -7 0.732411 1.73241
      vertex -7 1.12132 2.12132
      vertex -7 0.815398 1.53206
    endloop
  endfacet
  facet normal -1 0 0
    outer loop
      vertex -7 0.532065 1.8154
      vertex -7 1.12132 2.12132
      vertex -7 0.732411 1.73241
    endloop
  endfacet
  facet normal -1 0 0
    outer loop
      vertex -7 -1 3
      vertex -7 0.532065 1.8154
      vertex -7 -1 2.45
    endloop
  endfacet
  facet normal -1 0 0
    outer loop
      vertex -7 0.532065 1.8154
      vertex -7 -1 3
      vertex -7 1.12132 2.12132
    endloop
  endfacet
  facet normal -1 0 0
    outer loop
      vertex -7 -2.53206 1.8154
      vertex -7 -1 3
      vertex -7 -1 2.45
    endloop
  endfacet
  facet normal -1 0 0
    outer loop
      vertex -7 -3.12132 2.12132
      vertex -7 -2.53206 1.8154
      vertex -7 -2.73241 1.73241
    endloop
  endfacet
  facet normal -1 0 0
    outer loop
      vertex -7 -2.53206 1.8154
      vertex -7 -3.12132 2.12132
      vertex -7 -1 3
    endloop
  endfacet
  facet normal -1 0 0
    outer loop
      vertex -7 -2.8154 1.53206
      vertex -7 -3.12132 2.12132
      vertex -7 -2.73241 1.73241
    endloop
  endfacet
  facet normal -1 0 0
    outer loop
      vertex -7 -4 0
      vertex -7 -2.8154 1.53206
      vertex -7 -3.45 0
    endloop
  endfacet
  facet normal -1 -0 0
    outer loop
      vertex -7 -2.8154 1.53206
      vertex -7 -4 0
      vertex -7 -3.12132 2.12132
    endloop
  endfacet
  facet normal 0.0658485 -0.921874 0.381853
    outer loop
      vertex -7 -4 0
      vertex -0.743353 -2.80531 1.80531
      vertex -7 -3.12132 2.12132
    endloop
  endfacet
  facet normal 0.0658474 -0.921873 0.381856
    outer loop
      vertex -0.743353 -2.80531 1.80531
      vertex -7 -4 0
      vertex 0.303923 -3.0796 0.962529
    endloop
  endfacet
  facet normal 0.0658481 -0.921875 0.381852
    outer loop
      vertex 0.303923 -3.0796 0.962529
      vertex -7 -4 0
      vertex 5.88562 -3.0796 0
    endloop
  endfacet
  facet normal 0.0658485 0.381856 0.921873
    outer loop
      vertex -7 1.12132 2.12132
      vertex -1.76309 -1 2.62594
      vertex -0.743353 0.805312 1.80531
    endloop
  endfacet
  facet normal 0.0658473 0.381853 0.921874
    outer loop
      vertex -1.76309 -1 2.62594
      vertex -7 1.12132 2.12132
      vertex -7 -1 3
    endloop
  endfacet
  facet normal -0.267095 0.890315 0.368781
    outer loop
      vertex -0.5 -1.5 0
      vertex -7 -2.8154 -1.53206
      vertex -7 -3.45 0
    endloop
  endfacet
  facet normal -0.267095 0.368781 0.890315
    outer loop
      vertex -0.5 -1 -0.5
      vertex -7 -1 -2.45
      vertex -7 -2.53206 -1.8154
    endloop
  endfacet
  facet normal -0.267095 -0.36878 -0.890316
    outer loop
      vertex -7 0.532065 1.8154
      vertex -0.5 -1 0.5
      vertex -7 -1 2.45
    endloop
  endfacet
  facet normal -0.267095 0.890315 -0.368781
    outer loop
      vertex -0.5 -1.5 0
      vertex -7 -3.45 0
      vertex -7 -2.8154 1.53206
    endloop
  endfacet
  facet normal -0.267095 -0.368782 -0.890315
    outer loop
      vertex -7 0.532065 1.8154
      vertex -0.5 -0.646447 0.353553
      vertex -0.5 -1 0.5
    endloop
  endfacet
  facet normal -0.267096 -0.368796 -0.890309
    outer loop
      vertex -0.5 -0.646447 0.353553
      vertex -7 0.532065 1.8154
      vertex -7 0.732411 1.73241
    endloop
  endfacet
  facet normal -0.267095 -0.36878 0.890316
    outer loop
      vertex -7 -1 -2.45
      vertex -0.5 -1 -0.5
      vertex -7 0.532065 -1.8154
    endloop
  endfacet
  facet normal -0.267094 -0.890315 -0.368782
    outer loop
      vertex -7 1.45 0
      vertex -0.5 -0.5 0
      vertex -7 0.815398 1.53206
    endloop
  endfacet
  facet normal -0.267094 -0.890315 0.368782
    outer loop
      vertex -7 0.815398 -1.53206
      vertex -0.5 -0.5 0
      vertex -7 1.45 0
    endloop
  endfacet
  facet normal -0.267095 -0.890315 0.368782
    outer loop
      vertex -7 0.815398 -1.53206
      vertex -0.5 -0.646447 -0.353553
      vertex -0.5 -0.5 0
    endloop
  endfacet
  facet normal -0.267094 -0.890316 0.368778
    outer loop
      vertex -0.5 -0.646447 -0.353553
      vertex -7 0.815398 -1.53206
      vertex -7 0.732411 -1.73241
    endloop
  endfacet
  facet normal -0.267096 -0.368796 0.890309
    outer loop
      vertex -7 0.532065 -1.8154
      vertex -0.5 -0.646447 -0.353553
      vertex -7 0.732411 -1.73241
    endloop
  endfacet
  facet normal -0.267095 -0.368782 0.890315
    outer loop
      vertex -0.5 -0.646447 -0.353553
      vertex -7 0.532065 -1.8154
      vertex -0.5 -1 -0.5
    endloop
  endfacet
  facet normal -0.267096 0.890311 -0.368789
    outer loop
      vertex -0.5 -1.35355 0.353553
      vertex -7 -2.8154 1.53206
      vertex -7 -2.73241 1.73241
    endloop
  endfacet
  facet normal -0.267096 0.890312 -0.368788
    outer loop
      vertex -7 -2.8154 1.53206
      vertex -0.5 -1.35355 0.353553
      vertex -0.5 -1.5 0
    endloop
  endfacet
  facet normal -0.267095 0.368781 -0.890315
    outer loop
      vertex -0.5 -1 0.5
      vertex -7 -2.53206 1.8154
      vertex -7 -1 2.45
    endloop
  endfacet
  facet normal -0.267095 0.368784 0.890314
    outer loop
      vertex -7 -2.53206 -1.8154
      vertex -0.5 -1.35355 -0.353553
      vertex -0.5 -1 -0.5
    endloop
  endfacet
  facet normal -0.267096 0.368789 0.890311
    outer loop
      vertex -0.5 -1.35355 -0.353553
      vertex -7 -2.53206 -1.8154
      vertex -7 -2.73241 -1.73241
    endloop
  endfacet
  facet normal -0.267096 0.368789 -0.890311
    outer loop
      vertex -7 -2.53206 1.8154
      vertex -0.5 -1.35355 0.353553
      vertex -7 -2.73241 1.73241
    endloop
  endfacet
  facet normal -0.267095 0.368784 -0.890314
    outer loop
      vertex -0.5 -1.35355 0.353553
      vertex -7 -2.53206 1.8154
      vertex -0.5 -1 0.5
    endloop
  endfacet
  facet normal -1 0 0
    outer loop
      vertex -0.5 -0.646447 -0.353553
      vertex -0.5 -0.646447 0.353553
      vertex -0.5 -0.5 0
    endloop
  endfacet
  facet normal -1 0 0
    outer loop
      vertex -0.5 -1 -0.5
      vertex -0.5 -0.646447 0.353553
      vertex -0.5 -0.646447 -0.353553
    endloop
  endfacet
  facet normal -1 0 0
    outer loop
      vertex -0.5 -1 -0.5
      vertex -0.5 -1 0.5
      vertex -0.5 -0.646447 0.353553
    endloop
  endfacet
  facet normal -1 0 0
    outer loop
      vertex -0.5 -1.35355 -0.353553
      vertex -0.5 -1 0.5
      vertex -0.5 -1 -0.5
    endloop
  endfacet
  facet normal -1 0 0
    outer loop
      vertex -0.5 -1.35355 -0.353553
      vertex -0.5 -1.35355 0.353553
      vertex -0.5 -1 0.5
    endloop
  endfacet
  facet normal -1 0 -0
    outer loop
      vertex -0.5 -1.35355 0.353553
      vertex -0.5 -1.35355 -0.353553
      vertex -0.5 -1.5 0
    endloop
  endfacet
  facet normal -0.267094 -0.890316 -0.368778
    outer loop
      vertex -7 0.815398 1.53206
      vertex -0.5 -0.646447 0.353553
      vertex -7 0.732411 1.73241
    endloop
  endfacet
  facet normal -0.267095 -0.890315 -0.368782
    outer loop
      vertex -0.5 -0.646447 0.353553
      vertex -7 0.815398 1.53206
      vertex -0.5 -0.5 0
    endloop
  endfacet
  facet normal -0.267096 0.890312 0.368788
    outer loop
      vertex -0.5 -1.35355 -0.353553
      vertex -7 -2.8154 -1.53206
      vertex -0.5 -1.5 0
    endloop
  endfacet
  facet normal -0.267096 0.890311 0.368789
    outer loop
      vertex -7 -2.8154 -1.53206
      vertex -0.5 -1.35355 -0.353553
      vertex -7 -2.73241 -1.73241
    endloop
  endfacet
  facet normal 0.402951 0.331722 -0.85299
    outer loop
      vertex -4.45833 1.815 7.00507
      vertex -9.06293 8.68098 7.5
      vertex -3.31802 1.7025 7.5
    endloop
  endfacet
  facet normal 0.402952 0.331723 -0.852989
    outer loop
      vertex -9.06293 8.68098 7.5
      vertex -4.45833 1.815 7.00507
      vertex -9.21546 8.52419 7.36697
    endloop
  endfacet
  facet normal -0.48876 -0.183107 -0.852986
    outer loop
      vertex -9.41563 1.43636 7.45652
      vertex -11.3237 7.53632 7.24039
      vertex -8.77022 1.60113 7.05133
    endloop
  endfacet
  facet normal -0.488734 -0.183099 -0.853003
    outer loop
      vertex -11.3237 7.53632 7.24039
      vertex -9.41563 1.43636 7.45652
      vertex -11.5378 7.53632 7.36306
    endloop
  endfacet
  facet normal 0.0684228 0.0873201 -0.993828
    outer loop
      vertex -6.66769 1.76863 6.83911
      vertex -9.36934 8.36602 7.23277
      vertex -4.48448 1.81758 6.99372
    endloop
  endfacet
  facet normal 0.0684307 0.0873233 -0.993827
    outer loop
      vertex -9.36934 8.36602 7.23277
      vertex -6.66769 1.76863 6.83911
      vertex -9.81442 8.04492 7.17391
    endloop
  endfacet
  facet normal 0.0684217 0.0873186 0.993828
    outer loop
      vertex -9.9336 8.23219 7.81784
      vertex -6.5379 1.32397 8.19102
      vertex -4.26728 1.48531 8.02052
    endloop
  endfacet
  facet normal 0.0682968 0.087258 0.993842
    outer loop
      vertex -9.95917 8.21644 7.82098
      vertex -6.5379 1.32397 8.19102
      vertex -9.9336 8.23219 7.81784
    endloop
  endfacet
  facet normal 0.0684217 0.0873192 0.993828
    outer loop
      vertex -6.5379 1.32397 8.19102
      vertex -9.95917 8.21644 7.82098
      vertex -10.3709 7.96293 7.8716
    endloop
  endfacet
  facet normal -0.109812 -0.0155895 -0.99383
    outer loop
      vertex -8.77022 1.60113 7.05133
      vertex -10.7564 7.53632 7.17769
      vertex -8.60412 1.61496 7.03276
    endloop
  endfacet
  facet normal -0.109841 -0.0155993 -0.993827
    outer loop
      vertex -10.7564 7.53632 7.17769
      vertex -8.77022 1.60113 7.05133
      vertex -11.3237 7.53632 7.24039
    endloop
  endfacet
  facet normal 0.402949 0.331721 0.852991
    outer loop
      vertex -9.06293 8.68098 7.5
      vertex -4.22776 1.48981 8.01247
      vertex -3.31802 1.7025 7.5
    endloop
  endfacet
  facet normal 0.402945 0.331718 0.852994
    outer loop
      vertex -4.22776 1.48981 8.01247
      vertex -9.06293 8.68098 7.5
      vertex -9.26773 8.59791 7.62905
    endloop
  endfacet
  facet normal 0.402954 0.331724 -0.852987
    outer loop
      vertex -4.48448 1.81758 6.99372
      vertex -9.21546 8.52419 7.36697
      vertex -4.45833 1.815 7.00507
    endloop
  endfacet
  facet normal 0.402941 0.331716 -0.852996
    outer loop
      vertex -9.21546 8.52419 7.36697
      vertex -4.48448 1.81758 6.99372
      vertex -9.36934 8.36602 7.23277
    endloop
  endfacet
  facet normal 0.0683901 0.0873032 -0.993831
    outer loop
      vertex -6.793 1.76582 6.83024
      vertex -9.81442 8.04492 7.17391
      vertex -6.66769 1.76863 6.83911
    endloop
  endfacet
  facet normal 0.0684085 0.0873119 -0.993829
    outer loop
      vertex -9.81442 8.04492 7.17391
      vertex -6.793 1.76582 6.83024
      vertex -10.2407 7.73739 7.11755
    endloop
  endfacet
  facet normal -0.109831 -0.0155952 -0.993828
    outer loop
      vertex -8.60412 1.61496 7.03276
      vertex -10.2407 7.73739 7.11755
      vertex -6.793 1.76582 6.83024
    endloop
  endfacet
  facet normal -0.109818 -0.0155917 -0.993829
    outer loop
      vertex -8.60412 1.61496 7.03276
      vertex -10.3854 7.64811 7.13494
      vertex -10.2407 7.73739 7.11755
    endloop
  endfacet
  facet normal -0.109835 -0.0155966 -0.993828
    outer loop
      vertex -8.60412 1.61496 7.03276
      vertex -10.5666 7.53632 7.15672
      vertex -10.3854 7.64811 7.13494
    endloop
  endfacet
  facet normal -0.109803 -0.0155861 -0.993831
    outer loop
      vertex -10.5666 7.53632 7.15672
      vertex -8.60412 1.61496 7.03276
      vertex -10.7564 7.53632 7.17769
    endloop
  endfacet
  facet normal 0.0685282 0.0873971 0.993814
    outer loop
      vertex -9.47853 8.5124 7.76189
      vertex -4.26728 1.48531 8.02052
      vertex -4.23816 1.48738 8.01833
    endloop
  endfacet
  facet normal 0.0684224 0.0873192 0.993828
    outer loop
      vertex -4.26728 1.48531 8.02052
      vertex -9.47853 8.5124 7.76189
      vertex -9.9336 8.23219 7.81784
    endloop
  endfacet
  facet normal 0.403058 0.331794 0.852911
    outer loop
      vertex -9.26773 8.59791 7.62905
      vertex -4.23816 1.48738 8.01833
      vertex -4.22776 1.48981 8.01247
    endloop
  endfacet
  facet normal 0.40296 0.331729 0.852982
    outer loop
      vertex -4.23816 1.48738 8.01833
      vertex -9.26773 8.59791 7.62905
      vertex -9.47853 8.5124 7.76189
    endloop
  endfacet
  facet normal -0.488703 -0.183089 -0.853023
    outer loop
      vertex -9.4849 1.41868 7.5
      vertex -11.5378 7.53632 7.36306
      vertex -9.41563 1.43636 7.45652
    endloop
  endfacet
  facet normal -0.488743 -0.183101 -0.852997
    outer loop
      vertex -11.5378 7.53632 7.36306
      vertex -9.4849 1.41868 7.5
      vertex -11.7768 7.53632 7.5
    endloop
  endfacet
  facet normal -0.488722 -0.18309 0.853011
    outer loop
      vertex -11.3237 7.53632 7.75961
      vertex -8.7126 1.31419 7.92009
      vertex -8.6427 1.30474 7.95811
    endloop
  endfacet
  facet normal -0.488771 -0.183111 0.852979
    outer loop
      vertex -8.7126 1.31419 7.92009
      vertex -11.3237 7.53632 7.75961
      vertex -11.5694 7.53632 7.61882
    endloop
  endfacet
  facet normal -0.488755 -0.183103 0.85299
    outer loop
      vertex -11.5694 7.53632 7.61882
      vertex -9.4849 1.41868 7.5
      vertex -8.7126 1.31419 7.92009
    endloop
  endfacet
  facet normal -0.4887 -0.183086 0.853025
    outer loop
      vertex -9.4849 1.41868 7.5
      vertex -11.5694 7.53632 7.61882
      vertex -11.7768 7.53632 7.5
    endloop
  endfacet
  facet normal -0.109822 -0.0155923 0.993829
    outer loop
      vertex -10.8033 7.66543 7.81915
      vertex -8.6427 1.30474 7.95811
      vertex -8.49186 1.30612 7.9748
    endloop
  endfacet
  facet normal -0.109827 -0.015594 0.993828
    outer loop
      vertex -11.132 7.53632 7.7808
      vertex -8.6427 1.30474 7.95811
      vertex -10.8033 7.66543 7.81915
    endloop
  endfacet
  facet normal -0.109855 -0.0156054 0.993825
    outer loop
      vertex -8.6427 1.30474 7.95811
      vertex -11.132 7.53632 7.7808
      vertex -11.3237 7.53632 7.75961
    endloop
  endfacet
  facet normal -0.109832 -0.0155954 0.993828
    outer loop
      vertex -10.3709 7.96293 7.8716
      vertex -8.49186 1.30612 7.9748
      vertex -6.5379 1.32397 8.19102
    endloop
  endfacet
  facet normal -0.109817 -0.0155911 0.99383
    outer loop
      vertex -10.7645 7.68069 7.82368
      vertex -8.49186 1.30612 7.9748
      vertex -10.3709 7.96293 7.8716
    endloop
  endfacet
  facet normal -0.109889 -0.015617 0.993821
    outer loop
      vertex -8.49186 1.30612 7.9748
      vertex -10.7645 7.68069 7.82368
      vertex -10.8033 7.66543 7.81915
    endloop
  endfacet
  facet normal -0.191647 0.693997 -0.694002
    outer loop
      vertex -12 11.0205 4.53632
      vertex -14.6131 11.0205 5.25792
      vertex -12 12.4637 5.97951
    endloop
  endfacet
  facet normal 0.191645 0.693998 -0.694003
    outer loop
      vertex -12 11.0205 4.53632
      vertex -12 12.4637 5.97951
      vertex -9.38687 11.0205 5.25792
    endloop
  endfacet
  facet normal -0.524427 0.786641 0.32584
    outer loop
      vertex -13.5307 12.4637 7
      vertex -15.6955 11.0205 7
      vertex -14.6131 11.0205 8.74208
    endloop
  endfacet
  facet normal 0.191645 0.693999 -0.694001
    outer loop
      vertex -9.38687 11.0205 5.25792
      vertex -12 12.4637 5.97951
      vertex -10.9176 12.4637 6.27841
    endloop
  endfacet
  facet normal 0.524444 0.786639 -0.325819
    outer loop
      vertex -9.38687 11.0205 5.25792
      vertex -10.9176 12.4637 6.27841
      vertex -10.4693 12.4637 7
    endloop
  endfacet
  facet normal 0.191638 -0.693994 0.694009
    outer loop
      vertex -10.8033 7.66543 7.81915
      vertex -9.38687 8.97951 8.74208
      vertex -12 7.53632 8.02049
    endloop
  endfacet
  facet normal 0.192039 -0.694202 0.69369
    outer loop
      vertex -9.38687 8.97951 8.74208
      vertex -10.8033 7.66543 7.81915
      vertex -10.7645 7.68069 7.82368
    endloop
  endfacet
  facet normal 0.191636 -0.694021 0.693981
    outer loop
      vertex -10.8033 7.66543 7.81915
      vertex -12 7.53632 8.02049
      vertex -11.132 7.53632 7.7808
    endloop
  endfacet
  facet normal 0.524425 0.786645 0.325836
    outer loop
      vertex -8.30448 11.0205 7
      vertex -10.4693 12.4637 7
      vertex -9.38687 11.0205 8.74208
    endloop
  endfacet
  facet normal 0.266181 0 -0.963923
    outer loop
      vertex -12 8.97951 4.53632
      vertex -9.38687 11.0205 5.25792
      vertex -9.38687 8.97951 5.25792
    endloop
  endfacet
  facet normal 0.266181 0 -0.963923
    outer loop
      vertex -9.38687 11.0205 5.25792
      vertex -12 8.97951 4.53632
      vertex -12 11.0205 4.53632
    endloop
  endfacet
  facet normal 0.8494 -0 0.52775
    outer loop
      vertex -9.38687 8.97951 8.74208
      vertex -8.30448 11.0205 7
      vertex -9.38687 11.0205 8.74208
    endloop
  endfacet
  facet normal 0.8494 0 0.52775
    outer loop
      vertex -8.30448 11.0205 7
      vertex -9.38687 8.97951 8.74208
      vertex -8.30448 8.97951 7
    endloop
  endfacet
  facet normal -0.266184 0 0.963922
    outer loop
      vertex -14.6131 11.0205 8.74208
      vertex -12 8.97951 9.46368
      vertex -12 11.0205 9.46368
    endloop
  endfacet
  facet normal -0.266184 0 0.963922
    outer loop
      vertex -12 8.97951 9.46368
      vertex -14.6131 11.0205 8.74208
      vertex -14.6131 8.97951 8.74208
    endloop
  endfacet
  facet normal -0.524427 0.786641 -0.32584
    outer loop
      vertex -14.6131 11.0205 5.25792
      vertex -15.6955 11.0205 7
      vertex -13.5307 12.4637 7
    endloop
  endfacet
  facet normal -0.524448 0.786635 -0.325822
    outer loop
      vertex -13.0824 12.4637 6.27841
      vertex -14.6131 11.0205 5.25792
      vertex -13.5307 12.4637 7
    endloop
  endfacet
  facet normal 0.52441 -0.786645 0.325858
    outer loop
      vertex -9.38687 8.97951 8.74208
      vertex -10.7645 7.68069 7.82368
      vertex -10.3709 7.96293 7.8716
    endloop
  endfacet
  facet normal 0.524414 -0.786645 0.325853
    outer loop
      vertex -9.38687 8.97951 8.74208
      vertex -10.3709 7.96293 7.8716
      vertex -9.95917 8.21644 7.82098
    endloop
  endfacet
  facet normal 0.524484 -0.786692 0.325627
    outer loop
      vertex -10.3854 7.64811 7.13494
      vertex -10.5666 7.53632 7.15672
      vertex -10.4693 7.53632 7
    endloop
  endfacet
  facet normal 0.524514 -0.786683 0.3256
    outer loop
      vertex -10.3854 7.64811 7.13494
      vertex -10.4693 7.53632 7
      vertex -10.2407 7.73739 7.11755
    endloop
  endfacet
  facet normal 0.524522 -0.786612 0.325759
    outer loop
      vertex -9.9336 8.23219 7.81784
      vertex -9.38687 8.97951 8.74208
      vertex -9.95917 8.21644 7.82098
    endloop
  endfacet
  facet normal 0.524435 -0.786639 0.325832
    outer loop
      vertex -9.47853 8.5124 7.76189
      vertex -9.38687 8.97951 8.74208
      vertex -9.9336 8.23219 7.81784
    endloop
  endfacet
  facet normal 0.524429 -0.786642 0.325834
    outer loop
      vertex -9.26773 8.59791 7.62905
      vertex -9.38687 8.97951 8.74208
      vertex -9.47853 8.5124 7.76189
    endloop
  endfacet
  facet normal 0.5244 -0.78666 0.325837
    outer loop
      vertex -9.06293 8.68098 7.5
      vertex -9.38687 8.97951 8.74208
      vertex -9.26773 8.59791 7.62905
    endloop
  endfacet
  facet normal 0.524473 -0.786679 0.325674
    outer loop
      vertex -10.4693 7.53632 7
      vertex -9.81442 8.04492 7.17391
      vertex -10.2407 7.73739 7.11755
    endloop
  endfacet
  facet normal 0.524434 -0.786663 0.325777
    outer loop
      vertex -8.30448 8.97951 7
      vertex -9.81442 8.04492 7.17391
      vertex -10.4693 7.53632 7
    endloop
  endfacet
  facet normal 0.524432 -0.786638 0.32584
    outer loop
      vertex -9.06293 8.68098 7.5
      vertex -8.30448 8.97951 7
      vertex -9.38687 8.97951 8.74208
    endloop
  endfacet
  facet normal 0.52443 -0.786641 0.325837
    outer loop
      vertex -9.21546 8.52419 7.36697
      vertex -8.30448 8.97951 7
      vertex -9.06293 8.68098 7.5
    endloop
  endfacet
  facet normal 0.524428 -0.786648 0.325821
    outer loop
      vertex -9.36934 8.36602 7.23277
      vertex -8.30448 8.97951 7
      vertex -9.21546 8.52419 7.36697
    endloop
  endfacet
  facet normal 0.524428 -0.786643 0.325835
    outer loop
      vertex -9.81442 8.04492 7.17391
      vertex -8.30448 8.97951 7
      vertex -9.36934 8.36602 7.23277
    endloop
  endfacet
  facet normal -0.191646 -0.694 -0.694
    outer loop
      vertex -12 7.53632 5.97951
      vertex -14.6131 8.97951 5.25792
      vertex -12 8.97951 4.53632
    endloop
  endfacet
  facet normal -0.849398 0 -0.527753
    outer loop
      vertex -14.6131 8.97951 5.25792
      vertex -15.6955 11.0205 7
      vertex -14.6131 11.0205 5.25792
    endloop
  endfacet
  facet normal -0.849398 -0 -0.527753
    outer loop
      vertex -15.6955 11.0205 7
      vertex -14.6131 8.97951 5.25792
      vertex -15.6955 8.97951 7
    endloop
  endfacet
  facet normal -0.191646 0.693997 0.694003
    outer loop
      vertex -13.0824 12.4637 7.72159
      vertex -14.6131 11.0205 8.74208
      vertex -12 12.4637 8.02049
    endloop
  endfacet
  facet normal -0.266184 0 -0.963922
    outer loop
      vertex -14.6131 8.97951 5.25792
      vertex -12 11.0205 4.53632
      vertex -12 8.97951 4.53632
    endloop
  endfacet
  facet normal -0.266184 0 -0.963922
    outer loop
      vertex -12 11.0205 4.53632
      vertex -14.6131 8.97951 5.25792
      vertex -14.6131 11.0205 5.25792
    endloop
  endfacet
  facet normal -0.849398 0 0.527753
    outer loop
      vertex -15.6955 8.97951 7
      vertex -14.6131 11.0205 8.74208
      vertex -15.6955 11.0205 7
    endloop
  endfacet
  facet normal -0.849398 0 0.527753
    outer loop
      vertex -14.6131 11.0205 8.74208
      vertex -15.6955 8.97951 7
      vertex -14.6131 8.97951 8.74208
    endloop
  endfacet
  facet normal 0.191644 -0.694 0.694
    outer loop
      vertex -9.38687 8.97951 8.74208
      vertex -12 8.97951 9.46368
      vertex -12 7.53632 8.02049
    endloop
  endfacet
  facet normal 0.524425 0.786645 -0.325836
    outer loop
      vertex -9.38687 11.0205 5.25792
      vertex -10.4693 12.4637 7
      vertex -8.30448 11.0205 7
    endloop
  endfacet
  facet normal 0.266181 0 0.963923
    outer loop
      vertex -12 11.0205 9.46368
      vertex -9.38687 8.97951 8.74208
      vertex -9.38687 11.0205 8.74208
    endloop
  endfacet
  facet normal 0.266181 0 0.963923
    outer loop
      vertex -9.38687 8.97951 8.74208
      vertex -12 11.0205 9.46368
      vertex -12 8.97951 9.46368
    endloop
  endfacet
  facet normal -0.191646 -0.694 0.694
    outer loop
      vertex -12 8.97951 9.46368
      vertex -14.6131 8.97951 8.74208
      vertex -12 7.53632 8.02049
    endloop
  endfacet
  facet normal -0.191645 -0.693999 -0.694001
    outer loop
      vertex -13.0824 7.53632 6.27841
      vertex -14.6131 8.97951 5.25792
      vertex -12 7.53632 5.97951
    endloop
  endfacet
  facet normal -0.191647 0.693997 0.694002
    outer loop
      vertex -12 12.4637 8.02049
      vertex -14.6131 11.0205 8.74208
      vertex -12 11.0205 9.46368
    endloop
  endfacet
  facet normal -0.524448 0.786635 0.325822
    outer loop
      vertex -13.5307 12.4637 7
      vertex -14.6131 11.0205 8.74208
      vertex -13.0824 12.4637 7.72159
    endloop
  endfacet
  facet normal -0.191646 0.693997 -0.694003
    outer loop
      vertex -12 12.4637 5.97951
      vertex -14.6131 11.0205 5.25792
      vertex -13.0824 12.4637 6.27841
    endloop
  endfacet
  facet normal 0.191645 0.693998 0.694003
    outer loop
      vertex -12 12.4637 8.02049
      vertex -12 11.0205 9.46368
      vertex -9.38687 11.0205 8.74208
    endloop
  endfacet
  facet normal -0.191645 -0.693999 0.694001
    outer loop
      vertex -12 7.53632 8.02049
      vertex -14.6131 8.97951 8.74208
      vertex -13.0824 7.53632 7.72159
    endloop
  endfacet
  facet normal -0.524425 -0.786643 0.325839
    outer loop
      vertex -14.6131 8.97951 8.74208
      vertex -15.6955 8.97951 7
      vertex -13.5307 7.53632 7
    endloop
  endfacet
  facet normal 0.191644 -0.694 -0.694
    outer loop
      vertex -9.38687 8.97951 5.25792
      vertex -12 7.53632 5.97951
      vertex -12 8.97951 4.53632
    endloop
  endfacet
  facet normal 0.8494 0 -0.52775
    outer loop
      vertex -8.30448 8.97951 7
      vertex -9.38687 11.0205 5.25792
      vertex -8.30448 11.0205 7
    endloop
  endfacet
  facet normal 0.8494 0 -0.52775
    outer loop
      vertex -9.38687 11.0205 5.25792
      vertex -8.30448 8.97951 7
      vertex -9.38687 8.97951 5.25792
    endloop
  endfacet
  facet normal 0.524423 -0.786647 -0.325834
    outer loop
      vertex -8.30448 8.97951 7
      vertex -10.4693 7.53632 7
      vertex -9.38687 8.97951 5.25792
    endloop
  endfacet
  facet normal 0 1 0
    outer loop
      vertex -12 12.4637 5.97951
      vertex -12 12.4637 8.02049
      vertex -10.9176 12.4637 7.72159
    endloop
  endfacet
  facet normal 0 1 0
    outer loop
      vertex -10.9176 12.4637 6.27841
      vertex -10.9176 12.4637 7.72159
      vertex -10.4693 12.4637 7
    endloop
  endfacet
  facet normal 0 1 0
    outer loop
      vertex -12 12.4637 8.02049
      vertex -12 12.4637 5.97951
      vertex -13.0824 12.4637 7.72159
    endloop
  endfacet
  facet normal 0 1 0
    outer loop
      vertex -10.9176 12.4637 7.72159
      vertex -10.9176 12.4637 6.27841
      vertex -12 12.4637 5.97951
    endloop
  endfacet
  facet normal -0 1 0
    outer loop
      vertex -13.0824 12.4637 6.27841
      vertex -13.0824 12.4637 7.72159
      vertex -12 12.4637 5.97951
    endloop
  endfacet
  facet normal 0 1 0
    outer loop
      vertex -13.0824 12.4637 7.72159
      vertex -13.0824 12.4637 6.27841
      vertex -13.5307 12.4637 7
    endloop
  endfacet
  facet normal 0.191645 0.693999 0.694001
    outer loop
      vertex -10.9176 12.4637 7.72159
      vertex -12 12.4637 8.02049
      vertex -9.38687 11.0205 8.74208
    endloop
  endfacet
  facet normal 0.524444 0.786639 0.325819
    outer loop
      vertex -10.4693 12.4637 7
      vertex -10.9176 12.4637 7.72159
      vertex -9.38687 11.0205 8.74208
    endloop
  endfacet
  facet normal -0.524446 -0.786637 -0.325821
    outer loop
      vertex -13.5307 7.53632 7
      vertex -14.6131 8.97951 5.25792
      vertex -13.0824 7.53632 6.27841
    endloop
  endfacet
  facet normal -0.524425 -0.786643 -0.325839
    outer loop
      vertex -13.5307 7.53632 7
      vertex -15.6955 8.97951 7
      vertex -14.6131 8.97951 5.25792
    endloop
  endfacet
  facet normal -0.524446 -0.786637 0.325821
    outer loop
      vertex -13.0824 7.53632 7.72159
      vertex -14.6131 8.97951 8.74208
      vertex -13.5307 7.53632 7
    endloop
  endfacet
  facet normal 0.191645 -0.694001 -0.693999
    outer loop
      vertex -10.9176 7.53632 6.27841
      vertex -12 7.53632 5.97951
      vertex -9.38687 8.97951 5.25792
    endloop
  endfacet
  facet normal 0.524441 -0.786641 -0.325818
    outer loop
      vertex -10.4693 7.53632 7
      vertex -10.9176 7.53632 6.27841
      vertex -9.38687 8.97951 5.25792
    endloop
  endfacet
  facet normal 0 -1 0
    outer loop
      vertex -12 7.53632 8.02049
      vertex -11.3237 7.53632 7.75961
      vertex -11.132 7.53632 7.7808
    endloop
  endfacet
  facet normal 0 -1 0
    outer loop
      vertex -11.7768 7.53632 7.5
      vertex -12 7.53632 8.02049
      vertex -13.0824 7.53632 7.72159
    endloop
  endfacet
  facet normal 0 -1 0
    outer loop
      vertex -12 7.53632 8.02049
      vertex -11.5694 7.53632 7.61882
      vertex -11.3237 7.53632 7.75961
    endloop
  endfacet
  facet normal 0 -1 0
    outer loop
      vertex -12 7.53632 8.02049
      vertex -11.7768 7.53632 7.5
      vertex -11.5694 7.53632 7.61882
    endloop
  endfacet
  facet normal 0 -1 0
    outer loop
      vertex -13.0824 7.53632 6.27841
      vertex -11.7768 7.53632 7.5
      vertex -13.0824 7.53632 7.72159
    endloop
  endfacet
  facet normal 0 -1 0
    outer loop
      vertex -12 7.53632 5.97951
      vertex -11.7768 7.53632 7.5
      vertex -13.0824 7.53632 6.27841
    endloop
  endfacet
  facet normal 0 -1 0
    outer loop
      vertex -10.9176 7.53632 6.27841
      vertex -10.7564 7.53632 7.17769
      vertex -11.3237 7.53632 7.24039
    endloop
  endfacet
  facet normal 0 -1 0
    outer loop
      vertex -13.0824 7.53632 6.27841
      vertex -13.0824 7.53632 7.72159
      vertex -13.5307 7.53632 7
    endloop
  endfacet
  facet normal 0 -1 -0
    outer loop
      vertex -11.7768 7.53632 7.5
      vertex -12 7.53632 5.97951
      vertex -11.5378 7.53632 7.36306
    endloop
  endfacet
  facet normal -0 -1 0
    outer loop
      vertex -10.9176 7.53632 6.27841
      vertex -11.3237 7.53632 7.24039
      vertex -12 7.53632 5.97951
    endloop
  endfacet
  facet normal 0 -1 -0
    outer loop
      vertex -11.5378 7.53632 7.36306
      vertex -12 7.53632 5.97951
      vertex -11.3237 7.53632 7.24039
    endloop
  endfacet
  facet normal -0 -1 0
    outer loop
      vertex -10.4693 7.53632 7
      vertex -10.7564 7.53632 7.17769
      vertex -10.9176 7.53632 6.27841
    endloop
  endfacet
  facet normal 0 -1 0
    outer loop
      vertex -10.7564 7.53632 7.17769
      vertex -10.4693 7.53632 7
      vertex -10.5666 7.53632 7.15672
    endloop
  endfacet
  facet normal -0.111378 -0.918315 0.379858
    outer loop
      vertex 2 -1.6 -8
      vertex 2.28824 -1.60631 -7.93074
      vertex 2 -1.59806 -7.99531
    endloop
  endfacet
  facet normal -0.111485 -0.918109 0.380325
    outer loop
      vertex 12.3274 -2.85405 -8
      vertex 2.28824 -1.60631 -7.93074
      vertex 2 -1.6 -8
    endloop
  endfacet
  facet normal -0.111472 -0.918011 0.380566
    outer loop
      vertex 2.28824 -1.60631 -7.93074
      vertex 12.3274 -2.85405 -8
      vertex 12.3274 -2.84636 -7.98145
    endloop
  endfacet
  facet normal -0.111487 -0.91812 -0.380298
    outer loop
      vertex 12.3274 -2.85405 -8
      vertex 2 -1.6 -8
      vertex 12.3274 -2.46514 -8.93891
    endloop
  endfacet
  facet normal -0.112302 -0.917988 -0.380376
    outer loop
      vertex 2.0138 -1.5719 -8.07189
      vertex 2 -1.6 -8
      vertex 2 -1.58205 -8.04332
    endloop
  endfacet
  facet normal -0.111485 -0.91813 -0.380275
    outer loop
      vertex 2.0138 -1.5719 -8.07189
      vertex 12.3274 -2.46514 -8.93891
      vertex 2 -1.6 -8
    endloop
  endfacet
  facet normal -0.111487 -0.918112 -0.380318
    outer loop
      vertex 12.3274 -2.46514 -8.93891
      vertex 2.0138 -1.5719 -8.07189
      vertex 12.3274 -2.45746 -8.95745
    endloop
  endfacet
  facet normal -0.111487 -0.918123 0.380291
    outer loop
      vertex 2.47795 -1.61175 -7.88825
      vertex 12.3274 -2.77931 -7.81957
      vertex 12.3274 -2.45746 -7.04254
    endloop
  endfacet
  facet normal -0.11149 -0.918147 0.380232
    outer loop
      vertex 12.3274 -2.84636 -7.98145
      vertex 2.47795 -1.61175 -7.88825
      vertex 2.28824 -1.60631 -7.93074
    endloop
  endfacet
  facet normal -0.111487 -0.918126 0.380284
    outer loop
      vertex 2.47795 -1.61175 -7.88825
      vertex 12.3274 -2.84636 -7.98145
      vertex 12.3274 -2.77931 -7.81957
    endloop
  endfacet
  facet normal -0.111489 0.918131 0.38027
    outer loop
      vertex 12.3274 -0.145954 -8
      vertex 9.22016 -0.53745 -7.96576
      vertex 12.3274 -0.153637 -7.98145
    endloop
  endfacet
  facet normal -0.111486 0.918109 0.380325
    outer loop
      vertex 9.22016 -0.53745 -7.96576
      vertex 12.3274 -0.145954 -8
      vertex 8.97215 -0.553382 -8
    endloop
  endfacet
  facet normal -0.111487 0.918121 -0.380296
    outer loop
      vertex 12.3274 -0.534861 -8.93891
      vertex 8.97215 -0.553382 -8
      vertex 12.3274 -0.145954 -8
    endloop
  endfacet
  facet normal -0.111487 0.918121 -0.380296
    outer loop
      vertex 8.97215 -0.553382 -8
      vertex 12.3274 -0.534861 -8.93891
      vertex 6.204 -1.04783 -8.3822
    endloop
  endfacet
  facet normal -0.111487 0.918122 0.380292
    outer loop
      vertex 12.3274 -0.220692 -7.81957
      vertex 9.22016 -0.53745 -7.96576
      vertex 12.3274 -0.337846 -7.53673
    endloop
  endfacet
  facet normal -0.111487 0.918116 0.380308
    outer loop
      vertex 9.22016 -0.53745 -7.96576
      vertex 12.3274 -0.220692 -7.81957
      vertex 12.3274 -0.153637 -7.98145
    endloop
  endfacet
  facet normal -1 0 0
    outer loop
      vertex 2 -1.6 -8
      vertex 2 -1.59806 -7.99531
      vertex 2 -1.58205 -8.04332
    endloop
  endfacet
  facet normal -0.111485 -0.380289 0.918124
    outer loop
      vertex 12.5132 -1.56283 -6.64943
      vertex 3.19094 -1.60827 -7.80023
      vertex 12.275 -2.41844 -7.03275
    endloop
  endfacet
  facet normal -0.111481 -0.380206 0.918159
    outer loop
      vertex 12.299 -2.43632 -7.03724
      vertex 12.275 -2.41844 -7.03275
      vertex 3.19094 -1.60827 -7.80023
    endloop
  endfacet
  facet normal -0.111496 0.918058 -0.380444
    outer loop
      vertex 12.3274 -0.542544 -8.95745
      vertex 6.204 -1.04783 -8.3822
      vertex 12.3274 -0.534861 -8.93891
    endloop
  endfacet
  facet normal -0.111481 0.918161 -0.380201
    outer loop
      vertex 6.204 -1.04783 -8.3822
      vertex 12.3274 -0.542544 -8.95745
      vertex 5.98306 -1.08729 -8.41271
    endloop
  endfacet
  facet normal -0.111468 -0.379965 0.91826
    outer loop
      vertex 3.19094 -1.60827 -7.80023
      vertex 12.3274 -2.45746 -7.04254
      vertex 12.299 -2.43632 -7.03724
    endloop
  endfacet
  facet normal -0.111487 -0.380303 0.918118
    outer loop
      vertex 12.3274 -2.45746 -7.04254
      vertex 3.19094 -1.60827 -7.80023
      vertex 2.47795 -1.61175 -7.88825
    endloop
  endfacet
  facet normal -0.111497 0.380098 -0.918201
    outer loop
      vertex 12.5307 -1.5 -9.37872
      vertex 3.55707 -1.43715 -8.26304
      vertex 12.5258 -1.48245 -9.37086
    endloop
  endfacet
  facet normal -0.111484 0.380316 -0.918113
    outer loop
      vertex 3.55707 -1.43715 -8.26304
      vertex 12.5307 -1.5 -9.37872
      vertex 2.7302 -1.5 -8.18867
    endloop
  endfacet
  facet normal -0.111486 0.380293 -0.918122
    outer loop
      vertex 12.5258 -1.48245 -9.37086
      vertex 5.98306 -1.08729 -8.41271
      vertex 12.275 -0.581559 -8.96725
    endloop
  endfacet
  facet normal -0.111487 0.380284 -0.918126
    outer loop
      vertex 12.5258 -1.48245 -9.37086
      vertex 5.68246 -1.27561 -8.45421
      vertex 5.98306 -1.08729 -8.41271
    endloop
  endfacet
  facet normal -0.111486 0.380298 -0.91812
    outer loop
      vertex 5.68246 -1.27561 -8.45421
      vertex 12.5258 -1.48245 -9.37086
      vertex 3.55707 -1.43715 -8.26304
    endloop
  endfacet
  facet normal -0.111488 0.38035 -0.918098
    outer loop
      vertex 12.3274 -0.542544 -8.95745
      vertex 12.275 -0.581559 -8.96725
      vertex 5.98306 -1.08729 -8.41271
    endloop
  endfacet
  facet normal -0.11148 -0.380205 -0.918159
    outer loop
      vertex 12.299 -2.43632 -8.96276
      vertex 2.7302 -1.5 -8.18867
      vertex 12.275 -2.41844 -8.96725
    endloop
  endfacet
  facet normal -0.111491 -0.380383 -0.918084
    outer loop
      vertex 2.7302 -1.5 -8.18867
      vertex 12.299 -2.43632 -8.96276
      vertex 2.38312 -1.53483 -8.13209
    endloop
  endfacet
  facet normal -0.111485 -0.38029 -0.918123
    outer loop
      vertex 12.5307 -1.5 -9.37872
      vertex 12.275 -2.41844 -8.96725
      vertex 2.7302 -1.5 -8.18867
    endloop
  endfacet
  facet normal -0.111492 -0.380387 -0.918082
    outer loop
      vertex 12.3274 -2.45746 -8.95745
      vertex 2.38312 -1.53483 -8.13209
      vertex 12.299 -2.43632 -8.96276
    endloop
  endfacet
  facet normal -0.111486 -0.380285 -0.918125
    outer loop
      vertex 2.38312 -1.53483 -8.13209
      vertex 12.3274 -2.45746 -8.95745
      vertex 2.0138 -1.5719 -8.07189
    endloop
  endfacet
  facet normal -0.524429 0.786644 0.32583
    outer loop
      vertex 13.6223 0.71731 -8
      vertex 12.3274 -0.220692 -7.81957
      vertex 14.0258 0.71731 -7.35056
    endloop
  endfacet
  facet normal -0.524425 0.78664 0.325847
    outer loop
      vertex 12.3274 -0.220692 -7.81957
      vertex 13.6223 0.71731 -8
      vertex 12.3274 -0.153637 -7.98145
    endloop
  endfacet
  facet normal -0.524431 0.78665 0.325813
    outer loop
      vertex 12.3274 -0.153637 -7.98145
      vertex 13.6223 0.71731 -8
      vertex 12.3274 -0.145954 -8
    endloop
  endfacet
  facet normal 0.191643 0.693998 -0.694003
    outer loop
      vertex 15 -0.581559 -10.2173
      vertex 15 0.71731 -8.91844
      vertex 17.3518 -0.581559 -9.56787
    endloop
  endfacet
  facet normal -0.191657 0.693892 0.694104
    outer loop
      vertex 14.3759 0.71731 -7.25389
      vertex 14.0258 0.71731 -7.35056
      vertex 14.0587 0.673511 -7.29769
    endloop
  endfacet
  facet normal 0.191634 0.693988 -0.694015
    outer loop
      vertex 17.3518 -0.581559 -9.56787
      vertex 15 0.71731 -8.91844
      vertex 15.9742 0.71731 -8.64944
    endloop
  endfacet
  facet normal 0.524442 0.786632 -0.325838
    outer loop
      vertex 17.3518 -0.581559 -9.56787
      vertex 15.9742 0.71731 -8.64944
      vertex 16.3777 0.71731 -8
    endloop
  endfacet
  facet normal -0.191631 -0.694002 0.694002
    outer loop
      vertex 15 -2.41844 -5.78269
      vertex 14.0258 -3.71731 -7.35056
      vertex 15 -3.71731 -7.08156
    endloop
  endfacet
  facet normal 0.52443 0.786643 0.325831
    outer loop
      vertex 16.3777 0.71731 -8
      vertex 15.9742 0.71731 -7.35056
      vertex 18.326 -0.581559 -8
    endloop
  endfacet
  facet normal 0.266179 0 -0.963923
    outer loop
      vertex 15 -2.41844 -10.2173
      vertex 17.3518 -0.581559 -9.56787
      vertex 17.3518 -2.41844 -9.56787
    endloop
  endfacet
  facet normal 0.266179 0 -0.963923
    outer loop
      vertex 17.3518 -0.581559 -9.56787
      vertex 15 -2.41844 -10.2173
      vertex 15 -0.581559 -10.2173
    endloop
  endfacet
  facet normal 0.524432 0.786625 0.325871
    outer loop
      vertex 18.326 -0.581559 -8
      vertex 16.5745 0.1513 -6.95033
      vertex 17.5869 -0.581559 -6.81055
    endloop
  endfacet
  facet normal 0.524431 0.786627 0.325869
    outer loop
      vertex 16.5745 0.1513 -6.95033
      vertex 18.326 -0.581559 -8
      vertex 15.9742 0.71731 -7.35056
    endloop
  endfacet
  facet normal -0.266179 0 0.963923
    outer loop
      vertex 12.6482 -2.41844 -6.43212
      vertex 15 -1.73729 -5.78269
      vertex 12.6482 -1.62905 -6.43212
    endloop
  endfacet
  facet normal -0.266179 0 0.963923
    outer loop
      vertex 15 -1.73729 -5.78269
      vertex 12.6482 -2.41844 -6.43212
      vertex 15 -2.41844 -5.78269
    endloop
  endfacet
  facet normal 0.524431 -0.786633 0.325854
    outer loop
      vertex 17.3518 -2.41844 -6.43212
      vertex 15.9742 -3.71731 -7.35056
      vertex 18.326 -2.41844 -8
    endloop
  endfacet
  facet normal 0.52443 -0.786643 0.325831
    outer loop
      vertex 18.326 -2.41844 -8
      vertex 15.9742 -3.71731 -7.35056
      vertex 16.3777 -3.71731 -8
    endloop
  endfacet
  facet normal -0.849386 -1.29411e-05 -0.527773
    outer loop
      vertex 12.6482 -0.581559 -9.56787
      vertex 12.5258 -1.48245 -9.37086
      vertex 12.275 -0.581559 -8.96725
    endloop
  endfacet
  facet normal -0.848869 -0.000264604 -0.528603
    outer loop
      vertex 12.6482 -0.581559 -9.56787
      vertex 12.5307 -1.5 -9.37872
      vertex 12.5258 -1.48245 -9.37086
    endloop
  endfacet
  facet normal -0.849446 0 -0.527676
    outer loop
      vertex 12.6482 -2.41844 -9.56787
      vertex 12.5307 -1.5 -9.37872
      vertex 12.6482 -0.581559 -9.56787
    endloop
  endfacet
  facet normal -0.849386 2.7608e-05 -0.527773
    outer loop
      vertex 12.5307 -1.5 -9.37872
      vertex 12.6482 -2.41844 -9.56787
      vertex 12.275 -2.41844 -8.96725
    endloop
  endfacet
  facet normal -0.524447 0.786421 0.326339
    outer loop
      vertex 12.3274 -0.220692 -7.81957
      vertex 13.9658 0.660682 -7.31052
      vertex 14.0258 0.71731 -7.35056
    endloop
  endfacet
  facet normal -0.524415 0.786651 0.325836
    outer loop
      vertex 13.9658 0.660682 -7.31052
      vertex 12.3274 -0.220692 -7.81957
      vertex 12.3274 -0.337846 -7.53673
    endloop
  endfacet
  facet normal -0.266179 0 -0.963923
    outer loop
      vertex 12.6482 -2.41844 -9.56787
      vertex 15 -0.581559 -10.2173
      vertex 15 -2.41844 -10.2173
    endloop
  endfacet
  facet normal -0.266179 0 -0.963923
    outer loop
      vertex 15 -0.581559 -10.2173
      vertex 12.6482 -2.41844 -9.56787
      vertex 12.6482 -0.581559 -9.56787
    endloop
  endfacet
  facet normal -0.191644 0.693993 -0.694007
    outer loop
      vertex 15 -0.581559 -10.2173
      vertex 12.6482 -0.581559 -9.56787
      vertex 14.0258 0.71731 -8.64944
    endloop
  endfacet
  facet normal -0.191682 0.69388 0.69411
    outer loop
      vertex 14.0258 0.71731 -7.35056
      vertex 13.9658 0.660682 -7.31052
      vertex 14.0587 0.673511 -7.29769
    endloop
  endfacet
  facet normal 0.849377 -0 0.527786
    outer loop
      vertex 17.5869 -1.27561 -6.81055
      vertex 18.326 -0.581559 -8
      vertex 17.5869 -0.581559 -6.81055
    endloop
  endfacet
  facet normal 0.849426 -0 0.527707
    outer loop
      vertex 17.3518 -2.41844 -6.43212
      vertex 17.5869 -1.27561 -6.81055
      vertex 17.3518 -1.41257 -6.43212
    endloop
  endfacet
  facet normal 0.849389 2.74553e-05 0.527767
    outer loop
      vertex 18.326 -2.41844 -8
      vertex 17.5869 -1.27561 -6.81055
      vertex 17.3518 -2.41844 -6.43212
    endloop
  endfacet
  facet normal 0.849377 0 0.527786
    outer loop
      vertex 17.5869 -1.27561 -6.81055
      vertex 18.326 -2.41844 -8
      vertex 18.326 -0.581559 -8
    endloop
  endfacet
  facet normal -0.84939 2.48616e-05 0.527766
    outer loop
      vertex 12.6482 -2.41844 -6.43212
      vertex 12.5132 -1.56283 -6.64943
      vertex 12.275 -2.41844 -7.03275
    endloop
  endfacet
  facet normal -0.849434 0 0.527696
    outer loop
      vertex 12.5132 -1.56283 -6.64943
      vertex 12.6482 -2.41844 -6.43212
      vertex 12.6482 -1.62905 -6.43212
    endloop
  endfacet
  facet normal -0.524425 -0.786643 -0.325839
    outer loop
      vertex 12.3274 -2.46514 -8.93891
      vertex 13.6223 -3.71731 -8
      vertex 12.3274 -2.85405 -8
    endloop
  endfacet
  facet normal -0.524377 -0.786663 -0.325867
    outer loop
      vertex 12.6482 -2.41844 -9.56787
      vertex 12.3274 -2.46514 -8.93891
      vertex 12.3274 -2.45746 -8.95745
    endloop
  endfacet
  facet normal -0.524399 -0.786645 -0.325877
    outer loop
      vertex 12.3274 -2.46514 -8.93891
      vertex 12.6482 -2.41844 -9.56787
      vertex 13.6223 -3.71731 -8
    endloop
  endfacet
  facet normal -0.524528 -0.786534 -0.325938
    outer loop
      vertex 12.299 -2.43632 -8.96276
      vertex 12.6482 -2.41844 -9.56787
      vertex 12.3274 -2.45746 -8.95745
    endloop
  endfacet
  facet normal -0.524789 -0.7863 -0.326082
    outer loop
      vertex 12.6482 -2.41844 -9.56787
      vertex 12.299 -2.43632 -8.96276
      vertex 12.275 -2.41844 -8.96725
    endloop
  endfacet
  facet normal 0.524426 0.786637 -0.325853
    outer loop
      vertex 17.3518 -0.581559 -9.56787
      vertex 16.3777 0.71731 -8
      vertex 18.326 -0.581559 -8
    endloop
  endfacet
  facet normal 0.266179 0 0.963923
    outer loop
      vertex 15 -1.73729 -5.78269
      vertex 17.3518 -2.41844 -6.43212
      vertex 17.3518 -1.41257 -6.43212
    endloop
  endfacet
  facet normal 0.266179 0 0.963923
    outer loop
      vertex 17.3518 -2.41844 -6.43212
      vertex 15 -1.73729 -5.78269
      vertex 15 -2.41844 -5.78269
    endloop
  endfacet
  facet normal -0.191644 -0.693996 0.694005
    outer loop
      vertex 15 -2.41844 -5.78269
      vertex 12.6482 -2.41844 -6.43212
      vertex 14.0258 -3.71731 -7.35056
    endloop
  endfacet
  facet normal -0.191631 0.694 -0.694004
    outer loop
      vertex 15 -0.581559 -10.2173
      vertex 14.0258 0.71731 -8.64944
      vertex 15 0.71731 -8.91844
    endloop
  endfacet
  facet normal 0.19163 0.693985 0.694019
    outer loop
      vertex 15.9742 0.71731 -7.35056
      vertex 15.208 0.71731 -7.139
      vertex 16.5745 0.1513 -6.95033
    endloop
  endfacet
  facet normal 0 1 -0
    outer loop
      vertex 15.9742 0.71731 -8.64944
      vertex 15.208 0.71731 -7.139
      vertex 15.9742 0.71731 -7.35056
    endloop
  endfacet
  facet normal 0 1 0
    outer loop
      vertex 15.208 0.71731 -7.139
      vertex 15 0.71731 -8.91844
      vertex 14.3759 0.71731 -7.25389
    endloop
  endfacet
  facet normal 0 1 0
    outer loop
      vertex 15.9742 0.71731 -8.64944
      vertex 15.9742 0.71731 -7.35056
      vertex 16.3777 0.71731 -8
    endloop
  endfacet
  facet normal -0 1 0
    outer loop
      vertex 14.0258 0.71731 -8.64944
      vertex 14.3759 0.71731 -7.25389
      vertex 15 0.71731 -8.91844
    endloop
  endfacet
  facet normal 0 1 0
    outer loop
      vertex 15.208 0.71731 -7.139
      vertex 15.9742 0.71731 -8.64944
      vertex 15 0.71731 -8.91844
    endloop
  endfacet
  facet normal 0 1 0
    outer loop
      vertex 14.3759 0.71731 -7.25389
      vertex 14.0258 0.71731 -8.64944
      vertex 14.0258 0.71731 -7.35056
    endloop
  endfacet
  facet normal 0 1 0
    outer loop
      vertex 14.0258 0.71731 -7.35056
      vertex 14.0258 0.71731 -8.64944
      vertex 13.6223 0.71731 -8
    endloop
  endfacet
  facet normal 0.191642 -0.694 0.694
    outer loop
      vertex 17.3518 -2.41844 -6.43212
      vertex 15 -2.41844 -5.78269
      vertex 15 -3.71731 -7.08156
    endloop
  endfacet
  facet normal -0.52479 -0.786301 0.326077
    outer loop
      vertex 12.299 -2.43632 -7.03724
      vertex 12.6482 -2.41844 -6.43212
      vertex 12.275 -2.41844 -7.03275
    endloop
  endfacet
  facet normal -0.524594 -0.786476 0.325969
    outer loop
      vertex 12.3274 -2.45746 -7.04254
      vertex 12.6482 -2.41844 -6.43212
      vertex 12.299 -2.43632 -7.03724
    endloop
  endfacet
  facet normal -0.524412 -0.786633 0.325883
    outer loop
      vertex 12.3274 -2.45746 -7.04254
      vertex 14.0258 -3.71731 -7.35056
      vertex 12.6482 -2.41844 -6.43212
    endloop
  endfacet
  facet normal -0.524429 -0.786643 0.325832
    outer loop
      vertex 14.0258 -3.71731 -7.35056
      vertex 12.3274 -2.45746 -7.04254
      vertex 12.3274 -2.77931 -7.81957
    endloop
  endfacet
  facet normal 0.191634 -0.693991 0.694013
    outer loop
      vertex 17.3518 -2.41844 -6.43212
      vertex 15 -3.71731 -7.08156
      vertex 15.9742 -3.71731 -7.35056
    endloop
  endfacet
  facet normal -0.191644 -0.693993 -0.694007
    outer loop
      vertex 14.0258 -3.71731 -8.64944
      vertex 12.6482 -2.41844 -9.56787
      vertex 15 -2.41844 -10.2173
    endloop
  endfacet
  facet normal 0.849388 0 -0.527769
    outer loop
      vertex 18.326 -2.41844 -8
      vertex 17.3518 -0.581559 -9.56787
      vertex 18.326 -0.581559 -8
    endloop
  endfacet
  facet normal 0.849388 0 -0.527769
    outer loop
      vertex 17.3518 -0.581559 -9.56787
      vertex 18.326 -2.41844 -8
      vertex 17.3518 -2.41844 -9.56787
    endloop
  endfacet
  facet normal 0.524426 -0.786637 -0.325853
    outer loop
      vertex 18.326 -2.41844 -8
      vertex 16.3777 -3.71731 -8
      vertex 17.3518 -2.41844 -9.56787
    endloop
  endfacet
  facet normal -0.524442 0.786632 -0.325838
    outer loop
      vertex 14.0258 0.71731 -8.64944
      vertex 12.6482 -0.581559 -9.56787
      vertex 13.6223 0.71731 -8
    endloop
  endfacet
  facet normal -0.524427 0.786643 -0.325836
    outer loop
      vertex 13.6223 0.71731 -8
      vertex 12.3274 -0.534861 -8.93891
      vertex 12.3274 -0.145954 -8
    endloop
  endfacet
  facet normal -0.5244 0.786645 -0.325875
    outer loop
      vertex 12.6482 -0.581559 -9.56787
      vertex 12.3274 -0.534861 -8.93891
      vertex 13.6223 0.71731 -8
    endloop
  endfacet
  facet normal -0.524609 0.786467 -0.32597
    outer loop
      vertex 12.3274 -0.542544 -8.95745
      vertex 12.6482 -0.581559 -9.56787
      vertex 12.275 -0.581559 -8.96725
    endloop
  endfacet
  facet normal -0.52454 0.786526 -0.325937
    outer loop
      vertex 12.3274 -0.534861 -8.93891
      vertex 12.6482 -0.581559 -9.56787
      vertex 12.3274 -0.542544 -8.95745
    endloop
  endfacet
  facet normal -0.191631 -0.693999 -0.694005
    outer loop
      vertex 15 -3.71731 -8.91844
      vertex 14.0258 -3.71731 -8.64944
      vertex 15 -2.41844 -10.2173
    endloop
  endfacet
  facet normal -0.52443 -0.786645 0.325825
    outer loop
      vertex 13.6223 -3.71731 -8
      vertex 12.3274 -2.77931 -7.81957
      vertex 12.3274 -2.84636 -7.98145
    endloop
  endfacet
  facet normal -0.524379 -0.786575 0.326079
    outer loop
      vertex 13.6223 -3.71731 -8
      vertex 12.3274 -2.84636 -7.98145
      vertex 12.3274 -2.85405 -8
    endloop
  endfacet
  facet normal -0.524429 -0.786644 0.32583
    outer loop
      vertex 12.3274 -2.77931 -7.81957
      vertex 13.6223 -3.71731 -8
      vertex 14.0258 -3.71731 -7.35056
    endloop
  endfacet
  facet normal -0.524443 -0.786632 -0.325839
    outer loop
      vertex 13.6223 -3.71731 -8
      vertex 12.6482 -2.41844 -9.56787
      vertex 14.0258 -3.71731 -8.64944
    endloop
  endfacet
  facet normal 0 -1 0
    outer loop
      vertex 15 -3.71731 -8.91844
      vertex 15 -3.71731 -7.08156
      vertex 14.0258 -3.71731 -7.35056
    endloop
  endfacet
  facet normal 0 -1 0
    outer loop
      vertex 14.0258 -3.71731 -8.64944
      vertex 14.0258 -3.71731 -7.35056
      vertex 13.6223 -3.71731 -8
    endloop
  endfacet
  facet normal 0 -1 0
    outer loop
      vertex 15 -3.71731 -7.08156
      vertex 15 -3.71731 -8.91844
      vertex 15.9742 -3.71731 -7.35056
    endloop
  endfacet
  facet normal 0 -1 0
    outer loop
      vertex 14.0258 -3.71731 -7.35056
      vertex 14.0258 -3.71731 -8.64944
      vertex 15 -3.71731 -8.91844
    endloop
  endfacet
  facet normal -0 -1 0
    outer loop
      vertex 15.9742 -3.71731 -8.64944
      vertex 15.9742 -3.71731 -7.35056
      vertex 15 -3.71731 -8.91844
    endloop
  endfacet
  facet normal 0 -1 0
    outer loop
      vertex 15.9742 -3.71731 -7.35056
      vertex 15.9742 -3.71731 -8.64944
      vertex 16.3777 -3.71731 -8
    endloop
  endfacet
  facet normal 0.191643 -0.693998 -0.694003
    outer loop
      vertex 17.3518 -2.41844 -9.56787
      vertex 15 -3.71731 -8.91844
      vertex 15 -2.41844 -10.2173
    endloop
  endfacet
  facet normal 0.191634 -0.693988 -0.694015
    outer loop
      vertex 15.9742 -3.71731 -8.64944
      vertex 15 -3.71731 -8.91844
      vertex 17.3518 -2.41844 -9.56787
    endloop
  endfacet
  facet normal 0.524443 -0.786632 -0.325839
    outer loop
      vertex 16.3777 -3.71731 -8
      vertex 15.9742 -3.71731 -8.64944
      vertex 17.3518 -2.41844 -9.56787
    endloop
  endfacet
  facet normal 0.266177 0 -0.963924
    outer loop
      vertex 14.0895 2.52993 1.88148
      vertex 15.9197 3.63073 2.38687
      vertex 15.9197 2.2568 2.38687
    endloop
  endfacet
  facet normal 0.26618 0 -0.963923
    outer loop
      vertex 12 3.63073 1.30448
      vertex 14.0895 2.52993 1.88148
      vertex 12 2.84177 1.30448
    endloop
  endfacet
  facet normal 0.266179 -2.90307e-06 -0.963924
    outer loop
      vertex 14.0895 2.52993 1.88148
      vertex 12 3.63073 1.30448
      vertex 15.9197 3.63073 2.38687
    endloop
  endfacet
  facet normal 0.524427 0.786641 -0.325839
    outer loop
      vertex 15.9197 3.63073 2.38687
      vertex 13.6236 5.79552 3.91761
      vertex 17.5433 3.63073 5
    endloop
  endfacet
  facet normal -0.524429 0.786643 -0.325833
    outer loop
      vertex 10.3764 5.79552 3.91761
      vertex 6.45672 3.63073 5
      vertex 9.7039 5.79552 5
    endloop
  endfacet
  facet normal 0.524427 0.786644 -0.325832
    outer loop
      vertex 17.5433 3.63073 5
      vertex 13.6236 5.79552 3.91761
      vertex 14.2961 5.79552 5
    endloop
  endfacet
  facet normal -0.191641 0.694001 -0.694001
    outer loop
      vertex 12 3.63073 1.30448
      vertex 10.3764 5.79552 3.91761
      vertex 12 5.79552 3.46927
    endloop
  endfacet
  facet normal -0.191643 0.694 0.694001
    outer loop
      vertex 10.3764 5.79552 6.08239
      vertex 8.08031 3.63073 7.61313
      vertex 12 3.63073 8.69552
    endloop
  endfacet
  facet normal 0.191645 -0.694001 0.693999
    outer loop
      vertex 14.5378 -0.193909 7.23154
      vertex 12 0.569265 8.69552
      vertex 12 -0.544311 7.58194
    endloop
  endfacet
  facet normal 0.19164 -0.694008 0.693994
    outer loop
      vertex 12 0.569265 8.69552
      vertex 14.5378 -0.193909 7.23154
      vertex 15.9197 0.569265 7.61313
    endloop
  endfacet
  facet normal -0.191652 -0.694 0.693998
    outer loop
      vertex 12 0.569265 8.69552
      vertex 11.3628 -0.280365 7.66992
      vertex 12 -0.544311 7.58194
    endloop
  endfacet
  facet normal -0.524429 0.78664 -0.325839
    outer loop
      vertex 8.08031 3.63073 2.38687
      vertex 6.45672 3.63073 5
      vertex 10.3764 5.79552 3.91761
    endloop
  endfacet
  facet normal 0.191642 0.694 -0.694
    outer loop
      vertex 12 3.63073 1.30448
      vertex 12 5.79552 3.46927
      vertex 15.9197 3.63073 2.38687
    endloop
  endfacet
  facet normal 0.191641 0.694 -0.694002
    outer loop
      vertex 15.9197 3.63073 2.38687
      vertex 12 5.79552 3.46927
      vertex 13.6236 5.79552 3.91761
    endloop
  endfacet
  facet normal 0.191641 0.694 0.694002
    outer loop
      vertex 13.6236 5.79552 6.08239
      vertex 12 5.79552 6.53073
      vertex 15.9197 3.63073 7.61313
    endloop
  endfacet
  facet normal -0.191641 0.694001 0.694001
    outer loop
      vertex 12 5.79552 6.53073
      vertex 10.3764 5.79552 6.08239
      vertex 12 3.63073 8.69552
    endloop
  endfacet
  facet normal -0.191643 0.694 -0.694001
    outer loop
      vertex 12 3.63073 1.30448
      vertex 8.08031 3.63073 2.38687
      vertex 10.3764 5.79552 3.91761
    endloop
  endfacet
  facet normal 0.849399 0 -0.527752
    outer loop
      vertex 17.5433 3.63073 5
      vertex 15.9197 2.2568 2.38687
      vertex 15.9197 3.63073 2.38687
    endloop
  endfacet
  facet normal 0.849399 0 -0.527752
    outer loop
      vertex 15.9197 2.2568 2.38687
      vertex 17.5433 3.63073 5
      vertex 17.5433 1.7156 5
    endloop
  endfacet
  facet normal -0.524429 0.78664 0.325839
    outer loop
      vertex 10.3764 5.79552 6.08239
      vertex 6.45672 3.63073 5
      vertex 8.08031 3.63073 7.61313
    endloop
  endfacet
  facet normal -0.266182 0 0.963923
    outer loop
      vertex 12 3.63073 8.69552
      vertex 9.31159 1.27561 7.95313
      vertex 12 0.569265 8.69552
    endloop
  endfacet
  facet normal -0.26618 -3.19095e-06 0.963923
    outer loop
      vertex 8.08031 3.63073 7.61313
      vertex 9.31159 1.27561 7.95313
      vertex 12 3.63073 8.69552
    endloop
  endfacet
  facet normal -0.266174 0 0.963925
    outer loop
      vertex 9.31159 1.27561 7.95313
      vertex 8.08031 3.63073 7.61313
      vertex 8.08031 1.44561 7.61313
    endloop
  endfacet
  facet normal -0.266182 0 0.963923
    outer loop
      vertex 12 0.569265 8.69552
      vertex 9.31159 1.27561 7.95313
      vertex 9.31159 0.569265 7.95313
    endloop
  endfacet
  facet normal -0.849408 0 -0.527737
    outer loop
      vertex 7.85991 3.0796 2.74161
      vertex 8.08031 3.63073 2.38687
      vertex 8.08031 3.0796 2.38687
    endloop
  endfacet
  facet normal -0.849397 -1.56394e-05 -0.527755
    outer loop
      vertex 7.64615 2.97476 3.08565
      vertex 8.08031 3.63073 2.38687
      vertex 7.85991 3.0796 2.74161
    endloop
  endfacet
  facet normal -0.8494 -7.77948e-06 -0.527749
    outer loop
      vertex 8.08031 3.63073 2.38687
      vertex 7.64615 2.97476 3.08565
      vertex 6.45672 3.63073 5
    endloop
  endfacet
  facet normal -0.849399 -0 -0.527751
    outer loop
      vertex 6.45672 3.63073 5
      vertex 7.64615 2.97476 3.08565
      vertex 6.45672 2.39138 5
    endloop
  endfacet
  facet normal 0 1 0
    outer loop
      vertex 12 5.79552 3.46927
      vertex 12 5.79552 6.53073
      vertex 13.6236 5.79552 6.08239
    endloop
  endfacet
  facet normal 0 1 0
    outer loop
      vertex 13.6236 5.79552 3.91761
      vertex 13.6236 5.79552 6.08239
      vertex 14.2961 5.79552 5
    endloop
  endfacet
  facet normal 0 1 0
    outer loop
      vertex 12 5.79552 6.53073
      vertex 12 5.79552 3.46927
      vertex 10.3764 5.79552 6.08239
    endloop
  endfacet
  facet normal 0 1 0
    outer loop
      vertex 13.6236 5.79552 6.08239
      vertex 13.6236 5.79552 3.91761
      vertex 12 5.79552 3.46927
    endloop
  endfacet
  facet normal -0 1 0
    outer loop
      vertex 10.3764 5.79552 3.91761
      vertex 10.3764 5.79552 6.08239
      vertex 12 5.79552 3.46927
    endloop
  endfacet
  facet normal 0 1 0
    outer loop
      vertex 10.3764 5.79552 6.08239
      vertex 10.3764 5.79552 3.91761
      vertex 9.7039 5.79552 5
    endloop
  endfacet
  facet normal 0.191642 0.694 0.694
    outer loop
      vertex 12 5.79552 6.53073
      vertex 12 3.63073 8.69552
      vertex 15.9197 3.63073 7.61313
    endloop
  endfacet
  facet normal 0.849399 -1.6457e-05 0.527752
    outer loop
      vertex 17.1069 1.66712 5.70231
      vertex 17.5433 3.63073 5
      vertex 15.9197 3.63073 7.61313
    endloop
  endfacet
  facet normal 0.849378 0 0.527785
    outer loop
      vertex 17.5433 3.63073 5
      vertex 17.1069 1.66712 5.70231
      vertex 17.5433 1.7156 5
    endloop
  endfacet
  facet normal 0.849407 7.94665e-07 0.527739
    outer loop
      vertex 15.9197 3.63073 7.61313
      vertex 16.3087 1.27561 6.98703
      vertex 17.1069 1.66712 5.70231
    endloop
  endfacet
  facet normal 0.849405 -0 0.527741
    outer loop
      vertex 15.9197 0.569265 7.61313
      vertex 16.3087 1.27561 6.98703
      vertex 15.9197 3.63073 7.61313
    endloop
  endfacet
  facet normal 0.849405 0 0.527741
    outer loop
      vertex 16.3087 1.27561 6.98703
      vertex 15.9197 0.569265 7.61313
      vertex 16.3087 0.569265 6.98703
    endloop
  endfacet
  facet normal 0.19164 -0.694007 0.693994
    outer loop
      vertex 15.9197 0.569265 7.61313
      vertex 14.5378 -0.193909 7.23154
      vertex 15.2084 -0.101321 7.13895
    endloop
  endfacet
  facet normal -0.524429 0.786643 0.325833
    outer loop
      vertex 9.7039 5.79552 5
      vertex 6.45672 3.63073 5
      vertex 10.3764 5.79552 6.08239
    endloop
  endfacet
  facet normal 0.524419 -0.786653 0.325825
    outer loop
      vertex 15.9197 0.569265 7.61313
      vertex 15.2084 -0.101321 7.13895
      vertex 16.3087 0.569265 6.98703
    endloop
  endfacet
  facet normal -0.191643 -0.694005 0.693996
    outer loop
      vertex 12 0.569265 8.69552
      vertex 9.31159 0.569265 7.95313
      vertex 11.3628 -0.280365 7.66992
    endloop
  endfacet
  facet normal 0.524427 0.786641 0.325839
    outer loop
      vertex 17.5433 3.63073 5
      vertex 13.6236 5.79552 6.08239
      vertex 15.9197 3.63073 7.61313
    endloop
  endfacet
  facet normal 0.524427 0.786644 0.325832
    outer loop
      vertex 14.2961 5.79552 5
      vertex 13.6236 5.79552 6.08239
      vertex 17.5433 3.63073 5
    endloop
  endfacet
  facet normal -0.266181 0 -0.963923
    outer loop
      vertex 8.74129 3.0796 2.20435
      vertex 12 3.63073 1.30448
      vertex 12 2.84177 1.30448
    endloop
  endfacet
  facet normal -0.266174 -0 -0.963925
    outer loop
      vertex 8.08031 3.63073 2.38687
      vertex 8.74129 3.0796 2.20435
      vertex 8.08031 3.0796 2.38687
    endloop
  endfacet
  facet normal -0.26618 -7.28362e-06 -0.963923
    outer loop
      vertex 8.74129 3.0796 2.20435
      vertex 8.08031 3.63073 2.38687
      vertex 12 3.63073 1.30448
    endloop
  endfacet
  facet normal -0.8494 0 0.527749
    outer loop
      vertex 6.45672 2.39138 5
      vertex 8.08031 3.63073 7.61313
      vertex 6.45672 3.63073 5
    endloop
  endfacet
  facet normal -0.8494 0 0.527749
    outer loop
      vertex 8.08031 3.63073 7.61313
      vertex 6.45672 2.39138 5
      vertex 8.08031 1.44561 7.61313
    endloop
  endfacet
  facet normal 0.266179 0 0.963924
    outer loop
      vertex 12 3.63073 8.69552
      vertex 15.9197 0.569265 7.61313
      vertex 15.9197 3.63073 7.61313
    endloop
  endfacet
  facet normal 0.266179 0 0.963924
    outer loop
      vertex 15.9197 0.569265 7.61313
      vertex 12 3.63073 8.69552
      vertex 12 0.569265 8.69552
    endloop
  endfacet
endsolid OpenSCAD_Model
