solid OpenSCAD_Model
  facet normal 0.333333 -0.666667 0.666667
    outer loop
      vertex -4.44089e-16 -1 0
      vertex 2 0 0
      vertex -4.44089e-16 0 1
    endloop
  endfacet
  facet normal 0.333333 -0.666667 -0.666667
    outer loop
      vertex -4.44089e-16 0 -1
      vertex 2 0 0
      vertex -4.44089e-16 -1 0
    endloop
  endfacet
  facet normal 0.333333 0.666667 -0.666667
    outer loop
      vertex -4.44089e-16 1 0
      vertex 2 0 0
      vertex -4.44089e-16 0 -1
    endloop
  endfacet
  facet normal 0.333333 0.666667 0.666667
    outer loop
      vertex -4.44089e-16 0 1
      vertex 2 0 0
      vertex -4.44089e-16 1 0
    endloop
  endfacet
  facet normal -1 0 0
    outer loop
      vertex -4.44089e-16 0 -1
      vertex -4.44089e-16 0 1
      vertex -4.44089e-16 1 0
    endloop
  endfacet
  facet normal -1 0 -0
    outer loop
      vertex -4.44089e-16 0 1
      vertex -4.44089e-16 0 -1
      vertex -4.44089e-16 -1 0
    endloop
  endfacet
endsolid OpenSCAD_Model
