solid OpenSCAD_Model
  facet normal 0 1 -0
    outer loop
      vertex -11.9251 4.75 -0.19
      vertex -15 4.75 0
      vertex -11.9251 4.75 0
    endloop
  endfacet
  facet normal 0 1 0
    outer loop
      vertex -15 4.75 0
      vertex -11.9251 4.75 -0.19
      vertex -15 4.75 -0.19
    endloop
  endfacet
  facet normal 0.34202 0.939693 5.09311e-06
    outer loop
      vertex -11.9251 4.75 -0.19
      vertex -4.36954 2 0
      vertex -4.26571 1.96221 -0.19
    endloop
  endfacet
  facet normal 0.34202 0.939693 0
    outer loop
      vertex -4.36954 2 0
      vertex -11.9251 4.75 -0.19
      vertex -11.9251 4.75 0
    endloop
  endfacet
  facet normal 0 0 -1
    outer loop
      vertex -15 1.96221 -0.19
      vertex -11.9251 4.75 -0.19
      vertex -4.26571 1.96221 -0.19
    endloop
  endfacet
  facet normal -0 0 -1
    outer loop
      vertex -11.9251 4.75 -0.19
      vertex -15 1.96221 -0.19
      vertex -15 4.75 -0.19
    endloop
  endfacet
  facet normal -1 0 0
    outer loop
      vertex -15 -4.75 0.19
      vertex -15 -2 0
      vertex -15 -4.75 0
    endloop
  endfacet
  facet normal -1 0 0
    outer loop
      vertex -15 -2 0
      vertex -15 -4.75 0.19
      vertex -15 -1.96221 0.19
    endloop
  endfacet
  facet normal -1 0 0
    outer loop
      vertex -15 -0.19 -4.75
      vertex -15 0 -2
      vertex -15 0 -4.75
    endloop
  endfacet
  facet normal -1 -0 0
    outer loop
      vertex -15 0 -2
      vertex -15 -0.19 -4.75
      vertex -15 -0.19 -1.96221
    endloop
  endfacet
  facet normal -1 0 0
    outer loop
      vertex -15 0 2
      vertex -15 0.19 4.75
      vertex -15 0.19 1.96221
    endloop
  endfacet
  facet normal -1 -0 0
    outer loop
      vertex -15 0.19 4.75
      vertex -15 0 2
      vertex -15 0 4.75
    endloop
  endfacet
  facet normal -1 0 0
    outer loop
      vertex -15 4.75 -0.19
      vertex -15 2 0
      vertex -15 4.75 0
    endloop
  endfacet
  facet normal -1 0 -0
    outer loop
      vertex -15 2 0
      vertex -15 4.75 -0.19
      vertex -15 1.96221 -0.19
    endloop
  endfacet
  facet normal 0 0 1
    outer loop
      vertex -15 2 0
      vertex -11.9251 4.75 0
      vertex -15 4.75 0
    endloop
  endfacet
  facet normal 0 0 1
    outer loop
      vertex -11.9251 4.75 0
      vertex -15 2 0
      vertex -4.36954 2 0
    endloop
  endfacet
  facet normal 0 1 -0
    outer loop
      vertex -11.9251 0 -4.75
      vertex -15 0 -2
      vertex -4.36954 0 -2
    endloop
  endfacet
  facet normal 0 1 0
    outer loop
      vertex -15 0 -2
      vertex -11.9251 0 -4.75
      vertex -15 0 -4.75
    endloop
  endfacet
  facet normal -0 0 1
    outer loop
      vertex -15 0.19 4.75
      vertex -11.9251 0 4.75
      vertex -11.9251 0.19 4.75
    endloop
  endfacet
  facet normal 0 0 1
    outer loop
      vertex -11.9251 0 4.75
      vertex -15 0.19 4.75
      vertex -15 0 4.75
    endloop
  endfacet
  facet normal 0.34202 -5.09311e-06 0.939693
    outer loop
      vertex -11.9251 0.19 4.75
      vertex -4.36954 0 2
      vertex -4.26571 0.19 1.96221
    endloop
  endfacet
  facet normal 0.34202 0 0.939693
    outer loop
      vertex -4.36954 0 2
      vertex -11.9251 0.19 4.75
      vertex -11.9251 0 4.75
    endloop
  endfacet
  facet normal 0 1 0
    outer loop
      vertex -15 0.19 1.96221
      vertex -11.9251 0.19 4.75
      vertex -4.26571 0.19 1.96221
    endloop
  endfacet
  facet normal 0 1 0
    outer loop
      vertex -11.9251 0.19 4.75
      vertex -15 0.19 1.96221
      vertex -15 0.19 4.75
    endloop
  endfacet
  facet normal 0 -1 0
    outer loop
      vertex -15 0 2
      vertex -11.9251 0 4.75
      vertex -15 0 4.75
    endloop
  endfacet
  facet normal 0 -1 -0
    outer loop
      vertex -11.9251 0 4.75
      vertex -15 0 2
      vertex -4.36954 0 2
    endloop
  endfacet
  facet normal 0 -1 0
    outer loop
      vertex -15 -4.75 0
      vertex -11.9251 -4.75 0.19
      vertex -15 -4.75 0.19
    endloop
  endfacet
  facet normal 0 -1 -0
    outer loop
      vertex -11.9251 -4.75 0.19
      vertex -15 -4.75 0
      vertex -11.9251 -4.75 0
    endloop
  endfacet
  facet normal 0.34202 -0.939693 0
    outer loop
      vertex -4.36954 -2 0
      vertex -11.9251 -4.75 0.19
      vertex -11.9251 -4.75 0
    endloop
  endfacet
  facet normal 0.34202 -0.939693 -5.09311e-06
    outer loop
      vertex -11.9251 -4.75 0.19
      vertex -4.36954 -2 0
      vertex -4.26571 -1.96221 0.19
    endloop
  endfacet
  facet normal -0 0 1
    outer loop
      vertex -15 -1.96221 0.19
      vertex -11.9251 -4.75 0.19
      vertex -4.26571 -1.96221 0.19
    endloop
  endfacet
  facet normal 0 0 1
    outer loop
      vertex -11.9251 -4.75 0.19
      vertex -15 -1.96221 0.19
      vertex -15 -4.75 0.19
    endloop
  endfacet
  facet normal 0 0 -1
    outer loop
      vertex -15 -2 0
      vertex -11.9251 -4.75 0
      vertex -15 -4.75 0
    endloop
  endfacet
  facet normal 0 0 -1
    outer loop
      vertex -11.9251 -4.75 0
      vertex -15 -2 0
      vertex -4.36954 -2 0
    endloop
  endfacet
  facet normal 0 0 -1
    outer loop
      vertex -15 -0.19 -4.75
      vertex -11.9251 0 -4.75
      vertex -11.9251 -0.19 -4.75
    endloop
  endfacet
  facet normal -0 0 -1
    outer loop
      vertex -11.9251 0 -4.75
      vertex -15 -0.19 -4.75
      vertex -15 0 -4.75
    endloop
  endfacet
  facet normal 0.34202 5.09311e-06 -0.939693
    outer loop
      vertex -11.9251 -0.19 -4.75
      vertex -4.36954 0 -2
      vertex -4.26571 -0.19 -1.96221
    endloop
  endfacet
  facet normal 0.34202 0 -0.939693
    outer loop
      vertex -4.36954 0 -2
      vertex -11.9251 -0.19 -4.75
      vertex -11.9251 0 -4.75
    endloop
  endfacet
  facet normal 0 -1 0
    outer loop
      vertex -11.9251 -0.19 -4.75
      vertex -15 -0.19 -1.96221
      vertex -15 -0.19 -4.75
    endloop
  endfacet
  facet normal 0 -1 0
    outer loop
      vertex -15 -0.19 -1.96221
      vertex -11.9251 -0.19 -4.75
      vertex -4.26571 -0.19 -1.96221
    endloop
  endfacet
  facet normal 0 0.831465 0.555576
    outer loop
      vertex 15 1.84776 0.765367
      vertex -15 1.41421 1.41421
      vertex 15 1.41421 1.41421
    endloop
  endfacet
  facet normal 0 0.831465 0.555576
    outer loop
      vertex -15 1.41421 1.41421
      vertex 15 1.84776 0.765367
      vertex -15 1.84776 0.765367
    endloop
  endfacet
  facet normal 0 0.555576 -0.831465
    outer loop
      vertex -15 0.765367 -1.84776
      vertex 15 1.41421 -1.41421
      vertex 15 0.765367 -1.84776
    endloop
  endfacet
  facet normal 0 0.555576 -0.831465
    outer loop
      vertex 15 1.41421 -1.41421
      vertex -15 0.765367 -1.84776
      vertex -15 1.41421 -1.41421
    endloop
  endfacet
  facet normal 0 0.195089 -0.980786
    outer loop
      vertex -4.36954 0 -2
      vertex 15 0.765367 -1.84776
      vertex 15 0 -2
    endloop
  endfacet
  facet normal 0 0.195089 -0.980786
    outer loop
      vertex -15 0.765367 -1.84776
      vertex -4.36954 0 -2
      vertex -15 0 -2
    endloop
  endfacet
  facet normal 0 0.195089 -0.980786
    outer loop
      vertex -4.36954 0 -2
      vertex -15 0.765367 -1.84776
      vertex 15 0.765367 -1.84776
    endloop
  endfacet
  facet normal -0 0.555576 0.831465
    outer loop
      vertex -15 1.41421 1.41421
      vertex 15 0.765367 1.84776
      vertex 15 1.41421 1.41421
    endloop
  endfacet
  facet normal 0 0.555576 0.831465
    outer loop
      vertex 15 0.765367 1.84776
      vertex -15 1.41421 1.41421
      vertex -15 0.765367 1.84776
    endloop
  endfacet
  facet normal 0 -0.980785 0.195094
    outer loop
      vertex -4.26571 -1.96221 0.19
      vertex -15 -1.84776 0.765367
      vertex -15 -1.96221 0.19
    endloop
  endfacet
  facet normal 0 -0.980785 0.195094
    outer loop
      vertex -15 -1.84776 0.765367
      vertex -4.26571 -1.96221 0.19
      vertex 15 -1.84776 0.765367
    endloop
  endfacet
  facet normal 0 -0.980789 0.195074
    outer loop
      vertex 15 -2 0
      vertex -4.26571 -1.96221 0.19
      vertex -4.36954 -2 0
    endloop
  endfacet
  facet normal 1.58377e-07 -0.980786 0.195089
    outer loop
      vertex -4.26571 -1.96221 0.19
      vertex 15 -2 0
      vertex 15 -1.84776 0.765367
    endloop
  endfacet
  facet normal 0 -0.980786 -0.195089
    outer loop
      vertex -15 -1.84776 -0.765367
      vertex -4.36954 -2 0
      vertex -15 -2 0
    endloop
  endfacet
  facet normal -0 -0.980786 -0.195089
    outer loop
      vertex 15 -1.84776 -0.765367
      vertex -4.36954 -2 0
      vertex -15 -1.84776 -0.765367
    endloop
  endfacet
  facet normal 0 -0.980786 -0.195089
    outer loop
      vertex -4.36954 -2 0
      vertex 15 -1.84776 -0.765367
      vertex 15 -2 0
    endloop
  endfacet
  facet normal 0 -0.831465 -0.555576
    outer loop
      vertex -15 -1.41421 -1.41421
      vertex 15 -1.84776 -0.765367
      vertex -15 -1.84776 -0.765367
    endloop
  endfacet
  facet normal 0 -0.831465 -0.555576
    outer loop
      vertex 15 -1.84776 -0.765367
      vertex -15 -1.41421 -1.41421
      vertex 15 -1.41421 -1.41421
    endloop
  endfacet
  facet normal 0 -0.555576 -0.831465
    outer loop
      vertex -15 -1.41421 -1.41421
      vertex 15 -0.765367 -1.84776
      vertex 15 -1.41421 -1.41421
    endloop
  endfacet
  facet normal -0 -0.555576 -0.831465
    outer loop
      vertex 15 -0.765367 -1.84776
      vertex -15 -1.41421 -1.41421
      vertex -15 -0.765367 -1.84776
    endloop
  endfacet
  facet normal 1.58377e-07 0.195089 0.980786
    outer loop
      vertex 15 0.765367 1.84776
      vertex -4.26571 0.19 1.96221
      vertex 15 0 2
    endloop
  endfacet
  facet normal -0 0.195094 0.980785
    outer loop
      vertex -15 0.765367 1.84776
      vertex -4.26571 0.19 1.96221
      vertex 15 0.765367 1.84776
    endloop
  endfacet
  facet normal 0 0.195094 0.980785
    outer loop
      vertex -4.26571 0.19 1.96221
      vertex -15 0.765367 1.84776
      vertex -15 0.19 1.96221
    endloop
  endfacet
  facet normal 0 0.195074 0.980789
    outer loop
      vertex 15 0 2
      vertex -4.26571 0.19 1.96221
      vertex -4.36954 0 2
    endloop
  endfacet
  facet normal 1.58377e-07 -0.195089 -0.980786
    outer loop
      vertex 15 -0.765367 -1.84776
      vertex -4.26571 -0.19 -1.96221
      vertex 15 0 -2
    endloop
  endfacet
  facet normal 0 -0.195094 -0.980785
    outer loop
      vertex -15 -0.765367 -1.84776
      vertex -4.26571 -0.19 -1.96221
      vertex 15 -0.765367 -1.84776
    endloop
  endfacet
  facet normal -0 -0.195094 -0.980785
    outer loop
      vertex -4.26571 -0.19 -1.96221
      vertex -15 -0.765367 -1.84776
      vertex -15 -0.19 -1.96221
    endloop
  endfacet
  facet normal -0 -0.195074 -0.980789
    outer loop
      vertex 15 0 -2
      vertex -4.26571 -0.19 -1.96221
      vertex -4.36954 0 -2
    endloop
  endfacet
  facet normal -0 0.980786 0.195089
    outer loop
      vertex -4.36954 2 0
      vertex 15 1.84776 0.765367
      vertex 15 2 0
    endloop
  endfacet
  facet normal 0 0.980786 0.195089
    outer loop
      vertex 15 1.84776 0.765367
      vertex -4.36954 2 0
      vertex -15 1.84776 0.765367
    endloop
  endfacet
  facet normal 0 0.980786 0.195089
    outer loop
      vertex -15 1.84776 0.765367
      vertex -4.36954 2 0
      vertex -15 2 0
    endloop
  endfacet
  facet normal 0 0.980789 -0.195074
    outer loop
      vertex 15 2 0
      vertex -4.26571 1.96221 -0.19
      vertex -4.36954 2 0
    endloop
  endfacet
  facet normal 1.58377e-07 0.980786 -0.195089
    outer loop
      vertex 15 1.84776 -0.765367
      vertex -4.26571 1.96221 -0.19
      vertex 15 2 0
    endloop
  endfacet
  facet normal 0 0.980785 -0.195094
    outer loop
      vertex -15 1.84776 -0.765367
      vertex -4.26571 1.96221 -0.19
      vertex 15 1.84776 -0.765367
    endloop
  endfacet
  facet normal 0 0.980785 -0.195094
    outer loop
      vertex -4.26571 1.96221 -0.19
      vertex -15 1.84776 -0.765367
      vertex -15 1.96221 -0.19
    endloop
  endfacet
  facet normal 0 0.831465 -0.555576
    outer loop
      vertex 15 1.41421 -1.41421
      vertex -15 1.84776 -0.765367
      vertex 15 1.84776 -0.765367
    endloop
  endfacet
  facet normal 0 0.831465 -0.555576
    outer loop
      vertex -15 1.84776 -0.765367
      vertex 15 1.41421 -1.41421
      vertex -15 1.41421 -1.41421
    endloop
  endfacet
  facet normal 0 -0.555576 0.831465
    outer loop
      vertex -15 -0.765367 1.84776
      vertex 15 -1.41421 1.41421
      vertex 15 -0.765367 1.84776
    endloop
  endfacet
  facet normal 0 -0.555576 0.831465
    outer loop
      vertex 15 -1.41421 1.41421
      vertex -15 -0.765367 1.84776
      vertex -15 -1.41421 1.41421
    endloop
  endfacet
  facet normal 1 0 0
    outer loop
      vertex 15 1.84776 0.765367
      vertex 15 1.95176 0
      vertex 15 2 0
    endloop
  endfacet
  facet normal 1 0 0
    outer loop
      vertex 15 1.84776 0.765367
      vertex 15 1.80319 0.746907
      vertex 15 1.95176 0
    endloop
  endfacet
  facet normal 1 0 0
    outer loop
      vertex 15 1.41421 1.41421
      vertex 15 1.80319 0.746907
      vertex 15 1.84776 0.765367
    endloop
  endfacet
  facet normal 1 0 0
    outer loop
      vertex 15 1.41421 1.41421
      vertex 15 1.3801 1.3801
      vertex 15 1.80319 0.746907
    endloop
  endfacet
  facet normal 1 0 0
    outer loop
      vertex 15 0.765367 1.84776
      vertex 15 1.3801 1.3801
      vertex 15 1.41421 1.41421
    endloop
  endfacet
  facet normal 1 0 0
    outer loop
      vertex 15 0.765367 1.84776
      vertex 15 0.746907 1.80319
      vertex 15 1.3801 1.3801
    endloop
  endfacet
  facet normal 1 0 0
    outer loop
      vertex 15 0 2
      vertex 15 0.746907 1.80319
      vertex 15 0.765367 1.84776
    endloop
  endfacet
  facet normal 1 0 0
    outer loop
      vertex 15 0 2
      vertex 15 0 1.95176
      vertex 15 0.746907 1.80319
    endloop
  endfacet
  facet normal 1 0 0
    outer loop
      vertex 15 0 2
      vertex 15 -0.746907 1.80319
      vertex 15 0 1.95176
    endloop
  endfacet
  facet normal 1 -0 0
    outer loop
      vertex 15 -0.765367 1.84776
      vertex 15 -0.746907 1.80319
      vertex 15 0 2
    endloop
  endfacet
  facet normal 1 0 0
    outer loop
      vertex 15 -0.765367 1.84776
      vertex 15 -1.3801 1.3801
      vertex 15 -0.746907 1.80319
    endloop
  endfacet
  facet normal 1 -0 0
    outer loop
      vertex 15 -1.41421 1.41421
      vertex 15 -1.3801 1.3801
      vertex 15 -0.765367 1.84776
    endloop
  endfacet
  facet normal 1 0 0
    outer loop
      vertex 15 -1.41421 1.41421
      vertex 15 -1.80319 0.746907
      vertex 15 -1.3801 1.3801
    endloop
  endfacet
  facet normal 1 -0 0
    outer loop
      vertex 15 -1.84776 0.765367
      vertex 15 -1.80319 0.746907
      vertex 15 -1.41421 1.41421
    endloop
  endfacet
  facet normal 1 0 0
    outer loop
      vertex 15 -1.84776 0.765367
      vertex 15 -1.95176 0
      vertex 15 -1.80319 0.746907
    endloop
  endfacet
  facet normal 1 0 -0
    outer loop
      vertex 15 -1.95176 0
      vertex 15 -1.84776 0.765367
      vertex 15 -2 0
    endloop
  endfacet
  facet normal 1 -0 0
    outer loop
      vertex 15 1.95176 0
      vertex 15 1.84776 -0.765367
      vertex 15 2 0
    endloop
  endfacet
  facet normal 1 -0 0
    outer loop
      vertex 15 1.80319 -0.746907
      vertex 15 1.84776 -0.765367
      vertex 15 1.95176 0
    endloop
  endfacet
  facet normal 1 0 0
    outer loop
      vertex 15 1.80319 -0.746907
      vertex 15 1.41421 -1.41421
      vertex 15 1.84776 -0.765367
    endloop
  endfacet
  facet normal 1 -0 0
    outer loop
      vertex 15 1.3801 -1.3801
      vertex 15 1.41421 -1.41421
      vertex 15 1.80319 -0.746907
    endloop
  endfacet
  facet normal 1 0 0
    outer loop
      vertex 15 1.3801 -1.3801
      vertex 15 0.765367 -1.84776
      vertex 15 1.41421 -1.41421
    endloop
  endfacet
  facet normal 1 -0 0
    outer loop
      vertex 15 0.746907 -1.80319
      vertex 15 0.765367 -1.84776
      vertex 15 1.3801 -1.3801
    endloop
  endfacet
  facet normal 1 0 0
    outer loop
      vertex 15 0 -1.95176
      vertex 15 0.765367 -1.84776
      vertex 15 0.746907 -1.80319
    endloop
  endfacet
  facet normal 1 -0 0
    outer loop
      vertex 15 0 -1.95176
      vertex 15 0 -2
      vertex 15 0.765367 -1.84776
    endloop
  endfacet
  facet normal 1 0 0
    outer loop
      vertex 15 -0.746907 -1.80319
      vertex 15 0 -2
      vertex 15 0 -1.95176
    endloop
  endfacet
  facet normal 1 0 0
    outer loop
      vertex 15 -0.746907 -1.80319
      vertex 15 -0.765367 -1.84776
      vertex 15 0 -2
    endloop
  endfacet
  facet normal 1 0 0
    outer loop
      vertex 15 -1.3801 -1.3801
      vertex 15 -0.765367 -1.84776
      vertex 15 -0.746907 -1.80319
    endloop
  endfacet
  facet normal 1 0 0
    outer loop
      vertex 15 -1.3801 -1.3801
      vertex 15 -1.41421 -1.41421
      vertex 15 -0.765367 -1.84776
    endloop
  endfacet
  facet normal 1 0 0
    outer loop
      vertex 15 -1.80319 -0.746907
      vertex 15 -1.41421 -1.41421
      vertex 15 -1.3801 -1.3801
    endloop
  endfacet
  facet normal 1 0 0
    outer loop
      vertex 15 -1.80319 -0.746907
      vertex 15 -1.84776 -0.765367
      vertex 15 -1.41421 -1.41421
    endloop
  endfacet
  facet normal 1 0 0
    outer loop
      vertex 15 -1.95176 0
      vertex 15 -1.84776 -0.765367
      vertex 15 -1.80319 -0.746907
    endloop
  endfacet
  facet normal 1 0 0
    outer loop
      vertex 15 -1.84776 -0.765367
      vertex 15 -1.95176 0
      vertex 15 -2 0
    endloop
  endfacet
  facet normal 0 -0.195089 0.980786
    outer loop
      vertex -4.36954 0 2
      vertex 15 -0.765367 1.84776
      vertex 15 0 2
    endloop
  endfacet
  facet normal 0 -0.195089 0.980786
    outer loop
      vertex -15 -0.765367 1.84776
      vertex -4.36954 0 2
      vertex -15 0 2
    endloop
  endfacet
  facet normal 0 -0.195089 0.980786
    outer loop
      vertex -4.36954 0 2
      vertex -15 -0.765367 1.84776
      vertex 15 -0.765367 1.84776
    endloop
  endfacet
  facet normal 0 -0.831465 0.555576
    outer loop
      vertex -15 -1.84776 0.765367
      vertex 15 -1.41421 1.41421
      vertex -15 -1.41421 1.41421
    endloop
  endfacet
  facet normal 0 -0.831465 0.555576
    outer loop
      vertex 15 -1.41421 1.41421
      vertex -15 -1.84776 0.765367
      vertex 15 -1.84776 0.765367
    endloop
  endfacet
  facet normal 0.0686944 -0.194631 0.978468
    outer loop
      vertex 21.513 0 1.65462
      vertex 17.2806 0 1.95176
      vertex 17.2806 -0.746907 1.80319
    endloop
  endfacet
  facet normal 0.372454 0.181038 -0.910222
    outer loop
      vertex 24.7523 0.423088 -1.02143
      vertex 26.5054 0 -0.388229
      vertex 24.7523 0 -1.10558
    endloop
  endfacet
  facet normal 0.372456 -0.910218 0.181053
    outer loop
      vertex 26.5054 -0.358677 0.148568
      vertex 24.7523 -1.02143 0.423088
      vertex 26.5054 -0.388229 0
    endloop
  endfacet
  facet normal 0.0686944 -0.978468 0.194631
    outer loop
      vertex 21.513 -1.65462 0
      vertex 17.2806 -1.80319 0.746907
      vertex 17.2806 -1.95176 0
    endloop
  endfacet
  facet normal 0.163986 0.192448 -0.967508
    outer loop
      vertex 21.513 0.633197 -1.52867
      vertex 24.7523 0 -1.10558
      vertex 21.513 0 -1.65462
    endloop
  endfacet
  facet normal 0.068694 0.194628 -0.978469
    outer loop
      vertex 17.2806 0.746907 -1.80319
      vertex 21.513 0.633197 -1.52867
      vertex 21.513 0 -1.65462
    endloop
  endfacet
  facet normal 0.163986 0.967508 0.192448
    outer loop
      vertex 21.513 1.65462 0
      vertex 21.513 1.52867 0.633197
      vertex 24.7523 1.10558 0
    endloop
  endfacet
  facet normal 0.163984 0.820211 -0.548054
    outer loop
      vertex 21.513 1.52867 -0.633197
      vertex 24.7523 1.02143 -0.423088
      vertex 24.7523 0.781766 -0.781766
    endloop
  endfacet
  facet normal 0.068694 -0.194628 -0.978469
    outer loop
      vertex 21.513 0 -1.65462
      vertex 21.513 -0.633197 -1.52867
      vertex 17.2806 -0.746907 -1.80319
    endloop
  endfacet
  facet normal 0 -0.195092 0.980785
    outer loop
      vertex 15 0 1.95176
      vertex 17.2806 -0.746907 1.80319
      vertex 17.2806 0 1.95176
    endloop
  endfacet
  facet normal 0 -0.195092 0.980785
    outer loop
      vertex 17.2806 -0.746907 1.80319
      vertex 15 0 1.95176
      vertex 15 -0.746907 1.80319
    endloop
  endfacet
  facet normal 0.068694 -0.194628 0.978469
    outer loop
      vertex 21.513 0 1.65462
      vertex 17.2806 -0.746907 1.80319
      vertex 21.513 -0.633197 1.52867
    endloop
  endfacet
  facet normal 0.068691 -0.554247 -0.829513
    outer loop
      vertex 21.513 -0.633197 -1.52867
      vertex 21.513 -1.17 -1.17
      vertex 17.2806 -1.3801 -1.3801
    endloop
  endfacet
  facet normal 0.163984 0.192433 -0.967512
    outer loop
      vertex 21.513 0.633197 -1.52867
      vertex 24.7523 0.423088 -1.02143
      vertex 24.7523 0 -1.10558
    endloop
  endfacet
  facet normal 0.0686939 -0.554261 -0.829503
    outer loop
      vertex 21.513 -0.633197 -1.52867
      vertex 17.2806 -1.3801 -1.3801
      vertex 17.2806 -0.746907 -1.80319
    endloop
  endfacet
  facet normal 0.163984 -0.548054 -0.820211
    outer loop
      vertex 24.7523 -0.423088 -1.02143
      vertex 24.7523 -0.781766 -0.781766
      vertex 21.513 -0.633197 -1.52867
    endloop
  endfacet
  facet normal 0.163984 0.967512 -0.192433
    outer loop
      vertex 21.513 1.52867 -0.633197
      vertex 24.7523 1.10558 0
      vertex 24.7523 1.02143 -0.423088
    endloop
  endfacet
  facet normal 0.068691 -0.554247 0.829513
    outer loop
      vertex 21.513 -1.17 1.17
      vertex 21.513 -0.633197 1.52867
      vertex 17.2806 -1.3801 1.3801
    endloop
  endfacet
  facet normal 0.163984 -0.548054 0.820211
    outer loop
      vertex 24.7523 -0.423088 1.02143
      vertex 21.513 -0.633197 1.52867
      vertex 24.7523 -0.781766 0.781766
    endloop
  endfacet
  facet normal 0.372455 0.771645 0.515598
    outer loop
      vertex 26.5054 0.358677 0.148568
      vertex 24.7523 0.781766 0.781766
      vertex 26.5054 0.274519 0.274519
    endloop
  endfacet
  facet normal 0.163986 -0.192448 -0.967508
    outer loop
      vertex 21.513 0 -1.65462
      vertex 24.7523 0 -1.10558
      vertex 21.513 -0.633197 -1.52867
    endloop
  endfacet
  facet normal 0.372456 -0.181053 0.910218
    outer loop
      vertex 26.5054 0 0.388229
      vertex 24.7523 -0.423088 1.02143
      vertex 26.5054 -0.148568 0.358677
    endloop
  endfacet
  facet normal 0.372454 0.181038 0.910222
    outer loop
      vertex 24.7523 0.423088 1.02143
      vertex 24.7523 0 1.10558
      vertex 26.5054 0 0.388229
    endloop
  endfacet
  facet normal 0 0.831467 0.555574
    outer loop
      vertex 17.2806 1.80319 0.746907
      vertex 15 1.3801 1.3801
      vertex 17.2806 1.3801 1.3801
    endloop
  endfacet
  facet normal 0 0.831467 0.555574
    outer loop
      vertex 15 1.3801 1.3801
      vertex 17.2806 1.80319 0.746907
      vertex 15 1.80319 0.746907
    endloop
  endfacet
  facet normal -0 0.555574 0.831467
    outer loop
      vertex 15 1.3801 1.3801
      vertex 17.2806 0.746907 1.80319
      vertex 17.2806 1.3801 1.3801
    endloop
  endfacet
  facet normal 0 0.555574 0.831467
    outer loop
      vertex 17.2806 0.746907 1.80319
      vertex 15 1.3801 1.3801
      vertex 15 0.746907 1.80319
    endloop
  endfacet
  facet normal 0.163984 0.548054 -0.820211
    outer loop
      vertex 21.513 0.633197 -1.52867
      vertex 24.7523 0.781766 -0.781766
      vertex 24.7523 0.423088 -1.02143
    endloop
  endfacet
  facet normal 0.068694 0.194628 0.978469
    outer loop
      vertex 21.513 0.633197 1.52867
      vertex 17.2806 0.746907 1.80319
      vertex 21.513 0 1.65462
    endloop
  endfacet
  facet normal 0.068691 0.554247 -0.829513
    outer loop
      vertex 17.2806 1.3801 -1.3801
      vertex 21.513 1.17 -1.17
      vertex 21.513 0.633197 -1.52867
    endloop
  endfacet
  facet normal 0.068694 0.978469 -0.194628
    outer loop
      vertex 17.2806 1.80319 -0.746907
      vertex 21.513 1.65462 0
      vertex 21.513 1.52867 -0.633197
    endloop
  endfacet
  facet normal 0.0686939 0.554261 -0.829503
    outer loop
      vertex 17.2806 0.746907 -1.80319
      vertex 17.2806 1.3801 -1.3801
      vertex 21.513 0.633197 -1.52867
    endloop
  endfacet
  facet normal 0.163984 0.967512 0.192433
    outer loop
      vertex 24.7523 1.10558 0
      vertex 21.513 1.52867 0.633197
      vertex 24.7523 1.02143 0.423088
    endloop
  endfacet
  facet normal 0.163984 -0.820211 0.548054
    outer loop
      vertex 24.7523 -1.02143 0.423088
      vertex 24.7523 -0.781766 0.781766
      vertex 21.513 -1.52867 0.633197
    endloop
  endfacet
  facet normal 0 -0.831467 0.555574
    outer loop
      vertex 15 -1.80319 0.746907
      vertex 17.2806 -1.3801 1.3801
      vertex 15 -1.3801 1.3801
    endloop
  endfacet
  facet normal 0 -0.831467 0.555574
    outer loop
      vertex 17.2806 -1.3801 1.3801
      vertex 15 -1.80319 0.746907
      vertex 17.2806 -1.80319 0.746907
    endloop
  endfacet
  facet normal 0 -0.195092 -0.980785
    outer loop
      vertex 15 -0.746907 -1.80319
      vertex 17.2806 0 -1.95176
      vertex 17.2806 -0.746907 -1.80319
    endloop
  endfacet
  facet normal -0 -0.195092 -0.980785
    outer loop
      vertex 17.2806 0 -1.95176
      vertex 15 -0.746907 -1.80319
      vertex 15 0 -1.95176
    endloop
  endfacet
  facet normal -0 0.195092 0.980785
    outer loop
      vertex 15 0.746907 1.80319
      vertex 17.2806 0 1.95176
      vertex 17.2806 0.746907 1.80319
    endloop
  endfacet
  facet normal 0 0.195092 0.980785
    outer loop
      vertex 17.2806 0 1.95176
      vertex 15 0.746907 1.80319
      vertex 15 0 1.95176
    endloop
  endfacet
  facet normal 0.0686944 0.194631 0.978468
    outer loop
      vertex 17.2806 0.746907 1.80319
      vertex 17.2806 0 1.95176
      vertex 21.513 0 1.65462
    endloop
  endfacet
  facet normal 0.372455 0.771645 -0.515598
    outer loop
      vertex 24.7523 0.781766 -0.781766
      vertex 26.5054 0.358677 -0.148568
      vertex 26.5054 0.274519 -0.274519
    endloop
  endfacet
  facet normal 0.372455 0.515598 -0.771645
    outer loop
      vertex 24.7523 0.781766 -0.781766
      vertex 26.5054 0.274519 -0.274519
      vertex 26.5054 0.148568 -0.358677
    endloop
  endfacet
  facet normal 0.163986 0.192448 0.967508
    outer loop
      vertex 21.513 0.633197 1.52867
      vertex 21.513 0 1.65462
      vertex 24.7523 0 1.10558
    endloop
  endfacet
  facet normal 0.163986 0.967508 -0.192448
    outer loop
      vertex 21.513 1.65462 0
      vertex 24.7523 1.10558 0
      vertex 21.513 1.52867 -0.633197
    endloop
  endfacet
  facet normal 0 0.831467 -0.555574
    outer loop
      vertex 17.2806 1.3801 -1.3801
      vertex 15 1.80319 -0.746907
      vertex 17.2806 1.80319 -0.746907
    endloop
  endfacet
  facet normal 0 0.831467 -0.555574
    outer loop
      vertex 15 1.80319 -0.746907
      vertex 17.2806 1.3801 -1.3801
      vertex 15 1.3801 -1.3801
    endloop
  endfacet
  facet normal 0.372454 -0.181038 0.910222
    outer loop
      vertex 26.5054 0 0.388229
      vertex 24.7523 0 1.10558
      vertex 24.7523 -0.423088 1.02143
    endloop
  endfacet
  facet normal 0.163984 -0.192433 -0.967512
    outer loop
      vertex 24.7523 0 -1.10558
      vertex 24.7523 -0.423088 -1.02143
      vertex 21.513 -0.633197 -1.52867
    endloop
  endfacet
  facet normal 0.372454 -0.181038 -0.910222
    outer loop
      vertex 24.7523 0 -1.10558
      vertex 26.5054 0 -0.388229
      vertex 24.7523 -0.423088 -1.02143
    endloop
  endfacet
  facet normal 0.163987 -0.820221 0.548038
    outer loop
      vertex 24.7523 -0.781766 0.781766
      vertex 21.513 -1.17 1.17
      vertex 21.513 -1.52867 0.633197
    endloop
  endfacet
  facet normal 0 -0.555574 0.831467
    outer loop
      vertex 15 -0.746907 1.80319
      vertex 17.2806 -1.3801 1.3801
      vertex 17.2806 -0.746907 1.80319
    endloop
  endfacet
  facet normal 0 -0.555574 0.831467
    outer loop
      vertex 17.2806 -1.3801 1.3801
      vertex 15 -0.746907 1.80319
      vertex 15 -1.3801 1.3801
    endloop
  endfacet
  facet normal 0.0686939 -0.829503 -0.554261
    outer loop
      vertex 17.2806 -1.3801 -1.3801
      vertex 21.513 -1.52867 -0.633197
      vertex 17.2806 -1.80319 -0.746907
    endloop
  endfacet
  facet normal 0.0686944 -0.194631 -0.978468
    outer loop
      vertex 17.2806 0 -1.95176
      vertex 21.513 0 -1.65462
      vertex 17.2806 -0.746907 -1.80319
    endloop
  endfacet
  facet normal 0.0686944 0.194631 -0.978468
    outer loop
      vertex 17.2806 0.746907 -1.80319
      vertex 21.513 0 -1.65462
      vertex 17.2806 0 -1.95176
    endloop
  endfacet
  facet normal 0 0.195092 -0.980785
    outer loop
      vertex 15 0 -1.95176
      vertex 17.2806 0.746907 -1.80319
      vertex 17.2806 0 -1.95176
    endloop
  endfacet
  facet normal 0 0.195092 -0.980785
    outer loop
      vertex 17.2806 0.746907 -1.80319
      vertex 15 0 -1.95176
      vertex 15 0.746907 -1.80319
    endloop
  endfacet
  facet normal 0 -0.980785 0.195092
    outer loop
      vertex 15 -1.95176 0
      vertex 17.2806 -1.80319 0.746907
      vertex 15 -1.80319 0.746907
    endloop
  endfacet
  facet normal 0 -0.980785 0.195092
    outer loop
      vertex 17.2806 -1.80319 0.746907
      vertex 15 -1.95176 0
      vertex 17.2806 -1.95176 0
    endloop
  endfacet
  facet normal 0 -0.555574 -0.831467
    outer loop
      vertex 15 -1.3801 -1.3801
      vertex 17.2806 -0.746907 -1.80319
      vertex 17.2806 -1.3801 -1.3801
    endloop
  endfacet
  facet normal -0 -0.555574 -0.831467
    outer loop
      vertex 17.2806 -0.746907 -1.80319
      vertex 15 -1.3801 -1.3801
      vertex 15 -0.746907 -1.80319
    endloop
  endfacet
  facet normal 0.163986 -0.192448 0.967508
    outer loop
      vertex 24.7523 0 1.10558
      vertex 21.513 0 1.65462
      vertex 21.513 -0.633197 1.52867
    endloop
  endfacet
  facet normal 0.163984 -0.192433 0.967512
    outer loop
      vertex 24.7523 0 1.10558
      vertex 21.513 -0.633197 1.52867
      vertex 24.7523 -0.423088 1.02143
    endloop
  endfacet
  facet normal 0.372455 0.515602 -0.771642
    outer loop
      vertex 24.7523 0.781766 -0.781766
      vertex 26.5054 0.148568 -0.358677
      vertex 24.7523 0.423088 -1.02143
    endloop
  endfacet
  facet normal 0.372456 0.181053 -0.910218
    outer loop
      vertex 24.7523 0.423088 -1.02143
      vertex 26.5054 0.148568 -0.358677
      vertex 26.5054 0 -0.388229
    endloop
  endfacet
  facet normal 0.163987 0.820221 -0.548038
    outer loop
      vertex 21.513 1.17 -1.17
      vertex 21.513 1.52867 -0.633197
      vertex 24.7523 0.781766 -0.781766
    endloop
  endfacet
  facet normal 0.163987 0.548038 -0.820221
    outer loop
      vertex 21.513 1.17 -1.17
      vertex 24.7523 0.781766 -0.781766
      vertex 21.513 0.633197 -1.52867
    endloop
  endfacet
  facet normal 0.372455 -0.771645 -0.515598
    outer loop
      vertex 26.5054 -0.274519 -0.274519
      vertex 26.5054 -0.358677 -0.148568
      vertex 24.7523 -0.781766 -0.781766
    endloop
  endfacet
  facet normal 0.068694 0.978469 0.194628
    outer loop
      vertex 21.513 1.65462 0
      vertex 17.2806 1.80319 0.746907
      vertex 21.513 1.52867 0.633197
    endloop
  endfacet
  facet normal 0.068691 0.829513 0.554247
    outer loop
      vertex 21.513 1.52867 0.633197
      vertex 17.2806 1.3801 1.3801
      vertex 21.513 1.17 1.17
    endloop
  endfacet
  facet normal 0.0686939 0.829503 0.554261
    outer loop
      vertex 17.2806 1.80319 0.746907
      vertex 17.2806 1.3801 1.3801
      vertex 21.513 1.52867 0.633197
    endloop
  endfacet
  facet normal 0.068691 0.554247 0.829513
    outer loop
      vertex 17.2806 1.3801 1.3801
      vertex 21.513 0.633197 1.52867
      vertex 21.513 1.17 1.17
    endloop
  endfacet
  facet normal 0.0686939 0.554261 0.829503
    outer loop
      vertex 17.2806 1.3801 1.3801
      vertex 17.2806 0.746907 1.80319
      vertex 21.513 0.633197 1.52867
    endloop
  endfacet
  facet normal 0.068694 -0.978469 -0.194628
    outer loop
      vertex 21.513 -1.52867 -0.633197
      vertex 21.513 -1.65462 0
      vertex 17.2806 -1.80319 -0.746907
    endloop
  endfacet
  facet normal 0.372455 -0.771642 -0.515602
    outer loop
      vertex 24.7523 -0.781766 -0.781766
      vertex 26.5054 -0.358677 -0.148568
      vertex 24.7523 -1.02143 -0.423088
    endloop
  endfacet
  facet normal 0.372455 -0.771642 0.515602
    outer loop
      vertex 26.5054 -0.358677 0.148568
      vertex 24.7523 -0.781766 0.781766
      vertex 24.7523 -1.02143 0.423088
    endloop
  endfacet
  facet normal 0.372455 -0.771645 0.515598
    outer loop
      vertex 26.5054 -0.274519 0.274519
      vertex 24.7523 -0.781766 0.781766
      vertex 26.5054 -0.358677 0.148568
    endloop
  endfacet
  facet normal 0.0686939 -0.554261 0.829503
    outer loop
      vertex 21.513 -0.633197 1.52867
      vertex 17.2806 -0.746907 1.80319
      vertex 17.2806 -1.3801 1.3801
    endloop
  endfacet
  facet normal 0.372455 -0.515602 -0.771642
    outer loop
      vertex 24.7523 -0.423088 -1.02143
      vertex 26.5054 -0.148568 -0.358677
      vertex 24.7523 -0.781766 -0.781766
    endloop
  endfacet
  facet normal 0.068691 -0.829513 -0.554247
    outer loop
      vertex 21.513 -1.17 -1.17
      vertex 21.513 -1.52867 -0.633197
      vertex 17.2806 -1.3801 -1.3801
    endloop
  endfacet
  facet normal 0 0.555574 -0.831467
    outer loop
      vertex 15 0.746907 -1.80319
      vertex 17.2806 1.3801 -1.3801
      vertex 17.2806 0.746907 -1.80319
    endloop
  endfacet
  facet normal 0 0.555574 -0.831467
    outer loop
      vertex 17.2806 1.3801 -1.3801
      vertex 15 0.746907 -1.80319
      vertex 15 1.3801 -1.3801
    endloop
  endfacet
  facet normal 0 -0.980785 -0.195092
    outer loop
      vertex 15 -1.80319 -0.746907
      vertex 17.2806 -1.95176 0
      vertex 15 -1.95176 0
    endloop
  endfacet
  facet normal 0 -0.980785 -0.195092
    outer loop
      vertex 17.2806 -1.95176 0
      vertex 15 -1.80319 -0.746907
      vertex 17.2806 -1.80319 -0.746907
    endloop
  endfacet
  facet normal 0.163986 -0.967508 -0.192448
    outer loop
      vertex 24.7523 -1.10558 0
      vertex 21.513 -1.65462 0
      vertex 21.513 -1.52867 -0.633197
    endloop
  endfacet
  facet normal 0.372456 -0.910218 -0.181053
    outer loop
      vertex 26.5054 -0.358677 -0.148568
      vertex 26.5054 -0.388229 0
      vertex 24.7523 -1.02143 -0.423088
    endloop
  endfacet
  facet normal 0.068691 0.829513 -0.554247
    outer loop
      vertex 17.2806 1.3801 -1.3801
      vertex 21.513 1.52867 -0.633197
      vertex 21.513 1.17 -1.17
    endloop
  endfacet
  facet normal 0.0686939 0.829503 -0.554261
    outer loop
      vertex 17.2806 1.80319 -0.746907
      vertex 21.513 1.52867 -0.633197
      vertex 17.2806 1.3801 -1.3801
    endloop
  endfacet
  facet normal 0.372455 0.771642 -0.515602
    outer loop
      vertex 24.7523 1.02143 -0.423088
      vertex 26.5054 0.358677 -0.148568
      vertex 24.7523 0.781766 -0.781766
    endloop
  endfacet
  facet normal 0.372456 0.910218 -0.181053
    outer loop
      vertex 24.7523 1.02143 -0.423088
      vertex 26.5054 0.388229 0
      vertex 26.5054 0.358677 -0.148568
    endloop
  endfacet
  facet normal 0.0686944 0.978468 0.194631
    outer loop
      vertex 17.2806 1.95176 0
      vertex 17.2806 1.80319 0.746907
      vertex 21.513 1.65462 0
    endloop
  endfacet
  facet normal 0.0686944 0.978468 -0.194631
    outer loop
      vertex 17.2806 1.95176 0
      vertex 21.513 1.65462 0
      vertex 17.2806 1.80319 -0.746907
    endloop
  endfacet
  facet normal 0.372455 0.515598 0.771645
    outer loop
      vertex 26.5054 0.274519 0.274519
      vertex 24.7523 0.781766 0.781766
      vertex 26.5054 0.148568 0.358677
    endloop
  endfacet
  facet normal 0.163984 0.820211 0.548054
    outer loop
      vertex 21.513 1.52867 0.633197
      vertex 24.7523 0.781766 0.781766
      vertex 24.7523 1.02143 0.423088
    endloop
  endfacet
  facet normal 0.372455 -0.515598 0.771645
    outer loop
      vertex 26.5054 -0.148568 0.358677
      vertex 24.7523 -0.781766 0.781766
      vertex 26.5054 -0.274519 0.274519
    endloop
  endfacet
  facet normal 0.372455 -0.515602 0.771642
    outer loop
      vertex 26.5054 -0.148568 0.358677
      vertex 24.7523 -0.423088 1.02143
      vertex 24.7523 -0.781766 0.781766
    endloop
  endfacet
  facet normal 0.372455 -0.515598 -0.771645
    outer loop
      vertex 26.5054 -0.148568 -0.358677
      vertex 26.5054 -0.274519 -0.274519
      vertex 24.7523 -0.781766 -0.781766
    endloop
  endfacet
  facet normal 0.163984 -0.820211 -0.548054
    outer loop
      vertex 24.7523 -0.781766 -0.781766
      vertex 24.7523 -1.02143 -0.423088
      vertex 21.513 -1.52867 -0.633197
    endloop
  endfacet
  facet normal 0.372456 -0.181053 -0.910218
    outer loop
      vertex 26.5054 0 -0.388229
      vertex 26.5054 -0.148568 -0.358677
      vertex 24.7523 -0.423088 -1.02143
    endloop
  endfacet
  facet normal 0.163987 -0.820221 -0.548038
    outer loop
      vertex 24.7523 -0.781766 -0.781766
      vertex 21.513 -1.52867 -0.633197
      vertex 21.513 -1.17 -1.17
    endloop
  endfacet
  facet normal 0.163987 -0.548038 -0.820221
    outer loop
      vertex 21.513 -0.633197 -1.52867
      vertex 24.7523 -0.781766 -0.781766
      vertex 21.513 -1.17 -1.17
    endloop
  endfacet
  facet normal 0 -0.831467 -0.555574
    outer loop
      vertex 15 -1.3801 -1.3801
      vertex 17.2806 -1.80319 -0.746907
      vertex 15 -1.80319 -0.746907
    endloop
  endfacet
  facet normal 0 -0.831467 -0.555574
    outer loop
      vertex 17.2806 -1.80319 -0.746907
      vertex 15 -1.3801 -1.3801
      vertex 17.2806 -1.3801 -1.3801
    endloop
  endfacet
  facet normal 0.372455 0.771642 0.515602
    outer loop
      vertex 24.7523 1.02143 0.423088
      vertex 24.7523 0.781766 0.781766
      vertex 26.5054 0.358677 0.148568
    endloop
  endfacet
  facet normal 0.372454 0.910222 0.181038
    outer loop
      vertex 24.7523 1.10558 0
      vertex 24.7523 1.02143 0.423088
      vertex 26.5054 0.388229 0
    endloop
  endfacet
  facet normal 0.372454 0.910222 -0.181038
    outer loop
      vertex 24.7523 1.10558 0
      vertex 26.5054 0.388229 0
      vertex 24.7523 1.02143 -0.423088
    endloop
  endfacet
  facet normal 0 0.980785 -0.195092
    outer loop
      vertex 17.2806 1.80319 -0.746907
      vertex 15 1.95176 0
      vertex 17.2806 1.95176 0
    endloop
  endfacet
  facet normal 0 0.980785 -0.195092
    outer loop
      vertex 15 1.95176 0
      vertex 17.2806 1.80319 -0.746907
      vertex 15 1.80319 -0.746907
    endloop
  endfacet
  facet normal 0 0.980785 0.195092
    outer loop
      vertex 17.2806 1.95176 0
      vertex 15 1.80319 0.746907
      vertex 17.2806 1.80319 0.746907
    endloop
  endfacet
  facet normal 0 0.980785 0.195092
    outer loop
      vertex 15 1.80319 0.746907
      vertex 17.2806 1.95176 0
      vertex 15 1.95176 0
    endloop
  endfacet
  facet normal 0.163987 0.548038 0.820221
    outer loop
      vertex 21.513 1.17 1.17
      vertex 21.513 0.633197 1.52867
      vertex 24.7523 0.781766 0.781766
    endloop
  endfacet
  facet normal 0.163987 0.820221 0.548038
    outer loop
      vertex 21.513 1.52867 0.633197
      vertex 21.513 1.17 1.17
      vertex 24.7523 0.781766 0.781766
    endloop
  endfacet
  facet normal 0.163984 0.548054 0.820211
    outer loop
      vertex 24.7523 0.781766 0.781766
      vertex 21.513 0.633197 1.52867
      vertex 24.7523 0.423088 1.02143
    endloop
  endfacet
  facet normal 0.163984 0.192433 0.967512
    outer loop
      vertex 24.7523 0.423088 1.02143
      vertex 21.513 0.633197 1.52867
      vertex 24.7523 0 1.10558
    endloop
  endfacet
  facet normal 0.372456 0.910218 0.181053
    outer loop
      vertex 26.5054 0.388229 0
      vertex 24.7523 1.02143 0.423088
      vertex 26.5054 0.358677 0.148568
    endloop
  endfacet
  facet normal 0.0686944 -0.978468 -0.194631
    outer loop
      vertex 21.513 -1.65462 0
      vertex 17.2806 -1.95176 0
      vertex 17.2806 -1.80319 -0.746907
    endloop
  endfacet
  facet normal 0.163987 -0.548038 0.820221
    outer loop
      vertex 24.7523 -0.781766 0.781766
      vertex 21.513 -0.633197 1.52867
      vertex 21.513 -1.17 1.17
    endloop
  endfacet
  facet normal 0.163984 -0.967512 -0.192433
    outer loop
      vertex 24.7523 -1.02143 -0.423088
      vertex 24.7523 -1.10558 0
      vertex 21.513 -1.52867 -0.633197
    endloop
  endfacet
  facet normal 0.372454 -0.910222 -0.181038
    outer loop
      vertex 26.5054 -0.388229 0
      vertex 24.7523 -1.10558 0
      vertex 24.7523 -1.02143 -0.423088
    endloop
  endfacet
  facet normal 0.372456 0.181053 0.910218
    outer loop
      vertex 26.5054 0.148568 0.358677
      vertex 24.7523 0.423088 1.02143
      vertex 26.5054 0 0.388229
    endloop
  endfacet
  facet normal 0.372455 0.515602 0.771642
    outer loop
      vertex 24.7523 0.781766 0.781766
      vertex 24.7523 0.423088 1.02143
      vertex 26.5054 0.148568 0.358677
    endloop
  endfacet
  facet normal 1 0 0
    outer loop
      vertex 26.5054 0.358677 0.148568
      vertex 26.5054 0.358677 -0.148568
      vertex 26.5054 0.388229 0
    endloop
  endfacet
  facet normal 1 0 0
    outer loop
      vertex 26.5054 0.274519 0.274519
      vertex 26.5054 0.358677 -0.148568
      vertex 26.5054 0.358677 0.148568
    endloop
  endfacet
  facet normal 1 0 0
    outer loop
      vertex 26.5054 0.274519 0.274519
      vertex 26.5054 0.274519 -0.274519
      vertex 26.5054 0.358677 -0.148568
    endloop
  endfacet
  facet normal 1 0 0
    outer loop
      vertex 26.5054 0.148568 0.358677
      vertex 26.5054 0.274519 -0.274519
      vertex 26.5054 0.274519 0.274519
    endloop
  endfacet
  facet normal 1 0 0
    outer loop
      vertex 26.5054 0.148568 0.358677
      vertex 26.5054 0.148568 -0.358677
      vertex 26.5054 0.274519 -0.274519
    endloop
  endfacet
  facet normal 1 0 0
    outer loop
      vertex 26.5054 0 0.388229
      vertex 26.5054 0.148568 -0.358677
      vertex 26.5054 0.148568 0.358677
    endloop
  endfacet
  facet normal 1 0 0
    outer loop
      vertex 26.5054 0 0.388229
      vertex 26.5054 0 -0.388229
      vertex 26.5054 0.148568 -0.358677
    endloop
  endfacet
  facet normal 1 -0 0
    outer loop
      vertex 26.5054 -0.148568 0.358677
      vertex 26.5054 0 -0.388229
      vertex 26.5054 0 0.388229
    endloop
  endfacet
  facet normal 1 0 0
    outer loop
      vertex 26.5054 -0.148568 0.358677
      vertex 26.5054 -0.148568 -0.358677
      vertex 26.5054 0 -0.388229
    endloop
  endfacet
  facet normal 1 -0 0
    outer loop
      vertex 26.5054 -0.274519 0.274519
      vertex 26.5054 -0.148568 -0.358677
      vertex 26.5054 -0.148568 0.358677
    endloop
  endfacet
  facet normal 1 0 0
    outer loop
      vertex 26.5054 -0.274519 0.274519
      vertex 26.5054 -0.274519 -0.274519
      vertex 26.5054 -0.148568 -0.358677
    endloop
  endfacet
  facet normal 1 -0 0
    outer loop
      vertex 26.5054 -0.358677 0.148568
      vertex 26.5054 -0.274519 -0.274519
      vertex 26.5054 -0.274519 0.274519
    endloop
  endfacet
  facet normal 1 0 0
    outer loop
      vertex 26.5054 -0.358677 0.148568
      vertex 26.5054 -0.358677 -0.148568
      vertex 26.5054 -0.274519 -0.274519
    endloop
  endfacet
  facet normal 1 0 -0
    outer loop
      vertex 26.5054 -0.358677 -0.148568
      vertex 26.5054 -0.358677 0.148568
      vertex 26.5054 -0.388229 0
    endloop
  endfacet
  facet normal 0.068691 -0.829513 0.554247
    outer loop
      vertex 21.513 -1.17 1.17
      vertex 17.2806 -1.3801 1.3801
      vertex 21.513 -1.52867 0.633197
    endloop
  endfacet
  facet normal 0.0686939 -0.829503 0.554261
    outer loop
      vertex 21.513 -1.52867 0.633197
      vertex 17.2806 -1.3801 1.3801
      vertex 17.2806 -1.80319 0.746907
    endloop
  endfacet
  facet normal 0.163984 -0.967512 0.192433
    outer loop
      vertex 24.7523 -1.02143 0.423088
      vertex 21.513 -1.52867 0.633197
      vertex 24.7523 -1.10558 0
    endloop
  endfacet
  facet normal 0.372454 -0.910222 0.181038
    outer loop
      vertex 26.5054 -0.388229 0
      vertex 24.7523 -1.02143 0.423088
      vertex 24.7523 -1.10558 0
    endloop
  endfacet
  facet normal 0.163986 -0.967508 0.192448
    outer loop
      vertex 24.7523 -1.10558 0
      vertex 21.513 -1.52867 0.633197
      vertex 21.513 -1.65462 0
    endloop
  endfacet
  facet normal 0.068694 -0.978469 0.194628
    outer loop
      vertex 21.513 -1.52867 0.633197
      vertex 17.2806 -1.80319 0.746907
      vertex 21.513 -1.65462 0
    endloop
  endfacet
  facet normal -0.700211 -0.593616 0.396642
    outer loop
      vertex -15.5 -1.38582 0.574024
      vertex -15 -1.41421 1.41421
      vertex -15.5 -1.06066 1.06066
    endloop
  endfacet
  facet normal -0.700215 -0.396644 0.59361
    outer loop
      vertex -15 -1.41421 1.41421
      vertex -15 -0.765367 1.84776
      vertex -15.5 -0.574024 1.38582
    endloop
  endfacet
  facet normal -0.700215 0.13928 -0.700215
    outer loop
      vertex -15 0 -2
      vertex -15.5 0 -1.5
      vertex -15 0.765367 -1.84776
    endloop
  endfacet
  facet normal -0.700215 0.139281 -0.700214
    outer loop
      vertex -15.5 0 -1.5
      vertex -15.5 0.574024 -1.38582
      vertex -15 0.765367 -1.84776
    endloop
  endfacet
  facet normal -0.700215 -0.59361 -0.396644
    outer loop
      vertex -15 -1.84776 -0.765367
      vertex -15.5 -1.38582 -0.574024
      vertex -15 -1.41421 -1.41421
    endloop
  endfacet
  facet normal -0.700215 -0.13928 0.700215
    outer loop
      vertex -15 -0.765367 1.84776
      vertex -15 0 2
      vertex -15.5 0 1.5
    endloop
  endfacet
  facet normal -0.700211 -0.396642 -0.593616
    outer loop
      vertex -15 -1.41421 -1.41421
      vertex -15.5 -1.06066 -1.06066
      vertex -15.5 -0.574024 -1.38582
    endloop
  endfacet
  facet normal -0.700217 0.139284 0.700211
    outer loop
      vertex -15.5 0 1.5
      vertex -15 0.19 1.96221
      vertex -15 0.765367 1.84776
    endloop
  endfacet
  facet normal -0.700216 0.139269 0.700216
    outer loop
      vertex -15 0.19 1.96221
      vertex -15.5 0 1.5
      vertex -15 0 2
    endloop
  endfacet
  facet normal -0.700211 0.593616 -0.396642
    outer loop
      vertex -15.5 1.06066 -1.06066
      vertex -15.5 1.38582 -0.574024
      vertex -15 1.41421 -1.41421
    endloop
  endfacet
  facet normal -0.700215 -0.700215 -0.13928
    outer loop
      vertex -15 -1.84776 -0.765367
      vertex -15 -2 0
      vertex -15.5 -1.5 0
    endloop
  endfacet
  facet normal -0.700215 -0.139281 -0.700214
    outer loop
      vertex -15 -0.765367 -1.84776
      vertex -15.5 -0.574024 -1.38582
      vertex -15.5 0 -1.5
    endloop
  endfacet
  facet normal -0.700215 -0.700214 -0.139281
    outer loop
      vertex -15 -1.84776 -0.765367
      vertex -15.5 -1.5 0
      vertex -15.5 -1.38582 -0.574024
    endloop
  endfacet
  facet normal -0.700216 -0.139269 -0.700216
    outer loop
      vertex -15 -0.19 -1.96221
      vertex -15.5 0 -1.5
      vertex -15 0 -2
    endloop
  endfacet
  facet normal -0.700217 -0.139284 -0.700211
    outer loop
      vertex -15.5 0 -1.5
      vertex -15 -0.19 -1.96221
      vertex -15 -0.765367 -1.84776
    endloop
  endfacet
  facet normal -0.700217 -0.700211 0.139284
    outer loop
      vertex -15.5 -1.5 0
      vertex -15 -1.96221 0.19
      vertex -15 -1.84776 0.765367
    endloop
  endfacet
  facet normal -0.700216 -0.700216 0.139269
    outer loop
      vertex -15 -1.96221 0.19
      vertex -15.5 -1.5 0
      vertex -15 -2 0
    endloop
  endfacet
  facet normal -0.700215 -0.396644 -0.59361
    outer loop
      vertex -15 -1.41421 -1.41421
      vertex -15.5 -0.574024 -1.38582
      vertex -15 -0.765367 -1.84776
    endloop
  endfacet
  facet normal -0.700215 0.700214 0.139281
    outer loop
      vertex -15.5 1.38582 0.574024
      vertex -15 1.84776 0.765367
      vertex -15.5 1.5 0
    endloop
  endfacet
  facet normal -0.700215 -0.59361 0.396644
    outer loop
      vertex -15 -1.84776 0.765367
      vertex -15 -1.41421 1.41421
      vertex -15.5 -1.38582 0.574024
    endloop
  endfacet
  facet normal -0.700211 -0.593616 -0.396642
    outer loop
      vertex -15 -1.41421 -1.41421
      vertex -15.5 -1.38582 -0.574024
      vertex -15.5 -1.06066 -1.06066
    endloop
  endfacet
  facet normal -0.700211 0.396642 -0.593616
    outer loop
      vertex -15.5 0.574024 -1.38582
      vertex -15.5 1.06066 -1.06066
      vertex -15 1.41421 -1.41421
    endloop
  endfacet
  facet normal -0.700211 -0.396642 0.593616
    outer loop
      vertex -15.5 -1.06066 1.06066
      vertex -15 -1.41421 1.41421
      vertex -15.5 -0.574024 1.38582
    endloop
  endfacet
  facet normal -0.700215 -0.700214 0.139281
    outer loop
      vertex -15.5 -1.5 0
      vertex -15 -1.84776 0.765367
      vertex -15.5 -1.38582 0.574024
    endloop
  endfacet
  facet normal -0.700215 0.59361 -0.396644
    outer loop
      vertex -15 1.41421 -1.41421
      vertex -15.5 1.38582 -0.574024
      vertex -15 1.84776 -0.765367
    endloop
  endfacet
  facet normal -0.700215 0.396644 -0.59361
    outer loop
      vertex -15 0.765367 -1.84776
      vertex -15.5 0.574024 -1.38582
      vertex -15 1.41421 -1.41421
    endloop
  endfacet
  facet normal -0.700215 0.700215 0.13928
    outer loop
      vertex -15.5 1.5 0
      vertex -15 1.84776 0.765367
      vertex -15 2 0
    endloop
  endfacet
  facet normal -0.700215 0.396644 0.59361
    outer loop
      vertex -15.5 0.574024 1.38582
      vertex -15 0.765367 1.84776
      vertex -15 1.41421 1.41421
    endloop
  endfacet
  facet normal -0.700215 -0.139281 0.700214
    outer loop
      vertex -15.5 -0.574024 1.38582
      vertex -15 -0.765367 1.84776
      vertex -15.5 0 1.5
    endloop
  endfacet
  facet normal -1 0 0
    outer loop
      vertex -15.5 1.22598 0
      vertex -15.5 1.5 0
      vertex -15.5 1.38582 -0.574024
    endloop
  endfacet
  facet normal -1 0 0
    outer loop
      vertex -15.5 1.5 0
      vertex -15.5 1.22598 0
      vertex -15.5 1.38582 0.574024
    endloop
  endfacet
  facet normal -1 0 0
    outer loop
      vertex -15.5 1.38582 -0.574024
      vertex -15.5 1.13266 -0.469162
      vertex -15.5 1.22598 0
    endloop
  endfacet
  facet normal -1 0 0
    outer loop
      vertex -15.5 1.06066 -1.06066
      vertex -15.5 1.13266 -0.469162
      vertex -15.5 1.38582 -0.574024
    endloop
  endfacet
  facet normal -1 0 0
    outer loop
      vertex -15.5 1.06066 -1.06066
      vertex -15.5 0.866899 -0.866899
      vertex -15.5 1.13266 -0.469162
    endloop
  endfacet
  facet normal -1 0 0
    outer loop
      vertex -15.5 0.574024 -1.38582
      vertex -15.5 0.866899 -0.866899
      vertex -15.5 1.06066 -1.06066
    endloop
  endfacet
  facet normal -1 0 0
    outer loop
      vertex -15.5 0.574024 -1.38582
      vertex -15.5 0.469162 -1.13266
      vertex -15.5 0.866899 -0.866899
    endloop
  endfacet
  facet normal -1 0 0
    outer loop
      vertex -15.5 0 -1.5
      vertex -15.5 0.469162 -1.13266
      vertex -15.5 0.574024 -1.38582
    endloop
  endfacet
  facet normal -1 0 0
    outer loop
      vertex -15.5 0 -1.5
      vertex -15.5 0 -1.22598
      vertex -15.5 0.469162 -1.13266
    endloop
  endfacet
  facet normal -1 0 0
    outer loop
      vertex -15.5 0 -1.5
      vertex -15.5 -0.469162 -1.13266
      vertex -15.5 0 -1.22598
    endloop
  endfacet
  facet normal -1 0 0
    outer loop
      vertex -15.5 -0.574024 -1.38582
      vertex -15.5 -0.469162 -1.13266
      vertex -15.5 0 -1.5
    endloop
  endfacet
  facet normal -1 0 0
    outer loop
      vertex -15.5 -0.574024 -1.38582
      vertex -15.5 -0.866899 -0.866899
      vertex -15.5 -0.469162 -1.13266
    endloop
  endfacet
  facet normal -1 0 0
    outer loop
      vertex -15.5 -1.06066 -1.06066
      vertex -15.5 -0.866899 -0.866899
      vertex -15.5 -0.574024 -1.38582
    endloop
  endfacet
  facet normal -1 0 0
    outer loop
      vertex -15.5 -1.06066 -1.06066
      vertex -15.5 -1.13266 -0.469162
      vertex -15.5 -0.866899 -0.866899
    endloop
  endfacet
  facet normal -1 0 0
    outer loop
      vertex -15.5 -1.38582 -0.574024
      vertex -15.5 -1.13266 -0.469162
      vertex -15.5 -1.06066 -1.06066
    endloop
  endfacet
  facet normal -1 -0 0
    outer loop
      vertex -15.5 -1.13266 -0.469162
      vertex -15.5 -1.38582 -0.574024
      vertex -15.5 -1.22598 0
    endloop
  endfacet
  facet normal -1 0 0
    outer loop
      vertex -15.5 1.13266 0.469162
      vertex -15.5 1.38582 0.574024
      vertex -15.5 1.22598 0
    endloop
  endfacet
  facet normal -1 0 0
    outer loop
      vertex -15.5 1.13266 0.469162
      vertex -15.5 1.06066 1.06066
      vertex -15.5 1.38582 0.574024
    endloop
  endfacet
  facet normal -1 0 0
    outer loop
      vertex -15.5 0.866899 0.866899
      vertex -15.5 1.06066 1.06066
      vertex -15.5 1.13266 0.469162
    endloop
  endfacet
  facet normal -1 0 0
    outer loop
      vertex -15.5 0.866899 0.866899
      vertex -15.5 0.574024 1.38582
      vertex -15.5 1.06066 1.06066
    endloop
  endfacet
  facet normal -1 0 0
    outer loop
      vertex -15.5 0.469162 1.13266
      vertex -15.5 0.574024 1.38582
      vertex -15.5 0.866899 0.866899
    endloop
  endfacet
  facet normal -1 0 0
    outer loop
      vertex -15.5 0 1.22598
      vertex -15.5 0.574024 1.38582
      vertex -15.5 0.469162 1.13266
    endloop
  endfacet
  facet normal -1 0 0
    outer loop
      vertex -15.5 0 1.22598
      vertex -15.5 0 1.5
      vertex -15.5 0.574024 1.38582
    endloop
  endfacet
  facet normal -1 0 0
    outer loop
      vertex -15.5 -0.469162 1.13266
      vertex -15.5 0 1.5
      vertex -15.5 0 1.22598
    endloop
  endfacet
  facet normal -1 0 0
    outer loop
      vertex -15.5 -0.469162 1.13266
      vertex -15.5 -0.574024 1.38582
      vertex -15.5 0 1.5
    endloop
  endfacet
  facet normal -1 0 0
    outer loop
      vertex -15.5 -0.866899 0.866899
      vertex -15.5 -0.574024 1.38582
      vertex -15.5 -0.469162 1.13266
    endloop
  endfacet
  facet normal -1 0 0
    outer loop
      vertex -15.5 -0.866899 0.866899
      vertex -15.5 -1.06066 1.06066
      vertex -15.5 -0.574024 1.38582
    endloop
  endfacet
  facet normal -1 0 0
    outer loop
      vertex -15.5 -1.13266 0.469162
      vertex -15.5 -1.06066 1.06066
      vertex -15.5 -0.866899 0.866899
    endloop
  endfacet
  facet normal -1 0 0
    outer loop
      vertex -15.5 -1.38582 0.574024
      vertex -15.5 -1.13266 0.469162
      vertex -15.5 -1.22598 0
    endloop
  endfacet
  facet normal -1 0 0
    outer loop
      vertex -15.5 -1.5 0
      vertex -15.5 -1.22598 0
      vertex -15.5 -1.38582 -0.574024
    endloop
  endfacet
  facet normal -1 0 0
    outer loop
      vertex -15.5 -1.13266 0.469162
      vertex -15.5 -1.38582 0.574024
      vertex -15.5 -1.06066 1.06066
    endloop
  endfacet
  facet normal -1 0 0
    outer loop
      vertex -15.5 -1.22598 0
      vertex -15.5 -1.5 0
      vertex -15.5 -1.38582 0.574024
    endloop
  endfacet
  facet normal -0.700217 0.700211 -0.139284
    outer loop
      vertex -15.5 1.5 0
      vertex -15 1.96221 -0.19
      vertex -15 1.84776 -0.765367
    endloop
  endfacet
  facet normal -0.700216 0.700216 -0.139269
    outer loop
      vertex -15 1.96221 -0.19
      vertex -15.5 1.5 0
      vertex -15 2 0
    endloop
  endfacet
  facet normal -0.700215 0.700214 -0.139281
    outer loop
      vertex -15.5 1.38582 -0.574024
      vertex -15.5 1.5 0
      vertex -15 1.84776 -0.765367
    endloop
  endfacet
  facet normal -0.700215 0.59361 0.396644
    outer loop
      vertex -15.5 1.38582 0.574024
      vertex -15 1.41421 1.41421
      vertex -15 1.84776 0.765367
    endloop
  endfacet
  facet normal -0.700215 0.139281 0.700214
    outer loop
      vertex -15.5 0 1.5
      vertex -15 0.765367 1.84776
      vertex -15.5 0.574024 1.38582
    endloop
  endfacet
  facet normal -0.700211 0.396642 0.593616
    outer loop
      vertex -15.5 0.574024 1.38582
      vertex -15 1.41421 1.41421
      vertex -15.5 1.06066 1.06066
    endloop
  endfacet
  facet normal -0.700211 0.593616 0.396642
    outer loop
      vertex -15.5 1.06066 1.06066
      vertex -15 1.41421 1.41421
      vertex -15.5 1.38582 0.574024
    endloop
  endfacet
  facet normal 0 -0.555573 -0.831468
    outer loop
      vertex -15.5 0.469162 1.13266
      vertex -14.0245 0.866899 0.866899
      vertex -14.0245 0.469162 1.13266
    endloop
  endfacet
  facet normal -0 -0.555573 -0.831468
    outer loop
      vertex -14.0245 0.866899 0.866899
      vertex -15.5 0.469162 1.13266
      vertex -15.5 0.866899 0.866899
    endloop
  endfacet
  facet normal 0 -0.980786 0.195086
    outer loop
      vertex -15.5 1.13266 -0.469162
      vertex -14.0245 1.22598 0
      vertex -15.5 1.22598 0
    endloop
  endfacet
  facet normal 0 -0.980786 0.195086
    outer loop
      vertex -14.0245 1.22598 0
      vertex -15.5 1.13266 -0.469162
      vertex -14.0245 1.13266 -0.469162
    endloop
  endfacet
  facet normal -0.509386 0.47809 0.715511
    outer loop
      vertex -10.8427 -0.265759 -0.6416
      vertex -10.8427 -0.491059 -0.491059
      vertex -10.0961 -0.0933218 -0.2253
    endloop
  endfacet
  facet normal -0.509386 0.478089 0.715512
    outer loop
      vertex -10.0961 -0.0933218 -0.2253
      vertex -10.8427 -0.491059 -0.491059
      vertex -10.0961 -0.172437 -0.172437
    endloop
  endfacet
  facet normal -0.238159 -0.189486 0.952562
    outer loop
      vertex -12.2221 0.397737 -0.960221
      vertex -12.2221 0 -1.03934
      vertex -10.8427 0 -0.694463
    endloop
  endfacet
  facet normal -0.238157 -0.539585 -0.807545
    outer loop
      vertex -10.8427 0.491059 0.491059
      vertex -10.8427 0.265759 0.6416
      vertex -12.2221 0.397737 0.960221
    endloop
  endfacet
  facet normal -0.101045 0.975764 -0.194102
    outer loop
      vertex -12.2221 -0.960221 0.397737
      vertex -12.2221 -1.03934 0
      vertex -14.0245 -1.13266 0.469162
    endloop
  endfacet
  facet normal 0 -0.195086 0.980786
    outer loop
      vertex -15.5 0.469162 -1.13266
      vertex -14.0245 0 -1.22598
      vertex -14.0245 0.469162 -1.13266
    endloop
  endfacet
  facet normal 0 -0.195086 0.980786
    outer loop
      vertex -14.0245 0 -1.22598
      vertex -15.5 0.469162 -1.13266
      vertex -15.5 0 -1.22598
    endloop
  endfacet
  facet normal -0.101044 -0.552729 0.827213
    outer loop
      vertex -14.0245 0.469162 -1.13266
      vertex -12.2221 0.397737 -0.960221
      vertex -14.0245 0.866899 -0.866899
    endloop
  endfacet
  facet normal -0.101045 -0.194102 0.975764
    outer loop
      vertex -14.0245 0.469162 -1.13266
      vertex -12.2221 0 -1.03934
      vertex -12.2221 0.397737 -0.960221
    endloop
  endfacet
  facet normal 0 -0.195086 -0.980786
    outer loop
      vertex -15.5 0 1.22598
      vertex -14.0245 0.469162 1.13266
      vertex -14.0245 0 1.22598
    endloop
  endfacet
  facet normal -0 -0.195086 -0.980786
    outer loop
      vertex -14.0245 0.469162 1.13266
      vertex -15.5 0 1.22598
      vertex -15.5 0.469162 1.13266
    endloop
  endfacet
  facet normal -0.509386 -0.715511 0.47809
    outer loop
      vertex -10.8427 0.6416 -0.265759
      vertex -10.8427 0.491059 -0.491059
      vertex -10.0961 0.2253 -0.0933218
    endloop
  endfacet
  facet normal -0.509388 -0.167875 0.844004
    outer loop
      vertex -10.8427 0 -0.694463
      vertex -10.0961 0 -0.243862
      vertex -10.0961 0.0933218 -0.2253
    endloop
  endfacet
  facet normal -0.101041 -0.975767 0.194088
    outer loop
      vertex -14.0245 1.22598 0
      vertex -14.0245 1.13266 -0.469162
      vertex -12.2221 1.03934 0
    endloop
  endfacet
  facet normal -0.509386 -0.478089 -0.715512
    outer loop
      vertex -10.0961 0.172437 0.172437
      vertex -10.0961 0.0933218 0.2253
      vertex -10.8427 0.491059 0.491059
    endloop
  endfacet
  facet normal -0.101041 -0.194088 0.975767
    outer loop
      vertex -14.0245 0.469162 -1.13266
      vertex -14.0245 0 -1.22598
      vertex -12.2221 0 -1.03934
    endloop
  endfacet
  facet normal 0 -0.555573 0.831468
    outer loop
      vertex -15.5 0.866899 -0.866899
      vertex -14.0245 0.469162 -1.13266
      vertex -14.0245 0.866899 -0.866899
    endloop
  endfacet
  facet normal 0 -0.555573 0.831468
    outer loop
      vertex -14.0245 0.469162 -1.13266
      vertex -15.5 0.866899 -0.866899
      vertex -15.5 0.469162 -1.13266
    endloop
  endfacet
  facet normal -0.238159 0.189486 -0.952562
    outer loop
      vertex -10.8427 0 0.694463
      vertex -12.2221 -0.397737 0.960221
      vertex -12.2221 0 1.03934
    endloop
  endfacet
  facet normal -0.509386 -0.478089 0.715512
    outer loop
      vertex -10.8427 0.491059 -0.491059
      vertex -10.0961 0.0933218 -0.2253
      vertex -10.0961 0.172437 -0.172437
    endloop
  endfacet
  facet normal -0.509386 0.47809 -0.715511
    outer loop
      vertex -10.0961 -0.0933218 0.2253
      vertex -10.8427 -0.491059 0.491059
      vertex -10.8427 -0.265759 0.6416
    endloop
  endfacet
  facet normal -0.238157 0.807544 -0.539586
    outer loop
      vertex -10.8427 -0.491059 0.491059
      vertex -12.2221 -0.960221 0.397737
      vertex -12.2221 -0.734921 0.734921
    endloop
  endfacet
  facet normal -0 0.555573 0.831468
    outer loop
      vertex -15.5 -0.469162 -1.13266
      vertex -14.0245 -0.866899 -0.866899
      vertex -14.0245 -0.469162 -1.13266
    endloop
  endfacet
  facet normal 0 0.555573 0.831468
    outer loop
      vertex -14.0245 -0.866899 -0.866899
      vertex -15.5 -0.469162 -1.13266
      vertex -15.5 -0.866899 -0.866899
    endloop
  endfacet
  facet normal -0.238159 0.952562 0.189486
    outer loop
      vertex -10.8427 -0.694463 0
      vertex -12.2221 -0.960221 -0.397737
      vertex -12.2221 -1.03934 0
    endloop
  endfacet
  facet normal -0.101044 -0.552729 -0.827213
    outer loop
      vertex -14.0245 0.866899 0.866899
      vertex -12.2221 0.397737 0.960221
      vertex -14.0245 0.469162 1.13266
    endloop
  endfacet
  facet normal -0.509386 -0.47809 0.715511
    outer loop
      vertex -10.8427 0.491059 -0.491059
      vertex -10.8427 0.265759 -0.6416
      vertex -10.0961 0.0933218 -0.2253
    endloop
  endfacet
  facet normal -0.101044 -0.827213 -0.552729
    outer loop
      vertex -14.0245 1.13266 0.469162
      vertex -12.2221 0.960221 0.397737
      vertex -14.0245 0.866899 0.866899
    endloop
  endfacet
  facet normal -0.101041 -0.975767 -0.194088
    outer loop
      vertex -14.0245 1.22598 0
      vertex -12.2221 1.03934 0
      vertex -14.0245 1.13266 0.469162
    endloop
  endfacet
  facet normal -0.101041 -0.194088 -0.975767
    outer loop
      vertex -14.0245 0.469162 1.13266
      vertex -12.2221 0 1.03934
      vertex -14.0245 0 1.22598
    endloop
  endfacet
  facet normal -0.238157 0.539585 -0.807545
    outer loop
      vertex -10.8427 -0.265759 0.6416
      vertex -10.8427 -0.491059 0.491059
      vertex -12.2221 -0.397737 0.960221
    endloop
  endfacet
  facet normal -0.509386 -0.167883 -0.844003
    outer loop
      vertex -10.8427 0.265759 0.6416
      vertex -10.0961 0.0933218 0.2253
      vertex -10.8427 0 0.694463
    endloop
  endfacet
  facet normal -0.101044 0.552729 0.827213
    outer loop
      vertex -12.2221 -0.397737 -0.960221
      vertex -14.0245 -0.469162 -1.13266
      vertex -14.0245 -0.866899 -0.866899
    endloop
  endfacet
  facet normal -0.509386 -0.167883 0.844003
    outer loop
      vertex -10.8427 0.265759 -0.6416
      vertex -10.8427 0 -0.694463
      vertex -10.0961 0.0933218 -0.2253
    endloop
  endfacet
  facet normal 0 -0.831468 0.555573
    outer loop
      vertex -15.5 0.866899 -0.866899
      vertex -14.0245 1.13266 -0.469162
      vertex -15.5 1.13266 -0.469162
    endloop
  endfacet
  facet normal 0 -0.831468 0.555573
    outer loop
      vertex -14.0245 1.13266 -0.469162
      vertex -15.5 0.866899 -0.866899
      vertex -14.0245 0.866899 -0.866899
    endloop
  endfacet
  facet normal -0.509388 -0.167875 -0.844004
    outer loop
      vertex -10.0961 0.0933218 0.2253
      vertex -10.0961 0 0.243862
      vertex -10.8427 0 0.694463
    endloop
  endfacet
  facet normal -0.101044 -0.827213 0.552728
    outer loop
      vertex -14.0245 0.866899 -0.866899
      vertex -12.2221 0.734921 -0.734921
      vertex -12.2221 0.960221 -0.397737
    endloop
  endfacet
  facet normal -0.101044 0.827213 -0.552728
    outer loop
      vertex -12.2221 -0.734921 0.734921
      vertex -12.2221 -0.960221 0.397737
      vertex -14.0245 -0.866899 0.866899
    endloop
  endfacet
  facet normal -0.101044 0.552728 0.827213
    outer loop
      vertex -12.2221 -0.397737 -0.960221
      vertex -14.0245 -0.866899 -0.866899
      vertex -12.2221 -0.734921 -0.734921
    endloop
  endfacet
  facet normal -0.238157 0.189478 -0.952565
    outer loop
      vertex -10.8427 0 0.694463
      vertex -10.8427 -0.265759 0.6416
      vertex -12.2221 -0.397737 0.960221
    endloop
  endfacet
  facet normal -0.101044 0.552729 -0.827213
    outer loop
      vertex -12.2221 -0.397737 0.960221
      vertex -14.0245 -0.866899 0.866899
      vertex -14.0245 -0.469162 1.13266
    endloop
  endfacet
  facet normal 0 0.980786 -0.195086
    outer loop
      vertex -14.0245 -1.22598 0
      vertex -15.5 -1.13266 0.469162
      vertex -14.0245 -1.13266 0.469162
    endloop
  endfacet
  facet normal 0 0.980786 -0.195086
    outer loop
      vertex -15.5 -1.13266 0.469162
      vertex -14.0245 -1.22598 0
      vertex -15.5 -1.22598 0
    endloop
  endfacet
  facet normal 0 0.831468 -0.555573
    outer loop
      vertex -14.0245 -1.13266 0.469162
      vertex -15.5 -0.866899 0.866899
      vertex -14.0245 -0.866899 0.866899
    endloop
  endfacet
  facet normal 0 0.831468 -0.555573
    outer loop
      vertex -15.5 -0.866899 0.866899
      vertex -14.0245 -1.13266 0.469162
      vertex -15.5 -1.13266 0.469162
    endloop
  endfacet
  facet normal -0.101041 0.194088 0.975767
    outer loop
      vertex -14.0245 0 -1.22598
      vertex -14.0245 -0.469162 -1.13266
      vertex -12.2221 0 -1.03934
    endloop
  endfacet
  facet normal -0.101045 0.194102 0.975764
    outer loop
      vertex -12.2221 0 -1.03934
      vertex -14.0245 -0.469162 -1.13266
      vertex -12.2221 -0.397737 -0.960221
    endloop
  endfacet
  facet normal -0.101044 -0.552728 0.827213
    outer loop
      vertex -14.0245 0.866899 -0.866899
      vertex -12.2221 0.397737 -0.960221
      vertex -12.2221 0.734921 -0.734921
    endloop
  endfacet
  facet normal -0.238157 -0.807545 0.539585
    outer loop
      vertex -12.2221 0.960221 -0.397737
      vertex -10.8427 0.491059 -0.491059
      vertex -10.8427 0.6416 -0.265759
    endloop
  endfacet
  facet normal -0.101041 0.194088 -0.975767
    outer loop
      vertex -12.2221 0 1.03934
      vertex -14.0245 -0.469162 1.13266
      vertex -14.0245 0 1.22598
    endloop
  endfacet
  facet normal -0.509386 -0.844003 0.167883
    outer loop
      vertex -10.8427 0.6416 -0.265759
      vertex -10.0961 0.2253 -0.0933218
      vertex -10.8427 0.694463 0
    endloop
  endfacet
  facet normal -0.509386 -0.715512 0.478089
    outer loop
      vertex -10.8427 0.491059 -0.491059
      vertex -10.0961 0.172437 -0.172437
      vertex -10.0961 0.2253 -0.0933218
    endloop
  endfacet
  facet normal -0.101045 -0.194102 -0.975764
    outer loop
      vertex -12.2221 0.397737 0.960221
      vertex -12.2221 0 1.03934
      vertex -14.0245 0.469162 1.13266
    endloop
  endfacet
  facet normal -0.101044 -0.827213 0.552729
    outer loop
      vertex -14.0245 1.13266 -0.469162
      vertex -14.0245 0.866899 -0.866899
      vertex -12.2221 0.960221 -0.397737
    endloop
  endfacet
  facet normal -0.101045 -0.975764 0.194102
    outer loop
      vertex -14.0245 1.13266 -0.469162
      vertex -12.2221 0.960221 -0.397737
      vertex -12.2221 1.03934 0
    endloop
  endfacet
  facet normal -0.238159 -0.952562 0.189486
    outer loop
      vertex -12.2221 1.03934 0
      vertex -12.2221 0.960221 -0.397737
      vertex -10.8427 0.694463 0
    endloop
  endfacet
  facet normal -0.509386 0.167883 0.844003
    outer loop
      vertex -10.8427 0 -0.694463
      vertex -10.8427 -0.265759 -0.6416
      vertex -10.0961 -0.0933218 -0.2253
    endloop
  endfacet
  facet normal -0.509386 0.844003 0.167883
    outer loop
      vertex -10.0961 -0.2253 -0.0933218
      vertex -10.8427 -0.6416 -0.265759
      vertex -10.8427 -0.694463 0
    endloop
  endfacet
  facet normal -0.101045 0.194102 -0.975764
    outer loop
      vertex -12.2221 0 1.03934
      vertex -12.2221 -0.397737 0.960221
      vertex -14.0245 -0.469162 1.13266
    endloop
  endfacet
  facet normal -0.101044 0.827213 -0.552729
    outer loop
      vertex -12.2221 -0.960221 0.397737
      vertex -14.0245 -1.13266 0.469162
      vertex -14.0245 -0.866899 0.866899
    endloop
  endfacet
  facet normal -0.238159 0.952562 -0.189486
    outer loop
      vertex -10.8427 -0.694463 0
      vertex -12.2221 -1.03934 0
      vertex -12.2221 -0.960221 0.397737
    endloop
  endfacet
  facet normal -0.238157 0.807545 -0.539585
    outer loop
      vertex -10.8427 -0.6416 0.265759
      vertex -12.2221 -0.960221 0.397737
      vertex -10.8427 -0.491059 0.491059
    endloop
  endfacet
  facet normal -0.101044 0.552728 -0.827213
    outer loop
      vertex -12.2221 -0.734921 0.734921
      vertex -14.0245 -0.866899 0.866899
      vertex -12.2221 -0.397737 0.960221
    endloop
  endfacet
  facet normal -0.238157 0.539586 -0.807544
    outer loop
      vertex -10.8427 -0.491059 0.491059
      vertex -12.2221 -0.734921 0.734921
      vertex -12.2221 -0.397737 0.960221
    endloop
  endfacet
  facet normal 0 0.555573 -0.831468
    outer loop
      vertex -15.5 -0.866899 0.866899
      vertex -14.0245 -0.469162 1.13266
      vertex -14.0245 -0.866899 0.866899
    endloop
  endfacet
  facet normal 0 0.555573 -0.831468
    outer loop
      vertex -14.0245 -0.469162 1.13266
      vertex -15.5 -0.866899 0.866899
      vertex -15.5 -0.469162 1.13266
    endloop
  endfacet
  facet normal -0.238159 0.189486 0.952562
    outer loop
      vertex -12.2221 0 -1.03934
      vertex -12.2221 -0.397737 -0.960221
      vertex -10.8427 0 -0.694463
    endloop
  endfacet
  facet normal -0.101045 0.975764 0.194102
    outer loop
      vertex -12.2221 -0.960221 -0.397737
      vertex -14.0245 -1.13266 -0.469162
      vertex -12.2221 -1.03934 0
    endloop
  endfacet
  facet normal -0.238157 -0.539586 0.807544
    outer loop
      vertex -12.2221 0.734921 -0.734921
      vertex -12.2221 0.397737 -0.960221
      vertex -10.8427 0.491059 -0.491059
    endloop
  endfacet
  facet normal -0.238157 -0.807544 0.539586
    outer loop
      vertex -12.2221 0.734921 -0.734921
      vertex -10.8427 0.491059 -0.491059
      vertex -12.2221 0.960221 -0.397737
    endloop
  endfacet
  facet normal -0.101045 -0.975764 -0.194102
    outer loop
      vertex -12.2221 1.03934 0
      vertex -12.2221 0.960221 0.397737
      vertex -14.0245 1.13266 0.469162
    endloop
  endfacet
  facet normal 0 -0.980786 -0.195086
    outer loop
      vertex -15.5 1.22598 0
      vertex -14.0245 1.13266 0.469162
      vertex -15.5 1.13266 0.469162
    endloop
  endfacet
  facet normal 0 -0.980786 -0.195086
    outer loop
      vertex -14.0245 1.13266 0.469162
      vertex -15.5 1.22598 0
      vertex -14.0245 1.22598 0
    endloop
  endfacet
  facet normal -0.509386 0.167883 -0.844003
    outer loop
      vertex -10.0961 -0.0933218 0.2253
      vertex -10.8427 -0.265759 0.6416
      vertex -10.8427 0 0.694463
    endloop
  endfacet
  facet normal -0.509388 0.167875 0.844004
    outer loop
      vertex -10.0961 0 -0.243862
      vertex -10.8427 0 -0.694463
      vertex -10.0961 -0.0933218 -0.2253
    endloop
  endfacet
  facet normal -0.509386 -0.715512 -0.478089
    outer loop
      vertex -10.0961 0.2253 0.0933218
      vertex -10.0961 0.172437 0.172437
      vertex -10.8427 0.491059 0.491059
    endloop
  endfacet
  facet normal -0 0.195086 0.980786
    outer loop
      vertex -15.5 0 -1.22598
      vertex -14.0245 -0.469162 -1.13266
      vertex -14.0245 0 -1.22598
    endloop
  endfacet
  facet normal 0 0.195086 0.980786
    outer loop
      vertex -14.0245 -0.469162 -1.13266
      vertex -15.5 0 -1.22598
      vertex -15.5 -0.469162 -1.13266
    endloop
  endfacet
  facet normal -0.101041 0.975767 -0.194088
    outer loop
      vertex -12.2221 -1.03934 0
      vertex -14.0245 -1.22598 0
      vertex -14.0245 -1.13266 0.469162
    endloop
  endfacet
  facet normal -1 0 0
    outer loop
      vertex -10.0961 0.2253 -0.0933218
      vertex -10.0961 0.2253 0.0933218
      vertex -10.0961 0.243862 0
    endloop
  endfacet
  facet normal -1 0 0
    outer loop
      vertex -10.0961 0.172437 -0.172437
      vertex -10.0961 0.2253 0.0933218
      vertex -10.0961 0.2253 -0.0933218
    endloop
  endfacet
  facet normal -1 0 0
    outer loop
      vertex -10.0961 0.172437 -0.172437
      vertex -10.0961 0.172437 0.172437
      vertex -10.0961 0.2253 0.0933218
    endloop
  endfacet
  facet normal -1 0 0
    outer loop
      vertex -10.0961 0.0933218 -0.2253
      vertex -10.0961 0.172437 0.172437
      vertex -10.0961 0.172437 -0.172437
    endloop
  endfacet
  facet normal -1 0 0
    outer loop
      vertex -10.0961 0.0933218 -0.2253
      vertex -10.0961 0.0933218 0.2253
      vertex -10.0961 0.172437 0.172437
    endloop
  endfacet
  facet normal -1 0 0
    outer loop
      vertex -10.0961 0 -0.243862
      vertex -10.0961 0.0933218 0.2253
      vertex -10.0961 0.0933218 -0.2253
    endloop
  endfacet
  facet normal -1 0 0
    outer loop
      vertex -10.0961 0 -0.243862
      vertex -10.0961 0 0.243862
      vertex -10.0961 0.0933218 0.2253
    endloop
  endfacet
  facet normal -1 0 0
    outer loop
      vertex -10.0961 -0.0933218 -0.2253
      vertex -10.0961 0 0.243862
      vertex -10.0961 0 -0.243862
    endloop
  endfacet
  facet normal -1 0 0
    outer loop
      vertex -10.0961 -0.0933218 -0.2253
      vertex -10.0961 -0.0933218 0.2253
      vertex -10.0961 0 0.243862
    endloop
  endfacet
  facet normal -1 0 0
    outer loop
      vertex -10.0961 -0.172437 -0.172437
      vertex -10.0961 -0.0933218 0.2253
      vertex -10.0961 -0.0933218 -0.2253
    endloop
  endfacet
  facet normal -1 0 0
    outer loop
      vertex -10.0961 -0.172437 -0.172437
      vertex -10.0961 -0.172437 0.172437
      vertex -10.0961 -0.0933218 0.2253
    endloop
  endfacet
  facet normal -1 0 0
    outer loop
      vertex -10.0961 -0.2253 -0.0933218
      vertex -10.0961 -0.172437 0.172437
      vertex -10.0961 -0.172437 -0.172437
    endloop
  endfacet
  facet normal -1 0 0
    outer loop
      vertex -10.0961 -0.2253 -0.0933218
      vertex -10.0961 -0.2253 0.0933218
      vertex -10.0961 -0.172437 0.172437
    endloop
  endfacet
  facet normal -1 0 -0
    outer loop
      vertex -10.0961 -0.2253 0.0933218
      vertex -10.0961 -0.2253 -0.0933218
      vertex -10.0961 -0.243862 0
    endloop
  endfacet
  facet normal -0.509386 0.478089 -0.715512
    outer loop
      vertex -10.0961 -0.0933218 0.2253
      vertex -10.0961 -0.172437 0.172437
      vertex -10.8427 -0.491059 0.491059
    endloop
  endfacet
  facet normal -0.238157 0.952565 -0.189478
    outer loop
      vertex -10.8427 -0.6416 0.265759
      vertex -10.8427 -0.694463 0
      vertex -12.2221 -0.960221 0.397737
    endloop
  endfacet
  facet normal -0.509388 0.167875 -0.844004
    outer loop
      vertex -10.0961 0 0.243862
      vertex -10.0961 -0.0933218 0.2253
      vertex -10.8427 0 0.694463
    endloop
  endfacet
  facet normal -0.509386 0.844003 -0.167883
    outer loop
      vertex -10.0961 -0.2253 0.0933218
      vertex -10.8427 -0.694463 0
      vertex -10.8427 -0.6416 0.265759
    endloop
  endfacet
  facet normal -0.509386 0.715511 -0.47809
    outer loop
      vertex -10.0961 -0.2253 0.0933218
      vertex -10.8427 -0.6416 0.265759
      vertex -10.8427 -0.491059 0.491059
    endloop
  endfacet
  facet normal 0 0.195086 -0.980786
    outer loop
      vertex -15.5 -0.469162 1.13266
      vertex -14.0245 0 1.22598
      vertex -14.0245 -0.469162 1.13266
    endloop
  endfacet
  facet normal 0 0.195086 -0.980786
    outer loop
      vertex -14.0245 0 1.22598
      vertex -15.5 -0.469162 1.13266
      vertex -15.5 0 1.22598
    endloop
  endfacet
  facet normal -0.238157 -0.189478 0.952565
    outer loop
      vertex -12.2221 0.397737 -0.960221
      vertex -10.8427 0 -0.694463
      vertex -10.8427 0.265759 -0.6416
    endloop
  endfacet
  facet normal -0.238157 -0.539585 0.807545
    outer loop
      vertex -12.2221 0.397737 -0.960221
      vertex -10.8427 0.265759 -0.6416
      vertex -10.8427 0.491059 -0.491059
    endloop
  endfacet
  facet normal 0 -0.831468 -0.555573
    outer loop
      vertex -15.5 1.13266 0.469162
      vertex -14.0245 0.866899 0.866899
      vertex -15.5 0.866899 0.866899
    endloop
  endfacet
  facet normal 0 -0.831468 -0.555573
    outer loop
      vertex -14.0245 0.866899 0.866899
      vertex -15.5 1.13266 0.469162
      vertex -14.0245 1.13266 0.469162
    endloop
  endfacet
  facet normal -0.238159 -0.189486 -0.952562
    outer loop
      vertex -12.2221 0.397737 0.960221
      vertex -10.8427 0 0.694463
      vertex -12.2221 0 1.03934
    endloop
  endfacet
  facet normal -0.238157 -0.189478 -0.952565
    outer loop
      vertex -10.8427 0.265759 0.6416
      vertex -10.8427 0 0.694463
      vertex -12.2221 0.397737 0.960221
    endloop
  endfacet
  facet normal -0.509386 0.715512 0.478089
    outer loop
      vertex -10.0961 -0.172437 -0.172437
      vertex -10.8427 -0.491059 -0.491059
      vertex -10.0961 -0.2253 -0.0933218
    endloop
  endfacet
  facet normal -0.238157 -0.807545 -0.539585
    outer loop
      vertex -12.2221 0.960221 0.397737
      vertex -10.8427 0.6416 0.265759
      vertex -10.8427 0.491059 0.491059
    endloop
  endfacet
  facet normal -0.238157 -0.952565 0.189478
    outer loop
      vertex -12.2221 0.960221 -0.397737
      vertex -10.8427 0.6416 -0.265759
      vertex -10.8427 0.694463 0
    endloop
  endfacet
  facet normal -0.509386 -0.47809 -0.715511
    outer loop
      vertex -10.8427 0.491059 0.491059
      vertex -10.0961 0.0933218 0.2253
      vertex -10.8427 0.265759 0.6416
    endloop
  endfacet
  facet normal -0.101041 0.975767 0.194088
    outer loop
      vertex -12.2221 -1.03934 0
      vertex -14.0245 -1.13266 -0.469162
      vertex -14.0245 -1.22598 0
    endloop
  endfacet
  facet normal 0 0.980786 0.195086
    outer loop
      vertex -14.0245 -1.13266 -0.469162
      vertex -15.5 -1.22598 0
      vertex -14.0245 -1.22598 0
    endloop
  endfacet
  facet normal 0 0.980786 0.195086
    outer loop
      vertex -15.5 -1.22598 0
      vertex -14.0245 -1.13266 -0.469162
      vertex -15.5 -1.13266 -0.469162
    endloop
  endfacet
  facet normal -0.238157 0.539586 0.807544
    outer loop
      vertex -12.2221 -0.397737 -0.960221
      vertex -12.2221 -0.734921 -0.734921
      vertex -10.8427 -0.491059 -0.491059
    endloop
  endfacet
  facet normal -0.509386 0.715512 -0.478089
    outer loop
      vertex -10.0961 -0.172437 0.172437
      vertex -10.0961 -0.2253 0.0933218
      vertex -10.8427 -0.491059 0.491059
    endloop
  endfacet
  facet normal -0.509386 0.715511 0.47809
    outer loop
      vertex -10.8427 -0.491059 -0.491059
      vertex -10.8427 -0.6416 -0.265759
      vertex -10.0961 -0.2253 -0.0933218
    endloop
  endfacet
  facet normal -0.509388 0.844004 -0.167875
    outer loop
      vertex -10.0961 -0.243862 0
      vertex -10.8427 -0.694463 0
      vertex -10.0961 -0.2253 0.0933218
    endloop
  endfacet
  facet normal -0.509388 -0.844004 -0.167875
    outer loop
      vertex -10.8427 0.694463 0
      vertex -10.0961 0.243862 0
      vertex -10.0961 0.2253 0.0933218
    endloop
  endfacet
  facet normal -0.509386 -0.844003 -0.167883
    outer loop
      vertex -10.8427 0.694463 0
      vertex -10.0961 0.2253 0.0933218
      vertex -10.8427 0.6416 0.265759
    endloop
  endfacet
  facet normal -0.509388 0.844004 0.167875
    outer loop
      vertex -10.0961 -0.243862 0
      vertex -10.0961 -0.2253 -0.0933218
      vertex -10.8427 -0.694463 0
    endloop
  endfacet
  facet normal -0.509388 -0.844004 0.167875
    outer loop
      vertex -10.8427 0.694463 0
      vertex -10.0961 0.2253 -0.0933218
      vertex -10.0961 0.243862 0
    endloop
  endfacet
  facet normal -0.101044 -0.827213 -0.552728
    outer loop
      vertex -12.2221 0.960221 0.397737
      vertex -12.2221 0.734921 0.734921
      vertex -14.0245 0.866899 0.866899
    endloop
  endfacet
  facet normal -0.101044 -0.552728 -0.827213
    outer loop
      vertex -14.0245 0.866899 0.866899
      vertex -12.2221 0.734921 0.734921
      vertex -12.2221 0.397737 0.960221
    endloop
  endfacet
  facet normal -0.509386 -0.715511 -0.47809
    outer loop
      vertex -10.8427 0.6416 0.265759
      vertex -10.0961 0.2253 0.0933218
      vertex -10.8427 0.491059 0.491059
    endloop
  endfacet
  facet normal -0.238157 0.807544 0.539586
    outer loop
      vertex -10.8427 -0.491059 -0.491059
      vertex -12.2221 -0.734921 -0.734921
      vertex -12.2221 -0.960221 -0.397737
    endloop
  endfacet
  facet normal 0 0.831468 0.555573
    outer loop
      vertex -14.0245 -0.866899 -0.866899
      vertex -15.5 -1.13266 -0.469162
      vertex -14.0245 -1.13266 -0.469162
    endloop
  endfacet
  facet normal 0 0.831468 0.555573
    outer loop
      vertex -15.5 -1.13266 -0.469162
      vertex -14.0245 -0.866899 -0.866899
      vertex -15.5 -0.866899 -0.866899
    endloop
  endfacet
  facet normal -0.238157 0.952565 0.189478
    outer loop
      vertex -10.8427 -0.6416 -0.265759
      vertex -12.2221 -0.960221 -0.397737
      vertex -10.8427 -0.694463 0
    endloop
  endfacet
  facet normal -0.238157 0.807545 0.539585
    outer loop
      vertex -10.8427 -0.491059 -0.491059
      vertex -12.2221 -0.960221 -0.397737
      vertex -10.8427 -0.6416 -0.265759
    endloop
  endfacet
  facet normal -0.238157 -0.807544 -0.539586
    outer loop
      vertex -12.2221 0.960221 0.397737
      vertex -10.8427 0.491059 0.491059
      vertex -12.2221 0.734921 0.734921
    endloop
  endfacet
  facet normal -0.238157 -0.539586 -0.807544
    outer loop
      vertex -12.2221 0.734921 0.734921
      vertex -10.8427 0.491059 0.491059
      vertex -12.2221 0.397737 0.960221
    endloop
  endfacet
  facet normal -0.238159 -0.952562 -0.189486
    outer loop
      vertex -12.2221 1.03934 0
      vertex -10.8427 0.694463 0
      vertex -12.2221 0.960221 0.397737
    endloop
  endfacet
  facet normal -0.238157 -0.952565 -0.189478
    outer loop
      vertex -10.8427 0.694463 0
      vertex -10.8427 0.6416 0.265759
      vertex -12.2221 0.960221 0.397737
    endloop
  endfacet
  facet normal -0.101044 0.827213 0.552728
    outer loop
      vertex -12.2221 -0.734921 -0.734921
      vertex -14.0245 -0.866899 -0.866899
      vertex -12.2221 -0.960221 -0.397737
    endloop
  endfacet
  facet normal -0.101044 0.827213 0.552729
    outer loop
      vertex -14.0245 -0.866899 -0.866899
      vertex -14.0245 -1.13266 -0.469162
      vertex -12.2221 -0.960221 -0.397737
    endloop
  endfacet
  facet normal -0.238157 0.189478 0.952565
    outer loop
      vertex -10.8427 0 -0.694463
      vertex -12.2221 -0.397737 -0.960221
      vertex -10.8427 -0.265759 -0.6416
    endloop
  endfacet
  facet normal -0.238157 0.539585 0.807545
    outer loop
      vertex -10.8427 -0.265759 -0.6416
      vertex -12.2221 -0.397737 -0.960221
      vertex -10.8427 -0.491059 -0.491059
    endloop
  endfacet
endsolid OpenSCAD_Model
