solid OpenSCAD_Model
  facet normal 0.891007 -0 0.45399
    outer loop
      vertex 0.606762 -0.799999 0.440839
      vertex 0.713292 0 0.231762
      vertex 0.606762 0 0.440839
    endloop
  endfacet
  facet normal 0.891007 0 0.45399
    outer loop
      vertex 0.713292 0 0.231762
      vertex 0.606762 -0.799999 0.440839
      vertex 0.713292 -0.799999 0.231762
    endloop
  endfacet
  facet normal 0.987688 -0 0.156437
    outer loop
      vertex 0.713292 -0.799999 0.231762
      vertex 0.75 0 0
      vertex 0.713292 0 0.231762
    endloop
  endfacet
  facet normal 0.987688 0 0.156437
    outer loop
      vertex 0.75 0 0
      vertex 0.713292 -0.799999 0.231762
      vertex 0.75 -0.799999 0
    endloop
  endfacet
  facet normal 0.156437 0 -0.987688
    outer loop
      vertex 0 -0.799999 -0.75
      vertex 0.231762 0 -0.713292
      vertex 0.231762 -0.799999 -0.713292
    endloop
  endfacet
  facet normal 0.156437 0 -0.987688
    outer loop
      vertex 0.231762 0 -0.713292
      vertex 0 -0.799999 -0.75
      vertex 0 0 -0.75
    endloop
  endfacet
  facet normal 0.707107 -0 0.707107
    outer loop
      vertex 0.440839 -0.799999 0.606762
      vertex 0.606762 0 0.440839
      vertex 0.440839 0 0.606762
    endloop
  endfacet
  facet normal 0.707107 0 0.707107
    outer loop
      vertex 0.606762 0 0.440839
      vertex 0.440839 -0.799999 0.606762
      vertex 0.606762 -0.799999 0.440839
    endloop
  endfacet
  facet normal -0.45399 0 0.891007
    outer loop
      vertex -0.440839 0 0.606762
      vertex -0.231762 -0.799999 0.713292
      vertex -0.231762 0 0.713292
    endloop
  endfacet
  facet normal -0.45399 0 0.891007
    outer loop
      vertex -0.231762 -0.799999 0.713292
      vertex -0.440839 0 0.606762
      vertex -0.440839 -0.799999 0.606762
    endloop
  endfacet
  facet normal 0.707107 0 -0.707107
    outer loop
      vertex 0.606762 -0.799999 -0.440839
      vertex 0.440839 0 -0.606762
      vertex 0.606762 0 -0.440839
    endloop
  endfacet
  facet normal 0.707107 0 -0.707107
    outer loop
      vertex 0.440839 0 -0.606762
      vertex 0.606762 -0.799999 -0.440839
      vertex 0.440839 -0.799999 -0.606762
    endloop
  endfacet
  facet normal -0.987688 0 0.156437
    outer loop
      vertex -0.75 -0.799999 0
      vertex -0.713292 0 0.231762
      vertex -0.75 0 0
    endloop
  endfacet
  facet normal -0.987688 0 0.156437
    outer loop
      vertex -0.713292 0 0.231762
      vertex -0.75 -0.799999 0
      vertex -0.713292 -0.799999 0.231762
    endloop
  endfacet
  facet normal -0.156437 0 0.987688
    outer loop
      vertex -0.231762 0 0.713292
      vertex 0 -0.799999 0.75
      vertex 0 0 0.75
    endloop
  endfacet
  facet normal -0.156437 0 0.987688
    outer loop
      vertex 0 -0.799999 0.75
      vertex -0.231762 0 0.713292
      vertex -0.231762 -0.799999 0.713292
    endloop
  endfacet
  facet normal 0 1 0
    outer loop
      vertex 0.231762 0 0.713292
      vertex -0.231762 0 0.713292
      vertex 0 0 0.75
    endloop
  endfacet
  facet normal 0 1 0
    outer loop
      vertex 0.440839 0 0.606762
      vertex -0.231762 0 0.713292
      vertex 0.231762 0 0.713292
    endloop
  endfacet
  facet normal 0 1 0
    outer loop
      vertex 0.440839 0 0.606762
      vertex -0.440839 0 0.606762
      vertex -0.231762 0 0.713292
    endloop
  endfacet
  facet normal 0 1 0
    outer loop
      vertex 0.606762 0 0.440839
      vertex -0.440839 0 0.606762
      vertex 0.440839 0 0.606762
    endloop
  endfacet
  facet normal 0 1 0
    outer loop
      vertex 0.606762 0 0.440839
      vertex -0.606762 0 0.440839
      vertex -0.440839 0 0.606762
    endloop
  endfacet
  facet normal 0 1 0
    outer loop
      vertex 0.713292 0 0.231762
      vertex -0.606762 0 0.440839
      vertex 0.606762 0 0.440839
    endloop
  endfacet
  facet normal 0 1 0
    outer loop
      vertex 0.713292 0 0.231762
      vertex -0.713292 0 0.231762
      vertex -0.606762 0 0.440839
    endloop
  endfacet
  facet normal 0 1 0
    outer loop
      vertex 0.75 0 0
      vertex -0.713292 0 0.231762
      vertex 0.713292 0 0.231762
    endloop
  endfacet
  facet normal 0 1 0
    outer loop
      vertex 0.75 0 0
      vertex -0.75 0 0
      vertex -0.713292 0 0.231762
    endloop
  endfacet
  facet normal 0 1 -0
    outer loop
      vertex 0.713292 0 -0.231762
      vertex -0.75 0 0
      vertex 0.75 0 0
    endloop
  endfacet
  facet normal 0 1 0
    outer loop
      vertex 0.713292 0 -0.231762
      vertex -0.713292 0 -0.231762
      vertex -0.75 0 0
    endloop
  endfacet
  facet normal 0 1 -0
    outer loop
      vertex 0.606762 0 -0.440839
      vertex -0.713292 0 -0.231762
      vertex 0.713292 0 -0.231762
    endloop
  endfacet
  facet normal 0 1 0
    outer loop
      vertex 0.606762 0 -0.440839
      vertex -0.606762 0 -0.440839
      vertex -0.713292 0 -0.231762
    endloop
  endfacet
  facet normal 0 1 -0
    outer loop
      vertex 0.440839 0 -0.606762
      vertex -0.606762 0 -0.440839
      vertex 0.606762 0 -0.440839
    endloop
  endfacet
  facet normal 0 1 0
    outer loop
      vertex 0.440839 0 -0.606762
      vertex -0.440839 0 -0.606762
      vertex -0.606762 0 -0.440839
    endloop
  endfacet
  facet normal 0 1 -0
    outer loop
      vertex 0.231762 0 -0.713292
      vertex -0.440839 0 -0.606762
      vertex 0.440839 0 -0.606762
    endloop
  endfacet
  facet normal 0 1 0
    outer loop
      vertex 0.231762 0 -0.713292
      vertex -0.231762 0 -0.713292
      vertex -0.440839 0 -0.606762
    endloop
  endfacet
  facet normal -0 1 0
    outer loop
      vertex -0.231762 0 -0.713292
      vertex 0.231762 0 -0.713292
      vertex 0 0 -0.75
    endloop
  endfacet
  facet normal -0.156437 0 -0.987688
    outer loop
      vertex -0.231762 -0.799999 -0.713292
      vertex 0 0 -0.75
      vertex 0 -0.799999 -0.75
    endloop
  endfacet
  facet normal -0.156437 0 -0.987688
    outer loop
      vertex 0 0 -0.75
      vertex -0.231762 -0.799999 -0.713292
      vertex -0.231762 0 -0.713292
    endloop
  endfacet
  facet normal 0.45399 0 -0.891007
    outer loop
      vertex 0.231762 -0.799999 -0.713292
      vertex 0.440839 0 -0.606762
      vertex 0.440839 -0.799999 -0.606762
    endloop
  endfacet
  facet normal 0.45399 0 -0.891007
    outer loop
      vertex 0.440839 0 -0.606762
      vertex 0.231762 -0.799999 -0.713292
      vertex 0.231762 0 -0.713292
    endloop
  endfacet
  facet normal -0.987688 0 -0.156437
    outer loop
      vertex -0.713292 -0.799999 -0.231762
      vertex -0.75 0 0
      vertex -0.713292 0 -0.231762
    endloop
  endfacet
  facet normal -0.987688 -0 -0.156437
    outer loop
      vertex -0.75 0 0
      vertex -0.713292 -0.799999 -0.231762
      vertex -0.75 -0.799999 0
    endloop
  endfacet
  facet normal 0.891007 0 -0.45399
    outer loop
      vertex 0.713292 -0.799999 -0.231762
      vertex 0.606762 0 -0.440839
      vertex 0.713292 0 -0.231762
    endloop
  endfacet
  facet normal 0.891007 0 -0.45399
    outer loop
      vertex 0.606762 0 -0.440839
      vertex 0.713292 -0.799999 -0.231762
      vertex 0.606762 -0.799999 -0.440839
    endloop
  endfacet
  facet normal 0.156437 0 0.987688
    outer loop
      vertex 0 0 0.75
      vertex 0.231762 -0.799999 0.713292
      vertex 0.231762 0 0.713292
    endloop
  endfacet
  facet normal 0.156437 0 0.987688
    outer loop
      vertex 0.231762 -0.799999 0.713292
      vertex 0 0 0.75
      vertex 0 -0.799999 0.75
    endloop
  endfacet
  facet normal 0.45399 0 0.891007
    outer loop
      vertex 0.231762 0 0.713292
      vertex 0.440839 -0.799999 0.606762
      vertex 0.440839 0 0.606762
    endloop
  endfacet
  facet normal 0.45399 0 0.891007
    outer loop
      vertex 0.440839 -0.799999 0.606762
      vertex 0.231762 0 0.713292
      vertex 0.231762 -0.799999 0.713292
    endloop
  endfacet
  facet normal -0.891007 0 -0.45399
    outer loop
      vertex -0.606762 -0.799999 -0.440839
      vertex -0.713292 0 -0.231762
      vertex -0.606762 0 -0.440839
    endloop
  endfacet
  facet normal -0.891007 -0 -0.45399
    outer loop
      vertex -0.713292 0 -0.231762
      vertex -0.606762 -0.799999 -0.440839
      vertex -0.713292 -0.799999 -0.231762
    endloop
  endfacet
  facet normal -0.707107 0 -0.707107
    outer loop
      vertex -0.440839 -0.799999 -0.606762
      vertex -0.606762 0 -0.440839
      vertex -0.440839 0 -0.606762
    endloop
  endfacet
  facet normal -0.707107 -0 -0.707107
    outer loop
      vertex -0.606762 0 -0.440839
      vertex -0.440839 -0.799999 -0.606762
      vertex -0.606762 -0.799999 -0.440839
    endloop
  endfacet
  facet normal 0 1 0
    outer loop
      vertex 0 -0.799999 0.75
      vertex 0 -0.799999 1.75
      vertex 0.540779 -0.799999 1.66435
    endloop
  endfacet
  facet normal 0 1 0
    outer loop
      vertex 0.231762 -0.799999 0.713292
      vertex 0.540779 -0.799999 1.66435
      vertex 1.02862 -0.799999 1.41578
    endloop
  endfacet
  facet normal 0 1 0
    outer loop
      vertex 0 -0.799999 1.75
      vertex 0 -0.799999 0.75
      vertex -0.540779 -0.799999 1.66435
    endloop
  endfacet
  facet normal 0 1 0
    outer loop
      vertex 0.440839 -0.799999 0.606762
      vertex 1.02862 -0.799999 1.41578
      vertex 1.41578 -0.799999 1.02862
    endloop
  endfacet
  facet normal 0 1 -0
    outer loop
      vertex -0.231762 -0.799999 0.713292
      vertex -0.540779 -0.799999 1.66435
      vertex 0 -0.799999 0.75
    endloop
  endfacet
  facet normal 0 1 0
    outer loop
      vertex -0.540779 -0.799999 1.66435
      vertex -0.231762 -0.799999 0.713292
      vertex -1.02862 -0.799999 1.41578
    endloop
  endfacet
  facet normal 0 1 0
    outer loop
      vertex 0.540779 -0.799999 1.66435
      vertex 0.231762 -0.799999 0.713292
      vertex 0 -0.799999 0.75
    endloop
  endfacet
  facet normal 0 1 0
    outer loop
      vertex 1.02862 -0.799999 1.41578
      vertex 0.440839 -0.799999 0.606762
      vertex 0.231762 -0.799999 0.713292
    endloop
  endfacet
  facet normal 0 1 0
    outer loop
      vertex 0.606762 -0.799999 0.440839
      vertex 1.41578 -0.799999 1.02862
      vertex 1.66435 -0.799999 0.540779
    endloop
  endfacet
  facet normal 0 1 0
    outer loop
      vertex 1.41578 -0.799999 1.02862
      vertex 0.606762 -0.799999 0.440839
      vertex 0.440839 -0.799999 0.606762
    endloop
  endfacet
  facet normal 0 1 0
    outer loop
      vertex 1.66435 -0.799999 0.540779
      vertex 0.713292 -0.799999 0.231762
      vertex 0.606762 -0.799999 0.440839
    endloop
  endfacet
  facet normal 0 1 0
    outer loop
      vertex 1.75 -0.799999 0
      vertex 0.713292 -0.799999 0.231762
      vertex 1.66435 -0.799999 0.540779
    endloop
  endfacet
  facet normal 0 1 0
    outer loop
      vertex 1.75 -0.799999 0
      vertex 0.75 -0.799999 0
      vertex 0.713292 -0.799999 0.231762
    endloop
  endfacet
  facet normal 0 1 0
    outer loop
      vertex 1.75 -0.799999 0
      vertex 0.713292 -0.799999 -0.231762
      vertex 0.75 -0.799999 0
    endloop
  endfacet
  facet normal 0 1 -0
    outer loop
      vertex 1.66435 -0.799999 -0.540779
      vertex 0.713292 -0.799999 -0.231762
      vertex 1.75 -0.799999 0
    endloop
  endfacet
  facet normal 0 1 0
    outer loop
      vertex 0.713292 -0.799999 -0.231762
      vertex 1.66435 -0.799999 -0.540779
      vertex 0.606762 -0.799999 -0.440839
    endloop
  endfacet
  facet normal 0 1 -0
    outer loop
      vertex 1.41578 -0.799999 -1.02862
      vertex 0.606762 -0.799999 -0.440839
      vertex 1.66435 -0.799999 -0.540779
    endloop
  endfacet
  facet normal 0 1 0
    outer loop
      vertex 0.606762 -0.799999 -0.440839
      vertex 1.41578 -0.799999 -1.02862
      vertex 0.440839 -0.799999 -0.606762
    endloop
  endfacet
  facet normal 0 1 -0
    outer loop
      vertex 1.02862 -0.799999 -1.41578
      vertex 0.440839 -0.799999 -0.606762
      vertex 1.41578 -0.799999 -1.02862
    endloop
  endfacet
  facet normal 0 1 0
    outer loop
      vertex 0.440839 -0.799999 -0.606762
      vertex 1.02862 -0.799999 -1.41578
      vertex 0.231762 -0.799999 -0.713292
    endloop
  endfacet
  facet normal 0 1 -0
    outer loop
      vertex -0.440839 -0.799999 0.606762
      vertex -1.02862 -0.799999 1.41578
      vertex -0.231762 -0.799999 0.713292
    endloop
  endfacet
  facet normal 0 1 0
    outer loop
      vertex -1.02862 -0.799999 1.41578
      vertex -0.440839 -0.799999 0.606762
      vertex -1.41578 -0.799999 1.02862
    endloop
  endfacet
  facet normal 0 1 -0
    outer loop
      vertex -0.606762 -0.799999 0.440839
      vertex -1.41578 -0.799999 1.02862
      vertex -0.440839 -0.799999 0.606762
    endloop
  endfacet
  facet normal 0 1 0
    outer loop
      vertex -1.41578 -0.799999 1.02862
      vertex -0.606762 -0.799999 0.440839
      vertex -1.66435 -0.799999 0.540779
    endloop
  endfacet
  facet normal 0 1 -0
    outer loop
      vertex -0.713292 -0.799999 0.231762
      vertex -1.66435 -0.799999 0.540779
      vertex -0.606762 -0.799999 0.440839
    endloop
  endfacet
  facet normal 0 1 -0
    outer loop
      vertex -0.75 -0.799999 0
      vertex -1.66435 -0.799999 0.540779
      vertex -0.713292 -0.799999 0.231762
    endloop
  endfacet
  facet normal 0 1 0
    outer loop
      vertex -0.75 -0.799999 0
      vertex -1.75 -0.799999 0
      vertex -1.66435 -0.799999 0.540779
    endloop
  endfacet
  facet normal 0 1 0
    outer loop
      vertex -0.713292 -0.799999 -0.231762
      vertex -1.75 -0.799999 0
      vertex -0.75 -0.799999 0
    endloop
  endfacet
  facet normal 0 1 0
    outer loop
      vertex -1.66435 -0.799999 -0.540779
      vertex -0.713292 -0.799999 -0.231762
      vertex -0.606762 -0.799999 -0.440839
    endloop
  endfacet
  facet normal 0 1 0
    outer loop
      vertex -0.713292 -0.799999 -0.231762
      vertex -1.66435 -0.799999 -0.540779
      vertex -1.75 -0.799999 0
    endloop
  endfacet
  facet normal 0 1 0
    outer loop
      vertex -1.41578 -0.799999 -1.02862
      vertex -0.606762 -0.799999 -0.440839
      vertex -0.440839 -0.799999 -0.606762
    endloop
  endfacet
  facet normal 0 1 0
    outer loop
      vertex -1.02862 -0.799999 -1.41578
      vertex -0.440839 -0.799999 -0.606762
      vertex -0.231762 -0.799999 -0.713292
    endloop
  endfacet
  facet normal 0 1 0
    outer loop
      vertex -0.540779 -0.799999 -1.66435
      vertex -0.231762 -0.799999 -0.713292
      vertex 0 -0.799999 -0.75
    endloop
  endfacet
  facet normal 0 1 -0
    outer loop
      vertex 0.540779 -0.799999 -1.66435
      vertex 0.231762 -0.799999 -0.713292
      vertex 1.02862 -0.799999 -1.41578
    endloop
  endfacet
  facet normal 0 1 0
    outer loop
      vertex -0.606762 -0.799999 -0.440839
      vertex -1.41578 -0.799999 -1.02862
      vertex -1.66435 -0.799999 -0.540779
    endloop
  endfacet
  facet normal 0 1 0
    outer loop
      vertex 0.231762 -0.799999 -0.713292
      vertex 0.540779 -0.799999 -1.66435
      vertex 0 -0.799999 -0.75
    endloop
  endfacet
  facet normal 0 1 0
    outer loop
      vertex -0.440839 -0.799999 -0.606762
      vertex -1.02862 -0.799999 -1.41578
      vertex -1.41578 -0.799999 -1.02862
    endloop
  endfacet
  facet normal 0 1 0
    outer loop
      vertex 0 -0.799999 -1.75
      vertex 0 -0.799999 -0.75
      vertex 0.540779 -0.799999 -1.66435
    endloop
  endfacet
  facet normal 0 1 0
    outer loop
      vertex -0.231762 -0.799999 -0.713292
      vertex -0.540779 -0.799999 -1.66435
      vertex -1.02862 -0.799999 -1.41578
    endloop
  endfacet
  facet normal 0 1 0
    outer loop
      vertex 0 -0.799999 -0.75
      vertex 0 -0.799999 -1.75
      vertex -0.540779 -0.799999 -1.66435
    endloop
  endfacet
  facet normal -0.707107 0 0.707107
    outer loop
      vertex -0.606762 -0.799999 0.440839
      vertex -0.440839 0 0.606762
      vertex -0.606762 0 0.440839
    endloop
  endfacet
  facet normal -0.707107 0 0.707107
    outer loop
      vertex -0.440839 0 0.606762
      vertex -0.606762 -0.799999 0.440839
      vertex -0.440839 -0.799999 0.606762
    endloop
  endfacet
  facet normal -0.45399 0 -0.891007
    outer loop
      vertex -0.440839 -0.799999 -0.606762
      vertex -0.231762 0 -0.713292
      vertex -0.231762 -0.799999 -0.713292
    endloop
  endfacet
  facet normal -0.45399 0 -0.891007
    outer loop
      vertex -0.231762 0 -0.713292
      vertex -0.440839 -0.799999 -0.606762
      vertex -0.440839 0 -0.606762
    endloop
  endfacet
  facet normal 0.987688 0 -0.156437
    outer loop
      vertex 0.75 -0.799999 0
      vertex 0.713292 0 -0.231762
      vertex 0.75 0 0
    endloop
  endfacet
  facet normal 0.987688 0 -0.156437
    outer loop
      vertex 0.713292 0 -0.231762
      vertex 0.75 -0.799999 0
      vertex 0.713292 -0.799999 -0.231762
    endloop
  endfacet
  facet normal -0.891007 0 0.45399
    outer loop
      vertex -0.713292 -0.799999 0.231762
      vertex -0.606762 0 0.440839
      vertex -0.713292 0 0.231762
    endloop
  endfacet
  facet normal -0.891007 0 0.45399
    outer loop
      vertex -0.606762 0 0.440839
      vertex -0.713292 -0.799999 0.231762
      vertex -0.606762 -0.799999 0.440839
    endloop
  endfacet
  facet normal 0.891005 -0 0.453994
    outer loop
      vertex 1.41578 -2.8 1.02862
      vertex 1.66435 -0.799999 0.540779
      vertex 1.41578 -0.799999 1.02862
    endloop
  endfacet
  facet normal 0.891005 0 0.453994
    outer loop
      vertex 1.66435 -0.799999 0.540779
      vertex 1.41578 -2.8 1.02862
      vertex 1.66435 -2.8 0.540779
    endloop
  endfacet
  facet normal 0.987689 -0 0.156433
    outer loop
      vertex 1.66435 -2.8 0.540779
      vertex 1.75 -0.799999 0
      vertex 1.66435 -0.799999 0.540779
    endloop
  endfacet
  facet normal 0.987689 0 0.156433
    outer loop
      vertex 1.75 -0.799999 0
      vertex 1.66435 -2.8 0.540779
      vertex 1.75 -2.8 0
    endloop
  endfacet
  facet normal 0.707107 -0 0.707107
    outer loop
      vertex 1.02862 -2.8 1.41578
      vertex 1.41578 -0.799999 1.02862
      vertex 1.02862 -0.799999 1.41578
    endloop
  endfacet
  facet normal 0.707107 0 0.707107
    outer loop
      vertex 1.41578 -0.799999 1.02862
      vertex 1.02862 -2.8 1.41578
      vertex 1.41578 -2.8 1.02862
    endloop
  endfacet
  facet normal -0.156433 0 -0.987689
    outer loop
      vertex -0.540779 -2.8 -1.66435
      vertex 0 -0.799999 -1.75
      vertex 0 -2.8 -1.75
    endloop
  endfacet
  facet normal -0.156433 0 -0.987689
    outer loop
      vertex 0 -0.799999 -1.75
      vertex -0.540779 -2.8 -1.66435
      vertex -0.540779 -0.799999 -1.66435
    endloop
  endfacet
  facet normal -0.156433 0 0.987689
    outer loop
      vertex -0.540779 -0.799999 1.66435
      vertex 0 -2.8 1.75
      vertex 0 -0.799999 1.75
    endloop
  endfacet
  facet normal -0.156433 0 0.987689
    outer loop
      vertex 0 -2.8 1.75
      vertex -0.540779 -0.799999 1.66435
      vertex -0.540779 -2.8 1.66435
    endloop
  endfacet
  facet normal 0.156433 0 0.987689
    outer loop
      vertex 0 -0.799999 1.75
      vertex 0.540779 -2.8 1.66435
      vertex 0.540779 -0.799999 1.66435
    endloop
  endfacet
  facet normal 0.156433 0 0.987689
    outer loop
      vertex 0.540779 -2.8 1.66435
      vertex 0 -0.799999 1.75
      vertex 0 -2.8 1.75
    endloop
  endfacet
  facet normal -0.987689 0 0.156433
    outer loop
      vertex -1.75 -2.8 0
      vertex -1.66435 -0.799999 0.540779
      vertex -1.75 -0.799999 0
    endloop
  endfacet
  facet normal -0.987689 0 0.156433
    outer loop
      vertex -1.66435 -0.799999 0.540779
      vertex -1.75 -2.8 0
      vertex -1.66435 -2.8 0.540779
    endloop
  endfacet
  facet normal 0.891005 0 -0.453994
    outer loop
      vertex 1.66435 -2.8 -0.540779
      vertex 1.41578 -0.799999 -1.02862
      vertex 1.66435 -0.799999 -0.540779
    endloop
  endfacet
  facet normal 0.891005 0 -0.453994
    outer loop
      vertex 1.41578 -0.799999 -1.02862
      vertex 1.66435 -2.8 -0.540779
      vertex 1.41578 -2.8 -1.02862
    endloop
  endfacet
  facet normal -0.453994 0 0.891005
    outer loop
      vertex -1.02862 -0.799999 1.41578
      vertex -0.540779 -2.8 1.66435
      vertex -0.540779 -0.799999 1.66435
    endloop
  endfacet
  facet normal -0.453994 0 0.891005
    outer loop
      vertex -0.540779 -2.8 1.66435
      vertex -1.02862 -0.799999 1.41578
      vertex -1.02862 -2.8 1.41578
    endloop
  endfacet
  facet normal 0.453994 0 0.891005
    outer loop
      vertex 0.540779 -0.799999 1.66435
      vertex 1.02862 -2.8 1.41578
      vertex 1.02862 -0.799999 1.41578
    endloop
  endfacet
  facet normal 0.453994 0 0.891005
    outer loop
      vertex 1.02862 -2.8 1.41578
      vertex 0.540779 -0.799999 1.66435
      vertex 0.540779 -2.8 1.66435
    endloop
  endfacet
  facet normal -0.987689 0 -0.156433
    outer loop
      vertex -1.66435 -2.8 -0.540779
      vertex -1.75 -0.799999 0
      vertex -1.66435 -0.799999 -0.540779
    endloop
  endfacet
  facet normal -0.987689 -0 -0.156433
    outer loop
      vertex -1.75 -0.799999 0
      vertex -1.66435 -2.8 -0.540779
      vertex -1.75 -2.8 0
    endloop
  endfacet
  facet normal 0.707107 0 -0.707107
    outer loop
      vertex 1.41578 -2.8 -1.02862
      vertex 1.02862 -0.799999 -1.41578
      vertex 1.41578 -0.799999 -1.02862
    endloop
  endfacet
  facet normal 0.707107 0 -0.707107
    outer loop
      vertex 1.02862 -0.799999 -1.41578
      vertex 1.41578 -2.8 -1.02862
      vertex 1.02862 -2.8 -1.41578
    endloop
  endfacet
  facet normal -0.891005 0 -0.453994
    outer loop
      vertex -1.41578 -2.8 -1.02862
      vertex -1.66435 -0.799999 -0.540779
      vertex -1.41578 -0.799999 -1.02862
    endloop
  endfacet
  facet normal -0.891005 -0 -0.453994
    outer loop
      vertex -1.66435 -0.799999 -0.540779
      vertex -1.41578 -2.8 -1.02862
      vertex -1.66435 -2.8 -0.540779
    endloop
  endfacet
  facet normal 0.453994 0 -0.891005
    outer loop
      vertex 0.540779 -2.8 -1.66435
      vertex 1.02862 -0.799999 -1.41578
      vertex 1.02862 -2.8 -1.41578
    endloop
  endfacet
  facet normal 0.453994 0 -0.891005
    outer loop
      vertex 1.02862 -0.799999 -1.41578
      vertex 0.540779 -2.8 -1.66435
      vertex 0.540779 -0.799999 -1.66435
    endloop
  endfacet
  facet normal 0.156433 0 -0.987689
    outer loop
      vertex 0 -2.8 -1.75
      vertex 0.540779 -0.799999 -1.66435
      vertex 0.540779 -2.8 -1.66435
    endloop
  endfacet
  facet normal 0.156433 0 -0.987689
    outer loop
      vertex 0.540779 -0.799999 -1.66435
      vertex 0 -2.8 -1.75
      vertex 0 -0.799999 -1.75
    endloop
  endfacet
  facet normal -0.891005 0 0.453994
    outer loop
      vertex -1.66435 -2.8 0.540779
      vertex -1.41578 -0.799999 1.02862
      vertex -1.66435 -0.799999 0.540779
    endloop
  endfacet
  facet normal -0.891005 0 0.453994
    outer loop
      vertex -1.41578 -0.799999 1.02862
      vertex -1.66435 -2.8 0.540779
      vertex -1.41578 -2.8 1.02862
    endloop
  endfacet
  facet normal -0.707107 0 0.707107
    outer loop
      vertex -1.41578 -2.8 1.02862
      vertex -1.02862 -0.799999 1.41578
      vertex -1.41578 -0.799999 1.02862
    endloop
  endfacet
  facet normal -0.707107 0 0.707107
    outer loop
      vertex -1.02862 -0.799999 1.41578
      vertex -1.41578 -2.8 1.02862
      vertex -1.02862 -2.8 1.41578
    endloop
  endfacet
  facet normal 0 -1 0
    outer loop
      vertex -0.540779 -2.8 1.66435
      vertex 0.540779 -2.8 1.66435
      vertex 0 -2.8 1.75
    endloop
  endfacet
  facet normal 0 -1 0
    outer loop
      vertex -1.02862 -2.8 1.41578
      vertex 0.540779 -2.8 1.66435
      vertex -0.540779 -2.8 1.66435
    endloop
  endfacet
  facet normal 0 -1 0
    outer loop
      vertex -1.02862 -2.8 1.41578
      vertex 1.02862 -2.8 1.41578
      vertex 0.540779 -2.8 1.66435
    endloop
  endfacet
  facet normal 0 -1 0
    outer loop
      vertex -1.41578 -2.8 1.02862
      vertex 1.02862 -2.8 1.41578
      vertex -1.02862 -2.8 1.41578
    endloop
  endfacet
  facet normal 0 -1 0
    outer loop
      vertex -1.41578 -2.8 1.02862
      vertex 1.41578 -2.8 1.02862
      vertex 1.02862 -2.8 1.41578
    endloop
  endfacet
  facet normal 0 -1 0
    outer loop
      vertex -1.66435 -2.8 0.540779
      vertex 1.41578 -2.8 1.02862
      vertex -1.41578 -2.8 1.02862
    endloop
  endfacet
  facet normal 0 -1 0
    outer loop
      vertex -1.66435 -2.8 0.540779
      vertex 1.66435 -2.8 0.540779
      vertex 1.41578 -2.8 1.02862
    endloop
  endfacet
  facet normal 0 -1 0
    outer loop
      vertex -1.75 -2.8 0
      vertex 1.66435 -2.8 0.540779
      vertex -1.66435 -2.8 0.540779
    endloop
  endfacet
  facet normal 0 -1 0
    outer loop
      vertex -1.75 -2.8 0
      vertex 1.75 -2.8 0
      vertex 1.66435 -2.8 0.540779
    endloop
  endfacet
  facet normal 0 -1 0
    outer loop
      vertex -1.66435 -2.8 -0.540779
      vertex 1.75 -2.8 0
      vertex -1.75 -2.8 0
    endloop
  endfacet
  facet normal 0 -1 0
    outer loop
      vertex -1.66435 -2.8 -0.540779
      vertex 1.66435 -2.8 -0.540779
      vertex 1.75 -2.8 0
    endloop
  endfacet
  facet normal 0 -1 0
    outer loop
      vertex -1.41578 -2.8 -1.02862
      vertex 1.66435 -2.8 -0.540779
      vertex -1.66435 -2.8 -0.540779
    endloop
  endfacet
  facet normal 0 -1 0
    outer loop
      vertex -1.41578 -2.8 -1.02862
      vertex 1.41578 -2.8 -1.02862
      vertex 1.66435 -2.8 -0.540779
    endloop
  endfacet
  facet normal 0 -1 0
    outer loop
      vertex -1.02862 -2.8 -1.41578
      vertex 1.41578 -2.8 -1.02862
      vertex -1.41578 -2.8 -1.02862
    endloop
  endfacet
  facet normal 0 -1 0
    outer loop
      vertex -1.02862 -2.8 -1.41578
      vertex 1.02862 -2.8 -1.41578
      vertex 1.41578 -2.8 -1.02862
    endloop
  endfacet
  facet normal 0 -1 0
    outer loop
      vertex -0.540779 -2.8 -1.66435
      vertex 1.02862 -2.8 -1.41578
      vertex -1.02862 -2.8 -1.41578
    endloop
  endfacet
  facet normal 0 -1 0
    outer loop
      vertex -0.540779 -2.8 -1.66435
      vertex 0.540779 -2.8 -1.66435
      vertex 1.02862 -2.8 -1.41578
    endloop
  endfacet
  facet normal -0 -1 0
    outer loop
      vertex 0.540779 -2.8 -1.66435
      vertex -0.540779 -2.8 -1.66435
      vertex 0 -2.8 -1.75
    endloop
  endfacet
  facet normal 0.987689 0 -0.156433
    outer loop
      vertex 1.75 -2.8 0
      vertex 1.66435 -0.799999 -0.540779
      vertex 1.75 -0.799999 0
    endloop
  endfacet
  facet normal 0.987689 0 -0.156433
    outer loop
      vertex 1.66435 -0.799999 -0.540779
      vertex 1.75 -2.8 0
      vertex 1.66435 -2.8 -0.540779
    endloop
  endfacet
  facet normal -0.707107 0 -0.707107
    outer loop
      vertex -1.02862 -2.8 -1.41578
      vertex -1.41578 -0.799999 -1.02862
      vertex -1.02862 -0.799999 -1.41578
    endloop
  endfacet
  facet normal -0.707107 -0 -0.707107
    outer loop
      vertex -1.41578 -0.799999 -1.02862
      vertex -1.02862 -2.8 -1.41578
      vertex -1.41578 -2.8 -1.02862
    endloop
  endfacet
  facet normal -0.453994 0 -0.891005
    outer loop
      vertex -1.02862 -2.8 -1.41578
      vertex -0.540779 -0.799999 -1.66435
      vertex -0.540779 -2.8 -1.66435
    endloop
  endfacet
  facet normal -0.453994 0 -0.891005
    outer loop
      vertex -0.540779 -0.799999 -1.66435
      vertex -1.02862 -2.8 -1.41578
      vertex -1.02862 -0.799999 -1.41578
    endloop
  endfacet
endsolid OpenSCAD_Model
